<?xml version="1.0" encoding="UTF-8"?><svg id="Layer_2" xmlns="http://www.w3.org/2000/svg" viewBox="0 0 108.59 450.31"><defs><style>.cls-1{fill:#b5aa77;}.cls-2{fill:#caccb6;}.cls-3{fill:#afa05f;}.cls-4{fill:#f1f4e5;}.cls-5{fill:#c9bd84;}.cls-6{fill:#b5b7a3;}.cls-7{fill:#9d9055;}.cls-8{fill:#d8dbce;}</style></defs><g id="Layer_3"><path class="cls-5" d="M16.41,200.35c.01,5.64,.13,10.58,.32,14.13,.24,3.68,.53,7.38,.84,11.08,.32,3.71,.68,7.42,1.05,11.14,.38,3.87,.73,7.76,1.07,11.63,.34,3.89,.67,7.77,1.01,11.64,1.19,31.16,8.34,60.91,16,90.71,1.08,4.26,2.19,8.52,3.29,12.78,2.22,7.03,3.98,14.18,5.55,21.4,.87,4.1,1.8,8.96,2.8,14.14h0c4.3,22.38,9.79,50.82,16.19,50.82,7.97,0,9.7-16.38,10.14-35.59,.38-15.82-.14-33.57,1.24-45.67,.19-3.92,.42-7.83,.67-11.76,.52-8.69,1.03-17.37,1.55-26.03,.25-4.33,.5-8.64,.77-12.97,.26-39.81,4.05-81.45,7.65-121.38,.32-4.59,.53-7.91,.61-9.46-.97,2.25-3.13,4.4-5.97,6.42-6.26,4.41-15.78,8.07-23.02,10.09-3.52,.98-6.5,1.58-8.31,1.69-9.79,.91-18.62-5.4-22.68-14.34-.66-1.21-1.27-2.43-1.84-3.68-.78-1.65-1.49-3.33-2.14-5.05-2.3-5.98-3.97-12.24-5.53-18.46-.19,2.86-.35,5.89-.5,8.99-.15,3.09-.29,6.27-.4,9.44-1.92,6.35-.66,11.39-.33,18.28"/><path class="cls-3" d="M16.41,200.35h-.5c.01,5.65,.13,10.6,.32,14.16h0c.24,3.69,.53,7.39,.84,11.09,.32,3.71,.68,7.42,1.05,11.15,.38,3.87,.73,7.75,1.07,11.63,.34,3.88,.67,7.77,1.01,11.64l.5-.04-.5,.02c1.19,31.23,8.35,61.01,16.01,90.81,1.09,4.26,2.2,8.52,3.29,12.78v.02h0c2.21,7.02,3.96,14.16,5.54,21.36h0c.87,4.09,1.8,8.94,2.8,14.13l.49-.1h-.5v.11c2.16,11.18,4.61,23.89,7.33,33.83,1.36,4.97,2.78,9.24,4.29,12.31,.75,1.53,1.53,2.77,2.35,3.65,.82,.87,1.72,1.42,2.72,1.42,1.08,0,2.08-.28,2.96-.81,1.55-.93,2.75-2.58,3.7-4.74,1.43-3.25,2.35-7.72,2.95-12.96,.6-5.24,.88-11.25,1.03-17.56,.38-15.84-.14-33.59,1.23-45.62h0v-.03c.19-3.92,.42-7.83,.67-11.75,.52-8.69,1.03-17.37,1.55-26.03,.25-4.33,.5-8.64,.77-12.97h0v-.03c.26-39.79,4.05-81.4,7.64-121.33h0c.32-4.6,.53-7.92,.61-9.48l.13-2.75-1.09,2.53c-.91,2.11-3,4.22-5.8,6.21-6.17,4.36-15.67,8.01-22.87,10.02-3.5,.98-6.46,1.57-8.21,1.67h-.02c-.61,.06-1.22,.09-1.83,.09-8.8,0-16.62-5.92-20.35-14.14v-.02h-.02c-.65-1.22-1.26-2.43-1.83-3.67h0c-.78-1.65-1.48-3.31-2.13-5.02-2.28-5.95-3.96-12.19-5.51-18.4l-.77-3.09-.21,3.18c-.19,2.87-.35,5.9-.51,9-.15,3.09-.29,6.27-.4,9.44l.5,.02-.48-.15c-.8,2.66-1.06,5.1-1.06,7.52,0,3.47,.52,6.9,.71,10.93l.5-.02h0l.5-.02c-.2-4.09-.71-7.51-.71-10.88,0-2.35,.25-4.68,1.02-7.23l.02-.06v-.06c.12-3.16,.25-6.34,.4-9.43,.15-3.1,.32-6.13,.5-8.99l-.5-.03-.49,.12c1.55,6.23,3.24,12.5,5.54,18.51,.66,1.72,1.37,3.42,2.16,5.08l.45-.21-.46,.21c.57,1.26,1.2,2.5,1.86,3.71l.44-.24-.46,.21c3.87,8.52,12,14.72,21.27,14.72,.64,0,1.28-.03,1.92-.09l-.05-.5,.03,.5c1.88-.12,4.87-.72,8.42-1.71,7.28-2.03,16.83-5.69,23.18-10.16,2.88-2.05,5.1-4.25,6.14-6.63l-.46-.2-.5-.02c-.08,1.54-.29,4.86-.6,9.45l.5,.03-.5-.05c-3.6,39.93-7.38,81.57-7.65,121.42h.5l-.5-.03c-.26,4.33-.52,8.64-.77,12.97-.52,8.65-1.04,17.33-1.55,26.03-.25,3.92-.48,7.84-.67,11.76l.5,.02-.5-.06c-1.38,12.16-.86,29.91-1.24,45.71-.22,9.59-.77,18.47-2.24,24.9-.73,3.21-1.7,5.81-2.93,7.55-.61,.87-1.29,1.54-2.03,1.98-.74,.44-1.54,.67-2.45,.67-.6,0-1.27-.34-1.99-1.11-1.26-1.34-2.56-3.89-3.8-7.25-3.74-10.08-7.08-27.37-9.9-42.05l-.49,.1h.5v-.11c-1.01-5.18-1.94-10.04-2.81-14.15h0c-1.58-7.23-3.34-14.4-5.56-21.44l-.48,.15,.48-.12c-1.1-4.27-2.21-8.52-3.29-12.78-7.66-29.8-14.8-59.51-15.98-90.6h0v-.03c-.34-3.87-.67-7.76-1.01-11.64-.34-3.87-.69-7.76-1.07-11.64-.37-3.72-.73-7.43-1.05-11.13-.32-3.7-.6-7.39-.84-11.07l-.5,.03,.5-.03c-.19-3.53-.3-8.47-.31-14.1h0v-.02l-.5,.02"/><path class="cls-1" d="M17.95,166.87c-.11,1.88-.21,3.82-.31,5.79-.15,3.09-.29,6.26-.4,9.43v.06l-.02,.06c-.77,2.55-1.02,4.88-1.02,7.23,0,3.37,.51,6.79,.71,10.88h0v.02c.01,5.63,.13,10.57,.31,14.1h0c.24,3.68,.53,7.37,.84,11.07,.32,3.7,.68,7.41,1.05,11.13,.38,3.88,.73,7.76,1.07,11.64,.34,3.89,.67,7.77,1.01,11.64h0v.03c1.18,31.1,8.32,60.81,15.98,90.6,1.08,4.26,2.19,8.51,3.29,12.77,2.22,7.04,3.98,14.2,5.56,21.42h0c.66,3.11,1.36,6.65,2.09,10.44-.73-11.89-1.73-23.63-2.97-29.24-3.03-13.62-7.57-35.42-15.52-67.77-7.95-32.33-7.19-59.09-5.98-87.55,.33-7.61,.9-15.3,1.57-22.48-.52-1.08-1.01-2.18-1.48-3.29-.21-.5-.41-.99-.61-1.49-2.14-5.34-3.74-10.91-5.18-16.48"/><path class="cls-7" d="M23.13,183.35c.2,.5,.4,1,.61,1.49-.21-.5-.41-.99-.61-1.49m-5.59-18.07c-.15,2.37-.28,4.84-.4,7.35-.15,3.09-.29,6.27-.4,9.44-1.92,6.35-.66,11.39-.33,18.28h0l.5-.02-.5,.02c.01,5.64,.13,10.58,.32,14.13,.24,3.68,.53,7.38,.84,11.08,.32,3.71,.68,7.42,1.05,11.14,.38,3.87,.73,7.76,1.07,11.63,.34,3.89,.67,7.77,1.01,11.64,1.19,31.16,8.34,60.91,16,90.71,1.08,4.26,2.19,8.52,3.29,12.78,2.22,7.03,3.98,14.18,5.55,21.4,.87,4.1,1.8,8.96,2.8,14.14-.07-1.27-.15-2.54-.23-3.81-.73-3.79-1.43-7.33-2.09-10.43h0c-1.58-7.22-3.33-14.38-5.56-21.43-1.1-4.26-2.21-8.51-3.29-12.77-7.66-29.8-14.8-59.51-15.98-90.6h0v-.03c-.34-3.87-.67-7.76-1.01-11.64-.34-3.87-.69-7.76-1.07-11.64-.37-3.72-.73-7.43-1.05-11.13-.32-3.7-.6-7.39-.84-11.07h0c-.19-3.53-.3-8.47-.31-14.1h0v-.02c-.2-4.09-.71-7.51-.71-10.88,0-2.35,.25-4.68,1.02-7.23l.02-.06v-.06c.12-3.16,.25-6.34,.4-9.43,.1-1.97,.2-3.9,.31-5.79-.14-.53-.27-1.06-.41-1.59"/><path class="cls-1" d="M86.53,189.03c-1.2,1.67-2.95,3.25-5.06,4.76-.1,.07-.2,.14-.3,.21-.14,5.39-.53,10.96-1.35,16.16-3.18,20.44-3.18,88.11-3.63,102.64-.35,11.29-6.19,70.54-1.96,98.77,.27-15.1-.12-31.57,1.18-43.05,.19-3.92,.42-7.83,.67-11.75,.52-8.69,1.03-17.37,1.55-26.03,.25-4.32,.5-8.63,.77-12.96,.27-39.84,4.05-81.47,7.65-121.39h0c.21-3.07,.38-5.57,.49-7.35"/><path class="cls-7" d="M87.08,188.18c-1.05,1.79-2.76,3.47-4.88,5.06-.34,.25-.68,.5-1.04,.75h0c.1-.06,.2-.13,.3-.2,2.11-1.5,3.86-3.08,5.06-4.76-.11,1.78-.27,4.28-.49,7.35h0c-3.6,39.92-7.38,81.56-7.65,121.39-.26,4.32-.52,8.63-.77,12.96-.52,8.65-1.04,17.33-1.55,26.03-.25,3.92-.48,7.83-.67,11.75-1.3,11.49-.91,27.95-1.18,43.05,.14,.92,.29,1.8,.44,2.65,.38-15.82-.14-33.57,1.24-45.67,.19-3.92,.42-7.83,.67-11.76,.52-8.69,1.03-17.37,1.55-26.03,.25-4.33,.5-8.64,.77-12.97,.26-39.81,4.05-81.45,7.65-121.38,.25-3.62,.43-6.44,.54-8.24"/><path class="cls-4" d="M.79,58.02c.91,12.26,6.36,53.59,9.08,64.95,.68,2.84,1.25,6.13,1.79,9.63,.26,1.74,.53,3.55,.79,5.36,.1,1.89,.29,3.76,.54,5.61,.25,1.84,.57,3.68,.93,5.51,4.25,15.15,6.72,32.2,15.69,45.9h.01c.87,1.35,1.8,2.65,2.81,3.92,1.06,.96,2.14,1.8,3.25,2.54,4.44,2.93,9.29,4.04,14.13,3.73,4.16-.26,14.43-3.05,23.24-7.19,6.55-3.09,12.29-6.93,14.07-11.01,4.43-10.21,4.93-38.21,9.93-52.47,5-14.26,10.45-54.22,10.9-71.03,.45-16.8-.45-31.34-3.18-38.6-2.41-6.42-8.01-10.7-13.99-13.49-.78-.37-1.58-.71-2.36-1.02-6.81-2.73-14.08-.93-20.44-3.2-6.36-2.27-11.62-8.25-20.89-6.25-12.01,2.61-27.98,4.14-36.41,7.99-1,.45-1.88,.95-2.65,1.46C.79,15.32-.12,45.75,.79,58.02"/><path class="cls-2" d="M.79,58.02l-.5,.04c.46,6.16,2.05,19.55,3.86,32.84,1.82,13.29,3.86,26.46,5.23,32.18,.68,2.81,1.24,6.1,1.78,9.59,.26,1.74,.53,3.54,.79,5.36l.49-.07-.5,.03c.1,1.91,.29,3.79,.55,5.66,.25,1.85,.57,3.7,.94,5.54v.04c4.25,15.11,6.72,32.21,15.77,46.03l.03,.04,.05,.05,.35-.35-.42,.27c.88,1.35,1.82,2.66,2.84,3.95l.03,.03,.03,.03c1.08,.97,2.18,1.84,3.31,2.58,4.05,2.67,8.45,3.86,12.87,3.86,.52,0,1.04-.02,1.57-.05,2.16-.14,5.78-.91,9.99-2.16,4.21-1.25,9-2.99,13.43-5.07,3.3-1.56,6.39-3.3,8.91-5.19,2.51-1.89,4.45-3.91,5.4-6.08,1.14-2.62,2-6.31,2.75-10.61,1.13-6.45,1.99-14.27,3.04-21.81,1.05-7.54,2.29-14.8,4.15-20.08,2.52-7.2,5.13-20.76,7.18-34.65,2.05-13.89,3.52-28.09,3.75-36.53,.07-2.73,.11-5.4,.11-7.99,0-13.38-1-24.58-3.32-30.8-2.48-6.6-8.21-10.95-14.25-13.76-.79-.37-1.59-.71-2.38-1.03-3.5-1.4-7.08-1.63-10.55-1.81-3.47-.17-6.83-.3-9.91-1.4-2.66-.95-5.17-2.6-7.94-4.03C57.48,1.22,54.45,0,50.79,0c-1.19,0-2.45,.13-3.78,.42-5.98,1.3-12.97,2.33-19.53,3.53-6.56,1.19-12.68,2.53-16.98,4.49-1.02,.46-1.93,.97-2.72,1.5h0c-1.6,1.11-2.82,3.21-3.82,5.93-1.5,4.09-2.48,9.65-3.09,15.53-.62,5.88-.86,12.08-.86,17.43,0,3.57,.11,6.76,.29,9.23l.5-.04,.5-.04c-.18-2.44-.29-5.61-.29-9.15,0-7.09,.44-15.7,1.59-23,.58-3.65,1.34-6.98,2.3-9.61,.96-2.64,2.14-4.57,3.45-5.45h0c.75-.5,1.6-.98,2.58-1.42,4.13-1.89,10.21-3.23,16.74-4.42,6.54-1.19,13.54-2.22,19.57-3.53,1.26-.27,2.45-.39,3.56-.39,3.43,0,6.28,1.13,8.99,2.54,2.71,1.4,5.25,3.08,8.06,4.08,3.28,1.17,6.73,1.28,10.19,1.46,3.46,.18,6.92,.41,10.23,1.74,.77,.31,1.56,.65,2.33,1.01,5.92,2.76,11.4,6.97,13.73,13.21,2.24,5.96,3.26,17.13,3.26,30.45,0,2.58-.04,5.24-.11,7.97-.23,8.36-1.7,22.55-3.74,36.41-2.04,13.86-4.66,27.41-7.13,34.47-2.52,7.21-3.89,17.79-5.2,27.85-.65,5.03-1.29,9.93-2.03,14.19-.74,4.27-1.61,7.91-2.68,10.39-.83,1.92-2.65,3.85-5.09,5.68-2.44,1.83-5.48,3.55-8.74,5.08-4.37,2.06-9.12,3.78-13.29,5.02-4.16,1.24-7.76,2-9.77,2.12-.5,.03-1,.05-1.5,.05-4.24,0-8.43-1.14-12.32-3.7-1.09-.72-2.15-1.55-3.19-2.49l-.34,.37,.39-.31c-1-1.26-1.92-2.55-2.79-3.87l-.03-.04-.05-.05-.35,.35,.42-.27c-8.89-13.57-11.37-30.56-15.63-45.76l-.48,.13,.49-.1c-.36-1.82-.68-3.65-.93-5.48-.25-1.84-.44-3.7-.54-5.57v-.05c-.27-1.82-.53-3.62-.8-5.36-.54-3.5-1.11-6.81-1.8-9.67-1.35-5.63-3.4-18.81-5.21-32.08-1.82-13.28-3.4-26.68-3.86-32.78l-.5,.04"/><path class="cls-8" d="M91.72,12.37c5.06,5.64,9.49,12.88,9.29,20.81-.45,18.17-2.83,76.65-9.21,101.3-6.38,24.65-5.65,42.22-14.16,53.72-1.94,2.63-3.35,5.8-4.37,9.12,3.1-1.49,5.99-3.14,8.33-4.89,2.44-1.82,4.26-3.76,5.09-5.68,1.08-2.48,1.94-6.12,2.68-10.39,.74-4.27,1.38-9.17,2.03-14.19,1.31-10.06,2.68-20.64,5.2-27.85,2.47-7.06,5.09-20.61,7.13-34.47,2.04-13.86,3.52-28.05,3.74-36.41,.07-2.72,.11-5.39,.11-7.97,0-13.32-1.02-24.49-3.26-30.45-2.19-5.84-7.13-9.9-12.61-12.66"/><path class="cls-6" d="M90.8,11.38c.31,.33,.61,.66,.92,1,5.48,2.76,10.42,6.82,12.61,12.66,2.24,5.96,3.26,17.13,3.26,30.45,0,2.58-.04,5.24-.11,7.97-.23,8.36-1.7,22.55-3.74,36.41-2.04,13.86-4.66,27.41-7.13,34.47-2.52,7.21-3.89,17.79-5.2,27.85-.65,5.03-1.29,9.93-2.03,14.19-.74,4.27-1.61,7.91-2.68,10.39-.83,1.92-2.65,3.85-5.09,5.68-2.33,1.75-5.23,3.4-8.33,4.89-.07,.21-.13,.43-.19,.65,6.55-3.09,12.29-6.93,14.07-11.01,4.43-10.21,4.93-38.21,9.93-52.47,5-14.26,10.45-54.22,10.9-71.03,.45-16.8-.45-31.34-3.18-38.6-2.41-6.42-8.01-10.7-13.99-13.49"/><path class="cls-8" d="M10.54,9.52c-.82,.39-1.56,.81-2.21,1.25h0c-1.3,.88-2.49,2.81-3.45,5.45-.96,2.63-1.72,5.96-2.3,9.61-1.16,7.3-1.59,15.91-1.59,23,0,3.55,.11,6.72,.29,9.15h0c.45,6.11,2.04,19.51,3.86,32.78,1.81,13.27,3.86,26.45,5.21,32.08,.69,2.86,1.26,6.17,1.8,9.67,.27,1.74,.53,3.55,.79,5.36v.05c.11,1.88,.29,3.73,.54,5.57,.25,1.83,.56,3.66,.93,5.47,4.1,14.63,6.55,30.92,14.67,44.22-5.72-19.43-9.98-46.95-13.39-62.51C10.77,108.28,5.48,52.57,7.3,29.56c.64-8.2,1.9-14.86,3.24-20.04"/><path class="cls-6" d="M10.71,8.89c-1,.45-1.88,.95-2.65,1.46C.79,15.32-.12,45.75,.79,58.02H.79l.5-.04-.5,.04c.91,12.26,6.36,53.59,9.08,64.95,.68,2.84,1.25,6.13,1.79,9.63,.26,1.74,.53,3.55,.79,5.36,.1,1.89,.29,3.76,.54,5.61,.25,1.84,.57,3.68,.93,5.51,4.25,15.15,6.72,32.2,15.69,45.9-.18-.59-.36-1.18-.54-1.78-8.12-13.3-10.57-29.59-14.67-44.22-.36-1.82-.68-3.65-.93-5.47-.25-1.84-.44-3.7-.54-5.57v-.05c-.27-1.82-.53-3.62-.8-5.36-.54-3.5-1.11-6.81-1.8-9.67-1.35-5.63-3.4-18.81-5.21-32.08-1.82-13.28-3.4-26.68-3.86-32.78h0c-.18-2.44-.29-5.61-.29-9.15,0-7.09,.44-15.7,1.59-23,.58-3.65,1.34-6.98,2.3-9.61,.96-2.64,2.14-4.57,3.45-5.45h0c.65-.43,1.38-.85,2.21-1.25,.06-.21,.11-.42,.17-.63"/></g></svg>