<?xml version="1.0" encoding="UTF-8"?><svg id="Layer_2" xmlns="http://www.w3.org/2000/svg" viewBox="0 0 109.95 430.15"><defs><style>.cls-1{fill:#8d814c;}.cls-2{fill:#b5aa77;}.cls-3{fill:#caccb6;}.cls-4{fill:#afa05f;}.cls-5{fill:#f1f4e5;}.cls-6{fill:#c9bd84;}.cls-7{fill:#b5b7a3;}.cls-8{fill:#a3996b;}.cls-9{fill:#9d9055;}.cls-10{fill:#d8dbce;}</style></defs><g id="Layer_3"><path class="cls-6" d="M25.73,234.67c.61,9.9,2.09,27.53,3.52,44.04,.59,6.96,2.7,20.02,5.2,33.83v.03c3.56,19.54,7.92,40.61,10.05,48.05,3.63,12.72,5.45,31.49,6.06,39.97,.6,8.48,3.63,29.07,10.29,29.07s9.32-18.41,10.45-23.16c4.4-18.56,7.09-36.96,8.64-55.82,.62-7.47,1.06-15,1.35-22.65,.06-1.24,.11-2.48,.15-3.73,0-20.59,3.03-55.1,3.63-73.27,.6-18.17,5.45-65.4,5.3-87.5-1.82,7.92-5.92,14.28-10.76,19.18-8.49,8.57-19.29,12.62-24.21,12.62-7.67,0-21.14-4.92-27.31-12.99l-.14-.18c-4.66-6.23-7.38-21.71-10.02-35.16-1.74,23.73,6.58,67.71,7.8,87.69"/><path class="cls-4" d="M25.73,234.67l-.5,.03c.61,9.92,2.09,27.54,3.52,44.05,.6,7,2.7,20.06,5.2,33.88v.07l.06,.09,.45-.22-.49,.09c3.55,19.56,7.91,40.61,10.05,48.1,3.61,12.64,5.44,31.41,6.04,39.87,.3,4.27,1.21,11.55,2.89,17.81,.84,3.13,1.87,6,3.14,8.13,.64,1.07,1.33,1.95,2.12,2.58,.78,.63,1.68,1.01,2.64,1.01,.95,0,1.83-.33,2.61-.89,1.36-.99,2.46-2.64,3.4-4.61,1.41-2.97,2.45-6.7,3.24-10.08,.79-3.38,1.33-6.42,1.69-7.96,4.41-18.58,7.1-37.02,8.65-55.9,.62-7.48,1.06-15.02,1.35-22.67l-.5-.02,.5,.03c.06-1.24,.11-2.49,.15-3.75v-.02c0-20.55,3.03-55.06,3.63-73.25,.59-17.85,5.3-63.93,5.3-86.49,0-.35,0-.69,0-1.03l-.02-4.32-.96,4.21c-1.79,7.82-5.84,14.09-10.63,18.94-4.2,4.24-8.97,7.36-13.3,9.42-4.32,2.06-8.22,3.05-10.55,3.05-3.73,0-8.98-1.21-14.02-3.43-5.04-2.21-9.89-5.43-12.9-9.37l-.14-.18-.39,.31,.4-.3c-2.25-3-4.1-8.39-5.68-14.7-1.59-6.31-2.93-13.53-4.25-20.26l-.72-3.65-.27,3.71c-.16,2.25-.24,4.67-.24,7.23,0,12.34,1.74,27.95,3.61,42.75,1.87,14.79,3.88,28.77,4.43,37.78l.5-.03,.5-.03c-.55-9.09-2.56-23.06-4.43-37.85-1.87-14.78-3.6-30.37-3.6-42.62,0-2.54,.07-4.94,.24-7.16l-.5-.04-.49,.1c1.32,6.72,2.66,13.96,4.26,20.31,1.6,6.36,3.44,11.82,5.85,15.05h0l.14,.19,.39-.31-.4,.3c3.16,4.14,8.14,7.41,13.29,9.68,5.16,2.26,10.48,3.51,14.42,3.51,2.59,0,6.55-1.04,10.98-3.14,4.42-2.11,9.29-5.29,13.58-9.62,4.9-4.95,9.05-11.39,10.89-19.42l-.49-.11h-.5c0,.34,0,.68,0,1.03,0,22.46-4.7,68.53-5.3,86.45-.6,18.14-3.63,52.66-3.63,73.29h0c-.04,1.23-.09,2.48-.15,3.71h0c-.29,7.65-.73,15.17-1.35,22.63-1.55,18.84-4.23,37.22-8.63,55.75-.57,2.41-1.51,8.18-3.14,13.33-.81,2.57-1.79,4.99-2.95,6.72-.58,.87-1.2,1.56-1.85,2.02-.65,.47-1.31,.71-2.02,.71-.7,0-1.36-.26-2.02-.79-1.15-.92-2.23-2.66-3.15-4.87-2.79-6.64-4.24-17.42-4.63-22.94-.61-8.5-2.42-27.28-6.07-40.07-2.12-7.4-6.49-28.48-10.03-48v-.07l-.06-.09-.45,.22,.49-.09c-2.5-13.8-4.6-26.86-5.19-33.79-1.43-16.51-2.91-34.14-3.52-44.03l-.5,.03"/><path class="cls-2" d="M89.86,167.21c-2.13,6.39-5.74,11.65-9.89,15.84-.12,.12-.24,.24-.35,.35,0,14.94-.01,32.88,0,38.55,.01,10.29-1.8,66.61-1.5,74.18,.17,4.35,.15,24.32,.9,40.86,.52-2.27,1.09-4.56,1.7-6.83,.03-.72,.06-1.44,.09-2.16h0c.06-1.24,.11-2.48,.15-3.73h0c0-20.63,3.03-55.13,3.63-73.27,.58-17.24,4.95-60.53,5.28-83.79"/><path class="cls-9" d="M90.38,165.53c-2.03,7.15-5.9,12.97-10.41,17.52-.12,.12-.24,.24-.35,.35h0c.12-.12,.24-.23,.35-.35,4.15-4.19,7.76-9.45,9.89-15.84-.33,23.26-4.71,66.55-5.28,83.79-.6,18.14-3.63,52.65-3.63,73.27h0c-.04,1.25-.09,2.49-.15,3.72h0c-.03,.73-.06,1.45-.09,2.16,.19-.72,.39-1.43,.59-2.14-.29,7.65-.73,15.18-1.35,22.65h0c.72-8.68,1.2-17.45,1.5-26.38,0-20.59,3.03-55.1,3.63-73.27,.59-17.63,5.17-62.65,5.3-85.49"/><path class="cls-2" d="M18.24,151.13c-.03,.99-.04,2-.04,3.04,0,12.25,1.73,27.84,3.6,42.62,1.87,14.78,3.88,28.76,4.43,37.85h0c.56,9.17,1.88,24.99,3.21,40.41,.55-11.39,.87-24.41,.53-37.05-.46-17.07-1.21-38.08-1.85-54.83-.2-.24-.39-.48-.57-.73h0c-1.17-1.57-2.19-3.64-3.13-6.09l-.03-.09h0c-.8-2.13-1.54-4.53-2.22-7.1l-.02-.07h0c-.15-.57-.3-1.13-.44-1.71-1.28-5.09-2.4-10.75-3.47-16.26"/><path class="cls-9" d="M27.55,182.43h0m-5.41-13.34l.02,.07-.02-.07m-4.33-20.13c-1.17,24.13,6.74,66.27,7.92,85.71h0l.5-.03-.5,.03c.61,9.9,2.09,27.53,3.52,44.04,.06-1.2,.13-2.42,.19-3.66-1.33-15.42-2.65-31.24-3.21-40.41h0c-.55-9.09-2.56-23.06-4.43-37.85-1.87-14.78-3.6-30.37-3.6-42.62,0-1.04,.01-2.05,.04-3.04,1.07,5.51,2.19,11.17,3.47,16.26,.15,.58,.29,1.14,.44,1.7-1.06-3.98-2-8.37-2.89-12.81-.49-2.44-.97-4.9-1.44-7.31"/><path class="cls-2" d="M35.58,315.92c3.42,18.51,7.41,37.6,9.4,44.57,3.65,12.79,5.47,31.57,6.07,40.07,.39,5.52,1.84,16.3,4.63,22.94,.92,2.21,2,3.95,3.15,4.87,.66,.53,1.32,.79,2.02,.79,.72,0,1.37-.24,2.02-.71,.65-.46,1.27-1.16,1.85-2.02,1.16-1.73,2.14-4.15,2.95-6.72,1.63-5.15,2.57-10.92,3.14-13.33,4.4-18.53,7.08-36.91,8.63-55.75,.08-.95,.16-1.91,.23-2.86-.27-3.24-.49-6.91-.66-10.78-1.32,5.82-2.26,11.52-2.41,16.37-.61,19.38-5.15,24.53-10.29,52.38-2.3,12.43-4.11,16.48-5.58,16.48-1.82,0-3.1-6.23-4.11-10.42-1.82-7.57-1.82-17.86-2.57-24.83-.77-6.96-3.48-25.13-5.9-33-1.95-6.34-9.64-29.34-12.55-38.04"/><path class="cls-9" d="M34.46,312.57c3.55,19.54,7.91,40.61,10.04,48.05,3.63,12.72,5.45,31.49,6.06,39.97,.6,8.48,3.63,29.07,10.29,29.07s9.32-18.41,10.45-23.16c4.4-18.56,7.09-36.96,8.64-55.82-.1-.92-.19-1.89-.27-2.91-.07,.96-.15,1.91-.23,2.86-1.55,18.84-4.23,37.22-8.63,55.75-.57,2.41-1.51,8.18-3.14,13.33-.81,2.57-1.79,4.99-2.95,6.72-.58,.87-1.2,1.56-1.85,2.02-.65,.47-1.31,.71-2.02,.71-.7,0-1.36-.26-2.02-.79-1.15-.92-2.23-2.66-3.15-4.87-2.79-6.64-4.24-17.42-4.63-22.94-.61-8.5-2.42-27.28-6.07-40.07-2-6.96-5.99-26.06-9.4-44.57-.65-1.93-1.06-3.16-1.12-3.35"/><path class="cls-8" d="M80.71,330.16c-.61,2.27-1.18,4.56-1.7,6.83,.17,3.86,.39,7.53,.66,10.78,.45-5.82,.79-11.68,1.03-17.6"/><path class="cls-1" d="M81.29,328.02c-.2,.71-.39,1.42-.59,2.14-.25,5.93-.59,11.78-1.03,17.6,.08,1.01,.18,1.98,.27,2.91h0c.62-7.47,1.06-15,1.35-22.65"/><path class="cls-5" d="M1.36,67.23c1.36,7.72,10.45,53.59,14.08,68.12,2.96,11.86,5.36,30.06,9.45,40.8h0c.93,2.43,1.94,4.48,3.07,5.98,6.11,8.17,19.73,13.17,27.45,13.17,4.92,0,15.72-4.05,24.21-12.62,4.84-4.89,8.94-11.25,10.76-19.18,4.99-21.8,7.72-30.43,10.9-42.69,3.18-12.26,8.17-51.77,8.17-67.67,0-12.44-3.05-30.43-9.39-39.85-1.77-2.62-3.78-4.58-6.06-5.56-10.45-4.54-15.44-4.79-19.98-4.09-4.54,.71-10.46,.18-18.62-.45-14.86-1.14-27.99-5.4-37.52-.09h-.01l-.16,.09C8.17,8.65,2.27,21.36,1.36,25.45,.45,29.54,0,59.51,1.36,67.23"/><path class="cls-3" d="M1.36,67.23l-.49,.09c1.37,7.74,10.45,53.59,14.09,68.16,1.48,5.9,2.82,13.42,4.3,20.8,1.48,7.38,3.11,14.63,5.17,20.06l.47-.18h-.5v.11l.03,.09c.94,2.45,1.97,4.53,3.13,6.09,3.13,4.19,8.13,7.51,13.32,9.81,5.19,2.29,10.57,3.56,14.53,3.56,2.59,0,6.55-1.04,10.98-3.14,4.42-2.11,9.29-5.29,13.58-9.62,4.9-4.95,9.05-11.39,10.89-19.42,4.99-21.79,7.71-30.4,10.9-42.68,1.6-6.18,3.64-19.12,5.29-32.54,1.65-13.41,2.9-27.27,2.9-35.26,0-6.26-.77-13.89-2.33-21.16-1.56-7.27-3.92-14.17-7.14-18.97-1.8-2.67-3.88-4.7-6.27-5.74-7.81-3.4-12.64-4.43-16.53-4.43-1.33,0-2.55,.12-3.73,.3-1.5,.23-3.17,.33-5.04,.33-3.65,0-8.06-.37-13.47-.79C46.07,1.98,37.35,0,29.72,0c-4.41,0-8.48,.67-12.07,2.67l-.06,.03-.06,.06,.35,.35-.21-.45-.16,.08h-.02l-.02,.02c-4.87,2.79-8.77,7.39-11.58,11.8C3.07,18.99,1.35,23.2,.87,25.34c-.14,.62-.25,1.67-.35,3.09-.31,4.25-.52,11.75-.52,19.17,0,4.07,.06,8.11,.2,11.58,.14,3.47,.35,6.35,.67,8.14l.49-.09,.49-.09c-.3-1.69-.52-4.56-.65-8.01-.14-3.45-.2-7.48-.2-11.54,0-4.93,.09-9.9,.24-13.92,.08-2.01,.17-3.78,.27-5.18,.1-1.4,.22-2.44,.33-2.95,.43-1.95,2.12-6.14,4.87-10.46,2.75-4.33,6.57-8.81,11.24-11.47l-.25-.43,.21,.45,.16-.07,.08-.04,.08-.07-.35-.35,.24,.44c3.39-1.89,7.27-2.54,11.59-2.54,7.47,0,16.19,1.97,25.65,2.69,5.4,.42,9.82,.79,13.54,.79,1.9,0,3.62-.1,5.19-.34,1.14-.18,2.3-.29,3.57-.29,3.7,0,8.39,.98,16.13,4.34,2.15,.93,4.11,2.81,5.84,5.38,3.11,4.62,5.45,11.43,6.99,18.62,1.55,7.19,2.31,14.77,2.31,20.95,0,7.9-1.25,21.75-2.89,35.14-1.64,13.38-3.69,26.33-5.27,32.41-3.17,12.25-5.91,20.89-10.9,42.7-1.79,7.82-5.84,14.09-10.63,18.94-4.2,4.24-8.97,7.36-13.3,9.42-4.32,2.06-8.22,3.05-10.55,3.05-3.76,0-9.05-1.23-14.13-3.48-5.08-2.24-9.95-5.51-12.92-9.49-1.08-1.44-2.08-3.45-3-5.85l-.47,.18h.5v-.1l-.03-.09c-2.02-5.31-3.64-12.53-5.12-19.9-1.48-7.37-2.82-14.89-4.31-20.84-3.63-14.5-12.71-60.39-14.07-68.09l-.49,.09"/><path class="cls-10" d="M100.79,15.43c2.23,6.79,3.87,14.26,3.67,21.22-.61,19.98-1.34,59.34-7.03,76.91-4.03,12.44-12.81,48.33-17.58,68.18,4.53-4.76,8.32-10.84,10.05-18.33,5-21.81,7.73-30.46,10.9-42.7,1.58-6.08,3.62-19.03,5.27-32.41,1.65-13.38,2.89-27.23,2.89-35.14,0-6.18-.76-13.76-2.31-20.95-1.35-6.29-3.31-12.28-5.85-16.77"/><path class="cls-7" d="M100.07,13.3c.25,.7,.49,1.41,.72,2.13,2.55,4.5,4.5,10.49,5.85,16.77,1.55,7.19,2.31,14.77,2.31,20.95,0,7.9-1.25,21.75-2.89,35.14-1.64,13.38-3.69,26.33-5.27,32.41-3.17,12.25-5.91,20.89-10.9,42.7-1.72,7.5-5.51,13.58-10.05,18.33-.08,.32-.15,.64-.23,.95,4.84-4.89,8.94-11.25,10.76-19.18,4.99-21.8,7.72-30.43,10.9-42.69,3.18-12.26,8.17-51.77,8.17-67.67,0-12.44-3.05-30.43-9.39-39.85"/><path class="cls-10" d="M17.32,4.01c-4.37,2.69-7.97,6.96-10.6,11.09-2.75,4.32-4.44,8.51-4.87,10.46-.11,.5-.23,1.55-.33,2.95-.1,1.4-.2,3.17-.27,5.18-.15,4.02-.24,8.99-.24,13.92,0,4.06,.06,8.09,.2,11.54,.14,3.45,.35,6.32,.65,8.01h0c1.36,7.7,10.45,53.59,14.07,68.09,1.49,5.96,2.83,13.47,4.31,20.84,1.33,6.64,2.78,13.17,4.54,18.28-1.31-19.8-3.71-42.46-8.12-58.99C6.96,79.04,3.33,38.47,6.96,25.15c1.71-6.31,6.16-14.38,10.36-21.14"/><path class="cls-7" d="M17.87,3.12l-.16,.08C8.17,8.65,2.27,21.36,1.36,25.45,.45,29.54,0,59.51,1.36,67.23h0l.49-.09-.49,.09c1.36,7.72,10.45,53.59,14.08,68.12,2.96,11.86,5.36,30.06,9.45,40.8-.04-.59-.08-1.19-.12-1.79-1.76-5.11-3.21-11.64-4.54-18.28-1.48-7.37-2.82-14.89-4.31-20.84-3.63-14.5-12.71-60.39-14.07-68.09h0c-.3-1.69-.52-4.56-.65-8.01-.14-3.45-.2-7.48-.2-11.54,0-4.93,.09-9.9,.24-13.92,.08-2.01,.17-3.78,.27-5.18,.1-1.4,.22-2.44,.33-2.95,.43-1.95,2.12-6.14,4.87-10.46,2.62-4.13,6.22-8.4,10.6-11.09,.19-.3,.37-.6,.56-.89"/></g></svg>