<?xml version="1.0" encoding="UTF-8"?><svg id="Layer_2" xmlns="http://www.w3.org/2000/svg" viewBox="0 0 122.96 461.87"><defs><style>.cls-1{fill:#b5aa77;}.cls-2{fill:#caccb6;}.cls-3{fill:#afa05f;}.cls-4{fill:#f1f4e5;}.cls-5{fill:#c9bd84;}.cls-6{fill:#b5b7a3;}.cls-7{fill:#9d9055;}.cls-8{fill:#d8dbce;}</style></defs><g id="Layer_3"><path class="cls-5" d="M20.9,200.43c.37,10.21,.83,21.02,1.29,30.72,.45,9.69,.9,18.27,1.1,24.12,1.65,30.69,4.18,59.71,8.04,89.66,.42,3.24,.83,6.48,1.27,9.69,3.48,21.77,8.87,43.81,13.01,66.14v.04c1.75,9.45,3.28,18.97,4.34,28.54,1.44,6.74,3.41,12.03,5.83,12.03s4.84-4.24,7.04-10.14c1.58-5.26,3.08-10.52,4.5-15.78v-.05l.03-.07c8.84-32.56,14.89-65.22,18.03-98.58,.48-4.32,.91-8.62,1.32-12.92,2.04-21.49,3.39-42.96,4.19-64.45,.28-4.36,.55-8.73,.83-13.09,1.35-21.81,2.61-43.57,3.87-65.02-.09,.13-.16,.24-.25,.35-2.35,3.44-5.2,6.06-8.35,8.01-.47,.28-.93,.54-1.4,.81-6.69,3.65-14.6,4.6-22.3,4.44-3.6-.04-6.83-.28-9.32-.39-9.99-.45-13.62-3.63-19.98-10.45-2.11-2.26-4.92-7.17-7.82-13.12-1.31-2.66-2.64-5.53-3.92-8.46h0c-.39-.86-.76-1.72-1.12-2.57-.11,.19-.2,.48-.29,.88-.93,4.34-.59,20.99,.09,39.68"/><path class="cls-3" d="M20.9,200.43l-.5,.02c.37,10.21,.83,21.02,1.29,30.72,.45,9.69,.9,18.27,1.1,24.12h0c1.65,30.71,4.18,59.74,8.04,89.71,.42,3.24,.83,6.49,1.28,9.69h0c3.49,21.81,8.88,43.85,13.01,66.17v.04l.03,.07,.47-.17-.49,.09c1.74,9.44,3.26,18.95,4.32,28.5v.05c.73,3.39,1.59,6.42,2.59,8.65,.5,1.11,1.04,2.03,1.64,2.69,.6,.66,1.3,1.09,2.1,1.1,.76,0,1.47-.33,2.13-.87,.99-.81,1.9-2.09,2.8-3.73,.89-1.64,1.75-3.64,2.58-5.87h0v-.03c1.58-5.26,3.09-10.53,4.51-15.8l.02-.06v-.02l.02-.09-.49-.08,.48,.13c8.85-32.59,14.9-65.28,18.04-98.66l-.5-.05,.5,.05c.48-4.32,.91-8.62,1.33-12.92,2.04-21.5,3.4-42.98,4.19-64.48l-.5-.02,.5,.03c.28-4.36,.55-8.73,.83-13.09,1.35-21.81,2.61-43.58,3.87-65.02l.1-1.77-1.01,1.45c-.09,.13-.16,.24-.24,.33h0v.03c-2.32,3.39-5.11,5.95-8.21,7.87l.26,.42-.26-.43c-.46,.27-.92,.54-1.39,.8l.25,.43-.24-.44c-6.11,3.33-13.31,4.4-20.45,4.4-.54,0-1.07,0-1.6-.02h0c-3.58-.04-6.8-.28-9.31-.39-4.95-.23-8.26-1.12-11.13-2.77-2.87-1.66-5.34-4.11-8.51-7.52-1.01-1.08-2.23-2.85-3.55-5.09-1.32-2.24-2.74-4.94-4.19-7.91-1.31-2.66-2.63-5.51-3.91-8.45l-.46,.2h.5v-.12l-.05-.1c-.39-.84-.75-1.69-1.12-2.55l-.39-.9-.5,.84c-.17,.28-.25,.61-.35,1.03-.22,1-.36,2.55-.45,4.57-.09,2.02-.13,4.52-.13,7.38,0,7.41,.28,17.31,.66,27.85l.5-.02,.5-.02c-.38-10.54-.66-20.42-.66-27.81,0-2.86,.04-5.34,.13-7.34,.09-2,.24-3.52,.43-4.4,.08-.38,.17-.64,.23-.73l-.43-.26-.46,.2c.37,.86,.73,1.72,1.13,2.57l.45-.21h-.5v.12l.04,.1c1.29,2.95,2.62,5.82,3.93,8.49,1.45,2.98,2.89,5.71,4.23,7.98,1.34,2.27,2.58,4.08,3.68,5.26,3.18,3.41,5.71,5.95,8.74,7.7,3.03,1.75,6.54,2.68,11.58,2.91,2.49,.11,5.73,.35,9.34,.39v0c.53,.01,1.08,.02,1.62,.02,7.24,0,14.6-1.07,20.93-4.52h0c.47-.27,.94-.54,1.41-.82h0c3.21-1.99,6.11-4.66,8.5-8.16l-.41-.28,.39,.31c.1-.13,.18-.26,.27-.37l-.41-.29-.5-.03c-1.26,21.45-2.52,43.21-3.87,65.02-.28,4.36-.55,8.73-.83,13.09h0c-.8,21.5-2.14,42.96-4.19,64.44-.42,4.3-.85,8.6-1.32,12.91h0c-3.14,33.34-9.18,65.97-18.01,98.5v.02l-.02,.08v.03l.48,.12-.48-.13c-1.42,5.26-2.92,10.51-4.5,15.77l.48,.14-.47-.17c-1.09,2.93-2.24,5.44-3.38,7.18-.57,.87-1.15,1.55-1.69,1.99-.55,.44-1.04,.64-1.5,.64-.41,0-.86-.22-1.36-.77-.74-.81-1.49-2.28-2.16-4.17-.67-1.89-1.28-4.19-1.82-6.71l-.49,.1,.5-.06c-1.06-9.58-2.59-19.11-4.33-28.57v-.04l-.03-.08-.47,.17,.49-.09c-4.14-22.35-9.53-44.38-13-66.13l-.49,.08,.49-.07c-.44-3.2-.86-6.44-1.27-9.69-3.86-29.94-6.38-58.94-8.03-89.62l-.5,.03,.5-.02c-.2-5.86-.64-14.44-1.1-24.13-.45-9.7-.92-20.51-1.29-30.71l-.5,.02"/><path class="cls-1" d="M21.2,161.38c-.15,.91-.26,2.24-.33,3.89-.09,2-.13,4.48-.13,7.34,0,7.39,.28,17.28,.66,27.81h0c.37,10.2,.83,21.01,1.29,30.71,.45,9.68,.9,18.26,1.1,24.12h0c1.65,30.68,4.17,59.69,8.03,89.62,.42,3.24,.83,6.48,1.27,9.67h0c3.16,19.74,7.89,39.72,11.83,59.96-.98-8.7-2.73-23.76-3.68-28.82-1.36-7.27-5.9-44.05-8.63-64.49-2.73-20.44-5.45-63.13-6.38-84.47-.9-20.58-1.73-56.79-.25-65.01-.48-.96-.95-1.95-1.43-2.97-.93-1.96-1.86-4.01-2.77-6.09l-.04-.1h0l-.05-.11c-.16-.35-.32-.71-.47-1.06"/><path class="cls-7" d="M21.72,162.55h0l.04,.1c.91,2.08,1.84,4.13,2.77,6.09-.57-1.21-1.14-2.45-1.71-3.71-.37-.82-.74-1.64-1.1-2.48m-.91-1.79c-.93,4.34-.59,20.99,.09,39.68h0l.5-.02-.5,.02c.37,10.21,.83,21.02,1.29,30.72,.45,9.69,.9,18.27,1.1,24.12,1.65,30.69,4.18,59.71,8.04,89.66,.42,3.24,.83,6.48,1.27,9.69,3.48,21.77,8.87,43.81,13.01,66.14v.04c-.04-.47-.3-2.9-.68-6.3-3.94-20.24-8.67-40.22-11.83-59.96h0c-.44-3.2-.86-6.44-1.27-9.67-3.86-29.94-6.38-58.94-8.03-89.62h0c-.2-5.86-.64-14.44-1.1-24.12-.45-9.7-.92-20.51-1.29-30.71h0c-.38-10.54-.66-20.42-.66-27.81,0-2.86,.04-5.34,.13-7.34,.07-1.65,.19-2.97,.33-3.89,.15,.36,.31,.71,.47,1.06-.2-.46-.41-.93-.61-1.39-.09-.1-.17-.2-.26-.3"/><path class="cls-1" d="M94.98,182.96c-2.23,2.98-4.86,5.31-7.74,7.09h0c-.13,.08-.27,.16-.4,.24-.3,1.39-.53,2.67-.64,3.66-.73,6.69-.42,38.68-1,52.76-.59,14.08-1.73,51.32-3.09,81.75-1.14,25.46-10.74,83.25-13.84,101.42,8.07-30.77,13.63-61.66,16.59-93.17h0c.48-4.32,.91-8.62,1.32-12.92,2.04-21.47,3.39-42.94,4.19-64.42h0c.28-4.38,.55-8.74,.83-13.11,1.31-21.23,2.54-42.4,3.77-63.29"/><path class="cls-7" d="M95.58,181.26c-.05,.07-.09,.13-.13,.19-2.18,3.73-5.01,6.49-8.19,8.52l-.12,.08h-.01c-.09,.06-.18,.11-.28,.17v.07c.12-.08,.25-.16,.39-.24h0c2.87-1.79,5.51-4.11,7.74-7.09-1.23,20.89-2.46,42.06-3.77,63.29-.28,4.36-.55,8.73-.83,13.09h0c-.8,21.5-2.14,42.96-4.19,64.44-.42,4.3-.85,8.6-1.32,12.91h0c-2.97,31.52-8.53,62.41-16.59,93.18-.52,3.03-.85,4.96-.94,5.45,8.84-32.56,14.89-65.22,18.03-98.58,.48-4.32,.91-8.62,1.32-12.92,2.04-21.49,3.39-42.96,4.19-64.45,.28-4.36,.55-8.73,.83-13.09,1.35-21.81,2.61-43.57,3.87-65.02"/><path class="cls-4" d="M.81,76.85c1.36,12.26,8.63,47.69,11.35,58.59,1.53,6.11,6.18,18.48,11.11,29.38,3.86,8.57,7.88,16.21,10.68,19.21,6.36,6.81,9.99,9.99,19.98,10.45,7.7,.35,22.39,1.87,33.03-4.93h.01c3.18-2.03,5.98-4.78,8.14-8.54,6.17-10.75,4.87-23.45,11.2-42.99,4.11-12.72,10.02-33.91,13.56-46.63,3.55-12.72,4-27.25-2.36-39.06-6.36-11.81-17.26-24.07-22.71-30.43-5.07-5.92-12.91-18.14-28.99-20.89-1.19-.21-2.42-.37-3.71-.45C48.41-.46,26.85,13.97,15.45,25.18l-.02,.02c-2.9,2.84-5.15,5.48-6.44,7.6C2.63,43.24-.55,64.59,.81,76.85"/><path class="cls-2" d="M.81,76.85l-.5,.05c1.37,12.32,8.63,47.72,11.37,58.65,1.54,6.17,6.2,18.54,11.14,29.47,1.93,4.29,3.91,8.35,5.76,11.73,1.85,3.38,3.56,6.06,5.02,7.62,3.18,3.41,5.71,5.95,8.74,7.7,3.03,1.75,6.54,2.68,11.58,2.91,2.69,.12,6.27,.39,10.24,.39,7.34,0,16.04-.91,23.08-5.4l-.27-.42v.5h.16l.12-.08c3.24-2.07,6.1-4.88,8.3-8.71,3.13-5.47,4.36-11.39,5.6-18.36,1.24-6.97,2.49-15,5.65-24.73,4.12-12.74,10.02-33.93,13.57-46.65,1.61-5.77,2.59-11.92,2.59-18.03,0-7.44-1.45-14.83-4.99-21.4-6.4-11.88-17.32-24.16-22.77-30.52-5.03-5.86-12.97-18.27-29.29-21.06h0c-1.21-.22-2.46-.37-3.76-.46-.47-.03-.95-.05-1.43-.05-7.04,0-15.65,3.51-23.91,8.35-8.26,4.84-16.17,11.03-21.72,16.47h0l-.02,.03,.35,.35-.35-.36c-2.92,2.86-5.19,5.51-6.51,7.69-2.74,4.5-4.87,10.91-6.32,17.76-1.46,6.85-2.24,14.12-2.24,20.33,0,2.25,.1,4.37,.32,6.27l.5-.05,.5-.06c-.21-1.86-.31-3.94-.31-6.16,0-6.13,.77-13.35,2.21-20.13,1.44-6.78,3.56-13.11,6.2-17.45,1.25-2.06,3.47-4.68,6.36-7.5l.03-.03h0c5.48-5.38,13.34-11.53,21.52-16.32C45.5,4.41,54.02,.99,60.73,1c.46,0,.92,.02,1.36,.05,1.27,.09,2.49,.24,3.66,.45h0c15.85,2.71,23.58,14.75,28.69,20.73,5.45,6.36,16.33,18.61,22.65,30.34,3.44,6.39,4.87,13.61,4.87,20.92,0,6-.96,12.07-2.55,17.76-3.54,12.72-9.45,33.91-13.56,46.61-3.18,9.81-4.44,17.91-5.68,24.86-1.24,6.96-2.45,12.76-5.48,18.04-2.12,3.69-4.85,6.38-7.97,8.37l.27,.42v-.5h-.16l-.12,.08c-6.76,4.33-15.28,5.25-22.54,5.24-3.93,0-7.48-.27-10.2-.39-4.95-.23-8.26-1.12-11.13-2.77-2.87-1.66-5.34-4.11-8.51-7.52-1.34-1.44-3.05-4.08-4.87-7.42-1.83-3.34-3.8-7.38-5.72-11.66-4.92-10.87-9.58-23.25-11.08-29.3-2.72-10.86-9.99-46.32-11.34-58.52l-.5,.06"/><path class="cls-8" d="M66.18,1.57c6.44,10.68,13.8,22.56,18.2,28.5,9.08,12.26,29.52,25.43,31.79,30.88,2.27,5.45,3.63,16.35,0,27.25-3.63,10.9-17.01,38.12-23.62,76.75-1.37,7.99-3.25,16.06-5.37,23.86,2.92-1.96,5.49-4.56,7.51-8.06,3.03-5.28,4.25-11.08,5.48-18.04,1.24-6.95,2.5-15.05,5.68-24.86,4.11-12.7,10.01-33.89,13.56-46.61,1.59-5.7,2.55-11.76,2.55-17.76,0-7.31-1.43-14.53-4.87-20.92-6.32-11.73-17.19-23.98-22.65-30.34-5.07-5.92-12.7-17.8-28.27-20.65"/><path class="cls-6" d="M65.83,1c.11,.19,.23,.38,.34,.57,15.57,2.85,23.2,14.73,28.27,20.65,5.45,6.36,16.33,18.61,22.65,30.34,3.44,6.39,4.87,13.61,4.87,20.92,0,6-.96,12.07-2.55,17.76-3.54,12.72-9.45,33.91-13.56,46.61-3.18,9.81-4.44,17.91-5.68,24.86-1.24,6.96-2.45,12.76-5.48,18.04-2.01,3.5-4.58,6.1-7.51,8.06-.07,.24-.13,.49-.2,.73,3.18-2.03,5.98-4.78,8.14-8.54,6.17-10.75,4.87-23.45,11.2-42.99,4.11-12.72,10.02-33.91,13.56-46.63,3.55-12.72,4-27.25-2.36-39.06-6.36-11.81-17.26-24.07-22.71-30.43-5.07-5.92-12.91-18.14-28.99-20.89"/><path class="cls-8" d="M14.57,26.76c-2.3,2.36-4.09,4.53-5.16,6.3-2.64,4.34-4.76,10.68-6.2,17.45-1.44,6.78-2.21,14-2.21,20.13,0,2.22,.1,4.3,.31,6.16h0c1.35,12.2,8.62,47.66,11.34,58.52,1.41,5.67,5.6,16.91,10.17,27.26-6.68-33.01-14.02-77.75-14.29-96.17-.36-23.88,4.1-35.67,6.04-39.64"/><path class="cls-6" d="M15.42,25.2c-2.9,2.84-5.15,5.48-6.44,7.6C2.63,43.24-.55,64.59,.81,76.85H.81l.5-.06-.5,.06c1.36,12.26,8.63,47.69,11.35,58.59,1.53,6.11,6.18,18.48,11.11,29.38-.15-.74-.3-1.49-.46-2.25-4.58-10.35-8.76-21.59-10.17-27.26-2.72-10.86-9.99-46.32-11.34-58.52h0c-.21-1.86-.31-3.94-.31-6.16,0-6.13,.77-13.35,2.21-20.13,1.44-6.78,3.56-13.11,6.2-17.45,1.07-1.76,2.85-3.94,5.16-6.3,.46-.94,.77-1.44,.85-1.56"/></g></svg>