<?xml version="1.0" encoding="UTF-8"?><svg id="Layer_2" xmlns="http://www.w3.org/2000/svg" viewBox="0 0 149.64 433.44"><defs><style>.cls-1{fill:#b5aa77;}.cls-2{fill:#caccb6;}.cls-3{fill:#afa05f;}.cls-4{fill:#f1f4e5;}.cls-5{fill:#c9bd84;}.cls-6{fill:#b5b7a3;}.cls-7{fill:#9d9055;}.cls-8{fill:#d8dbce;}</style></defs><g id="Layer_3"><path class="cls-5" d="M37.69,291.15c-.4,6.06,2.96,32.56,5.6,53.52,.67,5.24,1.29,10.12,1.79,14.26,.09,2.7,.28,5.39,.53,8.09,3.2,13.81,4.42,37.28,8.72,52.17,2.52,8.75,6.12,14.56,11.82,13.67,2.75-.42,5.84-8.04,9.08-19.09h0c6.06-20.68,12.62-53.4,18.37-73.83,.82-3.63,1.62-7.29,2.39-10.95,.77-3.66,1.51-7.34,2.22-11.04,.68-3.75,1.31-7.51,1.91-11.27,5.34-33.8,7.54-67.89,9.08-102.15,.15-3.05,.3-6.08,.45-9.07,1.44-29.92,2.55-56.53,2.99-64.48-3.62,8.65-4.43,17.51-10.31,27.7-.83,1.45-2.16,2.64-3.85,3.61-12.1,6.95-43.13,2.37-51.11-3.61-2.49-1.87-5.21-5.71-7.96-10.55-2.83-4.96-5.68-10.96-8.33-16.93-4.05,8.25,7.2,150.86,6.6,159.94"/><path class="cls-3" d="M37.69,291.15l-.5-.03c-.02,.35-.03,.76-.03,1.22,0,3.95,.79,12.07,1.89,21.72,1.1,9.64,2.51,20.78,3.75,30.68,.67,5.24,1.29,10.12,1.79,14.25l.5-.06-.5,.02c.09,2.71,.28,5.41,.53,8.12v.07c1.6,6.86,2.71,16.18,3.95,25.63,1.24,9.46,2.62,19.06,4.79,26.56,1.19,4.11,2.61,7.6,4.41,10.1,1.79,2.49,4.04,4.03,6.77,4.03,.39,0,.79-.03,1.2-.09,.9-.15,1.68-.81,2.44-1.79,1.14-1.49,2.28-3.82,3.46-6.82,1.17-3,2.37-6.67,3.59-10.83l.02-.07v-.08h-.5l.48,.14c6.06-20.7,12.62-53.43,18.37-73.82h0v-.02c.83-3.64,1.62-7.3,2.39-10.96,.77-3.66,1.51-7.35,2.22-11.05h0c.68-3.75,1.31-7.52,1.91-11.28,5.34-33.83,7.55-67.93,9.09-102.2,.15-3.05,.3-6.08,.45-9.07,1.44-29.93,2.55-56.54,2.99-64.48l.16-2.9-1.12,2.68c-3.65,8.75-4.45,17.55-10.28,27.65-.77,1.35-2.03,2.48-3.66,3.43-4.18,2.41-10.87,3.43-18.07,3.43-6.47,0-13.36-.81-19.25-2.1-5.89-1.28-10.8-3.07-13.24-4.9-2.37-1.77-5.09-5.59-7.83-10.39-2.81-4.93-5.66-10.93-8.3-16.89l-.43-.98-.47,.96c-.2,.4-.33,.94-.44,1.66-.34,2.15-.49,5.87-.49,10.84,0,17.72,1.88,51.12,3.75,81.73,.94,15.31,1.88,29.92,2.58,41.51,.7,11.59,1.17,20.19,1.17,23.43,0,.41,0,.74-.02,.96l.5,.03,.5,.03c.02-.26,.03-.6,.03-1.02,0-3.3-.47-11.88-1.17-23.49-2.11-34.8-6.33-96.69-6.33-123.19,0-3.29,.07-6.04,.21-8.11,.07-1.03,.16-1.9,.27-2.57,.11-.67,.24-1.16,.35-1.38l-.45-.22-.46,.2c2.65,5.97,5.51,11.99,8.35,16.97,2.77,4.86,5.5,8.74,8.09,10.7,2.69,2,7.65,3.77,13.62,5.08,5.96,1.3,12.91,2.12,19.46,2.12,7.3,0,14.1-1,18.57-3.56,1.74-1,3.14-2.24,4.03-3.79,5.93-10.29,6.75-19.2,10.34-27.76l-.46-.19-.5-.03c-.44,7.96-1.55,34.56-2.99,64.48-.15,2.99-.3,6.02-.45,9.07-1.54,34.26-3.75,68.33-9.08,102.09-.59,3.76-1.22,7.51-1.9,11.25h0c-.71,3.69-1.45,7.37-2.22,11.03-.77,3.66-1.56,7.31-2.38,10.94l.49,.11-.48-.14c-5.76,20.46-12.32,53.18-18.37,73.81l-.02,.07v.08h.5l-.48-.14c-1.62,5.51-3.2,10.17-4.7,13.46-.75,1.65-1.49,2.96-2.18,3.85-.69,.9-1.33,1.35-1.8,1.41-.36,.06-.71,.08-1.05,.08-2.33,0-4.25-1.27-5.96-3.61-1.69-2.34-3.09-5.74-4.26-9.79-2.14-7.39-3.52-16.96-4.75-26.41-1.24-9.45-2.34-18.78-3.96-25.73l-.49,.11,.5-.05c-.25-2.69-.44-5.37-.53-8.06v-.04c-.51-4.14-1.13-9.02-1.8-14.26-1.25-9.9-2.65-21.03-3.75-30.66-1.1-9.63-1.88-17.77-1.88-21.6,0-.45,.01-.83,.03-1.15l-.5-.03"/><path class="cls-1" d="M111.97,134.1c-.94,2.66-1.71,5.37-2.52,8.15-1.54,5.23-3.25,10.73-6.69,16.69h0l-.03,.05c-.15,.26-.31,.5-.49,.74l-.02,.03v.02c-.81,1.07-1.87,1.98-3.14,2.74-.11,.07-.23,.14-.35,.21-.06,.03-.11,.06-.17,.1,2.5,16.66,4.22,34.21,3.31,47.79-2.42,36.33-8.48,112.03-16.96,138.67-3.38,10.63-6.68,35.54-9.4,61.63,5.83-20.69,12.07-51.51,17.59-71.1,.82-3.63,1.61-7.28,2.38-10.94,.77-3.66,1.51-7.34,2.22-11.03h0c.68-3.74,1.31-7.49,1.9-11.25,5.33-33.77,7.54-67.84,9.08-102.09,.15-3.05,.3-6.08,.45-9.07,1.29-26.75,2.31-50.84,2.83-61.33"/><path class="cls-7" d="M99.08,162.52c-.17,.1-.34,.2-.52,.3h0c.06-.03,.11-.06,.17-.09,.12-.07,.23-.14,.35-.21m3.14-2.76v0m.51-.77c-.15,.25-.31,.5-.49,.74,.18-.24,.34-.49,.49-.74m9.82-26.46c-.2,.52-.39,1.05-.58,1.57-.52,10.5-1.54,34.59-2.83,61.33-.15,2.99-.3,6.02-.45,9.07-1.54,34.26-3.75,68.33-9.08,102.09-.59,3.76-1.22,7.51-1.9,11.25h0c-.71,3.69-1.45,7.37-2.22,11.03-.77,3.65-1.56,7.31-2.38,10.94-5.51,19.59-11.76,50.41-17.59,71.1-.1,.94-.2,1.89-.29,2.83,6.06-20.66,12.62-53.39,18.37-73.81,.82-3.63,1.62-7.29,2.39-10.95,.77-3.66,1.51-7.34,2.22-11.04,.68-3.75,1.31-7.51,1.91-11.27,5.34-33.8,7.54-67.89,9.08-102.15,.15-3.05,.3-6.08,.45-9.07,1.36-28.21,2.42-53.47,2.91-62.93"/><path class="cls-1" d="M31.2,132.69s-.01,.08-.02,.12c-.11,.67-.2,1.54-.27,2.57-.14,2.07-.21,4.81-.21,8.11,0,26.5,4.22,88.39,6.33,123.19,.7,11.6,1.17,20.18,1.17,23.49,0,.43,0,.77-.03,1.02l-.5-.03,.5,.03c-.02,.32-.03,.71-.03,1.15,0,3.84,.78,11.98,1.88,21.6,1.1,9.63,2.51,20.77,3.75,30.66,.67,5.24,1.29,10.12,1.79,14.26v.04c.09,2.68,.28,5.34,.53,8.02,1.61,6.95,2.71,16.26,3.95,25.7,1.15,8.77,2.42,17.65,4.31,24.78,.16-15.37-2.37-37.97-5.17-49.96-4.24-18.17-6.06-85.99-9.08-101.13-1.69-8.45-1.68-73.49-.72-117.21-.34-.58-.67-1.17-1.01-1.78-2.25-4.06-4.5-8.72-6.64-13.45-.18-.4-.36-.79-.54-1.19"/><path class="cls-7" d="M30.85,131.91c-3.35,13.48,7.43,150.35,6.83,159.25-.4,6.06,2.96,32.56,5.6,53.52,.67,5.24,1.29,10.12,1.79,14.26,.09,2.7,.28,5.39,.53,8.09,3.2,13.81,4.42,37.28,8.72,52.17,.01-.58,.03-1.17,.03-1.77-1.89-7.14-3.16-16.02-4.31-24.78-1.24-9.44-2.34-18.75-3.95-25.7-.25-2.68-.44-5.35-.52-8.02v-.04c-.51-4.14-1.13-9.02-1.8-14.26-1.25-9.9-2.65-21.03-3.75-30.66-1.1-9.63-1.88-17.77-1.88-21.6,0-.45,.01-.83,.03-1.15l-.5-.03,.5,.03c.02-.26,.03-.6,.03-1.02,0-3.3-.47-11.88-1.17-23.49-2.11-34.8-6.33-96.69-6.33-123.19,0-3.29,.07-6.04,.21-8.11,.07-1.03,.16-1.9,.27-2.57,0-.04,.01-.08,.02-.12,.18,.4,.36,.8,.54,1.19-.3-.66-.59-1.32-.89-1.98"/><path class="cls-4" d="M9.22,70.13c3.18,9.54,6.81,25.89,11.81,37.24,3.53,8.02,10.69,26.92,17.79,39.73,2.94,5.32,5.89,9.59,8.55,11.59,7.64,5.74,36.56,10.18,49.57,4.38,2.44-1.07,4.32-2.51,5.39-4.38,6.81-11.81,6.81-21.8,12.26-31.79,5.45-9.99,17.77-34.1,23.62-43.67,5.79-9.5,10.45-21.72,10.9-33.53,.38-9.94-2.46-15.05-8.52-19.95-1.13-.92-2.39-1.83-3.75-2.76-8.63-5.9-17.71-5.9-24.98-10.45-7.27-4.54-15.44-6.81-21.35-11.35C84.61,.64,77.73,.18,72.35,.64c-4,.34-7.76,1.22-11.35,2.39-8.21,2.65-15.59,6.72-23.16,8.97C28.73,14.69,1.68,21.96,.59,32.88c-.95,9.54,5.45,27.7,8.63,37.24"/><path class="cls-2" d="M9.22,70.13l-.47,.16c3.17,9.49,6.8,25.86,11.82,37.28,3.52,8,10.68,26.91,17.81,39.77,2.96,5.35,5.91,9.65,8.69,11.75,2.68,2,7.65,3.77,13.61,5.08,5.96,1.3,12.9,2.12,19.45,2.12,6.49,0,12.59-.8,17.01-2.76h0c2.5-1.1,4.47-2.59,5.62-4.59,3.44-5.96,5.15-11.46,6.69-16.69,1.53-5.23,2.89-10.18,5.58-15.12,5.45-10,17.78-34.11,23.6-43.65,5.83-9.56,10.51-21.85,10.97-33.77,.02-.6,.03-1.17,.03-1.74,0-4.47-.72-7.96-2.19-10.92-1.47-2.96-3.66-5.37-6.54-7.7-1.15-.93-2.41-1.85-3.78-2.79-4.38-3-8.87-4.49-13.14-5.8-4.27-1.31-8.31-2.44-11.86-4.66-7.35-4.58-15.52-6.86-21.31-11.33C85.92,1.01,80.35,0,75.53,0,74.41,0,73.33,.05,72.31,.14c-4.05,.34-7.84,1.24-11.47,2.41-8.27,2.67-15.65,6.74-23.15,8.97-4.55,1.35-13.61,3.84-21.69,7.38-4.04,1.77-7.84,3.8-10.73,6.1C2.4,27.3,.4,29.89,.1,32.83c-.07,.67-.1,1.37-.1,2.1,0,5.05,1.45,11.64,3.27,18.11,1.82,6.47,4,12.8,5.48,17.24l.47-.16,.47-.16c-1.48-4.45-3.66-10.76-5.47-17.19-1.81-6.43-3.23-12.98-3.23-17.84,0-.71,.03-1.38,.09-2,.25-2.52,2.03-4.93,4.81-7.15,4.16-3.33,10.48-6.17,16.61-8.4,6.12-2.24,12.05-3.89,15.47-4.91,7.64-2.27,15.02-6.35,23.17-8.97,3.57-1.15,7.29-2.03,11.24-2.36,1-.08,2.05-.14,3.13-.14,4.69,0,10.01,.98,14.69,4.58,6.02,4.62,14.2,6.88,21.39,11.38,3.72,2.32,7.85,3.46,12.1,4.77,4.25,1.3,8.62,2.76,12.86,5.67,1.36,.93,2.59,1.83,3.71,2.74,2.82,2.28,4.89,4.57,6.28,7.36,1.38,2.79,2.08,6.11,2.09,10.48,0,.55-.01,1.12-.03,1.7-.45,11.69-5.07,23.85-10.83,33.29-5.86,9.61-18.18,33.71-23.63,43.7-2.76,5.06-4.13,10.1-5.66,15.31-1.53,5.22-3.22,10.62-6.6,16.47-1,1.74-2.78,3.13-5.16,4.17h0c-4.2,1.88-10.2,2.68-16.6,2.68-6.47,0-13.35-.81-19.24-2.1-5.88-1.28-10.79-3.06-13.22-4.9-2.54-1.91-5.5-6.14-8.42-11.44-7.08-12.76-14.23-31.64-17.77-39.69-4.97-11.28-8.6-27.62-11.79-37.2l-.47,.16"/><path class="cls-8" d="M140.87,30.62c3.52,11.74,.1,28.37-1.3,33.6-3.79,14.08-17.39,38.11-24.38,52.23-9.34,18.89-10.85,32.79-17.85,45.88,2.07-1.01,3.64-2.3,4.55-3.89,3.38-5.85,5.07-11.25,6.6-16.47,1.53-5.22,2.9-10.25,5.66-15.31,5.45-9.98,17.77-34.08,23.63-43.7,5.76-9.44,10.38-21.6,10.83-33.29,.02-.58,.03-1.15,.03-1.7,0-4.36-.7-7.68-2.09-10.48-1.29-2.59-3.17-4.75-5.68-6.87"/><path class="cls-6" d="M140.59,29.74c.1,.29,.19,.58,.28,.88,2.52,2.12,4.4,4.28,5.68,6.87,1.38,2.79,2.08,6.11,2.09,10.48,0,.55-.01,1.12-.03,1.7-.45,11.69-5.07,23.85-10.83,33.29-5.86,9.61-18.18,33.71-23.63,43.7-2.76,5.06-4.13,10.1-5.66,15.31-1.53,5.22-3.22,10.62-6.6,16.47-.91,1.59-2.48,2.88-4.55,3.89-.13,.25-.26,.49-.4,.74,2.44-1.07,4.32-2.51,5.39-4.38,6.81-11.81,6.81-21.8,12.26-31.79,5.45-9.99,17.77-34.1,23.62-43.67,5.79-9.5,10.45-21.72,10.9-33.53,.38-9.94-2.46-15.05-8.52-19.95"/><path class="cls-8" d="M60.9,3.58c-8.05,2.63-15.35,6.64-22.92,8.89-3.42,1.01-9.35,2.66-15.47,4.91-6.12,2.24-12.44,5.08-16.61,8.4-2.78,2.22-4.57,4.63-4.81,7.15-.06,.63-.09,1.3-.09,2,0,4.86,1.43,11.41,3.23,17.84,1.81,6.43,3.98,12.74,5.47,17.19h0c3.19,9.58,6.83,25.91,11.79,37.2,3.44,7.81,10.27,25.81,17.13,38.53-2.69-18.26-10.8-36.36-13.5-43.32-5.06-13.02-11.73-32.85-15.9-55.41-3.18-17.22,5.15-19.53,11.5-23.16,6.36-3.63,21.56-6.15,27.94-9.82,.93-.54,11-7.88,12.23-10.4"/><path class="cls-6" d="M61,3.02c-8.21,2.65-15.59,6.72-23.16,8.97C28.73,14.69,1.68,21.96,.59,32.88c-.95,9.54,5.45,27.7,8.63,37.24h0l.47-.16-.47,.16c3.18,9.54,6.81,25.89,11.81,37.24,3.53,8.02,10.69,26.92,17.79,39.73-.06-.47-.13-.93-.2-1.4-6.87-12.72-13.7-30.72-17.13-38.53-4.97-11.28-8.6-27.62-11.79-37.2h0c-1.48-4.45-3.66-10.76-5.47-17.19-1.81-6.43-3.23-12.98-3.23-17.84,0-.71,.03-1.38,.09-2,.25-2.52,2.03-4.93,4.81-7.15,4.16-3.33,10.48-6.17,16.61-8.4,6.12-2.24,12.05-3.89,15.47-4.91,7.56-2.25,14.86-6.26,22.92-8.89,.11-.23,.15-.42,.1-.56"/></g></svg>