<?xml version="1.0" encoding="UTF-8"?><svg id="Layer_2" xmlns="http://www.w3.org/2000/svg" viewBox="0 0 142.55 472.58"><defs><style>.cls-1{fill:#b5aa77;}.cls-2{fill:#caccb6;}.cls-3{fill:#afa05f;}.cls-4{fill:#f1f4e5;}.cls-5{fill:#c9bd84;}.cls-6{fill:#b5b7a3;}.cls-7{fill:#9d9055;}.cls-8{fill:#d8dbce;}</style></defs><g id="Layer_3"><path class="cls-5" d="M30.02,187.2c-1.21,25.43,7.27,105.97,9.69,125.35,.33,2.62,.53,7.47,.67,13.88,.08,3.22,.13,6.81,.16,10.71,1.19,42.33,2.45,86.48,1.7,129.82,.56,4.86,6.47,6.79,9.8,3.49,.16-.18,.34-.35,.49-.55,17.75-22.47,31.99-56.37,40-82.34,1.36-3.72,2.62-7.46,3.81-11.23,10.67-33.94,14.8-70.18,15.18-105.57,.44-9.97,.88-20.64,1.31-31.43,1.69-43.16,3.18-88.12,3.85-97.08-6.22,4.58-15.49,5.02-21.72,8.31-1.17,.62-2.32,1.05-3.47,1.33-6.46,1.61-13.06-1.33-24.24-1.33-13.17,0-36.37-5.11-40.46-14.65-1.4,12.29,4.43,25.85,3.22,51.28"/><path class="cls-3" d="M30.02,187.2l-.5-.02c-.08,1.69-.12,3.62-.12,5.75,0,30.14,7.55,101.56,9.81,119.69,.32,2.58,.53,7.43,.67,13.83,.08,3.21,.13,6.81,.16,10.71h0c.94,33.53,1.93,68.19,1.93,102.68,0,9.06-.07,18.11-.22,27.12v.07c.2,1.73,1.04,3.14,2.19,4.09,1.16,.96,2.63,1.48,4.12,1.48,1.54,0,3.11-.56,4.34-1.78h0v-.02c.16-.17,.35-.36,.53-.59l-.4-.3,.39,.31c17.81-22.56,32.06-56.49,40.09-82.51l-.48-.15,.47,.17c1.36-3.73,2.63-7.47,3.82-11.25,10.69-34,14.82-70.29,15.2-105.71h-.5l.5,.02c.44-9.97,.88-20.64,1.31-31.43,1.69-43.15,3.18-88.14,3.85-97.06l.08-1.09-.88,.65c-3.02,2.23-6.83,3.47-10.7,4.56-3.86,1.09-7.77,2.03-10.96,3.71-1.14,.6-2.25,1.01-3.35,1.28h0c-1.34,.34-2.7,.47-4.12,.47-5.16,0-11.16-1.81-20-1.81-6.52,0-15.59-1.27-23.49-3.72-3.95-1.23-7.61-2.75-10.51-4.54-2.91-1.79-5.04-3.84-6-6.08l-.74-1.73-.21,1.87c-.15,1.35-.22,2.72-.22,4.11,0,10.22,3.6,21.81,3.6,40.27,0,2.21-.05,4.51-.17,6.93l.5,.02,.5,.02c.12-2.43,.17-4.75,.17-6.97,0-18.59-3.61-30.29-3.6-40.27,0-1.36,.07-2.69,.22-4l-.5-.06-.46,.2c1.09,2.53,3.39,4.69,6.39,6.54,9.02,5.54,24.56,8.4,34.53,8.41,8.7,0,14.6,1.8,20,1.81,1.48,0,2.92-.14,4.36-.5h0c1.19-.29,2.38-.73,3.58-1.37,3.03-1.6,6.88-2.54,10.77-3.63,3.89-1.1,7.82-2.36,11.02-4.72l-.3-.4-.5-.04c-.67,8.99-2.16,53.93-3.85,97.1-.43,10.79-.87,21.46-1.31,31.42h0v.02c-.38,35.35-4.5,71.55-15.15,105.42-1.18,3.76-2.44,7.49-3.8,11.2h0v.02c-8,25.93-22.24,59.8-39.92,82.18h0c-.12,.17-.29,.34-.46,.52l.37,.34-.35-.36c-1.04,1.02-2.34,1.49-3.64,1.49-1.26,0-2.51-.44-3.48-1.25-.97-.81-1.66-1.97-1.83-3.44l-.5,.06h.5c.15-9.01,.22-18.06,.22-27.13,0-34.51-.99-69.18-1.93-102.7h0c-.04-3.89-.09-7.49-.16-10.71-.14-6.41-.34-11.26-.67-13.93-2.26-18.08-9.8-89.55-9.8-119.56,0-2.12,.04-4.03,.12-5.7l-.5-.02"/><path class="cls-1" d="M116.12,143.25c-.82,.54-1.68,1.01-2.57,1.43-2.39,1.15-5,1.95-7.58,2.68-3.67,1.03-7.3,1.92-10.25,3.37-.17,.09-.35,.17-.52,.26-1.26,.67-2.51,1.13-3.76,1.42-.69,9.1,2.87,71.16-.61,131.66-6.46,112.03-19.55,132.1-23.87,147.15-1.2,4.2-7.99,23.21-14.18,37.54,17.39-22.38,31.39-55.75,39.29-81.38h0v-.02c1.36-3.71,2.62-7.44,3.81-11.2,10.65-33.87,14.78-70.07,15.15-105.42h0v-.02c.44-9.96,.88-20.64,1.31-31.42,1.63-41.69,3.08-85.05,3.78-96.05"/><path class="cls-7" d="M113.55,144.69c-1.53,.73-3.15,1.33-4.79,1.85-4.57,1.45-9.35,2.39-13.05,4.21,2.95-1.45,6.58-2.34,10.25-3.37,2.58-.73,5.18-1.53,7.58-2.68m3.1-1.79c-.17,.12-.35,.24-.52,.35-.7,11.01-2.14,54.36-3.78,96.05-.43,10.79-.87,21.46-1.31,31.42h0v.02c-.38,35.35-4.5,71.55-15.15,105.42-1.18,3.76-2.44,7.49-3.8,11.2h0v.02c-7.9,25.62-21.9,59-39.29,81.38-.24,.56-.49,1.12-.73,1.67,.16-.18,.34-.35,.49-.55,17.75-22.47,31.99-56.37,40-82.34,1.36-3.72,2.62-7.46,3.81-11.23,10.67-33.94,14.8-70.18,15.18-105.57,.44-9.97,.88-20.64,1.31-31.43,1.65-42.2,3.11-86.12,3.8-96.43"/><path class="cls-4" d="M.5,53.37c.01,12.28,6.36,34.06,11.35,43.15,4.99,9.08,10.86,29.86,14.95,39.4,.42,.96,1.02,1.88,1.8,2.75,6.88,7.77,26.82,11.9,38.65,11.9,9.56,0,15.77,2.16,21.42,1.77,2.12-.14,4.16-.64,6.28-1.77,7.72-4.09,20.13-3.78,25.59-12.41,5.45-8.63,11.56-23.79,16.25-38.89,2.3-7.43,9.49-45.43,1.77-60.87-7.72-15.44-22.42-22.75-28.81-26.69C102.33,7.11,88.15-.82,79.37,.69c-1.05,.18-2.07,.39-3.09,.64-18.78,4.5-33.23,19.44-41.42,24.18-6.98,4.04-25.12,10.53-31.82,20.31-1.6,2.33-2.55,4.84-2.55,7.54"/><path class="cls-2" d="M.5,53.37H0c0,6.22,1.61,14.76,3.82,22.9,2.22,8.15,5.06,15.88,7.59,20.49,2.46,4.48,5.18,11.94,7.78,19.45,2.6,7.52,5.09,15.1,7.15,19.9h0c.44,1.02,1.08,1.98,1.89,2.89h0c3.57,4.02,10.34,6.99,17.71,9.01,7.37,2.01,15.34,3.05,21.32,3.05,8.7,0,14.6,1.81,20,1.81,.49,0,.97-.02,1.46-.05,2.17-.14,4.3-.67,6.48-1.82,3.76-1.99,8.77-2.95,13.56-4.47,4.78-1.52,9.39-3.65,12.21-8.12,5.49-8.7,11.6-23.88,16.3-39.01,.78-2.53,2.09-8.42,3.22-15.76,1.12-7.34,2.06-16.11,2.06-24.35,0-8.2-.91-15.87-3.54-21.13-7.81-15.61-22.64-22.97-29-26.9-3.4-2.1-8.23-4.91-13.32-7.2C91.6,1.78,86.25,0,81.72,0c-.84,0-1.66,.06-2.43,.2-1.06,.18-2.09,.4-3.13,.65h0c-9.49,2.27-17.84,7.17-24.85,12.08-7,4.91-12.68,9.84-16.7,12.16-3.43,1.99-9.73,4.63-16,8-6.27,3.37-12.54,7.45-15.98,12.47C.99,47.94,0,50.55,0,53.37H1c0-2.58,.9-4.99,2.46-7.26,3.25-4.76,9.41-8.82,15.63-12.15,6.22-3.34,12.48-5.96,16.03-8.01,4.17-2.42,9.81-7.33,16.77-12.2,6.96-4.87,15.21-9.7,24.51-11.93h0c1.01-.25,2.02-.46,3.05-.64,.72-.12,1.47-.18,2.27-.18,4.27,0,9.54,1.72,14.56,3.98,5.03,2.26,9.82,5.05,13.2,7.14,6.44,3.97,21,11.22,28.63,26.49,2.5,4.99,3.43,12.56,3.43,20.68,0,8.17-.93,16.9-2.04,24.2-1.12,7.3-2.43,13.19-3.18,15.62-4.68,15.07-10.79,30.22-16.19,38.77-2.62,4.16-6.95,6.2-11.67,7.7-4.71,1.51-9.76,2.45-13.73,4.54-2.06,1.09-4.02,1.57-6.08,1.71-.46,.03-.92,.05-1.39,.05-5.17,0-11.16-1.81-20-1.81-5.86,0-13.78-1.03-21.05-3.02-7.28-1.98-13.92-4.96-17.23-8.71h0c-.75-.84-1.32-1.71-1.72-2.62h0c-2.03-4.73-4.52-12.31-7.12-19.83-2.61-7.53-5.32-15-7.85-19.61-2.46-4.48-5.3-12.18-7.5-20.27-2.21-8.09-3.79-16.58-3.79-22.64H.5"/><path class="cls-8" d="M81.74,1h-.02c-.79,0-1.55,.06-2.27,.18-.73,.12-1.45,.26-2.16,.42,4.63,1.3,10.6,3.6,18.12,7.56,23.01,12.11,37.55,23.01,39.97,31.49,2.42,8.48,7.27,18.77-10.29,69.64-7.16,20.74-17.28,32.32-28.8,39.08,3.68-1.59,8.05-2.48,12.16-3.79,4.72-1.5,9.05-3.54,11.67-7.7,5.41-8.55,11.51-23.7,16.19-38.77,.75-2.43,2.07-8.32,3.18-15.62,1.12-7.3,2.04-16.03,2.04-24.2,0-8.12-.93-15.69-3.43-20.68-7.63-15.27-22.19-22.53-28.63-26.49-3.38-2.09-8.18-4.88-13.2-7.14-5.02-2.26-10.28-3.98-14.54-3.98"/><path class="cls-6" d="M81.72,.5c-.82,0-1.6,.06-2.35,.19-1.05,.18-2.07,.39-3.09,.64,.33,.09,.67,.18,1.01,.27,.71-.16,1.43-.3,2.16-.42,.72-.12,1.47-.18,2.27-.18h.02c4.26,0,9.52,1.72,14.54,3.98,5.03,2.26,9.82,5.05,13.2,7.14,6.44,3.97,21,11.22,28.63,26.49,2.5,4.99,3.43,12.56,3.43,20.68,0,8.17-.93,16.9-2.04,24.2-1.12,7.3-2.43,13.19-3.18,15.62-4.68,15.07-10.79,30.22-16.19,38.77-2.62,4.16-6.95,6.2-11.67,7.7-4.11,1.31-8.48,2.2-12.16,3.79-1.58,.92-3.18,1.76-4.8,2.52,0,0,1.16-.31,3.47-1.33,8-3.5,20.13-3.78,25.59-12.41,5.45-8.63,11.56-23.79,16.25-38.89,2.3-7.43,9.49-45.43,1.77-60.87-7.72-15.44-22.42-22.75-28.81-26.69C102.96,7.5,90.51,.5,81.72,.5"/><path class="cls-8" d="M3.11,46.63c-1.35,2.12-2.11,4.35-2.11,6.74,0,6.06,1.58,14.55,3.79,22.64,2.2,8.09,5.04,15.79,7.5,20.27,2.53,4.61,5.24,12.08,7.85,19.61,2.6,7.53,5.09,15.1,7.12,19.84h0c.27,.62,.62,1.23,1.06,1.82-3.08-12.32-6.31-24.74-7.69-28.75-3.03-8.78-10.29-29.97-13.93-40.87-1.94-5.81-3.02-14.46-3.59-21.27"/><path class="cls-6" d="M3.05,45.83c-1.6,2.33-2.55,4.84-2.55,7.54,.01,12.28,6.36,34.06,11.35,43.15,4.99,9.08,10.86,29.86,14.95,39.4,.42,.96,1.02,1.88,1.8,2.75-.09-.38-.19-.75-.28-1.13-.44-.59-.79-1.2-1.06-1.82h0c-2.03-4.73-4.52-12.31-7.12-19.83-2.61-7.53-5.32-15-7.85-19.61-2.46-4.48-5.3-12.18-7.5-20.27-2.21-8.09-3.79-16.58-3.79-22.64,0-2.38,.77-4.62,2.11-6.74-.02-.27-.04-.54-.07-.81"/></g></svg>