<?xml version="1.0" encoding="UTF-8"?><svg id="Layer_2" xmlns="http://www.w3.org/2000/svg" viewBox="0 0 251.7 488.42"><defs><style>.cls-1{fill:#b5aa77;}.cls-2{fill:#caccb6;}.cls-3{fill:#afa05f;}.cls-4{fill:#f1f4e5;}.cls-5{fill:#c9bd84;}.cls-6{fill:#b5b7a3;}.cls-7{fill:#9d9055;}.cls-8{fill:#d8dbce;}</style></defs><g id="Layer_3"><path class="cls-5" d="M42.73,360.61c2.19,10.68,3.95,18.78,4.7,22.17,2.96,13.31,18.49,53.25,29.59,76.18,11.09,22.93,22.19,28.85,28.49,28.85,2.31,0,3.87-1.99,4.87-5.25,1.76-5.67,1.86-15.22,1.4-25.07-.74-15.53-3.7-66.57-5.92-97.63-2.22-31.07,6.66-62.13,8.14-72.49,1.48-10.35,9.62-44.38,19.97-43.64,10.35,.74,14.79,44.38,17.75,53.99,.8,2.62,2.16,8.06,3.74,14.89v.02c1.3,5.59,2.76,12.11,4.19,18.75,.03,.15,.08,.31,.11,.46,3.23,14.88,6.38,30.23,7.49,36.89,2.22,13.31,15.53,57.69,17.75,67.31,2.22,9.62,17.01,28.11,24.41,27.37,7.4-.74,8.88-34.39,9.62-48.45,.74-14.05,8.06-263.05,8.06-263.05-4.82,3.13-11.16,5.55-18.14,7.47-19.34,5.33-43.72,6.84-55.01,8.91-16.64,3.05-37.15,5.07-46.6,4.48-9.97-.62-38.28-5.04-52.7-5.59-5.95-.23-10.93-.12-14.92-.26-2.74-.09-5.04-.32-6.86-.83-.09,.37-.17,.74-.23,1.09-4.44,24.78-5.18,57.32-5.92,86.91-.55,22.05,9.57,75.3,16.01,106.52"/><path class="cls-3" d="M42.73,360.61l-.6,.12c2.19,10.68,3.95,18.79,4.7,22.18,1.5,6.73,6.12,20.04,11.77,34.57,5.65,14.53,12.31,30.25,17.86,41.74,5.57,11.52,11.16,18.8,16.19,23.21,5.03,4.41,9.51,5.97,12.85,5.98,1.34,0,2.5-.6,3.38-1.61,.89-1.01,1.55-2.4,2.07-4.08,1.24-4.01,1.66-9.78,1.66-16.21,0-2.92-.09-5.98-.23-9.07-.74-15.54-3.7-66.57-5.92-97.65-.24-3.4-.35-6.81-.35-10.19,0-13.66,1.79-26.88,3.74-37.85,1.96-10.97,4.07-19.65,4.74-24.32,.72-5.07,3.08-15.97,6.51-25.55,1.72-4.79,3.7-9.25,5.86-12.47,1.08-1.61,2.2-2.91,3.32-3.78,1.13-.88,2.23-1.33,3.34-1.33h.29c1.07,.09,2.14,.73,3.2,1.94,1.85,2.12,3.55,5.9,5.03,10.49,2.22,6.89,3.98,15.58,5.42,23.34,1.45,7.76,2.57,14.56,3.56,17.81,.79,2.58,2.15,8.03,3.73,14.84l.59-.14h-.61v.09l.02,.07c1.3,5.59,2.76,12.1,4.19,18.74l.6-.13-.6,.12c.04,.19,.09,.35,.11,.46v0c3.23,14.88,6.38,30.23,7.48,36.86,1.12,6.72,5,21.13,8.89,35.1,3.88,13.96,7.77,27.47,8.87,32.24,1.14,4.9,5.28,11.75,10.1,17.49,2.41,2.86,4.99,5.43,7.47,7.3,2.49,1.86,4.86,3.06,6.98,3.08,.17,0,.34,0,.5-.02,1.17-.12,2.14-.87,2.94-1.96,1.41-1.92,2.46-5.01,3.34-8.8,2.6-11.36,3.4-29.03,3.89-38.25,.74-14.08,8.06-263.06,8.06-263.06l.03-1.16-.98,.63c-4.74,3.08-11.02,5.48-17.97,7.4-9.62,2.65-20.53,4.36-30.44,5.66-9.91,1.3-18.83,2.19-24.52,3.23-14.67,2.69-32.38,4.58-42.76,4.57-1.37,0-2.61-.03-3.69-.1-4.94-.31-14.52-1.56-24.64-2.82-10.13-1.25-20.82-2.5-28.07-2.78-5.97-.23-10.95-.12-14.92-.26-2.72-.09-4.98-.32-6.71-.81l-.61-.17-.15,.61c-.1,.38-.18,.77-.24,1.14h0c-4.45,24.85-5.19,57.41-5.93,86.99-.02,.59-.02,1.2-.02,1.83,0,11.6,2.45,30.18,5.67,49.7,3.23,19.51,7.24,39.93,10.37,55.14l.6-.12,.6-.12c-3.13-15.19-7.14-35.6-10.36-55.09-3.22-19.48-5.66-38.06-5.66-49.5,0-.62,0-1.22,.02-1.8,.74-29.58,1.48-62.11,5.91-86.82h0c.06-.34,.13-.7,.22-1.05l-.59-.15-.16,.59c1.9,.53,4.23,.76,7,.85,4.02,.14,8.98,.03,14.91,.26,7.17,.28,17.85,1.52,27.97,2.77,10.13,1.25,19.69,2.51,24.72,2.82,1.12,.07,2.38,.1,3.77,.1,10.51,0,28.24-1.89,42.98-4.59,5.6-1.02,14.53-1.92,24.46-3.22,9.94-1.3,20.89-3.02,30.6-5.7,7.02-1.94,13.4-4.37,18.31-7.55l-.33-.51-.61-.02s-.03,.97-.08,2.8c-.81,27.4-7.28,247.09-7.97,260.23-.37,7.03-.93,18.94-2.31,29.16-.69,5.11-1.59,9.8-2.76,13.21-.58,1.7-1.23,3.09-1.93,4.02-.7,.95-1.39,1.41-2.08,1.47-.12,.01-.25,.02-.38,.02-1.64,.01-3.87-1.03-6.25-2.83-3.57-2.69-7.47-6.99-10.67-11.49-3.19-4.49-5.68-9.2-6.46-12.59-1.12-4.85-5-18.33-8.88-32.29-3.88-13.95-7.76-28.39-8.86-34.98-1.11-6.68-4.26-22.03-7.49-36.92l-.6,.13,.6-.12c-.04-.19-.09-.35-.11-.46h0c-1.43-6.65-2.9-13.17-4.19-18.77l-.6,.14h.61v-.09l-.02-.07c-1.59-6.83-2.94-12.27-3.75-14.93-.72-2.33-1.56-6.87-2.55-12.32-1.49-8.18-3.35-18.46-5.81-26.79-1.24-4.17-2.62-7.85-4.22-10.58-.8-1.36-1.65-2.49-2.59-3.31-.94-.82-1.98-1.34-3.12-1.42-.13,0-.25-.01-.38-.01-1.45,0-2.82,.6-4.09,1.59-2.22,1.74-4.2,4.69-6.01,8.3-5.41,10.81-9.17,27.5-10.14,34.29-.65,4.55-2.78,13.28-4.74,24.28-1.96,11-3.76,24.3-3.76,38.06,0,3.41,.11,6.84,.36,10.28,2.22,31.06,5.18,82.09,5.92,97.62,.14,3.07,.23,6.11,.23,9.01,0,6.37-.43,12.07-1.61,15.85-.48,1.58-1.1,2.82-1.82,3.63-.72,.8-1.49,1.19-2.47,1.2-2.96,0-7.18-1.4-12.05-5.67-4.87-4.27-10.37-11.42-15.89-22.83-5.54-11.44-12.19-27.15-17.82-41.65-5.63-14.5-10.26-27.82-11.72-34.4-.75-3.39-2.51-11.49-4.7-22.16l-.6,.12"/><path class="cls-1" d="M226.44,153.03c-.39,.23-.78,.46-1.18,.69-.14,.08-.29,.16-.44,.24-1.29,.71-2.67,1.37-4.1,2-.57,.25-1.16,.51-1.78,.74-.17,.07-.31,.12-.4,.16h-.02c-.63,.26-1.28,.49-1.92,.74h-.01c-.78,.28-1.55,.55-2.34,.81-1.66,.56-3.38,1.07-5.13,1.55h0l-.1,.03c.91,9.03,.1,19.22,.67,33.81,3.7,93.19,5.48,119.17,3.42,174.18-2.04,54.7,3.3,84.42-6.12,85.8-.21,.03-.42,.05-.63,.05-13.72,0-32.08-64-41.91-102.77,1.54,7.48,2.78,13.86,3.4,17.57,1.1,6.59,4.98,21.03,8.86,34.98,3.88,13.96,7.76,27.44,8.88,32.29,.78,3.39,3.26,8.1,6.46,12.59,3.19,4.5,7.1,8.8,10.67,11.49,2.36,1.79,4.58,2.83,6.22,2.83h.03c.13,0,.26,0,.38-.02,.68-.07,1.38-.53,2.08-1.47,.69-.94,1.34-2.32,1.93-4.02,1.17-3.41,2.07-8.1,2.76-13.21,1.38-10.22,1.94-22.14,2.31-29.16,.69-13.15,7.17-232.83,7.97-260.23,.02-.67,.04-1.22,.05-1.66"/><path class="cls-7" d="M224.82,153.96c-.1,.06-.21,.11-.32,.17-.34,.19-.67,.35-1,.52h0c-.36,.2-.72,.37-1.08,.54h0c-.53,.25-1.07,.5-1.63,.75l-.07,.03c1.44-.63,2.81-1.29,4.1-2m2.25-1.32c-.19,.12-.38,.23-.57,.34h0c-.33,.21-.66,.4-.99,.59-.08,.05-.17,.1-.25,.14,.4-.23,.8-.46,1.18-.69-.01,.43-.03,.99-.05,1.66-.81,27.4-7.28,247.09-7.97,260.23-.37,7.03-.93,18.94-2.31,29.16-.69,5.11-1.59,9.8-2.76,13.21-.58,1.7-1.23,3.09-1.93,4.02-.7,.95-1.39,1.41-2.08,1.47-.12,.01-.25,.02-.38,.02h-.03c-1.64,0-3.86-1.04-6.22-2.83-3.57-2.69-7.47-6.99-10.67-11.49-3.19-4.49-5.68-9.2-6.46-12.59-1.12-4.85-5-18.33-8.88-32.29-3.88-13.95-7.76-28.39-8.86-34.98-.62-3.71-1.86-10.08-3.4-17.57-1.93-7.6-3.52-14.23-4.69-19.22,3.23,14.88,6.38,30.23,7.49,36.89,2.22,13.31,15.53,57.69,17.75,67.31,2.18,9.43,16.44,27.39,23.97,27.39,.15,0,.3,0,.44-.02,7.4-.74,8.88-34.39,9.62-48.45,.72-13.61,7.6-247.48,8.04-262.31"/><path class="cls-1" d="M133.4,234.07c-.3,0-.6,.01-.91,.05-7.4,.74-36.24,40.68-32.54,112.42,2.36,45.78,7.12,100.6,10.27,134.27,.86-3.7,1.19-8.74,1.19-14.28,0-2.9-.09-5.94-.23-9.01-.74-15.52-3.7-66.56-5.92-97.62-.25-3.44-.36-6.87-.36-10.28,0-13.76,1.8-27.06,3.76-38.06,1.96-11,4.09-19.73,4.74-24.28,.97-6.79,4.73-23.49,10.14-34.29,1.81-3.6,3.79-6.56,6.01-8.3,1.27-.99,2.64-1.59,4.09-1.59,.12,0,.25,0,.38,.01,1.13,.08,2.18,.6,3.12,1.42,.94,.82,1.79,1.95,2.59,3.31,1.6,2.72,2.98,6.41,4.22,10.58,2.47,8.34,4.32,18.61,5.81,26.79,.99,5.45,1.83,9.99,2.55,12.32,.56,1.84,1.38,5.01,2.36,9.05-2.16-16.09-8.06-58.81-9.61-61.39-1.99-3.32-4.92-11.14-11.66-11.14"/><path class="cls-7" d="M133.64,243.11c-1.45,0-2.82,.6-4.09,1.59-2.22,1.74-4.2,4.69-6.01,8.3-5.41,10.81-9.17,27.5-10.14,34.29-.65,4.55-2.78,13.28-4.74,24.28-1.96,11-3.76,24.3-3.76,38.06,0,3.41,.11,6.84,.36,10.28,2.22,31.06,5.18,82.09,5.92,97.62,.14,3.07,.23,6.11,.23,9.01,0,5.54-.33,10.58-1.19,14.28,.05,.59,.11,1.17,.16,1.74,1.76-5.67,1.86-15.22,1.4-25.07-.74-15.53-3.7-66.57-5.92-97.63-2.22-31.07,6.66-62.13,8.14-72.49,1.46-10.24,9.44-43.65,19.64-43.65,.11,0,.22,0,.33,.01,10.35,.74,14.79,44.38,17.75,53.99,.8,2.62,2.16,8.06,3.74,14.89-.05-.38-.34-2.59-.8-6.01-.98-4.04-1.8-7.22-2.36-9.05-.72-2.33-1.56-6.87-2.55-12.32-1.49-8.18-3.35-18.46-5.81-26.79-1.24-4.17-2.62-7.85-4.22-10.58-.8-1.36-1.65-2.49-2.59-3.31-.94-.82-1.98-1.34-3.12-1.42-.13,0-.25-.01-.38-.01"/><path class="cls-4" d="M9.34,114.29c5.76,13.48,13.74,39.76,19.23,48.82,.83,1.37,2.11,2.25,3.82,2.82,.23,.08,.48,.15,.74,.22,.25,.08,.51,.14,.79,.19,.28,.06,.55,.11,.85,.15,.17,.03,.35,.06,.56,.09,.18,.03,.4,.04,.6,.08,.21,.03,.45,.05,.68,.06,.32,.03,.65,.06,.99,.09,.68,.05,1.39,.08,2.14,.11,3.99,.14,8.97,.03,14.92,.26,14.42,.56,42.73,4.98,52.7,5.59,9.45,.59,29.96-1.43,46.6-4.48,2.88-.52,6.64-1.02,10.92-1.54,3.07-.39,6.4-.77,9.89-1.22,.72-.09,1.46-.19,2.2-.28,1.43-.18,2.9-.39,4.38-.59,.28-.03,.55-.08,.85-.12,2.53-.34,5.12-.72,7.7-1.16,1.3-.2,2.59-.43,3.9-.66,1.3-.23,2.59-.46,3.87-.72,1.29-.25,2.57-.51,3.84-.79l.15-.03c1.22-.28,2.43-.55,3.62-.85,1.25-.31,2.48-.62,3.68-.96,1.74-.48,3.45-.99,5.1-1.54,.79-.26,1.56-.52,2.33-.8,.65-.25,1.29-.48,1.91-.72,.14-.06,.28-.11,.42-.17,.63-.25,1.25-.51,1.83-.77,.56-.25,1.09-.49,1.62-.74,.35-.17,.71-.34,1.05-.52,.34-.17,.68-.34,1.02-.52,.34-.17,.66-.35,.99-.54,.32-.19,.65-.37,.96-.57,.31-.18,.62-.37,.92-.57,1.71-1.11,3.22-2.3,4.52-3.59,8.32-8.32,16.09-38.65,17.2-55.84,1.05-16.16,3.88-43.33,1.09-56.58-.19-.85-.38-1.65-.62-2.37-4.47-14.22-23.33-12.88-29.88-21.34-4.92-6.35-16.98-9.83-28.97-11.02-1.63-.15-3.25-.28-4.85-.34-2.67-.14-5.3-.15-7.78-.06-5.42,.2-10.05,.62-14.02,1.25-7.01,1.12-12.03,2.93-15.93,5.41-6.1,3.88-15.53,9.43-27.74,8.88-3.51-.15-6.74-.52-9.69-1.02-8.69-1.48-15.01-4.13-19.15-6.19-5.55-2.77-7.21-6.66-19.41-8.32-6.44-.88-15.42,2.25-24.09,6.61-4.62,2.31-9.15,4.99-13.16,7.61-1.73,1.12-3.36,2.25-4.85,3.31-3.5,2.5-6.27,4.76-7.83,6.32C15.26,31.27,1.95,44.03,.84,64c-1.11,19.97,1.86,34.76,8.51,50.29"/><path class="cls-2" d="M9.34,114.29l-.56,.24c2.87,6.71,6.3,16.64,9.71,26.04,3.41,9.4,6.77,18.23,9.56,22.86,.92,1.52,2.35,2.49,4.15,3.08,.24,.08,.5,.16,.79,.23l.14-.59-.18,.58c.28,.09,.57,.15,.87,.2l.1-.6-.13,.6c.3,.07,.59,.11,.88,.16l.1-.6-.11,.6c.18,.03,.37,.06,.57,.1l.09-.6-.1,.6c.23,.04,.44,.05,.61,.08h0c.25,.04,.49,.05,.72,.07l.04-.61-.06,.61c.32,.03,.65,.06,.99,.09h.01c.69,.05,1.4,.08,2.16,.11h0c4.02,.14,8.98,.03,14.91,.26,7.17,.28,17.85,1.52,27.97,2.77,10.13,1.25,19.69,2.51,24.72,2.82,1.12,.07,2.38,.1,3.77,.1,10.51,0,28.24-1.89,42.98-4.59,2.86-.52,6.61-1.01,10.89-1.54,3.06-.39,6.4-.77,9.9-1.22,.72-.09,1.46-.19,2.2-.28,1.44-.19,2.91-.39,4.38-.59l-.08-.61,.07,.61c.3-.03,.59-.08,.88-.13l-.1-.6,.08,.6c2.53-.34,5.13-.73,7.72-1.16l-.1-.6,.09,.6c1.3-.2,2.6-.43,3.91-.66,1.3-.23,2.59-.46,3.88-.73l-.12-.6,.11,.6c1.3-.25,2.58-.51,3.85-.79l-.13-.6,.12,.6,.15-.03h.01c1.22-.28,2.44-.56,3.63-.85,1.25-.31,2.49-.62,3.7-.96h0c1.75-.48,3.47-.99,5.13-1.55,.79-.26,1.56-.53,2.34-.81h.01c.64-.25,1.29-.48,1.92-.73h.02c.1-.06,.24-.1,.41-.18l-.25-.56,.22,.57c.64-.25,1.27-.52,1.86-.78,.56-.25,1.1-.49,1.63-.74h0c.35-.17,.72-.34,1.08-.54l-.29-.54,.27,.55c.34-.17,.69-.34,1.04-.54l-.29-.54,.27,.55c.36-.18,.69-.37,1.02-.56,.32-.18,.66-.37,.99-.59l-.33-.51,.31,.52c.31-.18,.62-.37,.94-.58,1.74-1.13,3.28-2.34,4.61-3.67,2.17-2.18,4.23-5.68,6.17-10,5.79-12.95,10.36-33.24,11.21-46.23,.72-11.1,2.29-27.44,2.29-40.9,0-6.11-.32-11.64-1.21-15.85h0c-.19-.86-.39-1.68-.63-2.43h0c-1.15-3.68-3.26-6.37-5.83-8.44-3.86-3.1-8.76-4.82-13.25-6.57-4.5-1.74-8.59-3.53-10.89-6.52-2.58-3.32-6.92-5.81-12.11-7.65-5.19-1.83-11.25-3.01-17.28-3.6-1.64-.15-3.27-.28-4.89-.34l-.02,.61,.03-.61c-1.57-.08-3.12-.12-4.65-.12-1.08,0-2.15,.02-3.19,.06-5.44,.2-10.09,.62-14.1,1.26-7.06,1.13-12.18,2.96-16.16,5.5-5.8,3.69-14.52,8.82-25.71,8.82-.55,0-1.11-.01-1.67-.04-3.49-.15-6.68-.52-9.62-1.01-8.62-1.47-14.87-4.09-18.98-6.14-2.69-1.34-4.48-2.99-7.18-4.56-2.7-1.57-6.27-2.98-12.43-3.82-.77-.1-1.56-.15-2.38-.15-6.37,0-14.34,2.94-22.06,6.82-4.65,2.32-9.19,5.02-13.22,7.65-1.73,1.13-3.37,2.26-4.87,3.33-3.52,2.51-6.31,4.78-7.91,6.38C14.84,30.83,1.36,43.72,.23,63.96,.08,66.71,0,69.35,0,71.92c0,16.19,3.02,29.15,8.78,42.62l.56-.24,.56-.24C4.2,100.7,1.22,87.95,1.22,71.92c0-2.54,.08-5.16,.23-7.89C2.54,44.33,15.68,31.71,22.35,25.04c1.51-1.51,4.27-3.77,7.75-6.25,1.49-1.06,3.11-2.18,4.83-3.3,3.99-2.61,8.5-5.28,13.1-7.58,7.63-3.85,15.51-6.7,21.51-6.69,.77,0,1.51,.05,2.22,.14,6.05,.83,9.41,2.18,11.98,3.67,2.57,1.48,4.38,3.16,7.24,4.59,4.18,2.08,10.56,4.76,19.32,6.25,2.98,.5,6.23,.87,9.77,1.03,.58,.03,1.15,.04,1.72,.04,11.58,0,20.53-5.3,26.37-9.01,3.81-2.42,8.75-4.2,15.7-5.32,3.94-.63,8.54-1.04,13.95-1.24,1.02-.04,2.08-.06,3.15-.06,1.5,0,3.04,.04,4.58,.12h0c1.59,.06,3.19,.18,4.82,.34,5.95,.59,11.92,1.75,16.99,3.54,5.07,1.79,9.22,4.22,11.55,7.24,1.73,2.23,4.23,3.78,7.03,5.08,4.2,1.95,9.12,3.39,13.36,5.65,4.24,2.26,7.77,5.28,9.39,10.42h0c.22,.7,.42,1.48,.6,2.32h0c.86,4.06,1.18,9.52,1.18,15.59,0,13.38-1.56,29.69-2.29,40.82-.55,8.53-2.76,20.39-5.87,31.12-1.55,5.36-3.33,10.45-5.23,14.7-1.9,4.24-3.93,7.65-5.92,9.64-1.26,1.26-2.73,2.42-4.42,3.51-.3,.19-.6,.37-.91,.56h-.02c-.29,.2-.6,.38-.93,.56-.32,.19-.64,.36-.96,.52h-.02c-.33,.19-.66,.36-1,.53h-.02c-.32,.18-.67,.35-1.02,.52h0c-.52,.24-1.05,.49-1.61,.73-.58,.26-1.19,.52-1.81,.76h-.02c-.1,.06-.24,.1-.42,.18l.25,.56-.23-.57c-.6,.24-1.25,.47-1.9,.72l.22,.57-.21-.58c-.76,.28-1.53,.54-2.31,.8-1.64,.55-3.33,1.06-5.07,1.53h0c-1.19,.34-2.42,.64-3.66,.95-1.18,.29-2.39,.57-3.61,.84l.14,.6-.12-.6-.15,.03h-.01c-1.26,.28-2.53,.54-3.82,.79h0c-1.27,.26-2.56,.49-3.85,.72-1.31,.23-2.6,.46-3.88,.66h0c-2.58,.43-5.17,.82-7.68,1.15h-.02c-.3,.05-.56,.09-.82,.12h-.01c-1.48,.2-2.94,.4-4.37,.59-.74,.09-1.48,.19-2.2,.28-3.49,.45-6.82,.83-9.89,1.22-4.28,.52-8.05,1.02-10.96,1.55-14.67,2.69-32.38,4.58-42.76,4.57-1.37,0-2.61-.03-3.69-.1-4.94-.31-14.52-1.56-24.64-2.82-10.13-1.25-20.82-2.5-28.07-2.78-5.97-.23-10.95-.12-14.92-.26h0c-.76-.03-1.46-.06-2.13-.11l-.04,.61,.05-.61c-.34-.03-.66-.06-.98-.09h-.02c-.23-.02-.45-.03-.63-.06l-.09,.6,.09-.6c-.24-.04-.45-.05-.59-.08h0c-.2-.03-.37-.06-.54-.09h-.01c-.29-.05-.56-.09-.81-.15h-.03c-.25-.05-.49-.1-.7-.17h-.04c-.24-.07-.46-.14-.69-.21-1.62-.55-2.75-1.33-3.49-2.56-2.69-4.43-6.06-13.27-9.46-22.64-3.4-9.38-6.84-19.32-9.73-26.1l-.56,.24"/><path class="cls-8" d="M191.7,1.91c6.46,3.83,13.54,8.34,17.34,11.79,8.14,7.4,17.01,10.72,24.41,15.53,7.4,4.81,14.05,15.53,10.36,38.83-3.7,23.3-7.92,48.08-16.72,69.16-3.45,8.31-6.25,14.19-8.36,18.26,.54-.21,1.06-.44,1.57-.66,.55-.25,1.09-.49,1.61-.73h0c.35-.17,.7-.33,1.02-.51h.02c.34-.18,.67-.35,1-.52h.02c.32-.17,.63-.35,.96-.53,.32-.18,.64-.36,.93-.55h.02c.31-.2,.61-.38,.91-.57,1.68-1.09,3.16-2.25,4.42-3.51,1.99-1.98,4.02-5.39,5.92-9.64,1.9-4.25,3.68-9.33,5.23-14.7,3.11-10.73,5.32-22.58,5.87-31.12,.72-11.13,2.29-27.44,2.29-40.82,0-6.07-.32-11.53-1.18-15.6h0c-.18-.83-.38-1.62-.6-2.31h0c-1.62-5.14-5.15-8.15-9.39-10.42-4.24-2.26-9.16-3.7-13.36-5.65-2.8-1.31-5.29-2.85-7.03-5.08-2.34-3.03-6.49-5.46-11.55-7.24-4.69-1.66-10.15-2.78-15.66-3.4"/><path class="cls-6" d="M190.43,1.16c.42,.25,.84,.5,1.27,.75,5.51,.62,10.97,1.74,15.66,3.4,5.07,1.79,9.22,4.22,11.55,7.24,1.73,2.23,4.23,3.78,7.03,5.08,4.2,1.95,9.12,3.39,13.36,5.65,4.24,2.26,7.77,5.28,9.39,10.42h0c.22,.7,.42,1.48,.6,2.32h0c.86,4.06,1.18,9.52,1.18,15.59,0,13.38-1.56,29.69-2.29,40.82-.55,8.53-2.76,20.39-5.87,31.12-1.55,5.36-3.33,10.45-5.23,14.7-1.9,4.24-3.93,7.65-5.92,9.64-1.26,1.26-2.73,2.42-4.42,3.51-.3,.19-.6,.37-.91,.56h-.02c-.29,.2-.6,.38-.93,.56-.32,.19-.64,.36-.96,.52h-.02c-.33,.19-.66,.36-1,.53h-.02c-.32,.18-.67,.35-1.02,.52h0c-.52,.24-1.05,.49-1.61,.73-.5,.23-1.03,.45-1.57,.66-.15,.29-.29,.56-.44,.83,.77-.31,1.53-.62,2.25-.94,4.48-1.96,8.29-4.28,11.06-7.06,8.32-8.32,16.09-38.65,17.2-55.84,1.11-17.2,4.25-46.87,.48-58.96-4.47-14.22-23.33-12.88-29.88-21.34-4.92-6.35-16.98-9.83-28.97-11.02"/><path class="cls-2" d="M185,1.04c1.89,5.05,4.2,10.77,6.66,15.81,2.47,5.05,5.05,9.41,7.62,11.82,4.29,4.02,8.87,8.45,12.97,12.31,4.1,3.86,7.7,7.12,10.12,8.83,.97,.68,1.67,1.22,2.32,1.61,.65,.39,1.28,.64,2,.64,.15,0,.31-.01,.47-.03h0c.97-.12,2.01-.59,3.62-1.39,1.61-.81,3.78-1.98,6.92-3.55,2.11-1.05,4.06-2.36,5.83-3.82h0c2.68-2.16,4.96-4.63,6.84-6.98,.21-.26,.17-.65-.09-.86-.26-.21-.65-.17-.86,.09-1.84,2.3-4.07,4.7-6.66,6.79h0c-1.71,1.41-3.58,2.66-5.6,3.67-3.16,1.58-5.34,2.76-6.92,3.55-1.58,.8-2.55,1.2-3.22,1.27h0c-.11,.02-.21,.02-.31,.02-.44,0-.81-.13-1.38-.47-.56-.33-1.26-.87-2.24-1.56-2.3-1.62-5.91-4.88-9.99-8.72-4.09-3.84-8.66-8.28-12.97-12.31-2.35-2.18-4.93-6.48-7.36-11.46-2.43-4.99-4.73-10.67-6.61-15.7-.12-.32-.47-.48-.79-.36-.32,.12-.48,.47-.36,.79h0Z"/><path class="cls-2" d="M210.26,139.66s8.76-22.79,14.73-52.8c2.42-12.17,2.88-22.83,2.88-29.22,0-3.95-.18-6.27-.18-6.28-.03-.34-.32-.59-.66-.56-.34,.03-.59,.32-.56,.66,0,0,.01,.14,.03,.41,.05,.82,.15,2.84,.15,5.78,0,6.33-.46,16.91-2.86,28.98-2.98,14.95-6.65,28.11-9.57,37.52-1.46,4.71-2.74,8.48-3.65,11.07-.46,1.3-.82,2.3-1.07,2.98-.25,.68-.38,1.03-.38,1.03-.12,.31,.04,.67,.35,.79,.32,.12,.67-.04,.79-.35h0Z"/><path class="cls-8" d="M69.52,1.22c-6,0-13.87,2.85-21.49,6.69-3.93,1.96-7.8,4.2-11.33,6.44,4.77-1.47,9.58-3.24,14.12-4.81,3.17,2.36,5.59,4.73,6.6,6.89,4.44,9.57,7.77,18.17,14.98,47.17,7.21,29,10.54,75.84,10.54,75.84,0,0,2.77-8.88,3.88-30.51,1.11-21.64-.56-67.68,5.55-77.66,2.94-4.82,8.49-9.45,13.42-12.93,4.95,1.43,9.96,2.39,14.87,2.39,17.65,0,39.42-11.86,42.81-18.05-6.75,1.12-11.57,2.88-15.3,5.26-5.84,3.71-14.79,9.01-26.37,9.01-.57,0-1.14-.01-1.72-.04-3.54-.16-6.79-.53-9.77-1.03-8.76-1.49-15.14-4.17-19.32-6.25-2.86-1.43-4.68-3.11-7.24-4.59-2.57-1.49-5.93-2.84-11.98-3.67-.7-.1-1.45-.14-2.22-.14h-.02"/><path class="cls-6" d="M69.54,.61c-6.19,0-14.11,2.9-21.79,6.76-4.62,2.31-9.15,4.99-13.16,7.61,.7-.2,1.4-.41,2.1-.63,3.53-2.24,7.4-4.47,11.33-6.44,7.62-3.84,15.49-6.69,21.49-6.69h.02c.77,0,1.51,.05,2.22,.14,6.05,.83,9.41,2.18,11.98,3.67,2.57,1.48,4.38,3.16,7.24,4.59,4.18,2.08,10.56,4.76,19.32,6.25,2.98,.5,6.23,.87,9.77,1.03,.58,.03,1.15,.04,1.72,.04,11.58,0,20.53-5.3,26.37-9.01,3.74-2.38,8.56-4.14,15.3-5.26,.13-.23,.23-.45,.3-.67-7.01,1.12-12.03,2.93-15.93,5.41-5.82,3.7-14.66,8.91-26.04,8.91-.56,0-1.12-.01-1.7-.04-3.51-.15-6.74-.52-9.69-1.02-8.69-1.48-15.01-4.13-19.15-6.19-5.55-2.77-7.21-6.66-19.41-8.32-.74-.1-1.5-.15-2.3-.15"/></g></svg>