<?xml version="1.0" encoding="UTF-8"?><svg id="Layer_2" xmlns="http://www.w3.org/2000/svg" viewBox="0 0 252.68 478.94"><defs><style>.cls-1{fill:#b5aa77;}.cls-2{fill:#caccb6;}.cls-3{fill:#323232;}.cls-4{fill:#afa05f;}.cls-5{fill:#f1f4e5;}.cls-6{fill:#c9bd84;}.cls-7{fill:#b5b7a3;}.cls-8{fill:#9d9055;}.cls-9{fill:#d8dbce;}</style></defs><g id="Layer_3"><path class="cls-6" d="M34.6,175.67c.03,.28,.05,.58,.08,.91,.02,.3,.05,.62,.08,.99,.09,1.09,.19,2.36,.31,3.77,.03,.41,.06,.81,.1,1.24l.02,.28c.08,.72,.14,1.45,.2,2.24,.02,.17,.03,.34,.05,.52,.06,.64,.11,1.3,.17,1.97,.05,.39,.08,.8,.11,1.22,.05,.45,.09,.92,.14,1.39l.02,.16c.05,.5,.09,1.02,.14,1.55,.11,1.03,.22,2.07,.31,3.13,.06,.48,.11,.97,.16,1.45l.03,.25c.09,.89,.19,1.78,.3,2.69,.42,3.68,.89,7.45,1.42,11.09,.09,.66,.19,1.3,.3,1.94l.05,.33c.08,.53,.17,1.05,.25,1.58,.92,5.66,2.02,10.83,3.29,14.63,4.51,13.52,12.02,35.3,12.02,44.69s3.75,53.7,6.01,64.22c2.25,10.52,13.52,28.54,18.03,40.56,2.8,7.46,21.28,32.94,35.57,52.94,8.72,12.18,15.87,22.33,17.01,25.18,3,7.51,12.02,18.78,17.27,18.78,4.18,0,9.31-8.54,10.86-19.22,.12-.86,.23-1.75,.31-2.63v-.02c.16-1.94,.2-3.93,.09-5.93-.13-2.3-.44-4.84-.89-7.51v-.05c-2.38-13.91-8.48-31.58-10.38-39.76-2.25-9.76-3-33.05-6.76-43.56-3.76-10.52-4.51-38.31-5.26-48.07-.75-9.76,.47-40.28,6.48-41.03,6.01-.75,14.55,24.51,19.81,35.77,5.26,11.27,15.02,21.78,20.28,40.56,3.21,11.44,8.07,23.99,12.24,36.65,2.69,8.12,5.07,16.27,6.54,24.19,3.75,20.28,15.02,33.8,21.78,33.8s17.07-22.85,17.99-32.77l.03-.28c.75-9.76,6.76-30.04,6.01-46.57-.75-16.53-14.27-91.63-18.03-126.18-1.55-14.26-.8-25.57,1.02-35.79,2.58-14.55,7.32-26.88,10.63-42.33-.14,.23-.28,.47-.45,.69-.09,.16-.22,.31-.34,.47-.39,.52-.86,1-1.39,1.47-.24,.22-.47,.42-.73,.61-.47,.39-.99,.75-1.53,1.09-.33,.2-.67,.41-1.03,.59-.24,.14-.49,.27-.74,.39-.39,.2-.81,.41-1.24,.59-.38,.17-.77,.35-1.17,.5l-.25,.09c-.42,.17-.84,.33-1.28,.49-.86,.31-1.77,.61-2.71,.88-.75,.22-1.52,.42-2.3,.61-.78,.2-1.58,.38-2.39,.55-.27,.06-.53,.11-.81,.16-.55,.13-1.09,.23-1.66,.33-1.67,.3-3.38,.56-5.12,.78-.86,.11-1.72,.22-2.6,.31-.75,.08-1.5,.16-2.25,.23-.98,.08-1.97,.16-2.94,.23-2.41,.17-4.79,.3-7.07,.36-1.7,.06-3.35,.09-4.91,.09-.52,.02-1.03,.02-1.53,.02-16.34,0-39.15-10.42-53.8-11.92-7.67-.78-30.38-.44-52.43-.09-14.88,.23-29.45,.47-38.91,.36-.83-.02-1.61-.03-2.35-.05-.73-.02-1.44-.03-2.1-.05-1.31-.05-2.44-.11-3.36-.17l-.35-.03c-.17-.02-.34-.03-.52-.05-.17-.02-.34-.03-.51-.06-.45-.05-.89-.13-1.31-.2-.39-.06-.77-.14-1.14-.23-.27-.06-.53-.13-.78-.2-.17-.05-.33-.09-.49-.14-.47-.14-.94-.3-1.39-.47-.23-.08-.45-.17-.67-.26-.44-.19-.86-.38-1.27-.61-.17-.06-.34-.16-.5-.25-.34-.17-.67-.38-1-.58l-.25-.16c-.39-.25-.78-.52-1.14-.8-.41-.31-.81-.64-1.2-.97-2.02,5.12,5.02,17.42,5.77,26.43"/><path class="cls-4" d="M34.6,175.67l-.62,.07c.03,.25,.04,.55,.08,.9l.62-.06-.62,.03c.02,.32,.05,.65,.08,1.01,.09,1.09,.19,2.36,.31,3.77l.62-.05-.62,.05c.03,.41,.06,.81,.09,1.24l.62-.05-.62,.03,.02,.28v.02h0c.08,.72,.14,1.45,.2,2.23h0c.02,.18,.03,.35,.05,.52h0c.06,.63,.11,1.29,.17,1.97h0c.04,.39,.08,.79,.11,1.21h0v.02c.05,.45,.09,.92,.14,1.39l.02,.16h0c.05,.49,.09,1.01,.14,1.54h0c.11,1.04,.22,2.07,.31,3.13h0v.03c.06,.47,.11,.95,.16,1.43h0l.03,.27,.62-.08-.62,.06c.09,.89,.19,1.79,.3,2.7,.42,3.68,.89,7.46,1.43,11.11,.09,.66,.19,1.3,.3,1.95l.61-.1-.61,.09,.05,.33c.08,.55,.18,1.06,.25,1.58v.02h0c.93,5.67,2.02,10.86,3.31,14.71,2.25,6.76,5.26,15.58,7.69,23.87,2.44,8.28,4.3,16.08,4.29,20.62,0,4.75,.94,18.16,2.16,31.74,1.22,13.58,2.72,27.27,3.86,32.61,1.16,5.38,4.55,12.53,8.22,19.86,3.66,7.33,7.6,14.83,9.83,20.78,.74,1.96,2.43,4.95,4.78,8.72,7.07,11.28,20.14,29.36,30.86,44.36,4.36,6.09,8.32,11.67,11.34,16.08,1.51,2.2,2.78,4.12,3.74,5.65,.96,1.53,1.61,2.69,1.86,3.33,1.54,3.85,4.57,8.57,7.9,12.38,1.67,1.9,3.41,3.58,5.09,4.79,1.69,1.21,3.32,1.99,4.86,1.99,1.26,0,2.49-.63,3.65-1.66,1.74-1.55,3.38-4.04,4.76-7.16,1.37-3.12,2.47-6.87,3.06-10.93,.13-.87,.24-1.77,.32-2.66v-.07h-.62l.62,.05c.1-1.24,.16-2.5,.16-3.77,0-.74-.02-1.49-.06-2.25-.13-2.33-.44-4.89-.9-7.58l-.61,.1h.62v-.15c-1.21-7-3.33-14.91-5.39-22.09-2.06-7.18-4.06-13.65-5-17.7-1.11-4.8-1.87-13.07-2.8-21.43-.94-8.37-2.06-16.83-3.98-22.2-1.84-5.12-2.98-14.7-3.72-24.16-.75-9.47-1.13-18.85-1.5-23.75-.13-1.63-.2-3.88-.2-6.47,0-6.35,.42-14.8,1.46-21.71,.52-3.45,1.19-6.52,2.03-8.72,.42-1.1,.87-1.97,1.34-2.56,.47-.59,.91-.86,1.31-.91h.19c.53-.02,1.19,.27,1.94,.92,1.32,1.12,2.81,3.25,4.31,5.95,4.54,8.1,9.31,21.22,12.73,28.55,5.33,11.4,15.03,21.82,20.24,40.46,3.22,11.48,8.09,24.03,12.25,36.67,2.69,8.11,5.06,16.24,6.52,24.11,1.89,10.23,5.68,18.75,9.86,24.75,2.09,3,4.29,5.37,6.42,7,2.13,1.63,4.2,2.55,6.1,2.56,1.02,0,2.02-.43,3.01-1.11,1.73-1.21,3.47-3.26,5.18-5.81,2.55-3.82,4.99-8.75,6.88-13.56,1.89-4.81,3.22-9.49,3.54-12.85l-.62-.06,.62,.07,.03-.28h0v-.02c.35-4.52,1.86-11.45,3.29-19.22,1.43-7.78,2.78-16.42,2.78-24.45,0-1-.02-1.99-.07-2.97-.38-8.35-3.95-31.23-7.89-56.4-3.94-25.16-8.26-52.58-10.14-69.82-.58-5.32-.83-10.22-.83-14.81,0-7.66,.72-14.44,1.85-20.81,2.57-14.48,7.3-26.8,10.62-42.31l.78-3.66-1.92,3.21c-.14,.23-.27,.45-.41,.62l-.03,.03-.02,.03c-.06,.1-.17,.24-.29,.4h-.01c-.36,.49-.8,.95-1.31,1.39h-.01c-.23,.22-.44,.41-.67,.57h-.02l-.02,.03c-.44,.37-.93,.71-1.47,1.05h0c-.32,.2-.65,.39-.99,.57h-.02l-.02,.02c-.21,.12-.44,.24-.69,.37h0c-.38,.2-.79,.4-1.2,.58h0c-.37,.17-.75,.34-1.14,.49l.22,.58-.22-.58-.25,.09h-.02c-.41,.17-.82,.33-1.26,.48-.85,.31-1.74,.6-2.67,.86h0c-.74,.22-1.5,.42-2.27,.6h-.01c-.77,.2-1.55,.37-2.37,.54h-.01c-.24,.06-.49,.1-.77,.15h-.04c-.54,.13-1.07,.24-1.62,.33h0c-1.67,.3-3.36,.56-5.09,.78-.86,.11-1.72,.22-2.59,.31-.75,.08-1.5,.16-2.25,.24l.07,.62-.05-.62c-.99,.08-1.97,.16-2.94,.23h0c-2.4,.17-4.77,.3-7.05,.36h0c-1.7,.06-3.33,.09-4.89,.09h-.02c-.5,.02-1.01,.02-1.51,.02-8.04,0-17.79-2.58-27.36-5.37-9.57-2.79-18.95-5.78-26.37-6.55-3.48-.35-9.88-.48-17.9-.48-19.92,0-49.69,.77-67.96,.77-1.99,0-3.84,0-5.53-.03h0c-.83-.02-1.61-.03-2.35-.05-.73-.02-1.44-.03-2.09-.05v0c-1.3-.05-2.42-.11-3.34-.17l-.04,.62,.06-.62-.35-.03c-.17-.02-.34-.03-.52-.05h0c-.17-.02-.32-.03-.46-.05h-.05c-.42-.05-.85-.13-1.27-.2h-.01c-.37-.06-.73-.14-1.09-.23h0c-.27-.07-.52-.13-.74-.19h-.02c-.17-.05-.32-.1-.47-.14-.46-.14-.91-.29-1.35-.46h-.03c-.2-.08-.4-.16-.62-.26-.43-.18-.83-.36-1.2-.58l-.05-.03-.05-.02c-.11-.04-.26-.11-.39-.2h-.02l-.02-.02c-.31-.16-.62-.35-.95-.55h0l-.25-.15-.33,.53,.34-.52c-.38-.24-.76-.5-1.09-.76h0c-.4-.31-.8-.63-1.18-.96l-.66-.56-.32,.8c-.29,.73-.41,1.56-.41,2.45,0,3.13,1.41,7.22,2.85,11.55,1.45,4.32,2.97,8.87,3.28,12.7v.02h0l.62-.07,.62-.05c-.34-4.06-1.89-8.66-3.34-12.99-1.46-4.32-2.8-8.39-2.79-11.16,0-.79,.11-1.46,.32-2l-.58-.23-.4,.47c.4,.34,.81,.67,1.23,.99l.38-.49-.38,.49c.38,.3,.79,.58,1.19,.83h0l.25,.16h0c.33,.21,.67,.42,1.05,.61l.28-.55-.32,.53c.18,.1,.38,.22,.61,.3l.21-.58-.31,.54c.44,.26,.89,.45,1.33,.64,.22,.09,.45,.2,.72,.28l.2-.59-.22,.58c.47,.18,.95,.34,1.44,.48,.16,.05,.32,.1,.5,.14l.16-.6-.19,.59c.28,.09,.56,.15,.83,.22l.14-.6-.15,.6c.39,.1,.79,.18,1.19,.25l.1-.61-.11,.61c.42,.08,.88,.16,1.36,.21l.06-.62-.11,.61c.21,.04,.4,.05,.58,.07h0c.17,.02,.34,.03,.52,.05l.34,.03h.01c.93,.06,2.06,.13,3.38,.17h0c.66,.02,1.36,.03,2.1,.05,.74,.02,1.52,.03,2.35,.05h0c1.69,.02,3.55,.03,5.54,.03,18.3,0,48.07-.77,67.96-.77,8,0,14.41,.13,17.78,.47,7.22,.74,16.57,3.71,26.15,6.5,9.59,2.79,19.41,5.42,27.71,5.42,.5,0,1.02,0,1.55-.02l-.02-.62v.62c1.57,0,3.22-.03,4.94-.09h0c2.3-.06,4.68-.19,7.1-.36h0c.97-.08,1.96-.16,2.94-.23h.02c.75-.08,1.5-.16,2.25-.24,.89-.1,1.75-.21,2.61-.32,1.75-.22,3.46-.49,5.15-.79l-.11-.61,.1,.61c.58-.1,1.14-.21,1.7-.33l-.14-.6,.1,.61c.28-.05,.56-.1,.85-.16l-.14-.6,.13,.61c.81-.17,1.62-.35,2.42-.55l-.16-.6,.14,.6c.79-.19,1.57-.4,2.33-.62h0c.95-.27,1.88-.57,2.75-.89,.44-.16,.87-.32,1.31-.49l-.24-.57,.22,.58,.25-.09h0c.43-.17,.83-.34,1.21-.52l-.26-.56,.25,.57c.44-.19,.87-.4,1.27-.61l-.29-.55,.28,.56c.25-.13,.52-.26,.78-.42l-.32-.53,.29,.55c.38-.2,.74-.41,1.07-.62h0c.56-.36,1.1-.73,1.6-1.15l-.4-.48,.36,.51c.3-.21,.56-.44,.8-.66l-.42-.45,.41,.47c.56-.49,1.06-1,1.48-1.56l-.49-.37,.48,.39c.13-.16,.27-.33,.39-.54l-.53-.32,.49,.38c.2-.26,.36-.52,.5-.75l-.53-.32-.61-.13c-3.29,15.39-8.03,27.72-10.63,42.35-1.14,6.42-1.86,13.28-1.86,21.02,0,4.63,.26,9.58,.84,14.94,1.88,17.3,6.2,44.72,10.14,69.88,3.94,25.15,7.51,48.09,7.88,56.26,.04,.96,.06,1.93,.06,2.91,0,7.89-1.33,16.47-2.76,24.23-1.43,7.76-2.95,14.68-3.31,19.35l.62,.05-.62-.07-.03,.28v.02h0c-.44,4.81-3.25,12.99-6.77,19.87-1.76,3.45-3.7,6.58-5.58,8.82-.94,1.12-1.87,2.02-2.73,2.61-.86,.6-1.65,.89-2.3,.89-1.48,0-3.35-.76-5.35-2.3-6.02-4.6-13.04-15.91-15.82-30.99-1.48-7.96-3.87-16.14-6.56-24.27-4.17-12.68-9.03-25.22-12.23-36.62-5.3-18.91-15.13-29.52-20.31-40.65-2.57-5.51-5.97-14.47-9.47-22.06-1.75-3.8-3.53-7.25-5.27-9.79-.87-1.27-1.74-2.32-2.61-3.07-.87-.75-1.78-1.23-2.75-1.23-.12,0-.23,0-.34,.02-.85,.11-1.55,.63-2.13,1.37-1.02,1.3-1.78,3.32-2.43,5.83-1.93,7.53-2.65,19.51-2.66,27.92,0,2.62,.07,4.89,.2,6.57,.37,4.86,.75,14.26,1.5,23.76,.76,9.51,1.87,19.08,3.79,24.48,1.84,5.14,2.98,13.58,3.91,21.92,.94,8.35,1.69,16.61,2.83,21.57,.96,4.13,2.96,10.59,5.02,17.76,2.06,7.17,4.17,15.05,5.36,21.96l.61-.1h-.62v.15c.46,2.66,.77,5.17,.89,7.44,.04,.73,.06,1.45,.06,2.18,0,1.24-.05,2.46-.15,3.67v.07h.62l-.62-.05c-.08,.86-.18,1.74-.31,2.59-.76,5.26-2.42,10-4.37,13.39-.97,1.69-2.02,3.04-3.05,3.95-1.03,.91-2,1.35-2.83,1.35-1.09,0-2.56-.62-4.13-1.76-4.75-3.4-10.38-11.13-12.57-16.63-.32-.79-.99-1.96-1.97-3.52-2.92-4.66-8.58-12.65-15.12-21.79-7.14-10-15.33-21.36-22.08-31.16-3.38-4.9-6.39-9.4-8.73-13.14-2.34-3.73-4.01-6.72-4.67-8.5-2.28-6.07-6.23-13.58-9.88-20.9-3.66-7.31-7.02-14.44-8.12-19.57-1.11-5.18-2.62-18.91-3.84-32.46-1.22-13.55-2.16-26.99-2.16-31.63,0-4.84-1.9-12.64-4.34-20.97-2.45-8.33-5.45-17.16-7.7-23.92-1.25-3.75-2.34-8.89-3.26-14.53l-.61,.1,.61-.09c-.08-.54-.17-1.06-.25-1.58l-.05-.33v-.02c-.11-.63-.2-1.27-.3-1.92-.53-3.64-1-7.4-1.42-11.08-.11-.91-.2-1.79-.3-2.69v-.03l-.03-.23-.62,.08,.62-.06c-.05-.48-.09-.98-.16-1.47l-.61,.08,.62-.05c-.1-1.07-.21-2.11-.31-3.14l-.62,.07,.62-.05c-.05-.53-.09-1.05-.14-1.55h0l-.02-.16c-.05-.47-.09-.94-.14-1.39l-.62,.06,.62-.05c-.03-.42-.06-.84-.11-1.25l-.62,.07,.62-.06c-.06-.66-.11-1.32-.17-1.97h0c-.02-.16-.03-.34-.05-.51l-.62,.06,.62-.05c-.06-.78-.13-1.53-.21-2.25l-.62,.07,.62-.03-.02-.28v-.02h0c-.03-.42-.06-.83-.09-1.23h0c-.12-1.41-.22-2.68-.31-3.78-.03-.37-.06-.69-.08-.97h0v-.03c-.03-.31-.05-.61-.08-.92l-.62,.07,.62-.05-.62,.05"/><path class="cls-2" d="M159.62,460.3l-.62,.04c.38,5.53,.74,10.04,1.06,13.18,.16,1.57,.32,2.79,.46,3.65,.08,.43,.15,.76,.23,1.02,.04,.13,.08,.25,.16,.37l.18,.21c.09,.08,.25,.17,.45,.17,.15,0,.28-.05,.37-.11l.19-.17h0c.19-.28,.24-.53,.29-.85,.05-.31,.06-.67,.06-1.1,0-2.79-.82-8.6-2.23-16.52l-1.23,.15,.62-.04-.61,.11c1.41,7.88,2.22,13.71,2.21,16.3,0,.39-.02,.71-.05,.92l-.05,.24-.02,.05h0l.14,.08-.13-.09h-.01l.14,.09-.13-.09,.5,.37-.49-.38,.38,.3-.26-.41-.12,.11,.38,.3-.26-.41,.3,.47v-.56c-.12,0-.24,.04-.3,.09l.3,.47v-.01l.36-.42c-.05-.05-.18-.13-.36-.13v.54l.36-.42-.25,.29,.33-.2-.08-.09-.25,.29,.33-.2-.05,.03,.06-.03h0l-.05,.03,.06-.03s-.08-.21-.14-.48c-.21-.97-.47-3.06-.74-5.99-.27-2.93-.56-6.73-.87-11.2l-.62,.04-.61,.11,.61-.11"/><path class="cls-3" d="M159.4,456.81c-.06,.38-.12,.75-.19,1.13,.15,.8,.29,1.57,.41,2.33h0c-.07-1.11-.15-2.26-.22-3.46m29.96-90.19c3.49,11.38,7.44,24.02,10.17,32.54-1.42-6.06-3.28-12.24-5.32-18.4-1.56-4.74-3.22-9.47-4.85-14.13"/><path class="cls-1" d="M144.92,251.83c-3.25,0-6.84,3.33-10.42,14.72-2.08,6.61-14.29,39.04,0,87.89,9.34,31.94,19.06,73.74,24.01,99.71,.02-.23,.05-.46,.07-.69h0v-.02c.1-1.21,.15-2.43,.15-3.67,0-.72-.02-1.45-.06-2.18-.13-2.27-.43-4.78-.88-7.44v-.1c-1.19-6.9-3.3-14.76-5.35-21.91-2.06-7.17-4.06-13.63-5.02-17.76-1.14-4.96-1.89-13.22-2.83-21.57-.93-8.34-2.07-16.78-3.91-21.92-1.92-5.39-3.03-14.97-3.79-24.48-.75-9.5-1.13-18.9-1.5-23.76-.13-1.68-.2-3.95-.2-6.57,0-8.41,.72-20.39,2.66-27.92,.65-2.52,1.42-4.54,2.43-5.83,.58-.73,1.28-1.26,2.13-1.37,.11-.02,.23-.02,.34-.02,.97,0,1.88,.49,2.75,1.23,.88,.75,1.74,1.8,2.61,3.07,1.74,2.54,3.52,6,5.27,9.79,3.5,7.59,6.89,16.54,9.47,22.06,5.18,11.14,15.02,21.74,20.31,40.65,3.2,11.4,8.06,23.94,12.23,36.62,2.39,7.23,4.54,14.49,6.03,21.6,.17-18.61-5.58-58.92-8.34-64.06-5.26-9.76-18.03-36.12-20.28-45.85-2.25-9.73-16.52-32.23-21.03-36.38-1.98-1.82-4.31-3.85-6.85-3.85"/><path class="cls-8" d="M142.74,266.95c-.12,0-.23,0-.34,.02-.85,.11-1.55,.63-2.13,1.37-1.02,1.3-1.78,3.32-2.43,5.83-1.93,7.53-2.65,19.51-2.66,27.92,0,2.62,.07,4.89,.2,6.57,.37,4.86,.75,14.26,1.5,23.76,.76,9.51,1.87,19.08,3.79,24.48,1.84,5.14,2.98,13.58,3.91,21.92,.94,8.35,1.69,16.61,2.83,21.57,.96,4.13,2.96,10.59,5.02,17.76,2.05,7.15,4.16,15.01,5.35,21.91v.1c.46,2.66,.77,5.17,.89,7.44,.04,.73,.06,1.45,.06,2.18,0,1.24-.05,2.46-.15,3.67v.02h0c-.02,.23-.04,.46-.07,.69,.13,.67,.25,1.33,.37,1.98,.11,.61,.22,1.21,.33,1.8,.07-.37,.13-.75,.19-1.13-.07-1.07-.14-2.17-.21-3.3v-.02c-.27-4.13-.53-8.64-.8-13.44v-.05c-2.38-13.91-8.48-31.58-10.38-39.76-2.25-9.76-3-33.05-6.76-43.56-3.76-10.52-4.51-38.31-5.26-48.07-.75-9.76,.47-40.28,6.48-41.03,.09-.01,.18-.02,.26-.02,5.99,0,14.36,24.69,19.54,35.79,5.26,11.27,15.02,21.78,20.28,40.56,1.28,4.57,3.88,13.2,6.8,22.71,1.63,4.66,3.29,9.39,4.85,14.13,2.04,6.16,3.9,12.34,5.32,18.4,.69,2.16,1.31,4.06,1.81,5.6,.04-.86,.07-1.8,.08-2.79-1.49-7.11-3.64-14.37-6.03-21.6-4.17-12.68-9.03-25.22-12.23-36.62-5.3-18.91-15.13-29.52-20.31-40.65-2.57-5.51-5.97-14.47-9.47-22.06-1.75-3.8-3.53-7.25-5.27-9.79-.87-1.27-1.74-2.32-2.61-3.07-.87-.75-1.78-1.23-2.75-1.23"/><path class="cls-7" d="M159.62,460.27h0v0"/><path class="cls-1" d="M29.17,150.32c-.06,.35-.09,.73-.09,1.14,0,2.77,1.33,6.84,2.79,11.16,1.45,4.32,3,8.92,3.34,12.98h0c.03,.31,.05,.61,.08,.92h0v.03c.02,.28,.05,.6,.08,.97,.09,1.1,.19,2.36,.31,3.77h0c.03,.41,.06,.82,.09,1.25h0v.27c.09,.73,.16,1.46,.22,2.24h0c.02,.17,.03,.34,.05,.51h0c.06,.64,.11,1.3,.17,1.95h0c.05,.4,.08,.81,.11,1.23h0c.05,.46,.09,.93,.14,1.39l.02,.16h0c.05,.5,.1,1.02,.14,1.55,.11,1.03,.22,2.06,.31,3.13h0c.06,.48,.11,.96,.15,1.43h0l.03,.23v.03c.1,.89,.19,1.78,.3,2.69,.42,3.67,.89,7.44,1.42,11.08,.09,.65,.19,1.29,.29,1.92v.02l.05,.33c.08,.52,.17,1.03,.25,1.57h0c.92,5.64,2.01,10.79,3.26,14.53,2.25,6.76,5.26,15.59,7.7,23.92,2.44,8.34,4.34,16.13,4.34,20.97,0,4.64,.94,18.08,2.16,31.63,1.22,13.55,2.73,27.28,3.84,32.46,1.09,5.13,4.46,12.26,8.12,19.57,3.66,7.32,7.61,14.83,9.88,20.9,.66,1.78,2.33,4.76,4.67,8.5,2.34,3.74,5.36,8.24,8.73,13.14,5.49,7.97,11.94,16.98,18,25.45-12.66-21.75-18.03-34.1-24.1-46.49-9.23-18.85-16.9-29.65-19.9-49.95-3.33-22.55-2.63-54.08-4.13-66.1-1.5-12.02-1.13-23.28-9.39-56.33-.31-1.24-.59-2.5-.86-3.82-.09-.47-.19-.96-.26-1.44-2.52-13.5-7.18-30.58-6.79-46.15h0c-1.32-.05-2.45-.11-3.38-.17h-.01l-.34-.03c-.17-.02-.34-.03-.52-.05h0c-.17-.01-.35-.03-.55-.06-.48-.05-.93-.13-1.34-.21h0c-.4-.07-.79-.15-1.17-.24h0c-.26-.06-.53-.12-.8-.21h0c-.18-.05-.34-.1-.5-.14-.48-.14-.96-.31-1.43-.48h0c-.25-.09-.48-.19-.69-.28-.43-.18-.86-.37-1.29-.62-.2-.08-.38-.18-.54-.27-.37-.19-.7-.39-1.02-.59h0l-.25-.16h0c-.4-.26-.81-.54-1.19-.84h0c-.16-.12-.32-.25-.48-.37"/><path class="cls-8" d="M28.63,149.88c-1.27,5.45,5.25,17.13,5.97,25.79h0l.62-.05-.62,.05c.03,.28,.05,.58,.08,.91,.02,.3,.05,.62,.08,.99,.09,1.09,.19,2.36,.31,3.77,.03,.41,.06,.81,.1,1.24l.02,.28c.08,.72,.14,1.47,.2,2.24,.02,.17,.03,.34,.05,.52,.06,.64,.11,1.3,.17,1.97,.05,.39,.08,.8,.11,1.22,.05,.45,.09,.92,.14,1.39l.02,.16c.05,.5,.09,1.02,.14,1.55,.11,1.03,.22,2.07,.31,3.13,.06,.48,.11,.97,.16,1.45l.03,.25c.09,.89,.2,1.78,.3,2.69,.42,3.68,.89,7.45,1.42,11.09,.09,.66,.19,1.3,.3,1.94l.05,.33c.08,.53,.17,1.05,.25,1.58,.92,5.66,2.02,10.83,3.29,14.63,4.51,13.52,12.02,35.3,12.02,44.69s3.75,53.7,6.01,64.22c2.25,10.52,13.52,28.54,18.03,40.56,2.8,7.46,21.28,32.94,35.57,52.94-1.26-2.1-2.45-4.12-3.58-6.07-6.06-8.47-12.51-17.48-18-25.45-3.38-4.9-6.39-9.4-8.73-13.14-2.34-3.73-4.01-6.72-4.67-8.5-2.28-6.07-6.23-13.58-9.88-20.9-3.66-7.31-7.02-14.44-8.12-19.57-1.11-5.18-2.62-18.91-3.84-32.46-1.22-13.55-2.16-26.99-2.16-31.63,0-4.84-1.9-12.64-4.34-20.97-2.45-8.33-5.45-17.16-7.7-23.92-1.25-3.75-2.34-8.89-3.26-14.53h0c-.08-.54-.17-1.06-.25-1.57l-.05-.33v-.02c-.11-.63-.2-1.27-.3-1.92-.53-3.64-1-7.4-1.42-11.08-.11-.91-.2-1.79-.3-2.69v-.03l-.03-.23h0c-.05-.47-.09-.95-.15-1.43h0c-.1-1.07-.2-2.1-.31-3.13-.05-.53-.09-1.05-.14-1.55h0l-.02-.16c-.05-.47-.09-.94-.14-1.39h0c-.03-.42-.06-.83-.11-1.23h0c-.06-.66-.11-1.31-.17-1.96h0c-.02-.16-.03-.33-.05-.51h0c-.06-.78-.13-1.52-.2-2.24v-.26l-.02-.02h0c-.03-.42-.06-.83-.09-1.23h0c-.12-1.41-.22-2.68-.31-3.78-.03-.37-.06-.69-.08-.97h0v-.03c-.03-.31-.05-.61-.08-.92h0c-.34-4.06-1.9-8.65-3.34-12.98-1.46-4.32-2.8-8.39-2.79-11.16,0-.41,.03-.79,.09-1.14,.16,.13,.32,.25,.48,.37h0c.38,.3,.79,.58,1.19,.83h0l.25,.16h0c.32,.2,.66,.41,1.02,.59,.16,.09,.34,.19,.54,.27,.43,.24,.86,.43,1.29,.62,.21,.09,.44,.19,.69,.27-.23-.08-.47-.18-.69-.27-.43-.18-.86-.37-1.29-.62-.2-.08-.38-.18-.54-.27-.37-.19-.7-.39-1.02-.59h0l-.25-.16h0c-.41-.26-.8-.54-1.18-.83h0c-.35-.27-.69-.54-1.03-.82"/><path class="cls-5" d="M3.05,88.54c2.63,12.77,6.38,34.93,13.14,43.56,4.29,5.48,7.21,12.47,12.63,17.13,.39,.33,.8,.66,1.2,.97,.38,.28,.75,.55,1.14,.8l.25,.16c.33,.2,.66,.41,1,.58,.16,.09,.33,.19,.5,.25,.41,.23,.83,.42,1.27,.61,.22,.09,.45,.19,.67,.26,.45,.17,.92,.33,1.39,.47,.16,.05,.31,.09,.49,.14,.25,.08,.52,.14,.78,.2,.37,.09,.75,.17,1.14,.23,.42,.08,.86,.16,1.31,.2,.17,.03,.34,.05,.51,.06,.17,.02,.34,.03,.52,.05l.35,.03c.92,.06,2.05,.12,3.36,.17,.66,.02,1.36,.03,2.1,.05,.74,.02,1.52,.03,2.35,.05,1.11,.02,2.28,.02,3.52,.03,9.33,.03,22.18-.18,35.28-.38,22.09-.35,44.86-.7,52.54,.09,14.65,1.5,37.46,11.92,53.8,11.92,.5,0,1.02,0,1.53-.02,1.57,0,3.21-.03,4.91-.09,2.28-.06,4.66-.19,7.07-.36,.97-.08,1.96-.16,2.94-.23,.75-.08,1.5-.16,2.25-.23,.88-.1,1.74-.2,2.6-.31,1.5-.19,2.97-.41,4.41-.66,.23-.05,.47-.08,.7-.13,.55-.09,1.1-.2,1.64-.31,.28-.05,.56-.11,.83-.17,.81-.17,1.61-.34,2.39-.55,.78-.19,1.55-.39,2.3-.61,.94-.27,1.85-.56,2.71-.88,.44-.16,.86-.31,1.28-.49l.25-.09c.41-.16,.8-.33,1.17-.5,.42-.19,.84-.39,1.24-.59,.25-.12,.5-.25,.74-.39,.36-.19,.7-.39,1.03-.59,.55-.34,1.06-.7,1.53-1.09,.27-.19,.5-.39,.73-.61,.53-.47,1-.96,1.39-1.47,.13-.16,.25-.31,.34-.47,.17-.22,.31-.45,.45-.69,5.63-9.76,11.64-39.43,11.27-53.33-.38-13.89-1.5-40.18-5.63-51.45-4.13-11.27-21.03-35.68-36.05-40.56-2.93-.95-5.68-1.52-8.28-1.81-1.89-.22-3.71-.28-5.45-.25-8.18,.13-14.83,2.44-20.83,2.44-8.5,0-22.32,5.34-32.06,5.32-.58,0-1.17-.02-1.74-.06-9.76-.75-20.66-3.38-27.79-7.89-1.22-.77-2.41-1.47-3.57-2.11-5.66-3.08-10.86-4.58-17.09-4.27-4.65,.23-11.17,.15-16.63,.07-3.35-.05-6.3-.1-8.16-.07-.45,0-.92,.02-1.41,.02h-.02c-5.9,.11-13.32,.48-20.77,1.49-11.34,1.55-22.74,4.59-28.88,10.52C7.18,22.82,1.17,35.96,.8,46.85c-.38,10.89-.38,28.92,2.25,41.69"/><path class="cls-2" d="M3.05,88.54l-.61,.13c1.31,6.37,2.91,15.12,5.03,23.36,2.13,8.25,4.74,15.99,8.23,20.46,4.23,5.38,7.16,12.42,12.71,17.22h0c.4,.34,.81,.67,1.23,.99h0c.38,.29,.77,.57,1.18,.83h0l.25,.16h0c.33,.21,.67,.42,1.05,.61l.28-.55-.32,.53c.18,.1,.38,.22,.61,.3l.21-.58-.31,.54c.44,.26,.89,.45,1.33,.64,.23,.1,.47,.2,.71,.28l.21-.59-.22,.58c.47,.18,.95,.34,1.44,.48,.16,.05,.32,.1,.5,.14l.16-.6-.19,.59c.28,.09,.56,.15,.83,.22l.14-.6-.15,.6c.39,.1,.79,.18,1.19,.25l.1-.61-.11,.61c.42,.08,.88,.16,1.36,.21l.06-.62-.11,.61c.21,.04,.4,.05,.58,.07h0c.17,.02,.34,.03,.52,.05l.34,.03h.01c.93,.06,2.06,.13,3.38,.17h0c.66,.02,1.36,.03,2.1,.05,.74,.02,1.52,.03,2.35,.05,1.12,.02,2.29,.02,3.52,.03h0c.6,0,1.21,0,1.84,0,18.28,0,48.17-.78,68.13-.78,8.01,0,14.43,.13,17.79,.47,7.22,.74,16.57,3.71,26.15,6.5,9.59,2.79,19.41,5.42,27.71,5.42,.5,0,1.02,0,1.55-.02l-.02-.62v.62c1.57,0,3.22-.03,4.94-.09h0c2.3-.06,4.68-.19,7.1-.36h0c.97-.08,1.96-.16,2.94-.23h.02c.75-.08,1.5-.16,2.25-.24,.89-.1,1.75-.21,2.61-.32,1.51-.19,2.99-.41,4.44-.66h.02c.21-.05,.44-.08,.7-.13l-.12-.61,.1,.61c.56-.1,1.11-.21,1.66-.32l-.12-.61,.1,.61c.3-.05,.6-.12,.87-.18l-.14-.6,.13,.61c.81-.17,1.62-.35,2.42-.55l-.16-.6,.14,.6c.79-.19,1.57-.4,2.33-.62h0c.95-.27,1.88-.57,2.75-.89,.44-.16,.87-.32,1.31-.49l-.24-.57,.22,.58,.25-.09h0c.43-.17,.83-.34,1.21-.52l-.26-.56,.25,.57c.44-.19,.87-.4,1.27-.61l-.29-.55,.28,.56c.25-.13,.52-.26,.78-.42l-.32-.53,.29,.55c.38-.2,.74-.41,1.07-.62h0c.56-.36,1.1-.73,1.6-1.15l-.4-.48,.36,.51c.3-.21,.56-.44,.8-.66l-.42-.45,.41,.47c.56-.49,1.06-1,1.48-1.56l-.49-.37,.48,.39c.13-.16,.27-.33,.39-.54l-.53-.32,.49,.38c.2-.26,.36-.52,.5-.75h0c1.41-2.45,2.8-6.01,4.12-10.24,3.96-12.68,7.24-31.23,7.24-42.12,0-.45,0-.88-.02-1.3-.19-6.96-.56-17.01-1.41-26.75-.85-9.74-2.16-19.15-4.26-24.9-2.11-5.74-7.39-14.68-14.04-22.85-6.67-8.17-14.67-15.56-22.4-18.08-2.97-.97-5.76-1.54-8.4-1.84-1.62-.19-3.18-.26-4.68-.26-.29,0-.57,0-.85,0-8.29,.13-14.98,2.45-20.82,2.44-4.37,0-9.95,1.35-15.68,2.68-5.72,1.33-11.58,2.65-16.34,2.64h-.06l.02,.62v-.62c-.57,0-1.15-.02-1.69-.06-9.69-.74-20.52-3.37-27.51-7.79-1.23-.77-2.43-1.48-3.6-2.13h0C105.71,1.54,100.8,0,95.15,0c-.54,0-1.08,.01-1.63,.04-2.29,.11-5.04,.15-7.9,.15-5.82,0-12.07-.16-15.75-.16-.4,0-.78,0-1.12,0V.04c-.46,0-.93,.02-1.4,.02h-.03c-5.92,.11-13.35,.49-20.84,1.49-11.4,1.57-22.87,4.58-29.23,10.68C6.65,22.48,.57,35.73,.18,46.83c-.1,2.99-.18,6.52-.18,10.34,0,10.09,.52,22.15,2.44,31.49l.61-.13,.61-.13c-1.89-9.19-2.42-21.2-2.42-31.24,0-3.8,.08-7.31,.18-10.29,.36-10.68,6.3-23.72,16.71-33.75,5.94-5.75,17.25-8.82,28.54-10.35,7.41-1,14.81-1.37,20.69-1.48v0h0c.5,0,.97-.02,1.41-.02h0c.33,0,.7,0,1.1,0,3.65,0,9.9,.16,15.75,.16,2.87,0,5.64-.04,7.96-.15,.53-.03,1.05-.04,1.56-.04,5.42,0,10.08,1.46,15.2,4.24h0c1.15,.63,2.33,1.33,3.54,2.09,7.28,4.59,18.23,7.22,28.07,7.98,.58,.05,1.19,.06,1.78,.06h.02v0h0v0h.02c4.98,0,10.89-1.35,16.62-2.68,5.72-1.33,11.28-2.65,15.4-2.64,6.15-.01,12.76-2.32,20.84-2.44,.27,0,.55,0,.83,0,1.46,0,2.97,.07,4.54,.25,2.56,.29,5.27,.85,8.16,1.79,7.3,2.36,15.25,9.61,21.82,17.69,6.58,8.07,11.82,16.97,13.84,22.5,2.03,5.51,3.35,14.89,4.19,24.58,.84,9.7,1.22,19.73,1.41,26.67,.01,.41,.02,.83,.02,1.27,0,7.1-1.45,17.73-3.58,27.73-1.06,5-2.3,9.85-3.61,14.02-1.31,4.18-2.69,7.69-4.01,9.98l.54,.31-.53-.32c-.14,.23-.27,.45-.41,.62l-.03,.03-.02,.03c-.06,.1-.17,.24-.29,.4h-.01c-.36,.49-.8,.95-1.31,1.39h-.01c-.23,.22-.44,.41-.67,.57h-.02l-.02,.03c-.44,.37-.93,.71-1.47,1.05h0c-.32,.2-.65,.39-.99,.57h-.02l-.02,.02c-.21,.12-.44,.24-.69,.37h0c-.38,.2-.79,.4-1.2,.58h0c-.37,.17-.75,.34-1.14,.49l.22,.58-.22-.58-.25,.09h-.02c-.41,.17-.82,.33-1.26,.48-.85,.31-1.74,.6-2.67,.86h0c-.74,.22-1.5,.42-2.27,.6h-.01c-.77,.2-1.55,.37-2.37,.54h-.01c-.26,.06-.53,.12-.79,.17h-.02c-.55,.11-1.09,.22-1.63,.31h-.02c-.21,.05-.44,.08-.7,.13l.12,.61-.11-.61c-1.43,.25-2.89,.47-4.38,.65-.86,.11-1.72,.22-2.59,.31-.75,.08-1.5,.16-2.25,.24l.07,.62-.05-.62c-.99,.08-1.97,.16-2.94,.23h0c-2.4,.17-4.77,.3-7.05,.36h0c-1.7,.06-3.33,.09-4.89,.09h-.02c-.5,.02-1.01,.02-1.51,.02-8.04,0-17.79-2.58-27.36-5.37-9.57-2.79-18.95-5.78-26.37-6.55-3.48-.36-9.89-.48-17.92-.48-19.98,0-49.87,.78-68.13,.78-.63,0-1.24,0-1.83,0h0c-1.24-.01-2.41-.01-3.52-.03-.83-.02-1.61-.03-2.34-.05-.73-.02-1.44-.03-2.09-.05v0c-1.3-.05-2.42-.11-3.34-.17l-.04,.62,.06-.62-.35-.03c-.17-.02-.34-.03-.52-.05h0c-.17-.02-.32-.03-.46-.05h-.05c-.42-.05-.85-.13-1.27-.2h-.01c-.37-.06-.73-.14-1.09-.23h0c-.27-.07-.52-.13-.74-.19h-.02c-.17-.05-.32-.1-.47-.14-.46-.14-.91-.29-1.35-.46h-.01c-.2-.08-.42-.17-.64-.26-.43-.18-.83-.36-1.2-.58l-.05-.03-.05-.02c-.11-.04-.26-.11-.39-.2h-.02l-.02-.02c-.31-.16-.62-.35-.95-.55h0l-.25-.15-.33,.53,.34-.52c-.38-.24-.74-.5-1.1-.77l-.37,.49,.38-.49c-.4-.31-.8-.63-1.18-.95l-.4,.47,.4-.47c-5.27-4.53-8.2-11.47-12.54-17.05-3.27-4.16-5.91-11.82-8.01-20.01-2.11-8.19-3.7-16.91-5.02-23.3l-.61,.13"/><path class="cls-7" d="M197.46,7.23c-.28,0-.55,0-.83,0,.52,.19,1.05,.4,1.58,.62,1.23,.02,2.49,.1,3.79,.25,2.56,.29,5.27,.85,8.16,1.79,7.3,2.36,15.25,9.61,21.82,17.69,6.58,8.07,11.82,16.97,13.84,22.5,2.03,5.51,3.35,14.89,4.19,24.58,.84,9.7,1.22,19.73,1.41,26.67,.01,.41,.02,.83,.02,1.27,0,7.1-1.45,17.73-3.58,27.73-1.06,5-2.3,9.85-3.61,14.02-1.3,4.17-2.68,7.68-4.01,9.97h0c-.14,.23-.27,.45-.41,.62l-.03,.03-.02,.03c-.06,.1-.17,.24-.29,.4h-.01c-.36,.49-.8,.95-1.31,1.39h-.01c-.23,.22-.44,.41-.67,.57h-.02l-.02,.03c-.44,.37-.93,.71-1.47,1.05h0c-.32,.2-.65,.39-.99,.57h-.02l-.02,.02c-.21,.12-.44,.24-.69,.37h0c-.38,.2-.79,.4-1.2,.58h0c-.37,.17-.75,.34-1.13,.49h0l-.25,.09h-.02c-.41,.17-.82,.33-1.26,.48-.85,.31-1.74,.6-2.67,.86h0c-.74,.22-1.5,.42-2.27,.6h-.01c-.77,.2-1.55,.37-2.37,.54h-.01c-.26,.06-.53,.12-.79,.17h-.02c-.55,.11-1.09,.22-1.63,.31h-.02c-.07,.02-.13,.03-.21,.04-.13,.23-.25,.46-.37,.7,.23-.05,.47-.08,.7-.13,.55-.09,1.1-.2,1.64-.31,.28-.05,.56-.11,.83-.17,.81-.17,1.61-.34,2.39-.55,.78-.19,1.55-.39,2.3-.61,.94-.27,1.85-.56,2.71-.88,.44-.16,.86-.31,1.28-.49l.25-.09c.41-.16,.8-.33,1.17-.5,.42-.19,.84-.39,1.24-.59,.25-.12,.5-.25,.74-.39,.36-.19,.7-.39,1.03-.59,.55-.34,1.06-.7,1.53-1.09,.27-.19,.5-.39,.73-.61,.53-.47,1-.96,1.39-1.47,.13-.16,.25-.31,.34-.47,.17-.22,.31-.45,.45-.69,5.63-9.76,11.64-39.43,11.27-53.33-.38-13.89-1.5-40.18-5.63-51.45-4.13-11.27-21.03-35.68-36.05-40.56-2.93-.95-5.68-1.52-8.28-1.81-1.59-.18-3.13-.26-4.62-.26"/><path class="cls-2" d="M128.49,12.56s-9.96,16.17-12.26,29.87c-.22,1.34-.33,2.79-.33,4.32,0,7.22,2.34,16.39,6.18,24.99,3.85,8.6,9.21,16.63,15.37,21.52,.27,.21,.66,.17,.87-.1,.21-.27,.17-.66-.1-.87-5.92-4.69-11.22-12.58-15.01-21.05-3.79-8.47-6.08-17.53-6.08-24.49,0-1.48,.1-2.86,.31-4.12,1.11-6.66,4.13-14.04,6.88-19.73,1.37-2.85,2.68-5.28,3.64-6.99,.48-.86,.87-1.54,1.15-2,.27-.46,.42-.71,.42-.71,.18-.29,.09-.67-.2-.85-.29-.18-.67-.09-.85,.2h0"/><path class="cls-9" d="M110.38,5.49c-4.23,8.97-10.57,25.95-7.06,41.55,4.19,18.64,20.42,32.93,25.9,37.31-2.72-3.81-5.13-8.13-7.14-12.6-3.85-8.61-6.18-17.77-6.18-24.99,0-1.54,.11-2.98,.33-4.32,2.01-12,9.88-25.86,11.82-29.15-5.29-1.35-10.26-3.25-14.17-5.71-1.2-.75-2.37-1.45-3.51-2.08"/><path class="cls-7" d="M110.65,4.93c-.09,.18-.18,.37-.27,.56,1.14,.63,2.3,1.32,3.51,2.08,3.91,2.47,8.88,4.37,14.17,5.71,.15-.25,.26-.44,.33-.56-5.32-1.34-10.3-3.23-14.17-5.68-1.22-.77-2.41-1.47-3.57-2.11"/><path class="cls-7" d="M128.38,12.73c-.07,.12-.19,.31-.33,.56-1.94,3.29-9.81,17.15-11.82,29.15-.22,1.34-.33,2.79-.33,4.32,0,7.22,2.34,16.39,6.18,24.99,2.01,4.48,4.42,8.8,7.14,12.6,1.04,.83,1.7,1.31,1.81,1.39-9.72-12.52-16.04-32.11-14.19-43.2,2.25-13.52,12.17-29.65,12.17-29.65-.21-.05-.42-.1-.63-.16"/></g></svg>