<?xml version="1.0" encoding="UTF-8"?><svg id="Layer_2" xmlns="http://www.w3.org/2000/svg" viewBox="0 0 236.91 452.61"><defs><style>.cls-1{fill:#b5aa77;}.cls-2{fill:#caccb6;}.cls-3{fill:#afa05f;}.cls-4{fill:#f1f4e5;}.cls-5{fill:#c9bd84;}.cls-6{fill:#b5b7a3;}.cls-7{fill:#9d9055;}.cls-8{fill:#d8dbce;}</style></defs><g id="Layer_3"><path class="cls-5" d="M29.34,150.18v.02c5.11,15.26,7.07,32.85,9.52,43.47,2.45,10.62,2.32,108.62,4.9,128.32,2.01,15.2,25.34,71.1,30.24,80.1,4.39,8.04,32.3,41.56,45.16,48.56,1.53,.83,2.84,1.29,3.88,1.29,1.67,0,3.87-.97,6.42-2.62,4.94-3.22,11.19-9.06,17.32-15.58,9.31-9.93,18.34-21.42,22.03-27.57,7.36-12.26,17.16-40.86,22.07-56.39,4.9-15.53,11.44-66.2,12.26-80.91,.82-14.71,8.05-117.44,13.49-135.74-3.39,2.08-7.47,2.93-12.26,2.52-1.38-.12-2.84-.17-4.39-.17-14.4,.02-35.72,4.87-49.55,8.75-15.32,4.29-88.27,9.2-109.72,8.58-4.84-.14-8.51-1.09-11.36-2.62"/><path class="cls-3" d="M29.34,150.18h-.67v.13l.04,.1c5.08,15.17,7.04,32.71,9.5,43.41,.29,1.23,.56,3.93,.79,7.65,.82,13.04,1.28,38.88,1.82,63.59,.54,24.73,1.14,48.31,2.28,57.02,.52,3.9,2.36,10.25,4.91,17.79,3.83,11.3,9.25,25.23,14.18,37.19,4.93,11.96,9.35,21.91,11.23,25.35,1.14,2.09,3.71,5.69,7.16,10.09,5.17,6.59,12.28,14.93,19.32,22.3,7.05,7.37,13.98,13.74,18.94,16.45,1.59,.86,2.97,1.37,4.2,1.38,1.93-.01,4.18-1.05,6.79-2.73,5.03-3.28,11.29-9.14,17.44-15.68,9.35-9.96,18.37-21.45,22.12-27.68,3.72-6.21,8.01-16.44,12.01-27.08,3.99-10.64,7.67-21.68,10.12-29.46,2.48-7.86,5.33-24.4,7.69-40.87,2.35-16.46,4.19-32.81,4.6-40.21,.41-7.34,2.42-36.7,5.01-66.5,1.3-14.9,2.73-29.91,4.19-42.33,1.45-12.42,2.93-22.28,4.26-26.75l.5-1.69-1.5,.92c-2.72,1.67-5.92,2.52-9.63,2.52-.72,0-1.46-.03-2.22-.1-1.4-.12-2.89-.17-4.45-.17-14.54,.02-35.87,4.89-49.73,8.78-3.53,.99-10.34,2.04-18.9,3.04-25.71,2.99-67.42,5.57-86.46,5.57-1.54,0-2.94-.02-4.16-.05-4.76-.13-8.33-1.07-11.06-2.54l-1-.53v1.13h.67l-.32,.59c2.96,1.59,6.74,2.56,11.66,2.7,1.24,.03,2.65,.05,4.2,.05,12.76,0,35.54-1.15,56.95-2.8,10.71-.83,21.07-1.78,29.66-2.78,8.6-1,15.41-2.04,19.11-3.08,13.79-3.87,35.1-8.71,49.37-8.73,1.53,0,2.98,.05,4.33,.17,.8,.07,1.57,.1,2.34,.1,3.92,0,7.38-.91,10.33-2.72l-.35-.57-.65-.19c-1.39,4.68-2.85,14.52-4.31,26.98-4.37,37.33-8.59,97.87-9.21,108.92-.41,7.31-2.24,23.66-4.59,40.09-2.35,16.43-5.21,32.99-7.64,40.66-2.45,7.75-6.12,18.78-10.1,29.39-3.98,10.61-8.27,20.81-11.9,26.86-3.64,6.07-12.66,17.56-21.95,27.45-6.11,6.5-12.34,12.32-17.19,15.48-2.5,1.63-4.64,2.53-6.05,2.51-.84,0-2.08-.4-3.56-1.21-3.11-1.69-7.25-5.07-11.72-9.31-6.71-6.35-14.2-14.62-20.41-22.04-3.11-3.71-5.9-7.21-8.11-10.16-2.21-2.94-3.85-5.34-4.64-6.78-1.2-2.2-3.58-7.38-6.48-14.11-4.36-10.1-9.91-23.73-14.56-36.24-4.65-12.5-8.39-23.95-9.12-29.51-.64-4.86-1.12-14.69-1.51-26.8-.58-18.18-.97-41.55-1.44-61.37-.24-9.91-.49-18.94-.81-25.99-.16-3.53-.33-6.56-.52-8.97-.19-2.41-.4-4.18-.64-5.25-2.44-10.56-4.4-28.18-9.54-43.53l-.64,.21h.67v-.02h-.67l-.32,.59,.32-.59"/><path class="cls-1" d="M122.99,244.14s.46,96.85,0,137.31c-.35,29.23-2.55,55.91-3.76,68.47,.09,.05,.17,.09,.25,.14,1.47,.8,2.7,1.21,3.54,1.21h.05c1.41,0,3.54-.9,6.02-2.51,.14-.09,.28-.19,.43-.28,1.74-25.79,3.89-69.95,1.9-111.77-3.06-64.36-8.43-92.56-8.43-92.56"/><path class="cls-7" d="M129.52,448.47c-.14,.1-.29,.19-.43,.28-2.48,1.61-4.61,2.51-6.02,2.51h-.05c-.84,0-2.07-.41-3.54-1.21-.08-.05-.17-.09-.25-.14-.02,.25-.05,.49-.07,.73,1.53,.83,2.84,1.29,3.88,1.29,1.67,0,3.87-.97,6.42-2.62,.02-.28,.04-.56,.06-.85"/><path class="cls-1" d="M215.56,134.48c-2.61,1.28-5.57,1.94-8.85,1.94h-.04c-.77,0-1.55-.04-2.36-.11h0c-1.35-.12-2.8-.17-4.33-.17-.07,0-.14,0-.21,0-4.31,14.35-.34,41.49-2.75,99.41-2.45,58.85-13.48,100.53-22.68,138.53-4.79,19.79-16.01,40.9-25.65,56.6,8.41-9.24,16.23-19.32,19.56-24.87,3.63-6.05,7.92-16.25,11.9-26.86,3.98-10.61,7.65-21.63,10.1-29.39,2.42-7.67,5.29-24.23,7.64-40.66,2.35-16.43,4.19-32.78,4.59-40.09,.61-11.05,4.84-71.58,9.21-108.92,1.31-11.22,2.63-20.31,3.89-25.43"/><path class="cls-7" d="M216.36,134.06c-.26,.15-.53,.29-.8,.42-1.26,5.12-2.58,14.21-3.89,25.43-4.37,37.33-8.59,97.87-9.21,108.92-.41,7.31-2.24,23.66-4.59,40.09-2.35,16.43-5.21,32.99-7.64,40.66-2.45,7.75-6.12,18.78-10.1,29.39-3.98,10.61-8.27,20.81-11.9,26.86-3.33,5.54-11.15,15.62-19.56,24.87-.64,1.04-1.27,2.06-1.9,3.05,9.31-9.93,18.34-21.42,22.03-27.57,7.36-12.26,17.16-40.86,22.07-56.39,4.9-15.53,11.44-66.2,12.26-80.91,.8-14.48,7.83-114.2,13.23-134.81"/><path class="cls-4" d="M16.18,123.38c3.44,9.84,3.34,22.43,14.23,27.33,2.69,1.23,6.04,1.98,10.29,2.1,21.45,.61,94.4-4.29,109.72-8.58,13.83-3.88,35.15-8.73,49.55-8.75,1.55,0,3.01,.05,4.39,.17,14.1,1.23,22.07-8.58,24.52-28.2,2.45-19.61,7.36-34.33,7.36-49.65s-8.58-38-18.39-41.68c-2.38-.88-4.36-1.02-6.1-.71-5.41,.99-8.41,6.39-13.52,6.85-4.05,.37-7.64-1.69-11.48-4.05h-.02c-2.54-1.58-5.18-3.3-8.12-4.53-7.36-3.06-16.55-2.45-26.97-2.45s-16.55-1.23-22.07,1.84c-5.52,3.06-9.81,7.97-17.78,7.97-.53,0-1.04-.02-1.55-.07-7.07-.58-11.7-5.01-16.84-7.29-4.63-2.06-12.7-4.97-18.08-7.68-1.04-.51-1.98-1.02-2.76-1.52C67.67,1.4,55.36,.29,46.83,.79,35.81,1.42,2.69,3.85,.85,29.6c-1.84,25.75,11.03,81.53,15.32,93.79"/><path class="cls-2" d="M16.18,123.38l-.64,.22c1.69,4.84,2.53,10.44,4.32,15.52,1.78,5.07,4.61,9.66,10.27,12.2h0c2.79,1.27,6.24,2.03,10.55,2.15,1.24,.04,2.65,.05,4.2,.05,12.76,0,35.54-1.15,56.95-2.8,10.71-.83,21.07-1.78,29.66-2.78,8.6-1,15.41-2.04,19.11-3.08,13.79-3.87,35.1-8.71,49.37-8.73,1.53,0,2.98,.05,4.33,.17,.8,.07,1.59,.11,2.36,.11,6.51,.01,11.74-2.55,15.53-7.47,3.79-4.91,6.2-12.09,7.36-21.42,2.44-19.54,7.35-34.26,7.36-49.73,0-7.79-2.17-17.34-5.57-25.47-1.7-4.06-3.72-7.77-5.94-10.71-2.23-2.94-4.68-5.14-7.31-6.13-1.7-.63-3.23-.91-4.63-.91-.63,0-1.24,.06-1.82,.16h0c-2.91,.53-5.1,2.22-7.16,3.74-2.06,1.54-3.99,2.89-6.3,3.09-.3,.03-.6,.04-.9,.04-3.42,0-6.64-1.82-10.16-4l-.16-.1h-.21v.67l.36-.57c-2.53-1.58-5.2-3.32-8.22-4.58-5.41-2.25-11.69-2.55-18.61-2.55-2.77,0-5.65,.05-8.62,.05-4.61,0-8.38-.24-11.67-.24-4.11,0-7.51,.38-10.72,2.17-2.83,1.57-5.28,3.57-7.98,5.14-2.7,1.57-5.62,2.74-9.47,2.74-.51,0-1-.02-1.48-.06h-.01c-3.4-.28-6.23-1.48-8.87-2.93-2.65-1.44-5.1-3.13-7.75-4.31-4.67-2.08-12.73-4.99-18.05-7.67h0c-1.02-.51-1.94-1.01-2.7-1.48h0c-2.23-1.39-5.7-2.33-9.64-2.97-3.93-.63-8.33-.93-12.36-.93-1.44,0-2.84,.04-4.14,.11-5.53,.32-16.62,1.08-26.64,5.03-5.01,1.98-9.76,4.76-13.38,8.72C3.14,17.82,.65,22.97,.18,29.55c-.12,1.72-.18,3.56-.18,5.51,0,13.81,2.88,33.05,6.26,50.29,3.38,17.25,7.25,32.46,9.28,38.26l.64-.22,.64-.22c-1.98-5.65-5.86-20.88-9.23-38.07C4.21,67.9,1.35,48.7,1.35,35.06c0-1.92,.06-3.74,.18-5.42,.45-6.29,2.79-11.1,6.23-14.87,5.16-5.64,12.86-8.87,20.33-10.73,7.46-1.86,14.66-2.35,18.78-2.58,1.28-.08,2.65-.11,4.07-.11,3.96,0,8.3,.3,12.15,.91,3.84,.61,7.21,1.56,9.13,2.78h0c.81,.51,1.77,1.03,2.82,1.55h0c5.44,2.73,13.52,5.65,18.11,7.69,2.49,1.1,4.93,2.77,7.65,4.26,2.72,1.48,5.75,2.79,9.41,3.09l.06-.67-.07,.67c.54,.05,1.07,.07,1.62,.07,4.13,0,7.33-1.28,10.15-2.93,2.82-1.65,5.27-3.63,7.96-5.13,2.92-1.62,6.02-2,10.06-2,3.23,0,7.02,.24,11.67,.24,2.98,0,5.86-.05,8.62-.05,6.89,0,13,.32,18.09,2.45,2.87,1.19,5.48,2.89,8.02,4.48l.16,.1h.21v-.67l-.35,.57c3.53,2.17,6.95,4.19,10.87,4.2,.34,0,.68-.02,1.02-.05,2.79-.26,4.92-1.83,6.98-3.36,2.07-1.54,4.09-3.05,6.59-3.5h0c.5-.09,1.03-.14,1.59-.14,1.22,0,2.58,.24,4.16,.82,2.27,.84,4.57,2.86,6.71,5.68,6.43,8.46,11.26,24.05,11.24,35.37,0,15.17-4.88,29.88-7.35,49.57-1.15,9.19-3.52,16.15-7.09,20.77-3.58,4.61-8.3,6.93-14.46,6.94-.73,0-1.47-.03-2.24-.1-1.4-.12-2.89-.17-4.45-.17-14.54,.02-35.87,4.89-49.73,8.78-3.53,.99-10.34,2.04-18.9,3.04-25.71,2.99-67.42,5.57-86.46,5.57-1.54,0-2.94-.02-4.16-.05-4.17-.12-7.43-.85-10.02-2.03h0c-5.23-2.36-7.81-6.51-9.56-11.42-1.74-4.9-2.57-10.51-4.32-15.51l-.64,.22"/><path class="cls-8" d="M213.45,15.92c-.49,0-.96,.04-1.41,.11,6.73,15.07,6.73,37.78,6.73,37.78-3.88-12.87-18.3-16.38-18.99-16.53,.19,.44,3.44,7.68,6.11,18.37,2.76,11.03,2.14,28.5,1.22,48.73-.59,12.88-4.28,24.02-6.87,30.42,1.46,0,2.85,.06,4.17,.17,.77,.07,1.51,.1,2.24,.1,6.16-.01,10.88-2.34,14.46-6.94,3.57-4.61,5.94-11.57,7.09-20.77,2.47-19.69,7.36-34.39,7.35-49.57,.01-11.31-4.81-26.9-11.24-35.37-2.14-2.82-4.44-4.84-6.71-5.68-1.58-.59-2.94-.82-4.16-.82"/><path class="cls-6" d="M213.45,15.25c-.59,0-1.16,.05-1.7,.15,.1,.21,.19,.42,.29,.64,.45-.07,.92-.11,1.41-.11,1.22,0,2.58,.24,4.16,.82,2.27,.84,4.57,2.86,6.71,5.68,6.43,8.46,11.26,24.05,11.24,35.37,0,15.17-4.88,29.88-7.35,49.57-1.15,9.19-3.52,16.15-7.09,20.77-3.58,4.61-8.3,6.93-14.46,6.94-.73,0-1.47-.03-2.24-.1-1.32-.11-2.71-.17-4.17-.17-.09,.23-.19,.46-.28,.67,1.55,0,3.01,.05,4.39,.17,.79,.07,1.55,.1,2.3,.1,12.67,0,19.9-9.78,22.22-28.3,2.45-19.61,7.36-34.33,7.36-49.65s-8.58-38-18.39-41.68c-1.64-.61-3.08-.86-4.39-.86"/><path class="cls-8" d="M50.93,1.35c-1.42,0-2.79,.04-4.07,.11-4.12,.23-11.31,.72-18.78,2.58-7.46,1.86-15.17,5.1-20.33,10.73-3.44,3.76-5.78,8.57-6.23,14.87-.12,1.68-.18,3.49-.18,5.42,0,13.64,2.86,32.84,6.24,50.03,3.37,17.19,7.25,32.42,9.23,38.07l-.64,.22h0l.64-.22c1.75,5.01,2.58,10.61,4.32,15.51,1.67,4.7,4.1,8.7,8.89,11.11-5.38-13.13-10.86-31.23-14.16-44.79C10.97,84.77,6.98,45.23,6.37,33.58c-.58-11.05,14.25-26.8,29.17-26.8,.8,0,1.6,.05,2.39,.14,14.52,1.7,22.92,2.62,37.24,7.19,.08,6.13,.71,12.62,2.3,18.56,5.12,19.19,39.98,57.74,40.97,58.83-.36-1.05-13.35-37.66-10.93-57.6,.46-3.81,1.14-7.2,1.94-10.18,.66,.03,1.33,.04,2.02,.04,3.38,0,7.01-.36,11.06-1.2,17.78-3.68,18.08-7.05,29.73-7.3,.43,0,.87-.01,1.33-.01,9.94,0,26.28,2.05,31.53,2.74-2.15-1.34-4.36-2.69-6.76-3.69-5.08-2.12-11.16-2.45-18.01-2.45h-.08c-2.75,0-5.63,.05-8.62,.05-4.66,0-8.45-.24-11.67-.24-4.04,0-7.15,.38-10.06,2-2.69,1.49-5.14,3.48-7.96,5.13-2.81,1.65-6.02,2.93-10.15,2.93-.54,0-1.07-.02-1.6-.07h0c-3.66-.3-6.69-1.6-9.41-3.09-2.72-1.49-5.16-3.16-7.65-4.26-4.59-2.04-12.67-4.96-18.11-7.69h0c-1.06-.51-2.01-1.04-2.82-1.55h0c-1.93-1.21-5.29-2.16-9.13-2.77-3.85-.62-8.19-.91-12.15-.91"/><path class="cls-6" d="M16.82,123.16l-.64,.22c3.44,9.84,3.34,22.43,14.23,27.33-.13-.31-.26-.62-.38-.93-4.79-2.41-7.22-6.41-8.89-11.11-1.74-4.9-2.57-10.51-4.32-15.51M50.93,.67c-1.43,0-2.81,.04-4.1,.11C35.81,1.42,2.69,3.85,.85,29.6c-1.84,25.75,11.03,81.53,15.32,93.79h0l.64-.22c-1.98-5.65-5.86-20.88-9.23-38.07C4.21,67.9,1.35,48.7,1.35,35.06c0-1.92,.06-3.74,.18-5.42,.45-6.29,2.79-11.1,6.23-14.87,5.16-5.64,12.86-8.87,20.33-10.73,7.46-1.86,14.66-2.35,18.78-2.58,1.28-.08,2.65-.11,4.07-.11,3.96,0,8.3,.3,12.15,.91,3.84,.61,7.21,1.56,9.13,2.78h0c.81,.51,1.77,1.03,2.82,1.55h0c5.44,2.73,13.52,5.65,18.11,7.69,2.49,1.1,4.93,2.77,7.65,4.26,2.72,1.48,5.75,2.79,9.41,3.09h0c.54,.05,1.07,.07,1.6,.07,4.13,0,7.33-1.28,10.15-2.93,2.82-1.65,5.27-3.63,7.96-5.13,2.92-1.62,6.02-2,10.06-2,3.23,0,7.02,.24,11.67,.24,2.98,0,5.86-.05,8.62-.05h.08c6.86,0,12.94,.33,18.01,2.45,2.4,1,4.62,2.35,6.76,3.69,.87,.11,1.44,.19,1.62,.22-2.54-1.58-5.18-3.3-8.12-4.53-5.26-2.19-11.45-2.5-18.36-2.5-2.76,0-5.64,.05-8.62,.05-4.63,0-8.42-.24-11.67-.24-4.07,0-7.33,.38-10.39,2.08-5.52,3.06-9.81,7.97-17.78,7.97-.53,0-1.04-.02-1.55-.07-7.07-.58-11.7-5.01-16.84-7.29-4.63-2.06-12.7-4.97-18.08-7.68-1.04-.51-1.98-1.02-2.76-1.52-4.16-2.6-13.65-3.79-21.64-3.79"/></g></svg>