<?xml version="1.0" encoding="UTF-8"?><svg id="Layer_2" xmlns="http://www.w3.org/2000/svg" viewBox="0 0 108.59 450.31"><defs><style>.cls-1{fill:#b5aa77;}.cls-2{fill:#caccb6;}.cls-3{fill:#afa05f;}.cls-4{fill:#f1f4e5;}.cls-5{fill:#c9bd84;}.cls-6{fill:#b5b7a3;}.cls-7{fill:#9d9055;}.cls-8{fill:#d8dbce;}</style></defs><g id="Layer_3"><path class="cls-5" d="M92.18,200.35c-.01,5.64-.13,10.58-.32,14.13-.24,3.68-.53,7.38-.85,11.08-.32,3.71-.68,7.42-1.05,11.14-.38,3.87-.73,7.76-1.07,11.63-.34,3.89-.67,7.77-1.01,11.64-1.19,31.16-8.34,60.91-16,90.71-1.09,4.26-2.2,8.52-3.29,12.78-2.22,7.03-3.98,14.18-5.55,21.4-.87,4.1-1.8,8.96-2.8,14.14h0c-4.3,22.38-9.79,50.82-16.19,50.82-7.97,0-9.7-16.38-10.14-35.59-.38-15.82,.14-33.57-1.24-45.67-.19-3.92-.42-7.83-.67-11.76-.52-8.69-1.03-17.37-1.55-26.03-.25-4.33-.51-8.64-.77-12.97-.27-39.81-4.05-81.45-7.65-121.38-.32-4.59-.53-7.91-.61-9.46,.97,2.25,3.13,4.4,5.97,6.42,6.26,4.41,15.78,8.07,23.02,10.09,3.52,.98,6.5,1.58,8.31,1.69,9.79,.91,18.62-5.4,22.68-14.34,.66-1.21,1.27-2.43,1.84-3.68,.78-1.65,1.49-3.33,2.14-5.05,2.3-5.98,3.97-12.24,5.53-18.46,.19,2.86,.35,5.89,.5,8.99,.15,3.09,.29,6.27,.4,9.44,1.92,6.35,.66,11.39,.33,18.28"/><path class="cls-3" d="M92.18,200.35h-.5c-.01,5.63-.13,10.57-.31,14.1l.5,.03-.5-.03c-.24,3.68-.53,7.37-.84,11.07-.32,3.7-.68,7.41-1.05,11.13-.38,3.88-.73,7.76-1.07,11.64-.34,3.89-.67,7.77-1.01,11.64h0v.03c-1.18,31.1-8.32,60.81-15.98,90.6-1.08,4.26-2.19,8.51-3.29,12.78l.48,.12-.48-.15c-2.23,7.05-3.98,14.22-5.56,21.44h0c-.87,4.11-1.81,8.97-2.8,14.15v.11h.49l-.49-.1c-2.15,11.18-4.6,23.88-7.3,33.75-1.35,4.94-2.77,9.17-4.22,12.13-.73,1.48-1.47,2.64-2.18,3.41-.72,.77-1.39,1.11-1.99,1.11-.91,0-1.71-.23-2.45-.67-1.29-.77-2.39-2.23-3.3-4.29-1.36-3.09-2.28-7.48-2.87-12.67-.6-5.19-.88-11.18-1.02-17.47-.38-15.8,.14-33.55-1.24-45.71l-.5,.06,.5-.02c-.19-3.93-.42-7.84-.67-11.77-.52-8.69-1.03-17.37-1.55-26.02-.25-4.33-.5-8.64-.77-12.97l-.5,.03h.5c-.27-39.85-4.05-81.49-7.65-121.42l-.5,.05,.5-.03c-.32-4.59-.53-7.91-.6-9.45l-.5,.02-.46,.2c1.04,2.39,3.26,4.58,6.14,6.63,6.35,4.47,15.9,8.13,23.18,10.17,3.54,.99,6.53,1.59,8.42,1.71l.03-.5-.05,.5c.64,.06,1.29,.09,1.92,.09,9.26,0,17.39-6.2,21.27-14.72l-.46-.21,.44,.24c.66-1.22,1.28-2.45,1.86-3.72l-.46-.21,.45,.21c.79-1.67,1.5-3.36,2.16-5.08,2.31-6.01,3.99-12.29,5.54-18.51l-.49-.12-.5,.03c.19,2.86,.35,5.89,.5,8.99,.15,3.09,.29,6.27,.4,9.43v.06l.02,.06c.77,2.55,1.02,4.88,1.02,7.23,0,3.37-.52,6.79-.71,10.88h0v.02h.5l.5,.02c.19-4.03,.71-7.45,.71-10.93,0-2.42-.26-4.86-1.06-7.52l-.48,.15,.5-.02c-.11-3.17-.25-6.35-.4-9.44-.15-3.1-.32-6.14-.51-9l-.21-3.18-.77,3.09c-1.55,6.21-3.22,12.45-5.51,18.4-.65,1.71-1.35,3.37-2.13,5.01h0c-.56,1.24-1.17,2.46-1.83,3.66v.02l-.02,.02c-3.73,8.22-11.56,14.14-20.35,14.14-.6,0-1.21-.03-1.83-.08h-.01c-1.75-.11-4.71-.69-8.21-1.67-7.2-2-16.7-5.66-22.87-10.02-2.8-1.99-4.89-4.11-5.8-6.21l-1.09-2.52,.13,2.75c.08,1.56,.29,4.88,.61,9.47h0c3.6,39.94,7.38,81.56,7.64,121.34v.02h0c.27,4.34,.52,8.65,.77,12.98,.52,8.65,1.03,17.33,1.55,26.03,.25,3.92,.48,7.83,.67,11.75v.03c1.37,12.04,.86,29.79,1.24,45.62,.22,9.62,.76,18.53,2.26,25.1,.75,3.28,1.74,5.98,3.09,7.91,.68,.96,1.45,1.73,2.33,2.26,.88,.53,1.88,.81,2.96,.81,1,0,1.9-.55,2.72-1.42,1.44-1.54,2.74-4.17,4.01-7.58,3.79-10.23,7.12-27.52,9.95-42.2v-.11h-.49l.49,.1c1-5.19,1.93-10.04,2.8-14.13h0c1.58-7.21,3.33-14.34,5.54-21.35h0v-.03c1.1-4.26,2.21-8.51,3.3-12.78,7.66-29.8,14.82-59.58,16.01-90.81l-.5-.02,.5,.04c.34-3.87,.67-7.76,1.01-11.64,.34-3.87,.69-7.75,1.07-11.63,.37-3.72,.73-7.43,1.05-11.15,.31-3.7,.61-7.4,.84-11.09h0c.19-3.56,.3-8.52,.32-14.16h-.5l.5,.02-.5-.02"/><path class="cls-1" d="M90.64,166.87c-1.44,5.57-3.04,11.14-5.18,16.48-.18,.46-.37,.91-.56,1.37-.48,1.15-.99,2.29-1.53,3.41,.67,7.19,1.25,14.87,1.57,22.48,1.21,28.46,1.97,55.22-5.98,87.55-7.95,32.35-12.49,54.15-15.52,67.77-1.24,5.61-2.24,17.35-2.97,29.24,.73-3.78,1.43-7.32,2.09-10.43h0c1.58-7.22,3.33-14.38,5.56-21.43,1.1-4.26,2.21-8.51,3.29-12.77,7.66-29.79,14.8-59.51,15.98-90.6h0v-.03c.34-3.87,.67-7.76,1.01-11.64,.34-3.87,.69-7.76,1.07-11.64,.37-3.72,.73-7.43,1.05-11.13,.32-3.7,.61-7.39,.84-11.07h0c.19-3.53,.3-8.47,.31-14.1h0v-.02c.2-4.09,.71-7.51,.71-10.88,0-2.35-.25-4.68-1.02-7.23l-.02-.06v-.06c-.12-3.16-.25-6.34-.41-9.43-.1-1.97-.2-3.9-.31-5.78"/><path class="cls-7" d="M85.46,183.35c-.18,.46-.37,.91-.56,1.37,.19-.45,.38-.91,.56-1.37m5.59-18.07c-.13,.53-.27,1.06-.41,1.59,.11,1.88,.21,3.82,.31,5.78,.15,3.09,.29,6.27,.4,9.43v.06l.02,.06c.77,2.55,1.02,4.88,1.02,7.23,0,3.37-.52,6.79-.71,10.88h0v.02c-.01,5.63-.13,10.57-.31,14.1h0c-.24,3.68-.53,7.37-.84,11.07-.32,3.7-.68,7.41-1.05,11.13-.38,3.88-.73,7.76-1.07,11.64-.34,3.89-.67,7.77-1.01,11.64h0v.03c-1.18,31.1-8.32,60.81-15.98,90.6-1.08,4.26-2.19,8.51-3.29,12.77-2.22,7.04-3.98,14.2-5.56,21.42h0c-.66,3.11-1.35,6.65-2.09,10.43-.08,1.27-.15,2.55-.22,3.81,1-5.18,1.93-10.04,2.8-14.14,1.58-7.22,3.33-14.37,5.55-21.4,1.1-4.26,2.21-8.52,3.29-12.78,7.66-29.8,14.81-59.55,16-90.71,.34-3.87,.67-7.76,1.01-11.64,.34-3.87,.69-7.76,1.07-11.63,.37-3.72,.73-7.43,1.05-11.14,.32-3.7,.61-7.39,.85-11.08,.19-3.54,.3-8.49,.32-14.13,.33-6.89,1.59-11.93-.33-18.28-.11-3.17-.25-6.35-.4-9.44-.12-2.52-.25-4.98-.4-7.35"/><path class="cls-1" d="M22.06,189.03c.11,1.78,.27,4.28,.49,7.35h0c3.59,39.92,7.38,81.56,7.65,121.39,.27,4.32,.52,8.63,.77,12.95,.52,8.65,1.03,17.33,1.55,26.02,.25,3.92,.48,7.83,.67,11.75,1.3,11.49,.91,27.95,1.18,43.05,4.23-28.22-1.6-87.48-1.96-98.77-.45-14.53-.45-82.2-3.63-102.64-.81-5.2-1.21-10.76-1.35-16.16-.1-.07-.2-.14-.31-.21-2.11-1.5-3.86-3.08-5.06-4.75"/><path class="cls-7" d="M21.51,188.18c.1,1.8,.29,4.62,.54,8.24,3.6,39.93,7.38,81.56,7.65,121.38,.26,4.33,.52,8.64,.77,12.97,.52,8.65,1.03,17.33,1.55,26.03,.25,3.92,.48,7.83,.67,11.76,1.38,12.1,.86,29.85,1.24,45.67,.16-.85,.31-1.73,.44-2.65-.27-15.1,.12-31.57-1.18-43.05-.19-3.92-.42-7.83-.67-11.75-.52-8.69-1.03-17.37-1.55-26.02-.25-4.32-.5-8.63-.77-12.95-.27-39.84-4.05-81.47-7.65-121.39h0c-.21-3.07-.38-5.57-.49-7.35,1.2,1.67,2.95,3.25,5.06,4.75,.1,.07,.2,.14,.31,.21h0c-.36-.26-.7-.51-1.04-.76-2.11-1.59-3.82-3.27-4.88-5.06"/><path class="cls-4" d="M107.79,58.02c-.91,12.26-6.36,53.59-9.08,64.95-.68,2.84-1.25,6.13-1.79,9.63-.26,1.74-.53,3.55-.8,5.36-.1,1.89-.29,3.76-.54,5.61-.25,1.84-.57,3.68-.93,5.51-4.25,15.15-6.72,32.2-15.69,45.9h-.01c-.87,1.35-1.8,2.65-2.81,3.92-1.06,.96-2.14,1.8-3.25,2.54-4.44,2.93-9.29,4.04-14.13,3.73-4.16-.26-14.43-3.05-23.24-7.19-6.55-3.09-12.29-6.93-14.07-11.01-4.43-10.21-4.93-38.21-9.93-52.47C6.52,120.24,1.07,80.27,.61,63.47c-.45-16.8,.45-31.34,3.18-38.6,2.41-6.42,8.01-10.7,13.99-13.49,.78-.37,1.58-.71,2.36-1.02,6.81-2.73,14.08-.93,20.44-3.2,6.36-2.27,11.62-8.25,20.89-6.25,12.01,2.61,27.98,4.14,36.41,7.99,1,.45,1.88,.95,2.65,1.46,7.27,4.97,8.17,35.4,7.27,47.66"/><path class="cls-2" d="M107.79,58.02l-.5-.04c-.45,6.11-2.04,19.51-3.86,32.78-1.81,13.27-3.86,26.45-5.21,32.08-.69,2.86-1.26,6.16-1.8,9.66-.27,1.74-.53,3.55-.8,5.37v.05c-.1,1.88-.29,3.73-.54,5.57-.25,1.83-.56,3.66-.93,5.48l.49,.1-.48-.13c-4.26,15.2-6.74,32.19-15.63,45.76l.42,.27-.35-.35h-.01l-.04,.05-.03,.04c-.86,1.32-1.79,2.61-2.79,3.87l.39,.31-.33-.37c-1.04,.94-2.11,1.77-3.2,2.49-3.89,2.56-8.08,3.7-12.32,3.7-.5,0-1-.02-1.5-.05-2-.13-5.6-.88-9.77-2.12-4.17-1.24-8.92-2.96-13.29-5.02-3.25-1.53-6.3-3.25-8.73-5.08-2.44-1.82-4.26-3.76-5.09-5.68-1.08-2.48-1.94-6.12-2.68-10.39-1.12-6.4-1.98-14.22-3.04-21.78-1.06-7.56-2.3-14.86-4.19-20.27-2.47-7.06-5.09-20.61-7.13-34.47-2.04-13.86-3.52-28.05-3.74-36.41-.07-2.72-.11-5.38-.11-7.96,0-13.32,1.02-24.49,3.26-30.45,2.34-6.24,7.82-10.45,13.73-13.21,.77-.36,1.56-.7,2.33-1.01,3.31-1.33,6.77-1.56,10.23-1.74,3.46-.18,6.91-.29,10.19-1.46,2.81-1.01,5.36-2.68,8.06-4.08,2.71-1.4,5.56-2.54,8.99-2.54,1.12,0,2.3,.12,3.57,.39,6.03,1.31,13.03,2.35,19.56,3.53,6.53,1.19,12.61,2.53,16.74,4.42,.97,.44,1.83,.92,2.58,1.42h0c1.3,.88,2.49,2.81,3.45,5.45,1.45,3.95,2.43,9.46,3.04,15.29,.61,5.83,.86,12,.86,17.32,0,3.55-.11,6.72-.29,9.15l.5,.04,.5,.04c.18-2.47,.29-5.66,.29-9.23,0-7.13-.44-15.78-1.61-23.16-.58-3.69-1.35-7.07-2.35-9.8-1-2.73-2.22-4.82-3.82-5.93h0c-.8-.54-1.7-1.04-2.72-1.51-4.3-1.96-10.42-3.3-16.98-4.49-6.56-1.19-13.55-2.23-19.53-3.53C60.24,.13,58.99,0,57.8,0c-3.66,0-6.69,1.22-9.45,2.65-2.76,1.44-5.28,3.08-7.94,4.03-3.08,1.1-6.44,1.23-9.91,1.4-3.47,.18-7.05,.41-10.55,1.81-.79,.32-1.59,.66-2.39,1.03-6.04,2.82-11.77,7.16-14.25,13.76C1,30.91,0,42.11,0,55.49c0,2.59,.04,5.26,.11,7.99,.23,8.44,1.71,22.64,3.75,36.53,2.05,13.89,4.65,27.45,7.18,34.65,2.47,7.04,3.85,17.6,5.15,27.65,.65,5.03,1.29,9.94,2.04,14.24,.75,4.3,1.61,7.99,2.75,10.61,.95,2.17,2.89,4.2,5.4,6.08,2.52,1.89,5.61,3.63,8.91,5.19,4.43,2.08,9.22,3.82,13.43,5.07,4.21,1.25,7.83,2.02,9.99,2.16,.52,.03,1.04,.05,1.57,.05,4.42,0,8.82-1.19,12.87-3.86,1.13-.75,2.24-1.61,3.31-2.58l.03-.03,.02-.03c1.02-1.29,1.96-2.6,2.84-3.95l-.42-.27,.35,.35h.01l.04-.05,.03-.04c9.05-13.83,11.51-30.93,15.76-46.03v-.04c.38-1.84,.69-3.69,.95-5.54,.25-1.87,.45-3.75,.55-5.66l-.5-.03,.5,.07c.26-1.82,.53-3.62,.79-5.36,.54-3.49,1.11-6.77,1.78-9.58,1.37-5.72,3.41-18.89,5.23-32.18,1.82-13.29,3.41-26.69,3.86-32.84l-.5-.04"/><path class="cls-8" d="M16.86,12.38c-5.48,2.76-10.41,6.82-12.6,12.66C2.02,30.99,.99,42.17,1,55.49c0,2.58,.04,5.24,.11,7.96,.23,8.36,1.7,22.55,3.74,36.41,2.04,13.86,4.66,27.41,7.13,34.47,1.89,5.41,3.14,12.71,4.19,20.27,1.06,7.56,1.92,15.38,3.04,21.78,.74,4.27,1.61,7.91,2.68,10.39,.83,1.92,2.65,3.85,5.09,5.68,2.34,1.75,5.23,3.4,8.33,4.89-1.02-3.32-2.43-6.49-4.37-9.12-8.5-11.49-7.77-29.07-14.16-53.72C10.4,109.84,8.03,51.35,7.58,33.19c-.2-7.94,4.23-15.17,9.29-20.81"/><path class="cls-6" d="M17.78,11.38c-5.98,2.79-11.58,7.07-13.99,13.49C1.07,32.13,.16,46.66,.61,63.47c.45,16.8,5.9,56.77,10.9,71.03,5,14.26,5.5,42.26,9.93,52.47,1.78,4.09,7.52,7.92,14.07,11.01-.06-.22-.13-.43-.19-.65-3.1-1.48-5.99-3.14-8.33-4.89-2.44-1.82-4.26-3.76-5.09-5.68-1.08-2.48-1.94-6.12-2.68-10.39-1.12-6.4-1.98-14.22-3.04-21.78-1.06-7.56-2.3-14.86-4.19-20.27-2.47-7.06-5.09-20.61-7.13-34.47-2.04-13.86-3.52-28.05-3.74-36.41-.07-2.72-.11-5.38-.11-7.96,0-13.32,1.02-24.49,3.26-30.45,2.19-5.84,7.13-9.9,12.6-12.66,.3-.34,.61-.67,.92-1"/><path class="cls-8" d="M98.04,9.52c1.34,5.18,2.6,11.83,3.24,20.04,1.82,23.01-3.47,78.72-8.4,101.13-3.41,15.55-7.67,43.08-13.39,62.51,8.12-13.3,10.57-29.59,14.67-44.22,.36-1.82,.68-3.65,.93-5.47,.25-1.84,.44-3.7,.54-5.57v-.05c.27-1.82,.53-3.62,.8-5.37,.54-3.5,1.11-6.8,1.8-9.66,1.35-5.63,3.4-18.81,5.21-32.08,1.82-13.28,3.4-26.68,3.86-32.78h0c.18-2.44,.29-5.61,.29-9.15,0-5.32-.25-11.49-.86-17.32-.61-5.83-1.59-11.34-3.04-15.29-.96-2.64-2.14-4.57-3.45-5.45h0c-.65-.43-1.38-.85-2.21-1.25"/><path class="cls-6" d="M97.88,8.89c.06,.21,.11,.42,.17,.63,.82,.39,1.56,.81,2.21,1.25h0c1.3,.88,2.49,2.81,3.45,5.45,1.45,3.95,2.43,9.46,3.04,15.29,.61,5.83,.86,12,.86,17.32,0,3.55-.11,6.72-.29,9.15h0c-.45,6.11-2.04,19.51-3.86,32.78-1.81,13.27-3.86,26.45-5.21,32.08-.69,2.86-1.26,6.16-1.8,9.66-.27,1.74-.53,3.55-.8,5.37v.05c-.1,1.88-.29,3.73-.54,5.57-.25,1.83-.56,3.66-.93,5.47-4.1,14.63-6.55,30.92-14.67,44.22-.18,.6-.36,1.2-.54,1.78,8.97-13.7,11.44-30.74,15.69-45.9,.37-1.83,.68-3.67,.93-5.51,.25-1.86,.44-3.72,.54-5.61,.27-1.82,.53-3.62,.8-5.36,.54-3.49,1.11-6.79,1.79-9.63,2.72-11.35,8.17-52.68,9.08-64.95,.91-12.26,0-42.69-7.27-47.66-.77-.52-1.65-1.01-2.65-1.46"/></g></svg>