<?xml version="1.0" encoding="UTF-8"?><svg id="Layer_2" xmlns="http://www.w3.org/2000/svg" viewBox="0 0 109.95 430.15"><defs><style>.cls-1{fill:#8d814c;}.cls-2{fill:#b5aa77;}.cls-3{fill:#caccb6;}.cls-4{fill:#afa05f;}.cls-5{fill:#f1f4e5;}.cls-6{fill:#c9bd84;}.cls-7{fill:#b5b7a3;}.cls-8{fill:#a3996b;}.cls-9{fill:#9d9055;}.cls-10{fill:#d8dbce;}</style></defs><g id="Layer_3"><path class="cls-6" d="M84.22,234.67c-.6,9.9-2.09,27.53-3.52,44.04-.59,6.96-2.7,20.02-5.2,33.83v.03c-3.56,19.54-7.92,40.61-10.05,48.05-3.63,12.72-5.45,31.49-6.06,39.97-.61,8.48-3.63,29.07-10.29,29.07s-9.32-18.41-10.45-23.16c-4.4-18.56-7.09-36.96-8.64-55.82-.62-7.47-1.06-15-1.35-22.65-.06-1.24-.11-2.48-.15-3.73,0-20.59-3.03-55.1-3.63-73.27-.61-18.17-5.45-65.4-5.3-87.5,1.82,7.92,5.92,14.28,10.76,19.18,8.49,8.57,19.29,12.62,24.21,12.62,7.67,0,21.14-4.92,27.31-12.99l.14-.18c4.65-6.23,7.38-21.71,10.02-35.16,1.74,23.73-6.59,67.71-7.8,87.69"/><path class="cls-4" d="M84.22,234.67l-.5-.03c-.6,9.89-2.09,27.52-3.52,44.03-.59,6.92-2.69,19.98-5.19,33.79l.49,.09-.45-.22v.03l-.05,.06v.07c-3.55,19.53-7.92,40.61-10.04,48-3.65,12.79-5.47,31.57-6.07,40.07-.3,4.21-1.21,11.46-2.86,17.62-.82,3.08-1.84,5.88-3.03,7.88-.59,1-1.23,1.79-1.89,2.31-.66,.53-1.32,.79-2.02,.79-.72,0-1.37-.24-2.02-.71-1.13-.81-2.18-2.33-3.08-4.23-1.35-2.85-2.39-6.53-3.17-9.88-.78-3.36-1.31-6.37-1.69-7.96-4.4-18.53-7.08-36.91-8.63-55.75-.62-7.46-1.06-14.98-1.35-22.62h0c-.06-1.24-.11-2.48-.15-3.73h0c0-20.61-3.03-55.13-3.63-73.27-.6-17.92-5.3-63.99-5.3-86.45,0-.35,0-.69,0-1.03h-.5l-.49,.11c1.84,8.03,6,14.47,10.89,19.42,4.29,4.33,9.16,7.51,13.58,9.62,4.43,2.1,8.39,3.14,10.98,3.14,3.94,0,9.27-1.25,14.42-3.51,5.15-2.26,10.13-5.54,13.29-9.68l-.4-.3,.39,.31,.14-.18h0c2.41-3.25,4.25-8.71,5.85-15.06,1.6-6.35,2.94-13.59,4.26-20.31l-.49-.1-.5,.04c.16,2.22,.24,4.61,.24,7.16,0,12.25-1.73,27.84-3.6,42.62-1.87,14.78-3.88,28.76-4.43,37.85l.5,.03,.5,.03c.55-9.01,2.55-22.99,4.43-37.78,1.87-14.79,3.61-30.4,3.61-42.75,0-2.56-.07-4.98-.24-7.23l-.27-3.71-.72,3.65c-1.32,6.73-2.66,13.95-4.25,20.26-1.58,6.3-3.43,11.7-5.68,14.7l.4,.3-.39-.31-.14,.18h0c-3.01,3.94-7.85,7.16-12.9,9.38-5.04,2.22-10.29,3.43-14.02,3.43-2.33,0-6.23-.99-10.55-3.05-4.33-2.06-9.11-5.19-13.3-9.42-4.79-4.84-8.84-11.12-10.63-18.94l-.95-4.15-.03,4.26c0,.34,0,.69,0,1.04,0,22.56,4.71,68.63,5.3,86.48,.61,18.19,3.63,52.71,3.63,73.25h0v.02c.04,1.25,.09,2.51,.15,3.74l.5-.03-.5,.02c.29,7.65,.73,15.19,1.35,22.67,1.55,18.88,4.25,37.31,8.65,55.9,.55,2.34,1.5,8.16,3.16,13.4,.83,2.62,1.83,5.11,3.08,6.98,.62,.93,1.31,1.72,2.09,2.28,.78,.56,1.66,.9,2.61,.89,.97,0,1.86-.38,2.64-1.01,1.37-1.11,2.49-2.98,3.45-5.27,2.87-6.86,4.3-17.65,4.7-23.25,.6-8.46,2.42-27.22,6.04-39.87,2.14-7.49,6.51-28.55,10.05-48.1l-.49-.09,.45,.22v-.03l.05-.06v-.07c2.51-13.82,4.62-26.88,5.22-33.88,1.43-16.52,2.91-34.14,3.52-44.05l-.5-.03"/><path class="cls-2" d="M20.09,167.2c.33,23.26,4.71,66.55,5.28,83.8,.6,18.14,3.63,52.65,3.63,73.27h0c.04,1.24,.09,2.49,.15,3.72h0c.03,.73,.06,1.45,.09,2.16,.61,2.27,1.18,4.56,1.7,6.83,.75-16.54,.72-36.51,.9-40.86,.3-7.57-1.51-63.89-1.5-74.18,.01-5.68,0-23.61,0-38.55-.12-.12-.24-.24-.36-.35-4.15-4.19-7.76-9.45-9.89-15.84"/><path class="cls-9" d="M19.57,165.53c.13,22.84,4.71,67.86,5.3,85.49,.61,18.17,3.63,52.68,3.63,73.27,.3,8.93,.78,17.7,1.5,26.38h0c-.62-7.47-1.06-15-1.35-22.65,.2,.71,.39,1.42,.59,2.14-.03-.72-.06-1.44-.09-2.16h0c-.06-1.24-.11-2.48-.15-3.73h0c0-20.63-3.03-55.13-3.63-73.27-.58-17.24-4.95-60.53-5.28-83.8,2.13,6.39,5.74,11.65,9.89,15.84,.12,.12,.24,.24,.36,.35h0c-.12-.12-.24-.24-.36-.35-4.5-4.55-8.38-10.36-10.41-17.52"/><path class="cls-2" d="M91.71,151.13c-1.07,5.51-2.19,11.16-3.47,16.25-.15,.61-.31,1.21-.47,1.81-.68,2.56-1.42,4.94-2.21,7.05h0l-.03,.1c-.94,2.45-1.97,4.53-3.13,6.09h0v.02c-.19,.24-.37,.48-.56,.71-.64,16.76-1.39,37.77-1.85,54.83-.34,12.64-.02,25.65,.53,37.04,1.33-15.42,2.65-31.23,3.21-40.41h0c.55-9.09,2.56-23.06,4.43-37.85,1.87-14.78,3.6-30.37,3.6-42.62,0-1.04-.01-2.05-.04-3.04"/><path class="cls-9" d="M82.4,182.43h0v.02h0v-.02h0m9.74-33.48c-.47,2.41-.95,4.87-1.44,7.32-.9,4.48-1.85,8.91-2.92,12.92,.16-.59,.32-1.2,.47-1.81,1.28-5.09,2.4-10.75,3.47-16.25,.03,.99,.04,2,.04,3.04,0,12.25-1.73,27.84-3.6,42.62-1.87,14.78-3.88,28.76-4.43,37.85h0c-.56,9.17-1.88,24.99-3.21,40.41,.06,1.24,.12,2.47,.19,3.67,1.43-16.51,2.91-34.14,3.52-44.04,1.18-19.44,9.09-61.58,7.92-85.71"/><path class="cls-2" d="M74.37,315.92c-2.92,8.71-10.6,31.71-12.55,38.05-2.42,7.87-5.13,26.04-5.9,33-.76,6.96-.76,17.26-2.57,24.83-1.01,4.19-2.29,10.42-4.11,10.42-1.47,0-3.28-4.05-5.58-16.48-5.15-27.85-9.69-33-10.29-52.38-.15-4.84-1.09-10.54-2.41-16.36-.17,3.86-.39,7.53-.66,10.78,.07,.95,.15,1.91,.23,2.86,1.55,18.84,4.23,37.22,8.63,55.75,.37,1.59,.91,4.6,1.69,7.96,.78,3.35,1.82,7.03,3.17,9.88,.9,1.9,1.94,3.42,3.08,4.23,.65,.47,1.31,.71,2.02,.71,.7,0,1.36-.26,2.02-.79,.66-.53,1.29-1.32,1.89-2.31,1.19-1.99,2.21-4.8,3.03-7.88,1.65-6.16,2.56-13.41,2.86-17.62,.61-8.5,2.42-27.28,6.07-40.07,1.99-6.96,5.99-26.06,9.4-44.57"/><path class="cls-9" d="M75.49,312.57c-.06,.19-.47,1.41-1.12,3.35-3.42,18.51-7.41,37.6-9.4,44.57-3.65,12.79-5.47,31.57-6.07,40.07-.3,4.21-1.21,11.46-2.86,17.62-.82,3.08-1.84,5.88-3.03,7.88-.59,1-1.23,1.79-1.89,2.31-.66,.53-1.32,.79-2.02,.79-.72,0-1.37-.24-2.02-.71-1.13-.81-2.18-2.33-3.08-4.23-1.35-2.85-2.39-6.53-3.17-9.88-.78-3.36-1.31-6.37-1.69-7.96-4.4-18.53-7.08-36.91-8.63-55.75-.08-.95-.15-1.91-.23-2.86-.08,1.01-.17,1.98-.27,2.9,1.55,18.86,4.24,37.27,8.64,55.82,1.12,4.76,3.78,23.16,10.45,23.16s9.69-20.59,10.29-29.07c.61-8.48,2.42-27.25,6.06-39.97,2.13-7.44,6.5-28.51,10.04-48.05"/><path class="cls-8" d="M29.24,330.16c.25,5.93,.59,11.79,1.03,17.6,.27-3.24,.49-6.92,.66-10.78-.52-2.27-1.09-4.56-1.7-6.83"/><path class="cls-1" d="M28.66,328.02c.29,7.65,.73,15.18,1.35,22.65h0c.1-.92,.19-1.89,.27-2.9-.45-5.82-.79-11.68-1.03-17.6-.19-.72-.39-1.43-.59-2.14"/><path class="cls-5" d="M108.59,67.23c-1.36,7.72-10.45,53.59-14.08,68.12-2.96,11.86-5.36,30.06-9.45,40.8h0c-.93,2.43-1.94,4.48-3.07,5.98-6.11,8.17-19.73,13.17-27.45,13.17-4.92,0-15.72-4.05-24.21-12.62-4.84-4.89-8.94-11.25-10.76-19.18-5-21.8-7.72-30.43-10.9-42.69C5.5,108.56,.5,69.05,.5,53.15,.5,40.71,3.55,22.72,9.89,13.3c1.77-2.62,3.78-4.58,6.06-5.56C26.39,3.19,31.38,2.94,35.93,3.65c4.54,.71,10.46,.18,18.62-.45,14.86-1.14,27.99-5.4,37.52-.09h.01l.16,.09c9.54,5.45,15.44,18.17,16.35,22.25,.91,4.09,1.36,34.06,0,41.78"/><path class="cls-3" d="M108.59,67.23l-.49-.09c-1.36,7.7-10.45,53.59-14.07,68.09-1.49,5.96-2.83,13.47-4.31,20.84-1.48,7.37-3.1,14.59-5.12,19.9l-.03,.09v.1h.5l-.47-.18c-.92,2.4-1.92,4.41-3,5.85-2.97,3.99-7.84,7.25-12.92,9.49-5.08,2.25-10.37,3.48-14.13,3.48-2.33,0-6.23-.99-10.55-3.05-4.33-2.06-9.11-5.19-13.3-9.42-4.79-4.84-8.84-11.12-10.63-18.94-5-21.81-7.73-30.46-10.9-42.7-1.58-6.08-3.62-19.03-5.27-32.41-1.64-13.38-2.89-27.23-2.89-35.14,0-6.18,.76-13.76,2.31-20.95,1.54-7.19,3.89-14,6.99-18.62,1.73-2.58,3.69-4.46,5.84-5.38,7.75-3.37,12.43-4.35,16.13-4.35,1.27,0,2.43,.12,3.57,.29,1.57,.24,3.29,.34,5.19,.34,3.72,0,8.15-.37,13.54-.79,9.46-.73,18.19-2.7,25.65-2.69,4.32,0,8.2,.65,11.59,2.54l.24-.44-.36,.35h.01l.07,.08,.25,.12,.21-.45-.25,.43c4.66,2.66,8.48,7.14,11.24,11.47,2.75,4.32,4.44,8.51,4.87,10.46,.11,.5,.23,1.55,.33,2.95,.31,4.21,.51,11.7,.51,19.1,0,4.06-.06,8.09-.2,11.53-.14,3.44-.35,6.31-.65,8.01l.49,.09,.49,.09c.32-1.79,.53-4.67,.67-8.14,.14-3.47,.2-7.51,.2-11.58,0-4.94-.09-9.93-.24-13.96-.08-2.02-.17-3.79-.27-5.21-.11-1.42-.22-2.47-.35-3.09-.48-2.14-2.19-6.35-5.01-10.78-2.81-4.41-6.71-9.02-11.58-11.8h-.02l-.18-.1-.21,.45,.36-.35h-.01l-.05-.07-.06-.04C88.72,.67,84.65,0,80.23,0c-7.64,0-16.35,1.98-25.73,2.7-5.4,.42-9.81,.79-13.47,.79-1.87,0-3.54-.1-5.04-.33-1.18-.18-2.4-.3-3.73-.3-3.89,0-8.72,1.03-16.53,4.43-2.39,1.04-4.47,3.07-6.27,5.74-3.22,4.8-5.58,11.7-7.14,18.97-1.56,7.27-2.33,14.9-2.33,21.16,0,7.99,1.25,21.85,2.9,35.26,1.65,13.41,3.69,26.35,5.29,32.54,3.18,12.28,5.9,20.89,10.9,42.68,1.84,8.03,6,14.47,10.89,19.42,4.29,4.33,9.16,7.51,13.58,9.62,4.43,2.1,8.39,3.14,10.98,3.14,3.96,0,9.34-1.27,14.53-3.56,5.19-2.3,10.18-5.62,13.32-9.81,1.17-1.56,2.19-3.64,3.13-6.09l.03-.09v-.11h-.5l.47,.18c2.06-5.42,3.69-12.67,5.17-20.06,1.48-7.38,2.82-14.9,4.3-20.8,3.64-14.57,12.72-60.42,14.09-68.16l-.49-.09"/><path class="cls-10" d="M9.16,15.43c-2.55,4.5-4.51,10.49-5.85,16.77-1.55,7.19-2.31,14.77-2.31,20.95,0,7.9,1.25,21.75,2.89,35.14,1.64,13.38,3.69,26.33,5.27,32.41,3.18,12.25,5.91,20.89,10.9,42.7,1.72,7.5,5.51,13.58,10.04,18.33-4.77-19.85-13.55-55.74-17.58-68.18-5.69-17.56-6.42-56.92-7.03-76.91-.21-6.96,1.44-14.44,3.67-21.22"/><path class="cls-7" d="M9.89,13.3C3.55,22.72,.5,40.71,.5,53.15c0,15.9,5,55.41,8.17,67.67,3.18,12.26,5.9,20.89,10.9,42.69,1.82,7.92,5.92,14.28,10.76,19.18-.08-.31-.15-.63-.23-.95-4.53-4.76-8.32-10.84-10.04-18.33-5-21.81-7.73-30.46-10.9-42.7-1.58-6.08-3.62-19.03-5.27-32.41-1.64-13.38-2.89-27.23-2.89-35.14,0-6.18,.76-13.76,2.31-20.95,1.35-6.29,3.31-12.28,5.85-16.77,.24-.72,.48-1.43,.72-2.13"/><path class="cls-10" d="M92.63,4.01c4.2,6.76,8.64,14.83,10.36,21.14,3.63,13.32,0,53.89-9.69,90.23-4.41,16.53-6.81,39.19-8.12,58.99,1.76-5.11,3.21-11.64,4.54-18.28,1.48-7.37,2.82-14.89,4.31-20.84,3.62-14.5,12.71-60.39,14.07-68.09h0c.3-1.69,.52-4.56,.65-8.01,.14-3.45,.2-7.48,.2-11.53,0-7.4-.2-14.89-.51-19.1-.1-1.4-.22-2.44-.33-2.95-.43-1.95-2.12-6.13-4.87-10.46-2.63-4.13-6.22-8.4-10.6-11.09"/><path class="cls-7" d="M92.08,3.12c.18,.29,.37,.59,.56,.89,4.37,2.69,7.97,6.96,10.6,11.09,2.75,4.32,4.44,8.51,4.87,10.46,.11,.5,.23,1.55,.33,2.95,.31,4.21,.51,11.7,.51,19.1,0,4.06-.06,8.09-.2,11.53-.14,3.44-.35,6.31-.65,8.01h0c-1.36,7.7-10.45,53.59-14.07,68.09-1.49,5.96-2.83,13.47-4.31,20.84-1.33,6.64-2.78,13.17-4.54,18.28-.04,.6-.08,1.2-.12,1.79,4.09-10.74,6.48-28.94,9.45-40.8,3.63-14.53,12.72-60.4,14.08-68.12,1.36-7.72,.91-37.7,0-41.78-.91-4.09-6.81-16.8-16.35-22.25l-.16-.08"/></g></svg>