<?xml version="1.0" encoding="UTF-8"?><svg id="Layer_2" xmlns="http://www.w3.org/2000/svg" viewBox="0 0 122.96 461.87"><defs><style>.cls-1{fill:#b5aa77;}.cls-2{fill:#caccb6;}.cls-3{fill:#afa05f;}.cls-4{fill:#f1f4e5;}.cls-5{fill:#c9bd84;}.cls-6{fill:#b5b7a3;}.cls-7{fill:#9d9055;}.cls-8{fill:#d8dbce;}</style></defs><g id="Layer_3"><path class="cls-5" d="M102.06,200.43c-.37,10.21-.83,21.02-1.29,30.72-.45,9.69-.9,18.27-1.1,24.12-1.65,30.69-4.18,59.71-8.04,89.66-.42,3.24-.83,6.48-1.27,9.69-3.48,21.77-8.87,43.81-13.01,66.14v.04c-1.75,9.45-3.28,18.97-4.34,28.54-1.44,6.74-3.41,12.03-5.83,12.03s-4.84-4.24-7.04-10.14c-1.58-5.26-3.08-10.52-4.5-15.78v-.05l-.03-.07c-8.84-32.56-14.89-65.22-18.03-98.58-.48-4.32-.91-8.62-1.33-12.92-2.04-21.49-3.39-42.96-4.19-64.45-.28-4.36-.55-8.73-.83-13.09-1.35-21.81-2.61-43.57-3.87-65.02,.09,.13,.16,.24,.25,.35,2.35,3.44,5.2,6.06,8.35,8.01,.47,.28,.93,.54,1.4,.81,6.69,3.65,14.6,4.6,22.31,4.44,3.59-.04,6.82-.28,9.32-.39,9.99-.45,13.62-3.63,19.98-10.45,2.11-2.26,4.92-7.17,7.82-13.12,1.31-2.66,2.64-5.53,3.92-8.46h0c.39-.86,.76-1.72,1.12-2.57,.11,.19,.2,.48,.29,.88,.93,4.34,.59,20.99-.09,39.68"/><path class="cls-3" d="M102.06,200.43l-.5-.02c-.37,10.2-.83,21.01-1.29,30.71-.45,9.69-.9,18.27-1.1,24.13l.5,.02-.5-.03c-1.65,30.68-4.17,59.69-8.03,89.62-.42,3.24-.83,6.48-1.27,9.69l.5,.07-.49-.08c-3.48,21.75-8.86,43.78-13,66.13l.49,.09-.47-.16v.04l-.03,.03v.04c-1.75,9.46-3.28,18.99-4.34,28.57l.5,.06-.49-.1c-.71,3.35-1.56,6.33-2.51,8.44-.47,1.05-.97,1.89-1.47,2.43-.5,.55-.95,.77-1.36,.77-.45,0-.95-.2-1.5-.64-.82-.66-1.69-1.86-2.55-3.44-.86-1.58-1.71-3.54-2.52-5.74l-.47,.17,.48-.14c-1.58-5.26-3.08-10.51-4.5-15.77l-.48,.13,.48-.12v-.03l-.02-.06v-.05c-8.85-32.54-14.88-65.17-18.02-98.49h0c-.48-4.32-.91-8.62-1.32-12.92-2.04-21.47-3.39-42.94-4.19-64.42h0c-.28-4.38-.55-8.74-.83-13.11-1.35-21.81-2.61-43.57-3.87-65.02l-.5,.03-.41,.29c.08,.12,.16,.24,.27,.37l.4-.31-.41,.28c2.39,3.5,5.29,6.17,8.5,8.15h0c.47,.29,.94,.55,1.41,.82h0c6.33,3.45,13.69,4.52,20.93,4.52,.54,0,1.08,0,1.62-.02v0c3.61-.04,6.85-.28,9.34-.39,5.04-.23,8.55-1.15,11.58-2.91,3.03-1.75,5.56-4.29,8.74-7.7,1.1-1.18,2.34-2.99,3.68-5.26,1.34-2.27,2.77-5,4.23-7.98h0c1.32-2.67,2.64-5.54,3.93-8.48l.04-.1v-.12h-.5l.45,.21c.4-.85,.76-1.72,1.13-2.57l-.46-.2-.43,.26c.06,.09,.15,.35,.23,.73,.19,.89,.34,2.41,.43,4.4,.09,2,.13,4.48,.13,7.33,0,7.39-.28,17.28-.66,27.82l.5,.02,.5,.02c.38-10.54,.66-20.44,.66-27.85,0-2.86-.04-5.36-.13-7.38-.09-2.02-.23-3.57-.45-4.57-.1-.42-.18-.75-.35-1.03l-.5-.84-.39,.9c-.37,.86-.73,1.71-1.12,2.55l-.05,.1v.12h.5l-.46-.2c-1.28,2.93-2.61,5.79-3.91,8.44h0c-1.45,2.97-2.87,5.68-4.19,7.91-1.32,2.24-2.54,4.01-3.55,5.09-3.17,3.4-5.64,5.86-8.51,7.51-2.87,1.65-6.18,2.55-11.13,2.77-2.51,.11-5.73,.35-9.31,.39h0c-.53,.01-1.07,.02-1.6,.02-7.14,0-14.34-1.06-20.45-4.4l-.24,.44,.25-.43c-.47-.27-.93-.53-1.39-.8l-.26,.43,.26-.42c-3.1-1.92-5.9-4.48-8.2-7.87h0v-.03c-.08-.09-.15-.2-.25-.33l-1.01-1.44,.1,1.76c1.26,21.45,2.52,43.21,3.87,65.02,.28,4.37,.56,8.73,.83,13.1l.5-.03-.5,.02c.79,21.51,2.14,42.99,4.19,64.48,.42,4.3,.84,8.61,1.33,12.93l.5-.05-.5,.05c3.14,33.39,9.19,66.08,18.04,98.66l.48-.13-.49,.08v.08l.02,.02,.02,.07h0c1.43,5.27,2.93,10.54,4.51,15.8v.02h.01c1.11,2.99,2.27,5.55,3.49,7.4,.61,.93,1.23,1.68,1.89,2.22,.66,.54,1.37,.87,2.13,.87,.8,0,1.5-.44,2.1-1.1,.9-1,1.66-2.55,2.36-4.5,.7-1.95,1.31-4.29,1.86-6.83v-.05c1.07-9.55,2.59-19.06,4.33-28.5l-.49-.09,.47,.16v-.04l.02-.04v-.04c4.14-22.31,9.53-44.35,13.02-66.16h0c.44-3.22,.86-6.46,1.27-9.7,3.86-29.96,6.39-58.99,8.04-89.7h0c.2-5.86,.64-14.43,1.1-24.12,.45-9.7,.92-20.52,1.29-30.72l-.5-.02"/><path class="cls-1" d="M101.76,161.38c-.15,.34-.3,.68-.45,1.01l-.07,.16h0l-.04,.1c-.88,2.01-1.78,3.98-2.68,5.88-.51,1.09-1.02,2.15-1.53,3.18,1.48,8.22,.65,44.43-.25,65.01-.93,21.35-3.66,64.04-6.38,84.47-2.73,20.44-7.27,57.22-8.63,64.49-.95,5.06-2.7,20.12-3.68,28.82,3.94-20.23,8.67-40.21,11.83-59.94h0c.44-3.2,.86-6.44,1.27-9.69,3.86-29.93,6.38-58.93,8.03-89.61h0c.2-5.86,.64-14.44,1.1-24.13,.45-9.7,.92-20.51,1.29-30.71h0c.38-10.54,.66-20.43,.66-27.82,0-2.86-.04-5.34-.13-7.33-.08-1.65-.19-2.97-.33-3.89"/><path class="cls-7" d="M101.24,162.55c-.37,.83-.73,1.66-1.1,2.47-.54,1.19-1.08,2.36-1.61,3.51,.9-1.9,1.8-3.87,2.68-5.88l.04-.1h0m.91-1.79c-.09,.1-.17,.2-.26,.3-.19,.45-.39,.89-.58,1.34,.15-.34,.3-.67,.45-1.01,.15,.91,.26,2.24,.33,3.89,.09,2,.13,4.48,.13,7.33,0,7.39-.28,17.28-.66,27.82h0c-.37,10.2-.83,21.01-1.29,30.71-.45,9.69-.9,18.27-1.1,24.13h0c-1.65,30.68-4.17,59.68-8.03,89.61-.42,3.24-.83,6.48-1.27,9.69h0c-3.16,19.74-7.88,39.71-11.83,59.94-.38,3.41-.65,5.84-.7,6.31v-.04c4.15-22.33,9.54-44.37,13.02-66.14,.44-3.2,.86-6.45,1.27-9.69,3.86-29.95,6.38-58.97,8.04-89.66,.2-5.85,.64-14.43,1.1-24.12,.45-9.7,.92-20.51,1.29-30.72,.68-18.68,1.02-35.34,.09-39.68"/><path class="cls-1" d="M27.98,182.96c1.23,20.88,2.46,42.06,3.77,63.29,.28,4.37,.56,8.73,.83,13.09h0c.79,21.5,2.14,42.96,4.19,64.44,.42,4.3,.84,8.6,1.32,12.91h0c2.97,31.52,8.53,62.41,16.59,93.18-3.1-18.17-12.7-75.95-13.84-101.41-1.36-30.43-2.5-67.67-3.09-81.75-.58-14.08-.27-46.07-1-52.76-.11-.99-.34-2.27-.64-3.66-.13-.08-.27-.16-.4-.24h0c-2.87-1.79-5.51-4.11-7.74-7.09"/><path class="cls-7" d="M27.38,181.26c1.26,21.45,2.52,43.21,3.87,65.02,.28,4.37,.56,8.73,.83,13.09,.8,21.5,2.14,42.97,4.19,64.45,.42,4.3,.85,8.6,1.33,12.92,3.14,33.36,9.18,66.02,18.03,98.58-.08-.49-.42-2.42-.94-5.45-8.07-30.77-13.62-61.66-16.59-93.17h0c-.48-4.32-.91-8.62-1.32-12.92-2.04-21.47-3.39-42.94-4.19-64.42h0c-.28-4.38-.55-8.74-.83-13.11-1.31-21.22-2.54-42.4-3.77-63.29,2.23,2.98,4.86,5.31,7.74,7.09h0c.13,.08,.27,.16,.4,.24v-.07c-.11-.06-.2-.11-.29-.17h-.01l-.12-.08c-3.18-2.03-6-4.78-8.19-8.51-.04-.06-.09-.13-.14-.2"/><path class="cls-4" d="M122.15,76.85c-1.36,12.26-8.63,47.69-11.35,58.59-1.53,6.11-6.18,18.48-11.11,29.38-3.86,8.57-7.88,16.21-10.69,19.21-6.36,6.81-9.99,9.99-19.98,10.45-7.7,.35-22.39,1.87-33.03-4.93h-.01c-3.18-2.03-5.98-4.78-8.14-8.54-6.17-10.75-4.87-23.45-11.2-42.99-4.11-12.72-10.02-33.91-13.56-46.63-3.54-12.72-4-27.25,2.36-39.06,6.36-11.81,17.26-24.07,22.71-30.43C33.21,15.98,41.04,3.75,57.13,1c1.19-.21,2.42-.37,3.71-.45,13.71-1.01,35.27,13.42,46.68,24.63l.03,.02c2.9,2.84,5.15,5.48,6.43,7.6,6.36,10.45,9.54,31.79,8.17,44.05"/><path class="cls-2" d="M122.15,76.85l-.5-.06c-1.35,12.2-8.62,47.66-11.34,58.52-1.51,6.04-6.16,18.42-11.08,29.3-1.93,4.27-3.89,8.32-5.72,11.66-1.83,3.34-3.53,5.98-4.87,7.42-3.17,3.4-5.64,5.86-8.51,7.51-2.87,1.65-6.18,2.55-11.13,2.77-2.71,.12-6.27,.39-10.2,.39-7.26,0-15.78-.92-22.54-5.24l-.12-.08h-.16v.5l.27-.42c-3.12-1.99-5.86-4.68-7.97-8.37-3.03-5.28-4.25-11.08-5.48-18.04-1.24-6.95-2.5-15.05-5.68-24.86-4.11-12.7-10.01-33.89-13.56-46.61-1.59-5.7-2.55-11.76-2.55-17.76,0-7.31,1.42-14.53,4.87-20.92,6.31-11.73,17.19-23.98,22.65-30.34,5.11-5.98,12.84-18.01,28.69-20.72h0c1.17-.21,2.39-.36,3.65-.45,.45-.03,.9-.05,1.36-.05,6.71,0,15.23,3.41,23.41,8.21,8.18,4.79,16.05,10.94,21.52,16.32l.35-.36-.36,.35,.02,.02h0c2.88,2.83,5.11,5.45,6.36,7.5,2.64,4.34,4.76,10.67,6.2,17.45,1.44,6.78,2.21,14,2.21,20.13,0,2.22-.1,4.3-.31,6.16l.5,.06,.5,.05c.21-1.91,.31-4.02,.31-6.27,0-6.21-.78-13.49-2.24-20.33-1.46-6.85-3.58-13.26-6.32-17.76-1.32-2.18-3.59-4.83-6.51-7.69l-.35,.36,.36-.35-.02-.02h0c-5.55-5.45-13.45-11.64-21.72-16.48C77.88,3.51,69.27,0,62.23,0c-.49,0-.96,.02-1.43,.05-1.3,.09-2.56,.24-3.76,.46h0c-16.32,2.79-24.26,15.2-29.29,21.06-5.45,6.36-16.37,18.63-22.77,30.52-3.54,6.57-4.99,13.96-4.99,21.4,0,6.11,.98,12.26,2.59,18.03,3.55,12.72,9.45,33.91,13.57,46.65,3.15,9.73,4.41,17.76,5.65,24.73,1.24,6.97,2.46,12.9,5.6,18.36,2.2,3.83,5.06,6.64,8.3,8.71l.12,.08h.16v-.5l-.27,.42c7.04,4.5,15.74,5.4,23.08,5.4,3.97,0,7.55-.27,10.24-.39,5.04-.23,8.55-1.15,11.58-2.91,3.03-1.75,5.56-4.29,8.74-7.7,1.46-1.57,3.17-4.25,5.02-7.62,1.85-3.37,3.82-7.44,5.76-11.73,4.94-10.93,9.6-23.3,11.14-29.47,2.73-10.94,9.99-46.33,11.37-58.65l-.5-.05"/><path class="cls-8" d="M56.78,1.57c-15.57,2.85-23.2,14.73-28.27,20.65-5.45,6.36-16.33,18.61-22.65,30.34-3.44,6.39-4.87,13.61-4.87,20.92,0,6,.96,12.07,2.55,17.76,3.54,12.72,9.45,33.91,13.56,46.61,3.18,9.81,4.44,17.91,5.68,24.86,1.24,6.96,2.45,12.76,5.48,18.04,2.01,3.5,4.58,6.1,7.51,8.06-2.11-7.8-4-15.87-5.37-23.86C23.8,126.33,10.42,99.1,6.79,88.2c-3.63-10.9-2.27-21.8,0-27.25,2.27-5.45,22.71-18.62,31.79-30.88,4.4-5.94,11.76-17.82,18.2-28.5"/><path class="cls-6" d="M57.13,1c-16.08,2.75-23.92,14.98-28.99,20.89-5.45,6.36-16.35,18.62-22.71,30.43C-.93,64.13-.48,78.67,3.07,91.38c3.55,12.72,9.45,33.91,13.56,46.63,6.33,19.54,5.03,32.25,11.2,42.99,2.16,3.76,4.96,6.51,8.14,8.54-.07-.24-.13-.48-.2-.73-2.93-1.96-5.5-4.56-7.51-8.06-3.03-5.28-4.25-11.08-5.48-18.04-1.24-6.95-2.5-15.05-5.68-24.86-4.11-12.7-10.01-33.89-13.56-46.61-1.59-5.7-2.55-11.76-2.55-17.76,0-7.31,1.42-14.53,4.87-20.92,6.31-11.73,17.19-23.98,22.65-30.34,5.07-5.92,12.7-17.8,28.27-20.65,.11-.19,.23-.38,.34-.57"/><path class="cls-8" d="M108.39,26.76c1.93,3.97,6.4,15.76,6.04,39.64-.27,18.41-7.61,63.16-14.29,96.17,4.57-10.35,8.76-21.59,10.17-27.26,2.72-10.86,9.99-46.32,11.34-58.52h0c.21-1.86,.31-3.94,.31-6.16,0-6.13-.77-13.35-2.21-20.13-1.44-6.78-3.56-13.11-6.2-17.45-1.07-1.76-2.85-3.94-5.16-6.3"/><path class="cls-6" d="M107.54,25.2c.08,.12,.39,.62,.85,1.56,2.3,2.36,4.09,4.53,5.16,6.3,2.64,4.34,4.76,10.67,6.2,17.45,1.44,6.78,2.21,14,2.21,20.13,0,2.22-.1,4.3-.31,6.16h0c-1.35,12.2-8.62,47.66-11.34,58.52-1.41,5.67-5.6,16.91-10.17,27.26-.15,.76-.31,1.5-.46,2.25,4.93-10.9,9.59-23.28,11.11-29.38,2.73-10.9,9.99-46.32,11.35-58.59,1.36-12.26-1.82-33.61-8.17-44.05-1.29-2.12-3.53-4.76-6.43-7.6"/></g></svg>