<?xml version="1.0" encoding="UTF-8"?><svg id="Layer_2" xmlns="http://www.w3.org/2000/svg" viewBox="0 0 149.64 433.44"><defs><style>.cls-1{fill:#b5aa77;}.cls-2{fill:#caccb6;}.cls-3{fill:#afa05f;}.cls-4{fill:#f1f4e5;}.cls-5{fill:#c9bd84;}.cls-6{fill:#b5b7a3;}.cls-7{fill:#9d9055;}.cls-8{fill:#d8dbce;}</style></defs><g id="Layer_3"><path class="cls-5" d="M111.96,291.15c.4,6.06-2.96,32.56-5.6,53.52-.67,5.24-1.29,10.12-1.79,14.26-.09,2.7-.28,5.39-.53,8.09-3.2,13.81-4.42,37.28-8.72,52.17-2.52,8.75-6.12,14.56-11.82,13.67-2.75-.42-5.84-8.04-9.08-19.09h0c-6.06-20.68-12.62-53.4-18.37-73.83-.82-3.63-1.61-7.29-2.38-10.95-.77-3.66-1.51-7.34-2.22-11.04-.68-3.75-1.31-7.51-1.91-11.27-5.34-33.8-7.54-67.89-9.08-102.15-.15-3.05-.3-6.08-.45-9.07-1.44-29.92-2.55-56.53-2.99-64.48,3.62,8.65,4.43,17.51,10.31,27.7,.83,1.45,2.16,2.64,3.85,3.61,12.1,6.95,43.13,2.37,51.11-3.61,2.48-1.87,5.21-5.71,7.96-10.55,2.83-4.96,5.68-10.96,8.33-16.93,4.05,8.25-7.2,150.86-6.6,159.94"/><path class="cls-3" d="M111.96,291.15l-.5,.03c.02,.32,.03,.71,.03,1.16,0,3.84-.78,11.98-1.88,21.6-1.1,9.63-2.51,20.77-3.75,30.66-.67,5.23-1.29,10.12-1.79,14.26v.04c-.09,2.69-.28,5.37-.53,8.06l.5,.05-.49-.11c-1.61,6.95-2.71,16.28-3.96,25.73-1.24,9.45-2.62,19.02-4.75,26.41-1.17,4.05-2.57,7.45-4.26,9.79-1.7,2.35-3.63,3.61-5.96,3.61-.34,0-.69-.03-1.05-.08-.47-.06-1.11-.51-1.8-1.41-1.04-1.35-2.16-3.62-3.32-6.57-1.16-2.96-2.35-6.61-3.56-10.74l-.48,.14h.5v-.08l-.02-.07c-6.05-20.63-12.61-53.35-18.37-73.81l-.48,.14,.49-.11c-.82-3.63-1.61-7.29-2.38-10.94-.77-3.66-1.51-7.34-2.22-11.03h0c-.68-3.74-1.31-7.49-1.9-11.25-5.33-33.77-7.54-67.84-9.08-102.09-.15-3.06-.3-6.08-.45-9.07-1.44-29.92-2.55-56.52-2.99-64.48l-.5,.03-.46,.19c3.59,8.56,4.4,17.47,10.34,27.76,.89,1.55,2.29,2.79,4.03,3.79,4.47,2.56,11.28,3.56,18.57,3.56,6.55,0,13.5-.82,19.46-2.12,5.97-1.31,10.94-3.08,13.62-5.08,2.6-1.96,5.32-5.84,8.1-10.7,2.84-4.98,5.7-11,8.35-16.97l-.46-.2-.45,.22c.11,.23,.25,.71,.35,1.38,.33,2.02,.48,5.74,.48,10.68,0,17.66-1.87,51.06-3.75,81.67-.94,15.3-1.88,29.91-2.58,41.51-.7,11.6-1.17,20.18-1.17,23.49,0,.43,0,.77,.03,1.02l.5-.03,.5-.03c-.02-.22-.02-.54-.02-.96,0-3.23,.47-11.83,1.17-23.43,2.11-34.8,6.33-96.67,6.33-123.25,0-3.31-.07-6.07-.21-8.17-.07-1.05-.16-1.94-.28-2.66-.12-.72-.25-1.26-.44-1.66l-.47-.96-.43,.98c-2.65,5.96-5.49,11.95-8.3,16.89-2.73,4.81-5.45,8.62-7.83,10.39-2.44,1.84-7.35,3.62-13.24,4.9-5.89,1.29-12.78,2.1-19.25,2.1-7.2,0-13.89-1.02-18.07-3.43-1.64-.94-2.89-2.07-3.66-3.42-5.83-10.09-6.63-18.89-10.28-27.65l-1.12-2.68,.16,2.9c.44,7.94,1.55,34.55,2.99,64.47,.15,2.99,.3,6.02,.45,9.07,1.54,34.27,3.75,68.37,9.09,102.2,.59,3.76,1.22,7.53,1.91,11.28h0c.71,3.7,1.45,7.39,2.22,11.05,.77,3.66,1.57,7.32,2.39,10.96h0v.02c5.75,20.39,12.31,53.12,18.37,73.82l.48-.14h-.5v.08l.02,.07c1.62,5.54,3.21,10.22,4.75,13.6,.77,1.69,1.53,3.05,2.29,4.05,.77,.99,1.54,1.65,2.44,1.79,.41,.06,.81,.1,1.2,.09,2.73,0,4.98-1.53,6.77-4.03,1.8-2.5,3.22-5.98,4.41-10.1,2.16-7.5,3.54-17.1,4.79-26.56,1.24-9.46,2.35-18.77,3.94-25.63v-.07c.26-2.71,.45-5.4,.54-8.12l-.5-.02,.5,.06c.5-4.14,1.12-9.02,1.79-14.25,1.24-9.9,2.65-21.04,3.75-30.68,1.1-9.64,1.89-17.77,1.89-21.71,0-.46-.01-.87-.03-1.22l-.5,.03"/><path class="cls-1" d="M37.67,134.1c.52,10.5,1.54,34.59,2.83,61.33,.15,2.99,.3,6.02,.45,9.07,1.54,34.26,3.75,68.33,9.08,102.09,.59,3.76,1.22,7.51,1.9,11.25h0c.7,3.69,1.45,7.37,2.22,11.03,.77,3.65,1.56,7.31,2.38,10.93,5.52,19.59,11.76,50.42,17.59,71.11-2.72-26.1-6.01-51.01-9.4-61.64-8.48-26.64-14.53-102.34-16.96-138.67-.91-13.58,.81-31.13,3.31-47.79-.06-.03-.11-.06-.17-.1-.09-.05-.17-.1-.26-.15-1.23-.73-2.27-1.59-3.07-2.6h0l-.03-.04c-.25-.32-.48-.65-.68-1-.24-.42-.47-.83-.7-1.25v-.02l-.05-.08c-2.95-5.44-4.52-10.51-5.94-15.34-.82-2.78-1.58-5.48-2.52-8.15"/><path class="cls-7" d="M50.65,162.58c.08,.05,.17,.1,.26,.15,.06,.03,.11,.06,.17,.1h0c-.14-.08-.29-.16-.43-.25m-3.07-2.61h0m-1.4-2.28c.22,.41,.46,.83,.7,1.25,.2,.35,.43,.68,.68,1-.25-.32-.48-.65-.68-1-.24-.42-.47-.83-.7-1.25m-.05-.1l.04,.08-.04-.08m-9.04-25.06c.49,9.46,1.55,34.72,2.91,62.93,.15,2.99,.3,6.02,.45,9.07,1.54,34.26,3.75,68.35,9.08,102.15,.59,3.76,1.22,7.52,1.91,11.27,.71,3.7,1.45,7.38,2.22,11.04,.77,3.66,1.57,7.32,2.38,10.95,5.75,20.42,12.31,53.15,18.37,73.81-.1-.94-.19-1.89-.29-2.83-5.83-20.69-12.07-51.52-17.59-71.11-.82-3.63-1.61-7.28-2.38-10.93-.77-3.66-1.51-7.34-2.22-11.03h0c-.68-3.74-1.31-7.49-1.9-11.25-5.33-33.77-7.54-67.84-9.08-102.09-.15-3.06-.3-6.08-.45-9.07-1.29-26.74-2.31-50.84-2.83-61.33-.19-.52-.38-1.05-.58-1.57"/><path class="cls-1" d="M118.44,132.69c-.29,.65-.59,1.3-.88,1.95-2.04,4.47-4.17,8.85-6.3,12.69-.34,.61-.67,1.2-1.01,1.78,.96,43.71,.98,108.75-.72,117.21-3.03,15.14-4.84,82.96-9.08,101.13-2.79,11.99-5.33,34.59-5.17,49.96,1.88-7.14,3.16-16.02,4.31-24.78,1.24-9.44,2.34-18.75,3.95-25.7,.25-2.68,.44-5.35,.52-8.02v-.04c.51-4.14,1.13-9.02,1.8-14.26,1.24-9.9,2.65-21.03,3.75-30.66,1.1-9.62,1.88-17.77,1.88-21.6,0-.45-.01-.84-.03-1.16l.5-.03h0l-.5,.03c-.02-.26-.03-.6-.03-1.02,0-3.3,.47-11.88,1.17-23.49,.7-11.6,1.64-26.21,2.58-41.51,1.88-30.61,3.75-64.01,3.75-81.67,0-4.94-.15-8.65-.48-10.68,0-.04-.01-.08-.02-.12"/><path class="cls-7" d="M111.96,291.15h0l-.5,.03c.02,.32,.03,.71,.03,1.16,0,3.84-.78,11.98-1.88,21.6-1.1,9.63-2.51,20.77-3.75,30.66-.67,5.23-1.29,10.12-1.79,14.26v.04c-.09,2.68-.28,5.34-.53,8.02-1.61,6.95-2.71,16.26-3.95,25.7-1.15,8.77-2.42,17.65-4.31,24.78,0,.6,.02,1.19,.03,1.77,4.3-14.89,5.51-38.35,8.72-52.17,.25-2.7,.44-5.39,.53-8.09,.5-4.14,1.12-9.02,1.79-14.26,2.64-20.96,6.01-47.46,5.6-53.52m6.83-159.25c-.41,.91-.82,1.83-1.23,2.74,.3-.65,.59-1.3,.88-1.95,0,.04,.01,.08,.02,.12,.33,2.02,.48,5.74,.48,10.68,0,17.66-1.87,51.06-3.75,81.67-.94,15.3-1.88,29.91-2.58,41.51-.7,11.6-1.17,20.18-1.17,23.49,0,.43,0,.77,.03,1.02l.5-.03h0c-.59-8.89,10.18-145.76,6.83-159.25"/><path class="cls-4" d="M140.42,70.13c-3.18,9.54-6.81,25.89-11.81,37.24-3.53,8.02-10.68,26.92-17.79,39.73-2.94,5.32-5.89,9.59-8.55,11.59-7.65,5.74-36.56,10.18-49.57,4.38-2.43-1.07-4.31-2.51-5.39-4.38-6.81-11.81-6.81-21.8-12.26-31.79-5.45-9.99-17.78-34.1-23.62-43.67C5.64,73.72,.99,61.5,.53,49.69c-.38-9.94,2.46-15.05,8.52-19.95,1.14-.92,2.38-1.83,3.75-2.76,8.63-5.9,17.71-5.9,24.98-10.45,7.27-4.54,15.44-6.81,21.35-11.35C65.02,.64,71.91,.18,77.29,.64c4,.34,7.76,1.22,11.35,2.39,8.21,2.65,15.59,6.72,23.16,8.97,9.11,2.7,36.16,9.97,37.24,20.89,.95,9.54-5.45,27.7-8.63,37.24"/><path class="cls-2" d="M140.42,70.13l-.47-.16c-3.19,9.58-6.82,25.91-11.79,37.2-3.54,8.05-10.69,26.93-17.77,39.69-2.92,5.3-5.87,9.53-8.42,11.44-2.43,1.84-7.34,3.62-13.22,4.9-5.89,1.29-12.77,2.1-19.24,2.1-6.4,0-12.4-.8-16.6-2.68h0c-2.37-1.05-4.16-2.43-5.15-4.17-3.38-5.85-5.07-11.25-6.6-16.47-1.53-5.22-2.9-10.25-5.66-15.31-5.44-9.98-17.77-34.08-23.63-43.7C6.11,73.52,1.48,61.36,1.03,49.67c-.02-.58-.03-1.14-.03-1.69,0-4.37,.7-7.69,2.09-10.48,1.38-2.8,3.46-5.09,6.28-7.36,1.12-.91,2.36-1.81,3.72-2.74,4.25-2.9,8.61-4.37,12.86-5.67,4.25-1.3,8.38-2.45,12.1-4.77,7.18-4.5,15.36-6.76,21.39-11.38,4.68-3.6,10-4.58,14.69-4.58,1.09,0,2.13,.05,3.13,.14,3.95,.34,7.67,1.21,11.24,2.36,8.16,2.63,15.53,6.7,23.17,8.97,4.56,1.35,13.58,3.84,21.57,7.34,3.99,1.75,7.73,3.75,10.5,5.97,2.78,2.22,4.57,4.63,4.81,7.15,.06,.63,.09,1.3,.09,2,0,4.86-1.43,11.41-3.23,17.84-1.81,6.43-3.98,12.74-5.47,17.19l.47,.16,.47,.16c1.48-4.44,3.66-10.77,5.48-17.24,1.82-6.47,3.27-13.06,3.27-18.11,0-.73-.03-1.44-.1-2.1-.3-2.94-2.3-5.53-5.18-7.83-4.33-3.45-10.71-6.3-16.89-8.56-6.17-2.26-12.12-3.92-15.53-4.93-7.5-2.22-14.88-6.3-23.15-8.97-3.62-1.17-7.42-2.06-11.47-2.41C76.31,.05,75.23,0,74.11,0c-4.82,0-10.39,1.01-15.3,4.78-5.79,4.46-13.96,6.74-21.31,11.33-3.55,2.22-7.59,3.35-11.86,4.66-4.26,1.31-8.75,2.8-13.14,5.8-1.37,.94-2.63,1.85-3.78,2.79-2.88,2.33-5.08,4.74-6.54,7.7C.72,40.01,0,43.51,0,47.98,0,48.54,.01,49.12,.03,49.71c.46,11.93,5.15,24.21,10.97,33.77,5.82,9.54,18.15,33.65,23.6,43.65,2.69,4.93,4.05,9.89,5.58,15.12,1.54,5.23,3.25,10.73,6.69,16.69,1.15,1.99,3.12,3.49,5.62,4.59h0c4.42,1.97,10.52,2.76,17.01,2.76,6.55,0,13.49-.82,19.45-2.12,5.97-1.31,10.93-3.07,13.61-5.08,2.78-2.11,5.73-6.4,8.69-11.75,7.13-12.85,14.28-31.77,17.81-39.77,5.03-11.43,8.66-27.79,11.82-37.29l-.47-.16"/><path class="cls-8" d="M8.77,30.62c-2.52,2.12-4.4,4.28-5.68,6.87-1.38,2.8-2.09,6.12-2.09,10.48,0,.55,.01,1.11,.03,1.69,.45,11.69,5.07,23.85,10.83,33.29,5.86,9.61,18.18,33.71,23.63,43.7,2.76,5.06,4.13,10.1,5.66,15.31,1.53,5.22,3.22,10.62,6.6,16.47,.91,1.59,2.48,2.88,4.55,3.89-7.01-13.09-8.51-26.99-17.86-45.88-6.98-14.12-20.59-38.15-24.37-52.23-1.41-5.23-4.82-21.86-1.3-33.6"/><path class="cls-6" d="M9.05,29.74C2.99,34.64,.15,39.75,.53,49.69c.45,11.81,5.11,24.03,10.9,33.53,5.84,9.57,18.17,33.68,23.62,43.67,5.45,9.99,5.45,19.98,12.26,31.79,1.07,1.87,2.95,3.31,5.39,4.38-.14-.25-.27-.49-.4-.74-2.07-1.01-3.64-2.3-4.55-3.89-3.38-5.85-5.07-11.25-6.6-16.47-1.53-5.22-2.9-10.25-5.66-15.31-5.44-9.98-17.77-34.08-23.63-43.7C6.11,73.52,1.48,61.36,1.03,49.67c-.02-.58-.03-1.14-.03-1.69,0-4.37,.7-7.69,2.09-10.48,1.29-2.59,3.17-4.76,5.68-6.87,.09-.3,.18-.59,.28-.88"/><path class="cls-8" d="M88.74,3.58c1.23,2.52,11.29,9.87,12.23,10.4,6.38,3.67,21.58,6.18,27.94,9.82,6.36,3.63,14.68,5.94,11.5,23.16-4.16,22.56-10.84,42.39-15.9,55.41-2.71,6.96-10.81,25.07-13.51,43.32,6.87-12.71,13.7-30.72,17.13-38.53,4.97-11.28,8.6-27.62,11.79-37.2h0c1.48-4.45,3.66-10.76,5.47-17.19,1.81-6.43,3.23-12.98,3.23-17.84,0-.71-.03-1.38-.09-2-.24-2.52-2.03-4.93-4.81-7.15-2.77-2.22-6.51-4.22-10.5-5.97-7.99-3.5-17.01-5.99-21.57-7.34-7.56-2.25-14.86-6.26-22.92-8.89"/><path class="cls-6" d="M88.64,3.02c-.05,.14,0,.33,.1,.56,8.05,2.63,15.36,6.64,22.92,8.89,4.56,1.35,13.58,3.84,21.57,7.34,3.99,1.75,7.73,3.75,10.5,5.97,2.78,2.22,4.57,4.63,4.81,7.15,.06,.63,.09,1.3,.09,2,0,4.86-1.43,11.41-3.23,17.84-1.81,6.43-3.98,12.74-5.47,17.19h0c-3.19,9.58-6.82,25.91-11.79,37.2-3.43,7.81-10.27,25.81-17.13,38.53-.07,.47-.13,.93-.2,1.4,7.1-12.8,14.26-31.7,17.79-39.73,5-11.35,8.63-27.7,11.81-37.24,3.18-9.54,9.58-27.7,8.63-37.24-1.09-10.93-28.13-18.19-37.24-20.89-7.57-2.25-14.95-6.32-23.16-8.97"/></g></svg>