<?xml version="1.0" encoding="UTF-8"?><svg id="Layer_2" xmlns="http://www.w3.org/2000/svg" viewBox="0 0 142.55 472.58"><defs><style>.cls-1{fill:#b5aa77;}.cls-2{fill:#caccb6;}.cls-3{fill:#afa05f;}.cls-4{fill:#f1f4e5;}.cls-5{fill:#c9bd84;}.cls-6{fill:#b5b7a3;}.cls-7{fill:#9d9055;}.cls-8{fill:#d8dbce;}</style></defs><g id="Layer_3"><path class="cls-5" d="M112.53,187.2c1.21,25.43-7.27,105.97-9.69,125.35-.33,2.62-.53,7.47-.67,13.88-.08,3.22-.13,6.81-.16,10.71-1.19,42.33-2.45,86.48-1.7,129.82-.55,4.86-6.47,6.79-9.8,3.49-.17-.18-.34-.35-.49-.55-17.75-22.47-31.99-56.37-40-82.34-1.36-3.72-2.62-7.46-3.81-11.23-10.67-33.94-14.8-70.18-15.18-105.57-.44-9.97-.88-20.64-1.31-31.43-1.69-43.16-3.18-88.12-3.85-97.08,6.22,4.58,15.49,5.02,21.72,8.31,1.17,.62,2.32,1.05,3.47,1.33,6.46,1.61,13.06-1.33,24.23-1.33,13.17,0,36.37-5.11,40.46-14.65,1.4,12.29-4.43,25.85-3.22,51.28"/><path class="cls-3" d="M112.53,187.2l-.5,.02c.08,1.67,.12,3.58,.12,5.7,0,30.02-7.54,101.48-9.8,119.56-.33,2.67-.53,7.51-.67,13.93-.08,3.22-.13,6.82-.16,10.72h0c-.94,33.51-1.93,68.18-1.93,102.69,0,9.06,.07,18.12,.22,27.14h.5l-.5-.07c-.17,1.47-.86,2.63-1.84,3.44-.97,.81-2.22,1.25-3.48,1.25-1.3,0-2.6-.47-3.64-1.49l-.35,.36,.37-.34c-.17-.18-.33-.35-.46-.51h0c-17.69-22.39-31.92-56.26-39.92-82.19h0v-.02c-1.36-3.71-2.62-7.44-3.81-11.2-10.65-33.87-14.78-70.07-15.15-105.42h0v-.02c-.44-9.96-.88-20.64-1.31-31.42-1.69-43.16-3.18-88.1-3.85-97.09l-.5,.04-.3,.4c3.2,2.35,7.13,3.62,11.02,4.72,3.89,1.1,7.74,2.03,10.77,3.63,1.21,.64,2.4,1.08,3.59,1.37h0c1.44,.36,2.88,.5,4.36,.5,5.39,0,11.29-1.81,20-1.81,6.65,0,15.77-1.28,23.78-3.77,4.01-1.24,7.74-2.79,10.74-4.64,3-1.85,5.3-4.01,6.39-6.54l-.46-.2-.5,.06c.15,1.31,.22,2.64,.22,4,0,9.98-3.6,21.68-3.6,40.27,0,2.22,.05,4.55,.17,6.98l.5-.02,.5-.02c-.12-2.41-.17-4.72-.17-6.93,0-18.46,3.59-30.05,3.6-40.27,0-1.39-.07-2.76-.22-4.11l-.21-1.87-.74,1.73c-.96,2.24-3.09,4.3-6,6.08-8.72,5.38-24.22,8.27-34,8.26-8.84,0-14.84,1.82-20,1.81-1.42,0-2.77-.13-4.12-.47h0c-1.11-.27-2.22-.68-3.35-1.28-3.2-1.69-7.1-2.62-10.96-3.71-3.86-1.09-7.68-2.34-10.7-4.56l-.88-.65,.08,1.09c.67,8.92,2.16,53.91,3.85,97.06,.43,10.79,.87,21.46,1.31,31.43l.5-.02h-.5c.38,35.43,4.51,71.72,15.2,105.72,1.19,3.78,2.45,7.52,3.82,11.25l.47-.17-.48,.15c8.03,26.02,22.27,59.95,40.09,82.51l.39-.31-.4,.3c.18,.24,.37,.43,.53,.6h.01c1.23,1.23,2.8,1.8,4.34,1.8,1.49,0,2.96-.52,4.12-1.48,1.16-.96,1.99-2.37,2.19-4.09v-.07c-.15-9.01-.22-18.06-.22-27.12,0-34.49,.99-69.15,1.93-102.67h0c.04-3.91,.09-7.5,.16-10.71,.14-6.4,.34-11.25,.66-13.83,2.26-18.12,9.81-89.55,9.81-119.69,0-2.13-.04-4.06-.12-5.75l-.5,.02"/><path class="cls-1" d="M26.43,143.25c.7,11.01,2.14,54.36,3.78,96.05,.43,10.79,.87,21.46,1.31,31.42h0v.02c.38,35.35,4.5,71.55,15.15,105.42,1.18,3.76,2.44,7.49,3.8,11.2h0v.02c7.9,25.63,21.9,59,39.3,81.38-6.2-14.33-12.98-33.34-14.19-37.55-4.32-15.05-17.41-35.12-23.87-147.15-3.49-60.49,.07-122.56-.62-131.66-1.25-.29-2.49-.75-3.76-1.42h0c-3.03-1.6-6.88-2.54-10.77-3.63-2.44-.69-4.89-1.44-7.17-2.49l-.04-.02-.04-.02c-1.01-.47-1.98-.99-2.91-1.59"/><path class="cls-7" d="M29.41,144.88c2.28,1.05,4.73,1.8,7.17,2.49,3.89,1.1,7.74,2.03,10.77,3.63h0c-3.76-1.99-8.77-2.95-13.56-4.47-1.49-.48-2.97-1.01-4.37-1.65m-.08-.04l.04,.02-.04-.02m-3.43-1.95c.69,10.3,2.15,54.23,3.8,96.43,.43,10.79,.87,21.46,1.31,31.43,.38,35.39,4.5,71.63,15.18,105.57,1.19,3.77,2.45,7.51,3.81,11.23,8.01,25.98,22.25,59.87,40,82.34,.15,.2,.33,.38,.49,.55-.24-.55-.48-1.1-.73-1.67-17.39-22.38-31.39-55.75-39.29-81.38h0v-.02c-1.36-3.71-2.62-7.44-3.81-11.2-10.65-33.87-14.78-70.07-15.15-105.42h0v-.02c-.44-9.96-.88-20.64-1.31-31.42-1.63-41.69-3.08-85.05-3.78-96.05-.18-.12-.35-.23-.52-.35"/><path class="cls-4" d="M142.05,53.37c-.01,12.28-6.36,34.06-11.35,43.15-5,9.08-10.86,29.86-14.95,39.4-.42,.96-1.02,1.88-1.8,2.75-6.88,7.77-26.82,11.9-38.65,11.9-9.56,0-15.77,2.16-21.42,1.77-2.12-.14-4.16-.64-6.28-1.77-7.72-4.09-20.13-3.78-25.58-12.41-5.45-8.63-11.56-23.79-16.25-38.89-2.3-7.43-9.49-45.43-1.77-60.87,7.72-15.44,22.42-22.75,28.81-26.69C40.22,7.11,54.4-.82,63.18,.69c1.05,.18,2.07,.39,3.09,.64,18.78,4.5,33.23,19.44,41.42,24.18,6.98,4.04,25.12,10.53,31.82,20.31,1.6,2.33,2.55,4.84,2.55,7.54"/><path class="cls-2" d="M142.05,53.37h-.5c0,6.06-1.59,14.55-3.79,22.64-2.2,8.09-5.04,15.79-7.5,20.27-2.53,4.61-5.24,12.08-7.85,19.61-2.6,7.53-5.09,15.1-7.12,19.84h0c-.39,.9-.97,1.78-1.72,2.61h0c-3.3,3.75-9.95,6.73-17.23,8.72-7.28,1.99-15.19,3.02-21.05,3.02-8.84,0-14.83,1.82-20,1.81-.47,0-.93-.01-1.39-.05-2.06-.14-4.03-.62-6.08-1.71-3.96-2.09-9.01-3.03-13.73-4.54-4.72-1.5-9.05-3.54-11.67-7.7-5.41-8.55-11.51-23.7-16.19-38.78-.75-2.43-2.07-8.32-3.18-15.62-1.12-7.3-2.04-16.03-2.04-24.2,0-8.12,.93-15.69,3.43-20.68,7.63-15.27,22.19-22.53,28.63-26.49,3.38-2.09,8.18-4.88,13.2-7.14,5.03-2.26,10.3-3.98,14.56-3.98,.79,0,1.55,.06,2.26,.18,1.04,.17,2.05,.39,3.06,.64h0c9.3,2.23,17.56,7.05,24.51,11.93,6.96,4.87,12.6,9.79,16.77,12.2,3.54,2.05,9.8,4.67,16.03,8.01,6.22,3.33,12.37,7.39,15.63,12.15,1.56,2.27,2.46,4.68,2.46,7.26h1c0-2.82-.99-5.43-2.64-7.83-3.44-5.01-9.71-9.1-15.98-12.47-6.27-3.36-12.56-6.01-16-8-4.02-2.32-9.7-7.25-16.7-12.16-7.01-4.91-15.37-9.8-24.85-12.08h0c-1.03-.25-2.07-.47-3.13-.65-.78-.13-1.59-.2-2.43-.2-4.53,0-9.88,1.78-14.97,4.07-5.09,2.29-9.91,5.09-13.32,7.2-6.36,3.93-21.19,11.29-29,26.9C.91,43.42,0,51.09,0,59.29c0,8.24,.93,17.01,2.06,24.35,1.12,7.34,2.44,13.23,3.22,15.76,4.7,15.13,10.81,30.31,16.3,39.01,2.83,4.47,7.43,6.6,12.21,8.12,4.79,1.52,9.8,2.47,13.56,4.47,2.18,1.16,4.31,1.68,6.48,1.82,.48,.03,.96,.05,1.45,.05,5.4,0,11.3-1.82,20-1.81,5.97,0,13.95-1.04,21.32-3.05,7.37-2.02,14.14-4.99,17.71-9.01h0c.81-.9,1.45-1.87,1.89-2.88h0c2.06-4.81,4.55-12.39,7.15-19.9,2.6-7.51,5.32-14.97,7.78-19.45,2.53-4.61,5.37-12.34,7.59-20.49,2.22-8.15,3.82-16.68,3.83-22.9h-.5"/><path class="cls-8" d="M60.81,1c-4.26,0-9.53,1.72-14.54,3.98-5.03,2.26-9.82,5.05-13.2,7.14-6.44,3.97-21,11.22-28.63,26.49-2.5,4.99-3.43,12.56-3.43,20.68,0,8.17,.93,16.9,2.04,24.2,1.12,7.3,2.43,13.19,3.18,15.62,4.68,15.07,10.79,30.22,16.19,38.78,2.62,4.16,6.95,6.2,11.67,7.7,4.11,1.31,8.48,2.2,12.16,3.79-11.52-6.76-21.64-18.34-28.8-39.08C-.1,59.43,4.74,49.13,7.16,40.66c2.42-8.48,16.96-19.38,39.97-31.49,7.52-3.96,13.5-6.26,18.12-7.56-.71-.16-1.43-.3-2.16-.43-.71-.12-1.47-.18-2.26-.18h-.02"/><path class="cls-6" d="M60.83,.5c-8.79,0-21.24,7-28.03,11.19-6.4,3.95-21.09,11.25-28.81,26.69-7.72,15.44-.53,53.44,1.77,60.87,4.69,15.1,10.8,30.26,16.25,38.89,5.45,8.63,17.58,8.91,25.58,12.41,2.31,1.01,3.47,1.33,3.47,1.33-1.62-.75-3.22-1.59-4.8-2.51-3.68-1.6-8.05-2.48-12.16-3.79-4.72-1.5-9.05-3.54-11.67-7.7-5.41-8.55-11.51-23.7-16.19-38.78-.75-2.43-2.07-8.32-3.18-15.62-1.12-7.3-2.04-16.03-2.04-24.2,0-8.12,.93-15.69,3.43-20.68,7.63-15.27,22.19-22.53,28.63-26.49,3.38-2.09,8.18-4.88,13.2-7.14,5.02-2.26,10.28-3.98,14.54-3.98h.02c.79,0,1.55,.06,2.26,.18,.73,.12,1.45,.26,2.16,.43,.35-.1,.68-.19,1.01-.27-1.02-.25-2.04-.47-3.09-.64-.75-.13-1.53-.19-2.35-.19"/><path class="cls-8" d="M139.44,46.63c-.57,6.81-1.65,15.46-3.59,21.27-3.63,10.9-10.9,32.09-13.93,40.87-1.38,4.02-4.61,16.44-7.69,28.75,.44-.59,.79-1.2,1.06-1.82h0c2.03-4.73,4.52-12.31,7.12-19.83,2.61-7.53,5.32-15,7.85-19.61,2.46-4.48,5.3-12.18,7.5-20.27,2.21-8.09,3.79-16.58,3.79-22.64,0-2.38-.77-4.62-2.11-6.74"/><path class="cls-6" d="M139.5,45.83c-.02,.27-.04,.53-.07,.81,1.35,2.12,2.11,4.35,2.11,6.74,0,6.06-1.59,14.55-3.79,22.64-2.2,8.09-5.04,15.79-7.5,20.27-2.53,4.61-5.24,12.08-7.85,19.61-2.6,7.53-5.09,15.1-7.12,19.84h0c-.27,.62-.62,1.23-1.06,1.82-.09,.38-.19,.76-.28,1.13,.78-.87,1.39-1.79,1.8-2.75,4.09-9.54,9.95-30.32,14.95-39.4,5-9.08,11.34-30.87,11.35-43.15,0-2.7-.95-5.21-2.55-7.54"/></g></svg>