<?xml version="1.0" encoding="UTF-8"?><svg id="Layer_2" xmlns="http://www.w3.org/2000/svg" viewBox="0 0 251.7 488.42"><defs><style>.cls-1{fill:#b5aa77;}.cls-2{fill:#caccb6;}.cls-3{fill:#afa05f;}.cls-4{fill:#f1f4e5;}.cls-5{fill:#c9bd84;}.cls-6{fill:#b5b7a3;}.cls-7{fill:#9d9055;}.cls-8{fill:#d8dbce;}</style></defs><g id="Layer_3"><path class="cls-5" d="M208.96,360.61c-2.19,10.68-3.94,18.78-4.7,22.17-2.96,13.31-18.49,53.25-29.59,76.18-11.1,22.93-22.19,28.85-28.49,28.85-2.31,0-3.87-1.99-4.87-5.25-1.76-5.67-1.86-15.22-1.4-25.07,.74-15.53,3.7-66.57,5.92-97.63,2.22-31.07-6.66-62.13-8.14-72.49-1.48-10.35-9.62-44.38-19.97-43.64-10.35,.74-14.79,44.38-17.75,53.99-.8,2.62-2.16,8.06-3.74,14.89v.02c-1.3,5.59-2.76,12.11-4.19,18.75-.03,.15-.08,.31-.11,.46-3.24,14.88-6.38,30.23-7.49,36.89-2.22,13.31-15.53,57.69-17.75,67.31-2.22,9.62-17.01,28.11-24.41,27.37-7.4-.74-8.88-34.39-9.62-48.45-.74-14.05-8.06-263.05-8.06-263.05,4.82,3.13,11.16,5.55,18.14,7.47,19.34,5.33,43.72,6.84,55.01,8.91,16.64,3.05,37.15,5.07,46.6,4.48,9.97-.62,38.28-5.04,52.7-5.59,5.95-.23,10.92-.12,14.92-.26,2.74-.09,5.04-.32,6.86-.83,.09,.37,.17,.74,.23,1.09,4.44,24.78,5.18,57.32,5.92,86.91,.55,22.05-9.57,75.3-16.01,106.52"/><path class="cls-3" d="M208.96,360.61l-.6-.12c-2.19,10.67-3.94,18.78-4.7,22.16-1.46,6.58-6.08,19.9-11.71,34.4-5.63,14.5-12.29,30.21-17.82,41.65-5.52,11.41-11.03,18.56-15.9,22.83-4.87,4.28-9.09,5.67-12.05,5.67-.97,0-1.74-.39-2.47-1.2-.72-.8-1.33-2.04-1.82-3.63-1.17-3.78-1.61-9.48-1.61-15.85,0-2.9,.09-5.94,.23-9.02,.74-15.52,3.7-66.56,5.92-97.62,.25-3.44,.36-6.87,.36-10.28,0-13.76-1.8-27.06-3.76-38.06-1.96-11-4.09-19.73-4.74-24.28-.74-5.18-3.1-16.1-6.57-25.79-1.74-4.84-3.75-9.37-6-12.74-1.13-1.68-2.31-3.07-3.58-4.07-1.27-.99-2.64-1.59-4.09-1.59-.12,0-.25,0-.38,.01-1.51,.11-2.85,1-4.03,2.34-2.06,2.37-3.76,6.26-5.27,10.92-2.25,6.99-4.01,15.71-5.46,23.49-1.44,7.76-2.58,14.6-3.53,17.67-.81,2.66-2.17,8.09-3.76,14.93l-.02,.07v.09h.61l-.6-.14c-1.3,5.6-2.76,12.12-4.19,18.76h0c-.02,.13-.07,.28-.11,.47l.6,.12-.6-.13c-3.24,14.89-6.38,30.24-7.49,36.92-1.1,6.59-4.98,21.03-8.86,34.98-3.88,13.96-7.76,27.44-8.88,32.29-1.03,4.53-5.11,11.37-9.85,16.97-2.37,2.81-4.9,5.32-7.28,7.11-2.37,1.8-4.61,2.84-6.25,2.83-.13,0-.26,0-.38-.02-.68-.07-1.37-.53-2.07-1.47-1.22-1.64-2.28-4.64-3.13-8.35-2.57-11.17-3.38-28.82-3.86-38.04-.37-7-2.38-72.78-4.31-136.78-.96-32-1.9-63.57-2.6-87.13-.35-11.78-.64-21.56-.84-28.4-.1-3.42-.18-6.1-.23-7.93-.05-1.83-.08-2.8-.08-2.8l-.61,.02-.33,.51c4.91,3.18,11.29,5.61,18.31,7.55,9.72,2.68,20.67,4.39,30.6,5.7,9.93,1.3,18.86,2.2,24.46,3.22,14.74,2.7,32.47,4.59,42.98,4.59,1.39,0,2.65-.03,3.77-.1,5.03-.31,14.59-1.57,24.72-2.82,10.12-1.25,20.8-2.5,27.97-2.77,5.93-.23,10.89-.12,14.91-.26,2.77-.09,5.1-.32,7-.85l-.16-.59-.59,.15c.09,.35,.16,.71,.22,1.05,4.43,24.7,5.17,57.23,5.91,86.82,.01,.58,.02,1.18,.02,1.8,0,11.44-2.43,30.01-5.66,49.5-3.22,19.49-7.23,39.9-10.36,55.09l.6,.12,.6,.12c3.14-15.2,7.15-35.63,10.37-55.14,3.23-19.52,5.67-38.1,5.67-49.7,0-.63,0-1.24-.02-1.83-.74-29.59-1.48-62.15-5.93-87-.06-.36-.14-.75-.24-1.13l-.15-.61-.6,.17c-1.74,.49-3.99,.72-6.71,.81-3.96,.14-8.95,.03-14.92,.26-7.25,.28-17.94,1.53-28.07,2.78-10.13,1.25-19.7,2.51-24.64,2.82-1.08,.07-2.32,.1-3.69,.1-10.38,0-28.09-1.89-42.76-4.57-5.69-1.04-14.6-1.93-24.52-3.23-9.91-1.3-20.82-3.01-30.44-5.66-6.95-1.92-13.23-4.32-17.97-7.4l-.98-.63,.03,1.16s7.32,248.98,8.06,263.06c.37,7.03,.92,18.96,2.32,29.26,.7,5.15,1.6,9.89,2.81,13.44,.61,1.77,1.29,3.25,2.1,4.35,.8,1.09,1.77,1.84,2.94,1.96,.17,.02,.33,.02,.5,.02,2.13-.01,4.5-1.21,6.98-3.08,3.72-2.81,7.67-7.18,10.93-11.76,3.25-4.58,5.8-9.35,6.65-13.02,1.1-4.77,4.99-18.28,8.87-32.24,3.89-13.97,7.77-28.38,8.89-35.1,1.11-6.63,4.25-21.98,7.48-36.86h0c.02-.13,.07-.28,.11-.47l-.6-.12,.6,.13c1.43-6.64,2.9-13.15,4.19-18.74l.02-.07v-.09h-.61l.59,.14c1.59-6.82,2.94-12.26,3.73-14.85,.76-2.48,1.59-7,2.58-12.46,1.49-8.18,3.34-18.43,5.78-26.67,1.22-4.12,2.59-7.73,4.1-10.3,.75-1.29,1.54-2.31,2.34-3.01,.8-.7,1.59-1.07,2.4-1.13h.29c1.1-.01,2.21,.44,3.34,1.32,1.97,1.53,3.91,4.36,5.67,7.88,5.3,10.57,9.08,27.27,10.02,33.92,.67,4.67,2.79,13.35,4.74,24.32,1.95,10.96,3.74,24.19,3.74,37.85,0,3.38-.11,6.79-.35,10.19-2.22,31.07-5.18,82.1-5.92,97.65-.14,3.09-.23,6.15-.23,9.07,0,6.43,.42,12.19,1.66,16.21,.52,1.68,1.18,3.07,2.07,4.08,.88,1.01,2.05,1.61,3.38,1.61,3.34,0,7.82-1.56,12.85-5.98,5.03-4.42,10.62-11.7,16.19-23.21,5.56-11.49,12.22-27.21,17.86-41.74,5.65-14.53,10.27-27.84,11.77-34.57,.76-3.39,2.51-11.5,4.7-22.18l-.6-.12"/><path class="cls-1" d="M25.25,153.03c.01,.43,.03,.99,.05,1.66,.05,1.83,.13,4.51,.23,7.93,.2,6.84,.49,16.62,.84,28.4,.7,23.56,1.64,55.13,2.6,87.13,1.92,64,3.94,129.78,4.31,136.78,.48,9.22,1.29,26.88,3.86,38.04,.85,3.72,1.91,6.71,3.13,8.35,.7,.95,1.39,1.41,2.07,1.47,.12,.01,.25,.02,.38,.02h.03c1.64,0,3.86-1.04,6.22-2.83,2.38-1.79,4.91-4.3,7.28-7.11,4.74-5.61,8.81-12.44,9.85-16.97,1.12-4.85,5-18.33,8.88-32.29,3.88-13.95,7.76-28.39,8.86-34.98,.62-3.71,1.86-10.07,3.39-17.55-9.82,38.78-28.19,102.75-41.9,102.75-.21,0-.42-.02-.63-.05-9.41-1.38-4.08-31.09-6.12-85.8-2.05-55.01-.28-80.99,3.42-174.18,.57-14.58-.24-24.78,.67-33.81l-.1-.03h0c-1.75-.48-3.47-.99-5.13-1.55h-.01c-.27-.09-.54-.19-.81-.28-.51-.17-1.01-.35-1.52-.53h-.01c-.64-.25-1.29-.48-1.92-.73h-.02c-.1-.06-.24-.1-.41-.18h0c-.62-.24-1.22-.5-1.8-.75-1.42-.62-2.78-1.28-4.06-1.98-.16-.09-.32-.17-.47-.26-.4-.22-.78-.45-1.16-.68"/><path class="cls-7" d="M36.63,158.14c.27,.09,.54,.18,.81,.27-.27-.09-.54-.18-.81-.27m-9.74-4.17c1.28,.7,2.64,1.36,4.06,1.98l-.04-.02c-.56-.25-1.1-.5-1.63-.75h0c-.35-.17-.71-.34-1.06-.53-.34-.17-.68-.34-1.03-.53h0c-.1-.05-.2-.1-.29-.15m-2.26-1.33c.44,14.83,7.32,248.7,8.04,262.31,.74,14.05,2.22,47.71,9.62,48.45,.14,.01,.29,.02,.44,.02,7.53,0,21.79-17.96,23.97-27.39,2.22-9.62,15.53-53.99,17.75-67.31,1.11-6.66,4.25-22,7.49-36.89-1.17,4.99-2.77,11.63-4.7,19.24-1.54,7.48-2.78,13.84-3.39,17.55-1.1,6.59-4.98,21.03-8.86,34.98-3.88,13.96-7.76,27.44-8.88,32.29-1.03,4.53-5.11,11.37-9.85,16.97-2.37,2.81-4.9,5.32-7.28,7.11-2.36,1.79-4.58,2.83-6.22,2.83h-.03c-.13,0-.26,0-.38-.02-.68-.07-1.37-.53-2.07-1.47-1.22-1.64-2.28-4.64-3.13-8.35-2.57-11.17-3.38-28.82-3.86-38.04-.37-7-2.38-72.78-4.31-136.78-.96-32-1.9-63.57-2.6-87.13-.35-11.78-.64-21.56-.84-28.4-.1-3.42-.18-6.1-.23-7.93-.02-.67-.04-1.22-.05-1.66,.38,.23,.77,.46,1.16,.68-.08-.04-.15-.09-.23-.13-.32-.18-.65-.37-.97-.58-.19-.11-.38-.23-.58-.35"/><path class="cls-1" d="M118.3,234.07c-6.75,0-9.68,7.82-11.67,11.14-1.55,2.58-7.44,45.3-9.6,61.39,.98-4.05,1.8-7.22,2.36-9.06,.95-3.07,2.09-9.91,3.53-17.67,1.45-7.77,3.21-16.5,5.46-23.49,1.51-4.66,3.21-8.55,5.27-10.92,1.18-1.35,2.51-2.24,4.03-2.34,.13,0,.25-.01,.38-.01,1.45,0,2.82,.6,4.09,1.59,1.27,.99,2.46,2.38,3.58,4.07,2.25,3.36,4.26,7.89,6,12.74,3.47,9.69,5.83,20.61,6.57,25.79,.65,4.55,2.77,13.28,4.74,24.28,1.96,11,3.76,24.3,3.76,38.06,0,3.41-.11,6.84-.36,10.28-2.22,31.06-5.18,82.09-5.92,97.62-.14,3.07-.23,6.12-.23,9.02,0,5.54,.33,10.58,1.19,14.28,3.15-33.67,7.91-88.49,10.27-134.27,3.7-71.74-25.15-111.69-32.54-112.42-.31-.03-.61-.05-.91-.05"/><path class="cls-7" d="M118.06,243.11c-.12,0-.25,0-.38,.01-1.51,.11-2.85,1-4.03,2.34-2.06,2.37-3.76,6.26-5.27,10.92-2.25,6.99-4.01,15.71-5.46,23.49-1.44,7.76-2.58,14.6-3.53,17.67-.56,1.84-1.38,5.01-2.36,9.06-.46,3.42-.75,5.63-.8,6.01,1.59-6.83,2.94-12.27,3.74-14.89,2.96-9.62,7.4-53.25,17.75-53.99,.11,0,.22-.01,.33-.01,10.2,0,18.17,33.41,19.64,43.65,1.48,10.35,10.35,41.42,8.14,72.49-2.22,31.06-5.18,82.1-5.92,97.63-.46,9.85-.35,19.4,1.4,25.07,.05-.57,.11-1.16,.16-1.74-.86-3.7-1.19-8.74-1.19-14.28,0-2.9,.09-5.94,.23-9.02,.74-15.52,3.7-66.56,5.92-97.62,.25-3.44,.36-6.87,.36-10.28,0-13.76-1.8-27.06-3.76-38.06-1.96-11-4.09-19.73-4.74-24.28-.74-5.18-3.1-16.1-6.57-25.79-1.74-4.84-3.75-9.37-6-12.74-1.13-1.68-2.31-3.07-3.58-4.07-1.27-.99-2.64-1.59-4.09-1.59"/><path class="cls-1" d="M218.37,166.83c-.09,.02-.18,.04-.27,.06-.47,.1-.96,.19-1.48,.27-.05,0-.1,.02-.15,.02h0c-.14,.02-.27,.04-.38,.05-.06,0-.12,.01-.17,.02h-.05c-.14,.03-.29,.04-.42,.05-.39,.04-.79,.08-1.2,.11h-.09c-.16,.02-.33,.03-.5,.04-.51,.03-1.03,.06-1.57,.07,4.29,22.72,7.86,53.91,4.01,85.08-3.04,24.62-4.82,64.72-6.91,103.89,2.99-14.67,6.6-33.27,9.54-51.1,3.22-19.48,5.66-38.06,5.66-49.5,0-.62,0-1.22-.02-1.8-.74-29.58-1.48-62.11-5.91-86.82-.03-.15-.05-.3-.09-.45"/><path class="cls-7" d="M213.65,167.45c-.51,.03-1.03,.05-1.57,.07h0c.54-.02,1.06-.04,1.57-.07m1.78-.14c-.1,0-.2,.01-.3,.02h0c-.29,.03-.59,.06-.9,.08,.41-.03,.81-.07,1.2-.11m.65-.07c-.06,0-.12,.01-.17,.02,.06,0,.12-.01,.17-.02m2.02-.34c-.07,.01-.13,.03-.2,.04-.29,.06-.58,.11-.86,.16-.13,.02-.27,.05-.41,.07,.52-.08,1.01-.16,1.48-.27m.86-.22c-.08,.02-.16,.04-.24,.06-.12,.04-.23,.07-.35,.1,.03,.15,.06,.3,.09,.45,4.43,24.7,5.17,57.23,5.91,86.82,.01,.58,.02,1.18,.02,1.8,0,11.44-2.43,30.01-5.66,49.5-2.95,17.83-6.55,36.43-9.54,51.1-.07,1.37-.15,2.75-.22,4.12,6.44-31.22,16.57-84.47,16.01-106.52-.74-29.58-1.48-62.13-5.92-86.91-.03-.17-.06-.33-.1-.5"/><path class="cls-4" d="M242.35,114.29c-5.76,13.48-13.74,39.76-19.23,48.82-.83,1.37-2.11,2.25-3.82,2.82-.23,.08-.48,.15-.74,.22-.25,.08-.51,.14-.79,.19-.28,.06-.55,.11-.85,.15-.17,.03-.35,.06-.56,.09-.18,.03-.4,.04-.6,.08-.22,.03-.45,.05-.68,.06-.32,.03-.65,.06-.99,.09-.68,.05-1.39,.08-2.14,.11-3.99,.14-8.97,.03-14.92,.26-14.42,.56-42.73,4.98-52.7,5.59-9.45,.59-29.96-1.43-46.6-4.48-2.88-.52-6.64-1.02-10.92-1.54-3.07-.39-6.4-.77-9.89-1.22-.72-.09-1.46-.19-2.2-.28-1.43-.18-2.9-.39-4.38-.59-.28-.03-.55-.08-.85-.12-2.53-.34-5.12-.72-7.7-1.16-1.29-.2-2.59-.43-3.9-.66-1.3-.23-2.59-.46-3.87-.72-1.29-.25-2.57-.51-3.84-.79l-.15-.03c-1.22-.28-2.44-.55-3.62-.85-1.25-.31-2.48-.62-3.68-.96-1.74-.48-3.45-.99-5.1-1.54-.79-.26-1.56-.52-2.33-.8-.65-.25-1.3-.48-1.91-.72-.14-.06-.28-.11-.42-.17-.63-.25-1.25-.51-1.83-.77-.55-.25-1.09-.49-1.62-.74-.35-.17-.71-.34-1.05-.52-.34-.17-.68-.34-1.02-.52-.34-.17-.66-.35-.99-.54-.32-.19-.65-.37-.96-.57-.31-.18-.62-.37-.92-.57-1.71-1.11-3.22-2.3-4.51-3.59-8.32-8.32-16.09-38.65-17.2-55.84C1.85,76.31-.99,49.14,1.8,35.89c.19-.85,.39-1.65,.62-2.37,4.47-14.22,23.33-12.88,29.88-21.34C37.21,5.83,49.28,2.35,61.27,1.16c1.63-.15,3.25-.28,4.85-.34,2.67-.14,5.3-.15,7.78-.06,5.42,.2,10.05,.62,14.02,1.25,7.01,1.12,12.04,2.93,15.93,5.41,6.1,3.88,15.53,9.43,27.74,8.88,3.51-.15,6.73-.52,9.69-1.02,8.69-1.48,15.01-4.13,19.15-6.19,5.55-2.77,7.21-6.66,19.42-8.32,6.44-.88,15.42,2.25,24.08,6.61,4.62,2.31,9.15,4.99,13.16,7.61,1.73,1.12,3.36,2.25,4.85,3.31,3.5,2.5,6.27,4.76,7.83,6.32,6.66,6.66,19.97,19.42,21.08,39.38,1.11,19.97-1.86,34.76-8.51,50.29"/><path class="cls-2" d="M242.35,114.29l-.56-.24c-2.9,6.78-6.33,16.72-9.73,26.1-3.39,9.37-6.77,18.21-9.46,22.64-.75,1.23-1.87,2.01-3.49,2.56-.22,.07-.45,.14-.69,.2h-.04c-.22,.08-.45,.13-.7,.18h-.03c-.26,.06-.52,.11-.81,.15h-.01c-.16,.03-.34,.06-.54,.09h0c-.14,.03-.36,.04-.59,.08l.09,.6-.09-.6c-.18,.03-.4,.04-.63,.06h-.02c-.32,.03-.65,.06-.98,.09l.05,.61-.04-.61c-.67,.05-1.37,.08-2.13,.11h0c-3.96,.14-8.95,.03-14.92,.26-7.25,.28-17.94,1.53-28.07,2.78-10.13,1.25-19.7,2.51-24.64,2.82-1.08,.07-2.32,.1-3.69,.1-10.38,0-28.09-1.89-42.76-4.57-2.91-.53-6.67-1.02-10.96-1.55-3.07-.39-6.4-.77-9.89-1.22-.73-.09-1.47-.19-2.21-.28h0c-1.43-.18-2.89-.38-4.37-.58h-.01c-.25-.03-.52-.08-.82-.12h-.01c-2.52-.34-5.1-.72-7.69-1.15h0c-1.29-.2-2.58-.43-3.89-.66-1.29-.23-2.58-.46-3.85-.72h0c-1.29-.25-2.56-.51-3.82-.78h0l-.16-.03-.12,.6,.14-.6c-1.22-.28-2.43-.55-3.61-.84-1.25-.31-2.47-.62-3.66-.95h0c-1.73-.48-3.43-.98-5.07-1.53-.79-.26-1.55-.52-2.31-.8l-.21,.58,.22-.57c-.66-.25-1.3-.48-1.9-.72l-.23,.57,.25-.56c-.18-.08-.32-.12-.42-.17h-.03c-.62-.25-1.23-.51-1.81-.77-.55-.25-1.09-.49-1.61-.73h0c-.35-.17-.7-.33-1.02-.51h-.02c-.34-.18-.67-.35-1-.52h-.02c-.32-.17-.63-.35-.96-.53-.32-.18-.64-.36-.93-.55h-.02c-.31-.2-.61-.38-.91-.57-1.68-1.09-3.16-2.25-4.42-3.51-1.99-1.98-4.02-5.39-5.92-9.64-5.71-12.74-10.28-33.01-11.1-45.81-.72-11.13-2.29-27.45-2.29-40.82,0-6.07,.32-11.53,1.18-15.59h0c.18-.83,.38-1.62,.6-2.31h0c1.08-3.44,3.01-5.9,5.43-7.85,3.63-2.92,8.41-4.63,12.93-6.38,4.52-1.76,8.81-3.57,11.42-6.91,2.34-3.03,6.48-5.46,11.55-7.24,5.07-1.79,11.04-2.95,16.99-3.54,1.62-.15,3.23-.28,4.82-.34h0c1.55-.08,3.08-.12,4.58-.12,1.07,0,2.12,.02,3.15,.06,5.4,.2,10,.61,13.95,1.24,6.96,1.12,11.89,2.9,15.7,5.32,5.83,3.71,14.79,9.01,26.37,9.01,.57,0,1.14-.01,1.72-.04,3.54-.16,6.78-.53,9.76-1.03,8.76-1.49,15.14-4.17,19.33-6.25,2.86-1.43,4.68-3.11,7.25-4.59,2.57-1.49,5.93-2.84,11.98-3.67,.7-.1,1.45-.14,2.22-.14,6,0,13.88,2.85,21.51,6.69,4.6,2.3,9.11,4.97,13.1,7.58,1.72,1.12,3.34,2.24,4.83,3.3,3.48,2.48,6.24,4.74,7.75,6.25,6.67,6.66,19.81,19.29,20.9,38.99,.15,2.72,.23,5.35,.23,7.89,0,16.04-2.98,28.78-8.68,42.13l.56,.24,.56,.24c5.76-13.47,8.78-26.43,8.78-42.61,0-2.57-.08-5.21-.23-7.96-1.13-20.24-14.61-33.13-21.26-39.78-1.6-1.6-4.39-3.87-7.9-6.38-1.5-1.07-3.14-2.2-4.88-3.33-4.02-2.63-8.57-5.32-13.22-7.65C196.5,2.94,188.53,0,182.16,0c-.82,0-1.62,.05-2.38,.15-6.16,.84-9.73,2.26-12.43,3.82-2.7,1.57-4.49,3.22-7.18,4.56-4.11,2.05-10.36,4.67-18.98,6.14-2.93,.49-6.13,.86-9.62,1.01-.56,.02-1.12,.04-1.67,.04-11.19,0-19.91-5.13-25.71-8.82-3.99-2.54-9.1-4.36-16.16-5.5-4.01-.64-8.65-1.05-14.1-1.26-1.04-.04-2.11-.06-3.19-.06-1.52,0-3.08,.04-4.64,.12l.03,.61-.02-.61c-1.62,.06-3.25,.19-4.89,.34-6.04,.6-12.09,1.77-17.28,3.6-5.19,1.84-9.53,4.33-12.11,7.65-1.54,1.99-3.86,3.46-6.58,4.72-4.08,1.9-9.02,3.35-13.41,5.68-4.39,2.32-8.26,5.6-9.99,11.13h0c-.24,.75-.44,1.57-.63,2.43h0c-.89,4.22-1.21,9.74-1.21,15.85,0,13.46,1.57,29.8,2.29,40.9,.56,8.66,2.79,20.57,5.92,31.38,1.57,5.41,3.36,10.54,5.29,14.85,1.94,4.32,3.99,7.82,6.17,10,1.33,1.33,2.88,2.54,4.61,3.67,.32,.21,.63,.4,.94,.58l.31-.52-.33,.51c.33,.21,.66,.4,.99,.59,.32,.19,.66,.38,1.02,.56l.27-.55-.29,.54c.35,.19,.7,.36,1.04,.53l.27-.55-.29,.54c.36,.2,.72,.37,1.08,.54h0c.53,.25,1.07,.5,1.63,.75,.59,.27,1.22,.53,1.86,.78l.22-.57-.25,.56c.18,.08,.31,.12,.41,.17h.02c.63,.26,1.28,.49,1.92,.74h.01c.78,.28,1.55,.55,2.34,.81,1.66,.56,3.38,1.07,5.13,1.55h0c1.21,.34,2.45,.65,3.7,.96,1.19,.29,2.41,.57,3.63,.85l.17,.03,.12-.6-.13,.6c1.27,.28,2.55,.54,3.85,.79l.12-.6-.12,.6c1.29,.27,2.59,.5,3.88,.73,1.31,.23,2.61,.46,3.91,.66l.09-.6-.1,.6c2.59,.43,5.19,.82,7.72,1.16l.08-.6-.1,.6c.29,.05,.58,.1,.88,.13l.07-.61-.08,.61c1.48,.2,2.94,.4,4.38,.59h0c.74,.09,1.48,.19,2.2,.28,3.5,.45,6.83,.83,9.89,1.22,4.28,.52,8.03,1.02,10.89,1.54,14.74,2.7,32.47,4.59,42.98,4.59,1.39,0,2.65-.03,3.77-.1,5.03-.31,14.59-1.57,24.72-2.82,10.12-1.25,20.8-2.5,27.97-2.77,5.93-.23,10.89-.12,14.91-.26h0c.76-.03,1.47-.06,2.16-.11h.01c.34-.03,.67-.06,.99-.09l-.06-.61,.04,.61c.23-.02,.48-.03,.72-.07h0c.17-.03,.38-.04,.61-.08l-.1-.6,.09,.6c.21-.03,.4-.06,.57-.1l-.11-.6,.1,.6c.29-.05,.58-.09,.88-.16l-.13-.6,.1,.6c.3-.05,.59-.12,.87-.2l-.18-.58,.14,.59c.29-.07,.55-.15,.79-.23,1.8-.59,3.23-1.56,4.15-3.08,2.8-4.63,6.15-13.46,9.56-22.86,3.4-9.39,6.84-19.33,9.71-26.04l-.56-.24"/><path class="cls-8" d="M223.3,20.03c11.56,14.88,23.76,30.37,22.29,43.32-2.77,24.41-14.59,73.7-20.6,84.5-.93,1.68-4.29,12.56-12.11,18.41,.41-.02,.8-.04,1.18-.07h0c.28-.02,.56-.05,.83-.08,2.11-.55,4.79-1.27,6.52-1.98,.47-.38,.86-.82,1.18-1.35,2.69-4.43,6.06-13.27,9.46-22.64,3.4-9.38,6.84-19.32,9.73-26.1l.56,.24h0l-.56-.24c5.71-13.35,8.68-26.1,8.68-42.13,0-2.54-.08-5.17-.23-7.89-1.09-19.7-14.24-32.33-20.9-38.99-1.26-1.26-3.37-3.03-6.05-5.01"/><path class="cls-6" d="M214.9,166.12c-.27,.03-.55,.05-.83,.08h0c-.38,.03-.77,.05-1.18,.07-.3,.22-.61,.44-.92,.65,.5-.17,1.61-.45,2.93-.79m26.89-52.07c-2.9,6.78-6.33,16.72-9.73,26.1-3.39,9.37-6.77,18.21-9.46,22.64-.32,.52-.71,.97-1.18,1.35,.87-.36,1.5-.71,1.7-1.03,5.49-9.06,13.47-35.33,19.23-48.82l-.56-.24m-19.84-95.76c.45,.58,.9,1.16,1.35,1.74,2.67,1.99,4.79,3.76,6.05,5.01,6.67,6.66,19.81,19.29,20.9,38.99,.15,2.72,.23,5.35,.23,7.89,0,16.04-2.98,28.78-8.68,42.13l.56,.24h0c6.64-15.53,9.62-30.32,8.51-50.29-1.11-19.97-14.42-32.73-21.08-39.38-1.56-1.56-4.33-3.82-7.83-6.32"/><path class="cls-8" d="M60,1.91c-5.51,.62-10.97,1.74-15.66,3.4-5.07,1.79-9.22,4.22-11.55,7.24-2.61,3.35-6.9,5.15-11.42,6.91-4.52,1.76-9.3,3.46-12.93,6.38-2.42,1.95-4.35,4.42-5.43,7.85h0c-.22,.7-.42,1.48-.6,2.32h0c-.86,4.06-1.18,9.52-1.18,15.59,0,13.38,1.56,29.69,2.29,40.82,.82,12.8,5.4,33.07,11.1,45.81,1.9,4.24,3.93,7.65,5.92,9.64,1.26,1.26,2.73,2.42,4.42,3.51,.29,.19,.6,.37,.91,.56h.02c.29,.2,.6,.38,.93,.56,.32,.19,.64,.36,.96,.52h.02c.33,.19,.66,.36,1,.52h.02c.32,.18,.66,.35,1.02,.52h0c.52,.24,1.05,.49,1.61,.73,.5,.23,1.03,.45,1.56,.66-2.11-4.07-4.91-9.95-8.36-18.26-8.8-21.08-13.02-45.86-16.72-69.16-3.7-23.3,2.96-34.02,10.35-38.83,7.4-4.81,16.27-8.14,24.41-15.53,3.8-3.45,10.88-7.97,17.34-11.79"/><path class="cls-6" d="M61.27,1.16c-11.99,1.19-24.05,4.67-28.97,11.02-6.55,8.46-25.41,7.12-29.88,21.34-3.77,12.08-.63,41.76,.48,58.96,1.11,17.2,8.88,47.52,17.2,55.84,2.77,2.77,6.58,5.1,11.06,7.06,.72,.32,1.48,.63,2.25,.94-.14-.27-.29-.55-.44-.83-.54-.21-1.06-.44-1.56-.66-.55-.25-1.09-.49-1.61-.73h0c-.35-.17-.7-.33-1.02-.51h-.02c-.34-.18-.67-.35-1-.52h-.02c-.32-.17-.63-.35-.96-.53-.32-.18-.64-.36-.93-.55h-.02c-.31-.2-.61-.38-.91-.57-1.68-1.09-3.16-2.25-4.42-3.51-1.99-1.98-4.02-5.39-5.92-9.64-5.71-12.74-10.28-33.01-11.1-45.81-.72-11.13-2.29-27.45-2.29-40.82,0-6.07,.32-11.53,1.18-15.59h0c.18-.83,.38-1.62,.6-2.31h0c1.08-3.44,3.01-5.9,5.43-7.85,3.63-2.92,8.41-4.63,12.93-6.38,4.52-1.76,8.81-3.57,11.42-6.91,2.34-3.03,6.48-5.46,11.55-7.24,4.69-1.66,10.15-2.78,15.66-3.4,.43-.25,.85-.5,1.27-.75"/><path class="cls-2" d="M1.33,36.27c1.88,2.35,4.16,4.82,6.84,6.98h0c1.77,1.46,3.72,2.76,5.83,3.82,3.14,1.58,5.31,2.74,6.92,3.55,1.61,.8,2.65,1.27,3.62,1.39l.07-.61-.08,.61c.16,.02,.32,.03,.47,.03,.72,0,1.36-.25,2-.64,.65-.39,1.35-.93,2.32-1.61,2.42-1.71,6.02-4.97,10.12-8.83,4.1-3.85,8.67-8.29,12.97-12.31,2.57-2.41,5.16-6.77,7.62-11.82,2.46-5.04,4.77-10.76,6.66-15.81,.12-.32-.04-.67-.36-.79-.32-.12-.67,.04-.79,.36-1.88,5.03-4.18,10.71-6.61,15.7-2.43,4.99-5.01,9.28-7.36,11.46-4.31,4.03-8.88,8.47-12.97,12.31-4.08,3.84-7.69,7.1-9.99,8.72-.98,.69-1.69,1.23-2.24,1.56-.56,.34-.94,.46-1.38,.47l-.31-.02h0c-.66-.08-1.64-.48-3.22-1.27-1.58-.79-3.76-1.97-6.92-3.55-2.02-1.01-3.89-2.26-5.6-3.67h0c-2.59-2.09-4.81-4.5-6.66-6.8-.21-.26-.6-.31-.86-.09-.26,.21-.31,.6-.09,.86h0Z"/><path class="cls-2" d="M42.58,139.22s-.13-.35-.38-1.03c-1.75-4.74-9.08-25.41-14.29-51.57-2.4-12.06-2.86-22.65-2.86-28.98,0-1.96,.04-3.51,.09-4.57,.02-.53,.04-.94,.06-1.21s.03-.41,.03-.41c.03-.34-.23-.63-.56-.66-.34-.03-.63,.23-.66,.56,0,.01-.18,2.33-.18,6.28,0,6.38,.46,17.05,2.88,29.22,5.97,30.01,14.72,52.78,14.73,52.8,.12,.31,.47,.47,.79,.35,.31-.12,.47-.47,.35-.79h0Z"/><path class="cls-8" d="M182.18,1.22h-.02c-.77,0-1.51,.05-2.22,.14-6.05,.83-9.41,2.18-11.98,3.67-2.57,1.48-4.39,3.16-7.25,4.59-4.18,2.08-10.56,4.76-19.33,6.25-2.98,.5-6.23,.87-9.76,1.03-.58,.03-1.16,.04-1.72,.04-11.58,0-20.53-5.3-26.37-9.01-3.74-2.38-8.56-4.14-15.3-5.26,3.39,6.19,25.17,18.05,42.81,18.05,4.91,0,9.92-.95,14.87-2.39,4.93,3.48,10.48,8.11,13.42,12.93,6.1,9.98,4.44,56.03,5.55,77.66,1.11,21.63,3.88,30.51,3.88,30.51,0,0,3.33-46.84,10.54-75.84,7.21-29,10.54-37.6,14.98-47.17,1-2.16,3.42-4.53,6.6-6.89,4.54,1.57,9.35,3.34,14.12,4.81-3.53-2.24-7.4-4.47-11.33-6.44-7.62-3.84-15.49-6.69-21.49-6.69"/><path class="cls-6" d="M182.16,.61c-.8,0-1.57,.05-2.3,.15-12.2,1.66-13.87,5.55-19.42,8.32-4.14,2.07-10.46,4.72-19.15,6.19-2.96,.49-6.18,.86-9.69,1.02-.57,.03-1.14,.04-1.7,.04-11.38,0-20.22-5.21-26.04-8.91-3.9-2.48-8.92-4.28-15.93-5.41,.07,.21,.18,.44,.3,.67,6.75,1.12,11.57,2.88,15.3,5.26,5.83,3.71,14.79,9.01,26.37,9.01,.57,0,1.14-.01,1.72-.04,3.54-.16,6.78-.53,9.76-1.03,8.76-1.49,15.14-4.17,19.33-6.25,2.86-1.43,4.68-3.11,7.25-4.59,2.57-1.49,5.93-2.84,11.98-3.67,.7-.1,1.45-.14,2.22-.14h.02c6,0,13.87,2.85,21.49,6.69,3.93,1.97,7.8,4.2,11.33,6.44,.7,.22,1.4,.43,2.1,.63-4.01-2.62-8.54-5.3-13.16-7.61-7.67-3.86-15.6-6.76-21.78-6.76"/></g></svg>