<?xml version="1.0" encoding="UTF-8"?><svg id="Layer_2" xmlns="http://www.w3.org/2000/svg" viewBox="0 0 259.1 478.94"><defs><style>.cls-1{fill:#b5aa77;}.cls-2{fill:#caccb6;}.cls-3{fill:#323232;}.cls-4{fill:#afa05f;}.cls-5{fill:#f1f4e5;}.cls-6{fill:#c9bd84;}.cls-7{fill:#b5b7a3;}.cls-8{fill:#9d9055;}.cls-9{fill:#d8dbce;}</style></defs><g id="Layer_3"><path class="cls-6" d="M223.62,176.77c-.02,.28-.05,.59-.07,.91-.01,.29-.05,.63-.09,.99-.09,1.11-.19,2.38-.31,3.8-.04,.4-.07,.82-.1,1.24l-.03,.28c-.07,.72-.14,1.46-.2,2.24-.03,.18-.04,.36-.05,.53-.06,.65-.11,1.3-.17,1.99-.05,.39-.09,.81-.11,1.23-.05,.45-.1,.93-.15,1.4v.15c-.06,.51-.11,1.02-.16,1.56-.11,1.05-.22,2.08-.32,3.16-.06,.49-.11,.98-.16,1.46l-.02,.24c-.1,.9-.2,1.81-.31,2.72-.44,3.69-.91,7.49-1.45,11.16-.1,.67-.2,1.32-.31,1.95-.01,.12-.04,.23-.05,.34-.07,.54-.17,1.05-.25,1.58-.96,5.71-2.07,10.9-3.38,14.73-4.62,13.6-12.32,35.51-12.32,44.96s-3.85,54.04-6.16,64.62c-2.31,10.58-13.86,28.72-18.49,40.82-2.87,7.51-21.82,33.15-36.46,53.26-8.94,12.25-16.28,22.47-17.44,25.34-3.08,7.55-12.32,18.88-17.72,18.88-4.29,0-9.55-8.59-11.14-19.33-.12-.87-.24-1.75-.31-2.65h0c-.16-1.96-.21-3.96-.1-5.97,.11-2.1,.39-4.4,.79-6.81,.04-.24,.07-.49,.12-.74v-.05c2.43-13.99,8.7-31.78,10.63-40.01,2.31-9.83,3.08-33.26,6.93-43.84,3.85-10.58,4.62-38.55,5.39-48.37,.77-9.83-.49-40.52-6.65-41.28-6.16-.76-14.92,24.65-20.31,35.99-5.39,11.34-15.4,21.92-20.8,40.82-.19,.65-.4,1.38-.63,2.17-3.28,10.92-7.9,22.76-11.91,34.71-2.76,8.17-5.19,16.37-6.71,24.35-3.85,20.41-15.41,34.01-22.34,34.01s-17.51-22.99-18.45-32.98l-.04-.28c-.77-9.83-6.93-30.23-6.16-46.86,.77-16.63,14.63-92.21,18.49-126.97,1.59-14.35,.82-25.73-1.04-36.01-2.65-14.64-7.5-27.05-10.89-42.59,.15,.23,.3,.48,.47,.7,.1,.16,.22,.32,.35,.48,.4,.51,.88,1,1.43,1.47,.25,.22,.48,.43,.76,.61,.49,.4,1.01,.76,1.57,1.11,.35,.21,.7,.4,1.07,.6,.24,.15,.5,.27,.74,.39,.41,.21,.84,.42,1.27,.6,.39,.17,.8,.35,1.21,.51l.26,.09c.43,.18,.87,.33,1.32,.49,.88,.32,1.81,.62,2.77,.89,.77,.22,1.57,.43,2.36,.61,.81,.21,1.63,.38,2.46,.55,.27,.06,.55,.11,.83,.16,.56,.13,1.12,.24,1.7,.33,1.72,.3,3.47,.57,5.24,.79,.88,.11,1.76,.22,2.67,.32,.77,.07,1.54,.16,2.31,.23,1.01,.09,2.01,.16,3.01,.24,2.47,.17,4.92,.29,7.26,.35,1.75,.06,3.44,.1,5.04,.1,.52,.01,1.06,.01,1.57,.01,16.76,0,40.15-10.48,55.17-12,7.86-.79,31.16-.44,53.77-.09,15.25,.24,30.19,.47,39.89,.36,.84-.01,1.65-.04,2.41-.05,.75-.01,1.47-.03,2.15-.05,1.34-.05,2.5-.11,3.44-.17l.36-.04c.17-.01,.35-.02,.52-.04,.19-.03,.36-.04,.53-.07,.46-.04,.92-.12,1.34-.2,.41-.07,.79-.15,1.18-.24,.27-.06,.55-.12,.79-.21,.19-.04,.33-.09,.5-.13,.48-.15,.97-.3,1.43-.48,.25-.07,.47-.17,.7-.27,.45-.18,.88-.38,1.29-.61,.19-.06,.36-.16,.52-.26,.35-.17,.68-.38,1.02-.59l.26-.16c.4-.24,.81-.51,1.17-.79,.42-.32,.84-.65,1.24-.99,2.06,5.16-5.16,17.53-5.93,26.6"/><path class="cls-4" d="M223.62,176.77l-.63-.05c-.02,.28-.05,.59-.07,.92h0v.02c-.01,.26-.05,.6-.09,.95h0v.02c-.09,1.11-.19,2.38-.31,3.8h0c-.04,.4-.08,.82-.1,1.26l.64,.04-.63-.05-.02,.28,.63,.05-.63-.06c-.08,.73-.14,1.48-.2,2.26l.63,.05-.63-.08c-.03,.21-.04,.39-.05,.56l.63,.04-.63-.06c-.06,.66-.11,1.31-.17,1.99l.63,.06-.63-.08c-.05,.41-.09,.83-.12,1.27l.63,.04-.63-.07c-.05,.45-.1,.93-.15,1.41h0v.16l.62,.05-.63-.06c-.05,.51-.1,1.02-.15,1.56l.63,.06-.63-.07c-.11,1.05-.22,2.09-.32,3.17l.63,.06-.63-.08c-.06,.5-.11,.99-.16,1.48l-.03,.24h0c-.1,.9-.2,1.8-.31,2.71-.43,3.69-.91,7.48-1.45,11.14-.1,.67-.2,1.31-.31,1.93v.04c-.01,.08-.04,.18-.05,.33l.63,.07-.63-.09c-.07,.52-.17,1.03-.25,1.58l.63,.08-.63-.1c-.95,5.69-2.07,10.86-3.36,14.63-2.31,6.8-5.39,15.69-7.9,24.06-2.51,8.38-4.45,16.22-4.45,21.1,0,4.67-.96,18.19-2.21,31.83-1.25,13.64-2.8,27.45-3.94,32.66-1.12,5.16-4.57,12.34-8.32,19.69-3.75,7.36-7.8,14.93-10.14,21.03-.68,1.79-2.39,4.79-4.79,8.55-7.2,11.29-20.61,29.48-31.59,44.57-4.47,6.13-8.54,11.75-11.64,16.2-1.55,2.23-2.86,4.16-3.86,5.73-1,1.57-1.68,2.75-2.01,3.55-1.5,3.68-4.55,8.37-7.88,12.09-1.66,1.86-3.39,3.49-5.01,4.63-1.61,1.15-3.12,1.78-4.24,1.77-.85,0-1.85-.44-2.9-1.35-1.58-1.36-3.21-3.74-4.56-6.77-1.36-3.03-2.46-6.7-3.05-10.67-.12-.86-.23-1.73-.31-2.61l-.63,.05h.64v-.06c-.1-1.22-.16-2.46-.16-3.7,0-.72,.02-1.45,.06-2.17,.11-2.07,.38-4.35,.79-6.75h0c.04-.25,.07-.49,.12-.73v-.17h-.62l.63,.11c1.21-6.96,3.38-14.88,5.49-22.1,2.11-7.22,4.16-13.72,5.14-17.87,1.17-4.99,1.94-13.3,2.9-21.71,.96-8.4,2.12-16.89,4.01-22.06,1.97-5.43,3.11-15.06,3.89-24.63,.77-9.56,1.16-19.02,1.54-23.91,.13-1.69,.21-3.97,.21-6.61,0-6.44-.43-14.98-1.51-22.03-.54-3.53-1.24-6.67-2.15-9.03-.46-1.18-.96-2.16-1.56-2.91-.59-.74-1.32-1.27-2.18-1.38-.11-.01-.23-.02-.35-.02-1,0-1.93,.49-2.82,1.24-1.57,1.32-3.12,3.55-4.7,6.32-4.73,8.29-9.62,21.52-13.09,28.81-5.31,11.21-15.4,21.88-20.83,40.91-.19,.65-.4,1.38-.63,2.16-3.27,10.89-7.89,22.72-11.91,34.69-2.76,8.18-5.21,16.41-6.73,24.43-1.91,10.12-5.73,18.55-9.91,24.42-2.09,2.93-4.27,5.23-6.32,6.77-2.05,1.55-3.97,2.32-5.49,2.32-.67,0-1.48-.29-2.36-.9-1.55-1.05-3.29-3.02-4.98-5.51-2.55-3.74-5.02-8.64-6.93-13.41-1.91-4.77-3.25-9.42-3.54-12.59h0l-.04-.3-.63,.08,.63-.05c-.37-4.71-1.93-11.67-3.39-19.48-1.46-7.8-2.83-16.44-2.83-24.38,0-.99,.02-1.97,.06-2.93,.38-8.23,4.04-31.31,8.08-56.62,4.04-25.32,8.47-52.91,10.4-70.31,.6-5.39,.86-10.37,.86-15.04,0-7.79-.74-14.69-1.91-21.15-2.66-14.71-7.52-27.13-10.9-42.62l-.62,.13-.54,.33c.15,.23,.3,.49,.51,.75l.5-.38-.54,.33c.12,.2,.26,.37,.39,.53h0c.43,.55,.95,1.07,1.51,1.56h0c.25,.22,.51,.45,.82,.66l.36-.52-.41,.48c.52,.43,1.06,.8,1.63,1.16h.01c.36,.22,.72,.42,1.1,.62l.3-.55-.34,.53c.28,.17,.56,.3,.8,.42l.28-.56-.29,.56c.42,.21,.86,.42,1.3,.61h0c.39,.17,.8,.36,1.23,.52h.01l.28,.1,.2-.59-.25,.57c.46,.19,.91,.34,1.35,.5h0c.89,.32,1.84,.63,2.81,.9h0c.78,.22,1.59,.43,2.39,.62l.15-.61-.16,.6c.83,.21,1.66,.38,2.49,.56l.13-.61-.14,.61c.29,.06,.57,.12,.86,.16l.11-.61-.15,.61c.58,.14,1.16,.25,1.76,.34l.09-.62-.11,.61c1.72,.31,3.49,.58,5.28,.8,.88,.11,1.77,.22,2.68,.32h0c.76,.07,1.53,.16,2.31,.23h0c1.01,.09,2.02,.16,3.01,.24h0c2.48,.17,4.94,.29,7.28,.36h0c1.76,.06,3.45,.1,5.07,.1v0c.52,.01,1.06,.01,1.57,.01,8.51,0,18.58-2.65,28.42-5.46,9.83-2.81,19.42-5.8,26.82-6.54,3.45-.35,10.02-.47,18.22-.47,20.4,0,50.95,.77,69.72,.77,2.03,0,3.93,0,5.66-.03,.85-.01,1.66-.04,2.41-.05h0c.74-.01,1.47-.03,2.16-.05,1.35-.05,2.51-.11,3.46-.17h.01l.37-.04-.06-.62,.05,.62c.17-.01,.35-.02,.52-.04h.04c.16-.03,.35-.04,.58-.09l-.13-.61,.05,.62c.5-.04,.98-.13,1.4-.2h0c.41-.07,.82-.15,1.23-.25l-.16-.6,.14,.61c.27-.06,.57-.12,.86-.23l-.21-.59,.12,.61c.23-.04,.41-.1,.56-.15,.49-.15,.99-.31,1.47-.49l-.22-.58,.18,.6c.3-.09,.55-.2,.77-.3l-.26-.57,.24,.58c.46-.19,.92-.39,1.36-.64l-.32-.54,.2,.59c.27-.09,.48-.21,.65-.32l-.33-.53,.28,.56c.39-.19,.74-.41,1.07-.62l.26-.16h0c.41-.25,.84-.53,1.23-.83l-.39-.49,.39,.5c.43-.32,.86-.66,1.27-1.01l-.42-.47-.59,.23c.22,.54,.33,1.22,.33,2.01,0,2.79-1.37,6.89-2.86,11.23-1.49,4.36-3.08,8.99-3.43,13.08l.63,.05,.63,.05c.32-3.86,1.88-8.43,3.37-12.79,1.49-4.36,2.92-8.48,2.93-11.63,0-.9-.12-1.73-.41-2.46l-.33-.83-.68,.58c-.38,.33-.79,.65-1.21,.96h0c-.33,.27-.72,.52-1.11,.76h0l-.26,.16h0c-.34,.21-.66,.41-.97,.56h-.02l-.02,.03c-.15,.09-.28,.16-.39,.19l-.06,.02-.05,.03c-.38,.21-.79,.4-1.22,.57h-.01c-.22,.1-.42,.19-.62,.25h-.04c-.44,.18-.91,.33-1.39,.48-.17,.05-.29,.09-.43,.12h-.05l-.04,.02c-.2,.07-.45,.13-.73,.19h-.02c-.36,.09-.73,.17-1.14,.24h0c-.43,.07-.87,.15-1.28,.19h-.08c-.12,.04-.27,.05-.49,.08l.08,.62-.05-.62c-.17,.01-.35,.02-.52,.04h0l-.37,.04,.06,.62-.04-.62c-.94,.06-2.09,.12-3.42,.17-.67,.02-1.39,.04-2.14,.05h0c-.77,.01-1.57,.04-2.41,.05-1.72,.02-3.61,.03-5.64,.03-18.74,0-49.29-.77-69.72-.77-8.22,0-14.79,.12-18.35,.48-7.62,.77-17.23,3.78-27.05,6.59-9.81,2.81-19.81,5.41-28.06,5.41-.51,0-1.04,0-1.55-.01h-.01c-1.59,0-3.28-.04-5.02-.1h0c-2.32-.06-4.76-.18-7.23-.35l-.04,.62,.05-.62c-1-.09-2.01-.16-3.01-.24l-.06,.62,.06-.62c-.76-.07-1.53-.16-2.31-.23l-.06,.62,.07-.62c-.9-.1-1.78-.21-2.66-.32-1.76-.22-3.51-.48-5.21-.79h-.02c-.56-.09-1.1-.19-1.64-.32h-.04c-.28-.06-.55-.1-.8-.16h-.01c-.83-.17-1.64-.34-2.43-.54h-.02c-.78-.18-1.57-.39-2.33-.6h0c-.94-.26-1.86-.56-2.73-.88h0c-.45-.16-.88-.3-1.28-.48h-.02l-.29-.1-.2,.59,.23-.58c-.39-.15-.79-.33-1.18-.5h0c-.41-.18-.83-.38-1.23-.58h0c-.26-.13-.5-.24-.69-.36h-.02l-.02-.02c-.36-.19-.7-.38-1.04-.58l-.33,.53,.34-.52c-.55-.35-1.05-.69-1.5-1.06l-.03-.02-.03-.02c-.23-.15-.44-.34-.69-.56h0c-.53-.46-.98-.92-1.34-1.39h0c-.12-.16-.24-.3-.31-.42l-.02-.03-.02-.03c-.14-.18-.28-.4-.44-.64l-1.91-2.99,.75,3.45c3.41,15.6,8.26,28.01,10.89,42.57,1.16,6.4,1.89,13.22,1.89,20.93,0,4.62-.26,9.55-.86,14.9-1.92,17.35-6.35,44.94-10.39,70.25-4.04,25.33-7.7,48.35-8.1,56.75-.05,.98-.07,1.98-.07,2.99,0,8.08,1.39,16.78,2.85,24.6,1.47,7.83,3.02,14.8,3.38,19.35v.02l.04,.3,.63-.08-.63,.06c.49,5.14,3.41,13.4,7.07,20.46,1.83,3.53,3.85,6.75,5.88,9.11,1.01,1.18,2.03,2.16,3.05,2.85,1.01,.69,2.05,1.12,3.09,1.12,1.95,0,4.07-.93,6.26-2.57,6.54-4.94,13.78-16.51,16.7-31.95,1.51-7.93,3.93-16.11,6.69-24.26,4.01-11.93,8.63-23.77,11.92-34.73,.24-.8,.45-1.53,.63-2.18,5.35-18.76,15.29-29.25,20.76-40.72,2.67-5.62,6.14-14.62,9.71-22.19,1.78-3.79,3.59-7.22,5.3-9.67,.86-1.22,1.69-2.2,2.46-2.84,.77-.65,1.45-.94,1.99-.94h.19c.41,.06,.86,.33,1.34,.92,.84,1.03,1.63,2.96,2.26,5.41,1.93,7.36,2.69,19.4,2.69,27.78,0,2.61-.07,4.87-.2,6.51-.39,4.94-.77,14.37-1.54,23.9-.76,9.52-1.93,19.15-3.82,24.31-1.96,5.41-3.11,13.92-4.08,22.34-.96,8.41-1.74,16.73-2.88,21.57-.96,4.07-3.01,10.58-5.12,17.81-2.11,7.23-4.29,15.19-5.52,22.23v.15h.63l-.62-.12c-.05,.27-.09,.52-.13,.77l.63,.09-.63-.1c-.41,2.43-.69,4.76-.8,6.88-.04,.75-.06,1.5-.06,2.24,0,1.28,.06,2.55,.16,3.8l.63-.05h-.64v.06c.08,.91,.19,1.81,.32,2.68,.81,5.45,2.54,10.34,4.64,13.92,1.05,1.79,2.19,3.25,3.39,4.28,1.19,1.03,2.45,1.66,3.75,1.67,1.58,0,3.25-.79,4.98-2.01,5.17-3.67,10.94-11.47,13.32-17.27,.26-.64,.93-1.82,1.91-3.35,2.95-4.63,8.75-12.68,15.46-21.86,7.32-10.06,15.72-21.5,22.65-31.37,3.47-4.94,6.57-9.48,8.98-13.26,2.42-3.79,4.15-6.81,4.91-8.77,2.29-5.99,6.32-13.54,10.08-20.91,3.76-7.38,7.24-14.57,8.43-19.99,1.17-5.37,2.7-19.14,3.96-32.81,1.25-13.67,2.22-27.16,2.22-31.94,0-4.57,1.9-12.41,4.4-20.74,2.5-8.34,5.58-17.21,7.89-24.02,1.32-3.89,2.44-9.1,3.4-14.82h0v-.02c.07-.51,.17-1.03,.25-1.58h0v-.02c0-.06,.03-.18,.05-.35l-.63-.06,.63,.11c.11-.64,.21-1.29,.31-1.97,.55-3.68,1.02-7.48,1.46-11.17,.11-.92,.21-1.82,.31-2.72h0l.03-.25c.05-.49,.1-.97,.16-1.45h0v-.02c.1-1.07,.21-2.1,.32-3.15h0c.05-.54,.1-1.06,.15-1.57v-.15l-.62-.05,.63,.06c.05-.48,.1-.95,.15-1.4h0v-.03c.02-.41,.06-.82,.11-1.19h0v-.02c.06-.69,.11-1.35,.17-1.98h0c.01-.18,.02-.34,.05-.5v-.03c.07-.78,.13-1.52,.2-2.23h0l.03-.29h0v-.02c.03-.41,.06-.82,.1-1.22h0c.12-1.43,.22-2.7,.31-3.81l-.63-.05,.63,.06c.04-.35,.08-.7,.09-1.03l-.64-.03,.63,.05c.02-.33,.05-.63,.07-.91l-.63-.05"/><path class="cls-1" d="M13.43,158.17c3.33,14.26,7.79,26.07,10.29,39.92,1.17,6.46,1.91,13.36,1.91,21.15,0,4.66-.27,9.64-.86,15.04-1.93,17.41-6.36,44.99-10.4,70.31-4.04,25.31-7.7,48.39-8.08,56.62-.04,.96-.06,1.94-.06,2.93,0,7.94,1.37,16.58,2.83,24.38,1.1,5.85,2.25,11.23,2.91,15.54,2.13-56.47,27.91-133.78,32.2-154.92,2.01-9.89,3.05-26.64,3.21-43.55,.05-2.85,.05-5.71,.02-8.55-.08-10.91-.54-21.41-1.33-29.64h-.12c-.84-.08-1.69-.15-2.55-.21l-.45-.04h-.02c-.61-.06-1.21-.13-1.82-.19-.16-.02-.32-.03-.48-.05h0c-.91-.1-1.8-.21-2.68-.32-.17-.02-.34-.04-.5-.06-1.37-.18-2.72-.38-4.05-.6h-.02c-.21-.04-.44-.08-.7-.13h0c-.07-.01-.13-.02-.2-.03-.34-.05-.67-.11-1-.18-.17-.03-.34-.07-.5-.1-.3-.05-.59-.11-.86-.17-.61-.13-1.21-.25-1.8-.39-.17-.04-.33-.08-.5-.12-.06-.01-.12-.03-.18-.04h-.06c-.78-.2-1.57-.4-2.32-.62h0c-.47-.13-.93-.27-1.38-.41-.49-.16-.97-.32-1.44-.48h0c-.45-.16-.88-.32-1.32-.49h0l-.09-.03-.17-.05h-.01c-.19-.08-.39-.16-.57-.24-.23-.09-.45-.19-.66-.29h0c-.44-.19-.88-.4-1.29-.61h0c-.07-.04-.14-.07-.22-.11-.16-.08-.33-.17-.51-.27l-.04-.02c-.22-.11-.43-.23-.63-.34-.15-.09-.31-.18-.46-.27h-.01c-.17-.12-.34-.23-.51-.34-.38-.25-.75-.52-1.1-.8-.27-.19-.51-.39-.74-.6l-.06-.05h0c-.21-.18-.41-.36-.6-.55"/><path class="cls-8" d="M43.39,167.17c.86,.07,1.71,.13,2.55,.21h0c-.85-.07-1.7-.14-2.56-.21m-5.96-.65c.17,.02,.33,.04,.5,.06,.88,.11,1.77,.22,2.68,.32h0c.16,.02,.32,.03,.48,.05-.16-.02-.33-.03-.49-.05h0c-.89-.09-1.77-.2-2.64-.31h-.03c-.17-.02-.34-.05-.51-.07m-5.97-.95c.33,.07,.66,.13,1,.18-.33-.06-.67-.12-1-.18m-3.67-.79c.17,.04,.33,.08,.5,.12-.17-.04-.33-.08-.5-.12m-3.94-1.07c.45,.15,.91,.28,1.38,.42h0c.76,.21,1.54,.42,2.32,.6-.79-.19-1.56-.39-2.32-.61h0c-.47-.13-.93-.27-1.38-.41m-3.6-1.3c.19,.08,.38,.16,.57,.23h.01l.17,.06-.17-.06c-.2-.08-.39-.15-.58-.23m-1.96-.9h0m-.72-.38c.17,.1,.34,.19,.51,.27-.17-.08-.34-.17-.51-.27m-1.65-.97c.17,.11,.34,.22,.51,.33h.01c.15,.1,.3,.19,.46,.27-.16-.09-.31-.18-.46-.27h0c-.18-.11-.35-.22-.52-.33m-3.36-2.96c3.36,14.8,7.98,26.85,10.54,40.99,1.86,10.28,2.63,21.67,1.04,36.01-3.85,34.77-17.72,110.35-18.49,126.97-.77,16.63,5.39,37.03,6.16,46.86l.03,.28c.02-1.41,.06-2.83,.12-4.27-.66-4.31-1.81-9.68-2.91-15.54-1.46-7.8-2.83-16.44-2.83-24.38,0-.99,.02-1.97,.06-2.93,.38-8.23,4.04-31.31,8.08-56.62,4.04-25.32,8.47-52.91,10.4-70.31,.6-5.39,.86-10.37,.86-15.04,0-7.79-.74-14.69-1.91-21.15-2.5-13.85-6.96-25.66-10.29-39.92,.19,.19,.39,.37,.6,.55h0l.06,.05-.06-.05c-.55-.47-1.04-.97-1.46-1.51"/><path class="cls-3" d="M64.89,369.02c-1.66,4.66-3.35,9.38-4.94,14.11-2.09,6.2-4,12.41-5.45,18.52,2.79-8.53,6.82-21.21,10.39-32.64"/><path class="cls-1" d="M110.5,253.4c-2.6,0-5,2.04-7.03,3.87-4.62,4.17-19.26,26.81-21.57,36.61-2.31,9.79-15.4,36.3-20.8,46.13-2.83,5.17-8.73,45.73-8.55,64.46,1.53-7.16,3.73-14.46,6.19-21.73,4.02-11.96,8.64-23.8,11.91-34.69,.23-.79,.45-1.52,.63-2.16,5.43-19.03,15.52-29.7,20.83-40.91,3.47-7.29,8.36-20.51,13.09-28.81,1.58-2.77,3.14-5,4.7-6.32,.89-.75,1.83-1.23,2.82-1.24h.02c.11,0,.22,0,.33,.02,.87,.11,1.59,.64,2.18,1.38,.6,.74,1.1,1.73,1.56,2.91,.91,2.36,1.61,5.5,2.15,9.03,1.08,7.05,1.51,15.59,1.51,22.03,0,2.63-.07,4.91-.21,6.61-.38,4.89-.77,14.35-1.54,23.91-.78,9.57-1.92,19.2-3.89,24.63-1.89,5.17-3.05,13.67-4.01,22.06-.96,8.4-1.73,16.71-2.9,21.71-.98,4.16-3.03,10.65-5.14,17.87-2.1,7.2-4.27,15.1-5.48,22.04v.12c-.06,.24-.09,.48-.13,.72h0c-.41,2.41-.68,4.69-.79,6.76-.04,.73-.06,1.45-.06,2.17,0,1.25,.06,2.48,.16,3.7v.02h0c.02,.22,.04,.45,.06,.67,5.08-26.13,15.04-68.18,24.62-100.32,14.65-49.15,2.12-81.79,0-88.45-3.68-11.45-7.35-14.81-10.69-14.81"/><path class="cls-8" d="M112.76,268.62h-.02c-1,0-1.93,.49-2.82,1.24-1.57,1.32-3.12,3.55-4.7,6.32-4.73,8.29-9.62,21.52-13.09,28.81-5.31,11.21-15.4,21.88-20.83,40.91-.19,.65-.4,1.38-.63,2.16-3.27,10.89-7.89,22.72-11.91,34.69-2.45,7.27-4.66,14.57-6.19,21.73,0,1,.04,1.94,.08,2.81,.52-1.55,1.15-3.45,1.86-5.63,1.46-6.11,3.36-12.32,5.45-18.52,1.59-4.74,3.28-9.46,4.94-14.11,2.58-8.27,4.92-15.88,6.37-20.79,.24-.79,.45-1.52,.63-2.17,5.39-18.9,15.4-29.48,20.8-40.82,5.31-11.17,13.9-36,20.04-36,.09,0,.18,0,.27,.02,6.16,.75,7.42,31.45,6.65,41.28-.77,9.83-1.54,37.79-5.39,48.37-3.85,10.58-4.62,34.01-6.93,43.84-1.94,8.23-8.2,26.02-10.63,40.01v.05c-.01,.26-.05,.51-.12,.74-.41,2.42-.68,4.72-.79,6.81-.11,2.01-.06,4.01,.1,5.96h0c.07,.9,.19,1.79,.31,2.66,.13-.66,.26-1.33,.39-2.01-.02-.22-.04-.45-.06-.67h0v-.03c-.1-1.22-.16-2.46-.16-3.7,0-.72,.02-1.45,.06-2.17,.11-2.07,.38-4.35,.79-6.75h0c.04-.25,.07-.49,.12-.73v-.12c1.22-6.94,3.39-14.85,5.49-22.04,2.11-7.22,4.16-13.72,5.14-17.87,1.17-4.99,1.94-13.3,2.9-21.71,.96-8.4,2.12-16.89,4.01-22.06,1.97-5.43,3.11-15.06,3.89-24.63,.77-9.56,1.16-19.02,1.54-23.91,.13-1.69,.21-3.97,.21-6.61,0-6.44-.43-14.98-1.51-22.03-.54-3.53-1.24-6.67-2.15-9.03-.46-1.18-.96-2.16-1.56-2.91-.59-.74-1.32-1.27-2.18-1.38-.11-.01-.22-.02-.33-.02"/><path class="cls-1" d="M229.2,151.27c-.17,.13-.33,.26-.5,.38h0c-.29,.23-.6,.44-.91,.63-.1,.06-.2,.13-.3,.19h0l-.26,.16h0c-.26,.16-.53,.32-.81,.48-.08,.04-.16,.09-.24,.13l-.03,.02c-.15,.09-.32,.18-.53,.26h0l-.06,.03-.03,.02-.06,.03h-.01c-.33,.18-.67,.34-1.01,.48-.05,.02-.09,.04-.14,.06l-.06,.03c-.18,.08-.39,.16-.62,.24h-.04c-.45,.18-.92,.34-1.39,.48l-.08,.02c-.11,.03-.23,.07-.38,.11-.04,.01-.09,.02-.14,.04h0c-.28,.09-.56,.15-.83,.21h0c-.33,.08-.65,.15-.99,.21-.07,.01-.15,.03-.22,.04h0c-.25,.04-.52,.09-.81,.13-.18,.03-.37,.05-.55,.07-.15,.03-.29,.04-.42,.05-.04,0-.08,0-.12,.01h-.04c-.08,0-.15,.02-.23,.02-.09,0-.19,.02-.28,.02l-.36,.03h0c-.95,.06-2.12,.13-3.47,.18h0c.4,15.67-4.39,32.86-6.97,46.44-.08,.49-.18,.98-.27,1.45-.27,1.32-.56,2.6-.88,3.84-8.47,33.26-8.09,44.59-9.63,56.68-1.54,12.09-.82,43.82-4.24,66.51-3.08,20.42-10.95,31.3-20.41,50.26-6.23,12.47-11.73,24.9-24.72,46.8,10.03-13.76,21.11-28.95,27.42-38.84,2.4-3.76,4.11-6.76,4.79-8.55,2.34-6.11,6.38-13.67,10.14-21.03,3.75-7.36,7.2-14.53,8.32-19.69,1.14-5.21,2.69-19.03,3.94-32.66,1.25-13.64,2.21-27.16,2.21-31.83,0-4.87,1.95-12.71,4.45-21.1,2.51-8.38,5.59-17.26,7.9-24.06,1.28-3.77,2.4-8.94,3.35-14.63,.08-.55,.17-1.05,.24-1.56h0c.02-.16,.04-.26,.05-.33v-.04c.12-.62,.22-1.26,.31-1.93,.55-3.66,1.02-7.45,1.45-11.14,.11-.91,.21-1.81,.31-2.71h0l.03-.24c.05-.48,.1-.97,.16-1.47,.1-1.07,.21-2.11,.32-3.15h0c.05-.54,.1-1.05,.15-1.56h0v-.15h.01c.05-.48,.1-.95,.15-1.4,.03-.43,.06-.84,.11-1.24,.06-.67,.11-1.32,.17-1.97,.01-.16,.02-.34,.05-.54,.06-.77,.12-1.51,.2-2.23h0l.02-.27c.03-.43,.06-.85,.1-1.25h0c.12-1.42,.22-2.69,.31-3.8h0v-.02c.04-.35,.07-.69,.09-.95h0v-.02c.03-.33,.05-.64,.08-.92h0c.35-4.09,1.94-8.72,3.43-13.08,1.49-4.35,2.87-8.44,2.86-11.23,0-.41-.03-.79-.09-1.13"/><path class="cls-8" d="M217.78,155.75s-.1,0-.14,.01h0c-.08,0-.17,.01-.25,.02,.08,0,.16-.01,.23-.02h.04s.08-.01,.12-.02m2.01-.3c-.07,.01-.14,.02-.22,.04h0c-.26,.05-.54,.1-.82,.14,.29-.04,.56-.09,.81-.13h0c.07-.01,.15-.03,.22-.04m2.4-.59l-.08,.02c-.12,.04-.25,.07-.38,.11,.15-.04,.27-.08,.38-.11l.08-.02m2.05-.71c-.2,.08-.41,.17-.62,.24,.23-.07,.43-.16,.62-.24m1.21-.55c-.34,.18-.67,.33-1.01,.47,.34-.14,.68-.29,1.01-.47m.07-.04l-.06,.03,.06-.03m.09-.05l-.06,.03,.06-.03m.53-.26c-.15,.09-.33,.18-.52,.25h0c.21-.07,.38-.17,.53-.25m.27-.14c-.08,.04-.16,.08-.24,.12h0c.08-.04,.16-.08,.24-.12m3.35-2.3c-.34,.28-.7,.56-1.05,.82h0c-.3,.22-.6,.44-.91,.64,.31-.2,.62-.41,.91-.64h0c.17-.12,.33-.25,.5-.38,.06,.35,.09,.73,.09,1.13,0,2.79-1.37,6.89-2.86,11.23-1.49,4.36-3.08,8.99-3.43,13.08h0c-.02,.28-.05,.59-.07,.92h0v.02c-.01,.26-.05,.6-.09,.95h0v.02c-.09,1.11-.19,2.38-.31,3.8h0c-.04,.4-.08,.81-.1,1.25l-.02,.27h0c-.07,.72-.14,1.46-.2,2.23-.03,.2-.04,.37-.05,.54-.06,.65-.11,1.3-.17,1.97-.05,.4-.09,.81-.11,1.24-.05,.45-.1,.92-.15,1.39h0v.16h-.01c-.05,.51-.1,1.02-.15,1.56h0c-.11,1.04-.22,2.08-.32,3.15-.06,.49-.11,.98-.16,1.47l-.03,.24h0c-.1,.9-.2,1.8-.31,2.71-.43,3.69-.91,7.48-1.45,11.14-.1,.67-.2,1.31-.31,1.93v.04c-.01,.08-.04,.18-.05,.33h0c-.07,.51-.17,1.01-.24,1.56-.95,5.69-2.07,10.86-3.35,14.63-2.31,6.8-5.39,15.69-7.9,24.06-2.51,8.38-4.45,16.22-4.45,21.1,0,4.67-.96,18.19-2.21,31.83-1.25,13.64-2.8,27.45-3.94,32.66-1.12,5.16-4.57,12.34-8.32,19.69-3.75,7.36-7.8,14.93-10.14,21.03-.68,1.79-2.39,4.79-4.79,8.55-6.31,9.89-17.38,25.08-27.42,38.84-1.16,1.95-2.38,3.98-3.66,6.09,14.65-20.12,33.6-45.76,36.47-53.27,4.62-12.09,16.18-30.23,18.48-40.81,2.31-10.58,6.16-55.17,6.16-64.62s7.7-31.37,12.32-44.97c1.3-3.83,2.42-9.02,3.37-14.72,.08-.54,.18-1.06,.26-1.59l.05-.33c.11-.65,.21-1.29,.3-1.95,.55-3.67,1.03-7.46,1.46-11.16,.1-.91,.21-1.81,.31-2.71l.03-.25c.05-.49,.1-.98,.16-1.46,.1-1.07,.21-2.11,.32-3.15,.05-.54,.1-1.06,.15-1.56l.02-.16c.05-.47,.1-.94,.14-1.4,.03-.42,.06-.84,.11-1.23,.06-.68,.11-1.34,.18-1.98,.02-.17,.03-.35,.05-.52,.06-.77,.13-1.53,.21-2.25l.02-.28c.03-.43,.06-.84,.1-1.25,.13-1.42,.23-2.69,.32-3.79,.03-.36,.06-.69,.08-.99,.03-.33,.05-.63,.08-.91h0c.74-8.71,7.43-20.47,6.12-25.95"/><path class="cls-5" d="M255.98,89.09c-2.7,12.85-6.55,35.14-13.48,43.84-4.4,5.51-7.4,12.55-12.95,17.24-.4,.33-.82,.66-1.23,.98-.39,.28-.77,.55-1.17,.8l-.26,.16c-.34,.21-.68,.41-1.03,.58-.16,.09-.34,.19-.51,.25-.42,.24-.85,.42-1.3,.61-.23,.09-.47,.19-.69,.27-.46,.17-.95,.33-1.43,.47-.16,.05-.32,.09-.5,.14-.26,.08-.53,.14-.8,.21-.39,.09-.77,.17-1.17,.24-.43,.08-.88,.16-1.35,.21-.18,.03-.35,.05-.53,.06-.18,.02-.35,.03-.53,.05l-.35,.03c-.95,.06-2.1,.12-3.45,.17-.67,.02-1.4,.03-2.15,.05-.75,.02-1.56,.03-2.41,.05-1.14,.02-2.34,.02-3.61,.03-9.56,.03-22.75-.18-36.17-.39-22.65-.35-46-.7-53.88,.09-15.02,1.51-38.41,12-55.17,12-.51,0-1.04,0-1.57-.02-1.61,0-3.29-.03-5.04-.09-2.34-.06-4.78-.19-7.25-.36-1-.08-2.01-.16-3.02-.24-.77-.08-1.54-.16-2.31-.24-.9-.1-1.78-.21-2.66-.32-1.54-.19-3.05-.41-4.52-.66-.24-.05-.48-.08-.72-.13-.56-.09-1.12-.2-1.68-.31-.29-.05-.58-.11-.85-.17-.83-.17-1.65-.35-2.45-.55-.8-.19-1.59-.39-2.36-.61-.96-.27-1.89-.57-2.78-.88-.45-.16-.88-.32-1.32-.49l-.26-.09c-.42-.16-.82-.33-1.2-.51-.43-.19-.87-.39-1.27-.6-.26-.12-.51-.25-.75-.39-.37-.19-.72-.39-1.06-.6-.56-.35-1.09-.71-1.57-1.1-.27-.19-.51-.39-.75-.61-.55-.47-1.03-.96-1.43-1.48-.13-.16-.26-.31-.35-.47-.18-.22-.32-.46-.47-.69C6.43,145.78,.27,115.92,.65,101.94c.39-13.98,1.54-40.43,5.78-51.77C10.67,38.83,27.99,14.27,43.4,9.36c3-.96,5.82-1.53,8.49-1.83,1.94-.22,3.8-.28,5.58-.25,8.39,.13,15.21,2.46,21.36,2.46,8.71,0,22.88,5.37,32.88,5.35,.59,0,1.2-.02,1.78-.06,10.01-.76,21.18-3.4,28.5-7.94,1.25-.77,2.47-1.48,3.66-2.13,5.81-3.1,11.14-4.61,17.52-4.3,4.77,.23,11.46,.15,17.05,.07,3.43-.05,6.46-.1,8.37-.07,.46,0,.95,.02,1.44,.02h.02c6.05,.11,13.66,.49,21.29,1.49,11.63,1.56,23.31,4.61,29.62,10.58,10.78,10.2,16.94,23.43,17.33,34.39,.39,10.96,.39,29.1-2.31,41.95"/><path class="cls-2" d="M255.98,89.09l-.62-.13c-1.35,6.43-2.98,15.21-5.14,23.45-2.15,8.23-4.86,15.94-8.21,20.13-4.46,5.61-7.46,12.6-12.86,17.15l.41,.47-.41-.48c-.39,.33-.8,.65-1.21,.96l.39,.49-.38-.5c-.38,.28-.75,.53-1.13,.78l.34,.53-.34-.53-.26,.16h0c-.34,.2-.66,.4-.98,.55h-.02l-.02,.02c-.14,.08-.29,.16-.4,.2l-.05,.02-.05,.03c-.38,.22-.79,.39-1.23,.58-.21,.09-.45,.18-.65,.25h-.01c-.45,.17-.92,.33-1.39,.46-.16,.05-.31,.09-.48,.14h-.02c-.22,.08-.48,.14-.76,.2h0c-.37,.09-.73,.17-1.12,.23h-.01c-.43,.08-.86,.15-1.3,.2h-.05c-.14,.03-.3,.05-.47,.06h0c-.18,.02-.35,.03-.53,.05l-.35,.03,.06,.62-.04-.62c-.94,.06-2.09,.12-3.43,.17l.02,.62-.02-.62c-.67,.02-1.4,.03-2.15,.05-.75,.02-1.56,.03-2.4,.05h0c-1.13,.02-2.34,.02-3.61,.03h0c-.61,0-1.24,0-1.88,0-18.72,0-49.37-.78-69.86-.78-8.23,0-14.81,.12-18.37,.48-7.62,.77-17.23,3.78-27.05,6.59-9.81,2.81-19.81,5.41-28.05,5.41-.51,0-1.04,0-1.55-.02h-.02c-1.6,0-3.27-.03-5.02-.09h0c-2.33-.06-4.76-.19-7.22-.36h0c-.99-.08-2.01-.16-3.02-.24l-.05,.62,.07-.62c-.77-.08-1.54-.16-2.31-.24h0c-.89-.09-1.77-.2-2.65-.31h0c-1.53-.19-3.03-.41-4.49-.66l-.11,.62,.12-.61c-.27-.05-.51-.08-.72-.13h-.02c-.55-.09-1.11-.2-1.67-.31h-.02c-.27-.05-.54-.11-.81-.17h-.01c-.83-.18-1.64-.35-2.43-.55h-.01c-.79-.19-1.57-.39-2.33-.61h0c-.95-.27-1.86-.56-2.73-.87h0c-.45-.16-.87-.31-1.29-.48h0l-.27-.1h0c-.4-.15-.79-.32-1.17-.49h0c-.42-.19-.84-.39-1.23-.58h0c-.26-.13-.5-.25-.71-.37h-.02l-.02-.02c-.35-.18-.69-.38-1.02-.58h0c-.55-.33-1.05-.68-1.51-1.05l-.02-.02h-.02c-.24-.18-.46-.36-.69-.57h-.01c-.52-.46-.97-.92-1.34-1.4h-.01c-.13-.17-.24-.31-.3-.42l-.02-.03-.02-.03c-.14-.18-.28-.39-.42-.63l-.54,.32,.55-.31c-1.36-2.31-2.78-5.84-4.12-10.04-4.02-12.61-7.37-31.28-7.37-42.01,0-.44,0-.87,.02-1.28,.19-6.98,.58-17.08,1.44-26.84,.86-9.75,2.22-19.18,4.3-24.73,2.07-5.56,7.45-14.52,14.19-22.64,6.74-8.13,14.89-15.43,22.38-17.8,2.96-.95,5.74-1.5,8.36-1.8,1.61-.18,3.16-.26,4.65-.26,.28,0,.57,0,.84,0h0c8.28,.12,15.06,2.44,21.37,2.46,4.22,0,9.92,1.32,15.79,2.66,5.88,1.34,11.94,2.69,17.05,2.69h.05c.6,0,1.23-.02,1.83-.06h0c10.09-.77,21.32-3.41,28.79-8.03,1.24-.77,2.45-1.47,3.63-2.11h0c5.25-2.8,10.02-4.26,15.58-4.26,.53,0,1.06,.01,1.6,.04,2.38,.12,5.22,.15,8.17,.15,5.99,0,12.41-.16,16.15-.16,.41,0,.79,0,1.13,0h0c.45,0,.93,.02,1.44,.02h.02v0c6.02,.11,13.6,.49,21.21,1.49,11.58,1.54,23.17,4.62,29.26,10.41,10.68,10.09,16.76,23.21,17.13,33.96,.11,3,.18,6.54,.18,10.36,0,10.11-.54,22.19-2.48,31.44l.62,.13,.62,.13c1.97-9.4,2.5-21.54,2.51-31.69,0-3.84-.08-7.39-.18-10.4-.4-11.17-6.63-24.5-17.52-34.82-6.52-6.15-18.29-9.17-29.98-10.75-7.67-1.01-15.3-1.39-21.37-1.5h-.03c-.48,0-.96-.02-1.44-.02V.04c-.34,0-.72,0-1.14,0-3.77,0-10.18,.16-16.15,.16-2.93,0-5.76-.04-8.1-.15C162.63,.01,162.08,0,161.53,0c-5.79,0-10.83,1.55-16.19,4.42h0c-1.2,.65-2.43,1.37-3.69,2.15-7.17,4.45-18.27,7.1-28.21,7.84h0c-.55,.04-1.15,.06-1.73,.06v.62l.02-.62h-.06c-4.88,0-10.89-1.32-16.76-2.66-5.87-1.34-11.6-2.69-16.08-2.69-5.98,.01-12.84-2.32-21.35-2.46h0c-.29,0-.58,0-.87,0-1.54,0-3.14,.07-4.8,.26-2.7,.3-5.57,.88-8.61,1.85-7.92,2.54-16.13,9.98-22.97,18.2-6.83,8.23-12.24,17.22-14.4,23-2.16,5.79-3.5,15.25-4.37,25.05C.6,84.81,.21,94.93,.02,101.92c-.01,.42-.02,.86-.02,1.31,0,7.31,1.5,18.03,3.7,28.16,1.1,5.06,2.37,9.97,3.73,14.22,1.36,4.25,2.79,7.84,4.23,10.3h0c.14,.24,.3,.51,.51,.77l.5-.39-.55,.32c.13,.21,.27,.38,.4,.54l.5-.39-.51,.38c.43,.56,.94,1.08,1.51,1.57l.42-.47-.43,.46c.25,.23,.51,.46,.82,.67l.37-.51-.41,.48c.51,.42,1.06,.79,1.64,1.15h0c.34,.21,.71,.42,1.1,.62l.29-.55-.33,.53c.27,.16,.54,.29,.8,.42l.28-.56-.29,.55c.41,.21,.86,.42,1.3,.61l.26-.57-.27,.57c.39,.18,.8,.36,1.24,.52l.26,.1,.22-.58-.24,.58c.45,.18,.89,.34,1.34,.5h0c.9,.32,1.84,.62,2.82,.89h0c.78,.22,1.58,.43,2.39,.62l.15-.61-.16,.6c.82,.21,1.65,.38,2.48,.56l.13-.61-.15,.61c.28,.06,.58,.13,.89,.18l.11-.62-.13,.61c.56,.11,1.13,.22,1.7,.32l.11-.62-.13,.61c.27,.05,.51,.08,.72,.13h.02c1.49,.26,3.01,.48,4.56,.67h0c.88,.11,1.77,.22,2.68,.32h0c.77,.08,1.54,.16,2.31,.24h.02c1.01,.08,2.02,.16,3.02,.24h0c2.48,.17,4.93,.3,7.28,.36h0c1.76,.06,3.45,.09,5.06,.09v-.62l-.02,.62c.54,.02,1.08,.02,1.59,.02,8.51,0,18.58-2.65,28.41-5.46,9.83-2.81,19.42-5.8,26.82-6.54,3.45-.35,10.03-.48,18.25-.48,20.46,0,51.11,.78,69.86,.78,.64,0,1.27,0,1.88,0h0c1.26-.01,2.47-.01,3.61-.03h0c.85-.02,1.65-.03,2.41-.05,.75-.02,1.48-.03,2.15-.05h0c1.35-.05,2.52-.11,3.47-.18h0l.36-.03c.18-.02,.35-.03,.53-.05h0c.18-.01,.38-.03,.59-.07l-.11-.61,.07,.62c.5-.05,.96-.13,1.4-.21l-.11-.61,.1,.62c.42-.07,.82-.15,1.23-.25l-.15-.6,.15,.61c.27-.06,.56-.13,.85-.22l-.19-.6,.17,.6c.18-.05,.35-.1,.51-.15,.49-.14,.99-.31,1.47-.49l-.23-.58,.21,.59c.24-.09,.49-.18,.73-.28,.45-.19,.91-.39,1.37-.65l-.32-.54,.22,.59c.24-.09,.44-.2,.62-.3l-.33-.53,.28,.56c.39-.19,.74-.41,1.08-.61h0l.26-.16h0c.42-.27,.82-.54,1.21-.83h0c.43-.32,.85-.66,1.26-1h0c5.7-4.83,8.7-11.92,13.04-17.33,3.58-4.5,6.26-12.29,8.44-20.59,2.17-8.3,3.81-17.09,5.16-23.51l-.62-.13"/><path class="cls-9" d="M55.85,7.9c-1.26,.02-2.55,.1-3.89,.25-2.62,.3-5.4,.85-8.36,1.8-7.48,2.37-15.64,9.67-22.38,17.8-6.75,8.12-12.12,17.08-14.19,22.64-2.08,5.55-3.44,14.98-4.3,24.73-.86,9.76-1.25,19.86-1.44,26.84-.01,.41-.02,.84-.02,1.28,0,10.73,3.35,29.4,7.37,42.01,1.34,4.2,2.76,7.73,4.12,10.04h0c.14,.23,.27,.44,.41,.62l.02,.03,.02,.03c.06,.11,.18,.25,.3,.4h.01c.37,.49,.82,.95,1.34,1.4h.01c.23,.22,.45,.41,.69,.57h.02l.02,.03c.45,.37,.96,.72,1.51,1.05h0c.33,.2,.67,.39,1.02,.57h.02l.02,.02c.21,.12,.45,.24,.71,.37h0c.39,.2,.81,.4,1.23,.59h0c.38,.17,.77,.34,1.17,.49h0l.27,.1h0c.42,.17,.84,.33,1.29,.48h0c.87,.31,1.79,.6,2.73,.87h0c.76,.22,1.54,.42,2.33,.61h.01c.78,.2,1.59,.37,2.43,.55h.01c.27,.06,.54,.12,.81,.17h.02c.56,.11,1.12,.22,1.67,.31h.02c.07,.02,.14,.03,.21,.04-1.76-3.15-3.94-6.21-6.6-9-15.74-16.44-16.93-54.33-17.18-69.32-.26-15.01,6.35-40.08,24.84-62.3,7.01-8.42,14.76-13.29,21.69-16.08"/><path class="cls-7" d="M56.62,7.27c-1.52,0-3.1,.07-4.73,.26-2.66,.3-5.49,.87-8.49,1.83C27.99,14.27,10.67,38.83,6.43,50.17,2.19,61.51,1.04,87.96,.65,101.94c-.39,13.98,5.78,43.84,11.55,53.66,.14,.24,.29,.47,.47,.69,.1,.16,.22,.31,.35,.47,.4,.52,.88,1.01,1.43,1.48,.24,.22,.48,.43,.75,.61,.48,.39,1.01,.76,1.57,1.1,.34,.21,.69,.41,1.06,.6,.24,.14,.5,.27,.75,.39,.4,.21,.83,.41,1.27,.6,.39,.17,.78,.35,1.2,.51l.26,.09c.43,.17,.87,.33,1.32,.49,.88,.31,1.81,.61,2.78,.88,.77,.22,1.56,.42,2.36,.61,.8,.2,1.62,.38,2.45,.55,.27,.06,.56,.12,.85,.17,.56,.11,1.12,.22,1.68,.31,.24,.05,.48,.08,.72,.13-.13-.23-.25-.47-.38-.7-.07-.01-.15-.02-.21-.04h-.02c-.55-.09-1.11-.2-1.67-.31h-.02c-.27-.05-.54-.11-.81-.17h-.01c-.83-.18-1.64-.35-2.43-.55h-.01c-.79-.19-1.57-.39-2.33-.61h0c-.95-.27-1.86-.56-2.73-.87h0c-.45-.16-.87-.31-1.29-.48h0l-.27-.1h0c-.4-.15-.79-.32-1.17-.49h0c-.42-.19-.84-.39-1.23-.58h0c-.26-.13-.5-.25-.71-.37h-.02l-.02-.02c-.35-.18-.69-.38-1.02-.58h0c-.55-.33-1.05-.68-1.51-1.05l-.02-.02h-.02c-.24-.18-.46-.36-.69-.57h-.01c-.52-.46-.97-.92-1.34-1.4h-.01c-.13-.17-.24-.31-.3-.42l-.02-.03-.02-.03c-.14-.18-.27-.39-.41-.62h0c-1.36-2.31-2.78-5.84-4.12-10.04-4.02-12.61-7.37-31.28-7.37-42.01,0-.44,0-.87,.02-1.28,.19-6.98,.58-17.08,1.44-26.84,.86-9.75,2.22-19.18,4.3-24.73,2.07-5.56,7.45-14.52,14.19-22.64,6.74-8.13,14.89-15.43,22.38-17.8,2.96-.95,5.74-1.5,8.36-1.8,1.33-.15,2.63-.23,3.89-.25,.55-.22,1.09-.43,1.62-.62-.28,0-.56,0-.85,0"/><path class="cls-2" d="M126.27,13.29s.16,.25,.44,.71c1.96,3.26,9.98,17.17,11.96,28.9,.22,1.27,.32,2.66,.32,4.15,0,7-2.34,16.12-6.23,24.64-3.88,8.53-9.32,16.47-15.39,21.19-.28,.21-.32,.61-.1,.88,.22,.27,.62,.32,.89,.1,6.32-4.92,11.81-13,15.76-21.66,3.95-8.66,6.34-17.88,6.34-25.15,0-1.55-.11-3-.34-4.35-2.35-13.79-12.55-30.03-12.57-30.06-.18-.29-.58-.39-.87-.21-.3,.18-.39,.57-.21,.86"/><path class="cls-9" d="M145.92,5.53c-1.17,.63-2.36,1.33-3.59,2.09-4.01,2.48-9.11,4.39-14.53,5.75,1.99,3.31,10.06,17.25,12.12,29.33,.23,1.35,.34,2.8,.34,4.35,0,7.26-2.4,16.49-6.34,25.15-2.06,4.51-4.53,8.86-7.32,12.68,5.63-4.41,22.26-18.79,26.56-37.55,3.6-15.7-2.9-32.78-7.24-41.81"/><path class="cls-7" d="M145.64,4.96c-1.19,.65-2.41,1.35-3.66,2.13-3.97,2.47-9.08,4.37-14.53,5.72,.08,.12,.19,.31,.34,.56,5.42-1.36,10.52-3.27,14.53-5.75,1.23-.76,2.43-1.45,3.59-2.09-.09-.19-.18-.38-.27-.56"/><path class="cls-7" d="M127.45,12.81c-.22,.05-.43,.11-.65,.16,0,0,10.17,16.23,12.48,29.84,1.89,11.16-4.59,30.88-14.55,43.47,.11-.08,.78-.56,1.85-1.39,2.79-3.83,5.27-8.18,7.32-12.68,3.95-8.66,6.34-17.88,6.34-25.15,0-1.55-.11-3-.34-4.35-2.06-12.08-10.14-26.02-12.12-29.33-.15-.25-.26-.44-.34-.56"/><path class="cls-9" d="M212.41,2.95c9.54,6.99,21.23,17.03,27.39,27.94,11.55,20.41,2.57,66.51-9.88,90.69-7.17,13.93-13.79,25.52-23.99,33.3,.96,0,1.88-.01,2.75-.02h0c.85-.02,1.65-.03,2.4-.05,.75-.02,1.47-.03,2.14-.05h0c1.34-.05,2.48-.11,3.42-.17l.34-.03c.18-.02,.35-.03,.53-.05h0c.17-.02,.33-.03,.47-.06h.05c.44-.05,.87-.13,1.3-.21h.01c.38-.06,.75-.14,1.12-.23h0c.27-.07,.53-.13,.76-.2h.02c.17-.05,.33-.1,.48-.14,.47-.14,.94-.29,1.39-.46h.01c.21-.08,.44-.17,.65-.26,.45-.19,.85-.37,1.23-.58l.05-.03,.05-.02c.12-.04,.26-.12,.4-.2h.02l.02-.02c.32-.16,.64-.35,.98-.55h0l.25-.15h0c.38-.24,.75-.5,1.13-.77,.41-.31,.82-.63,1.21-.96h0c5.4-4.55,8.4-11.54,12.86-17.15,3.35-4.19,6.06-11.9,8.21-20.13,2.16-8.24,3.79-17.01,5.14-23.45h0c1.94-9.25,2.48-21.33,2.48-31.44,0-3.82-.08-7.36-.18-10.36-.37-10.75-6.46-23.87-17.13-33.96-5.89-5.6-16.92-8.66-28.11-10.25"/><path class="cls-7" d="M211.34,2.18c.35,.25,.71,.51,1.07,.78,11.19,1.59,22.22,4.66,28.11,10.25,10.68,10.09,16.76,23.21,17.13,33.96,.11,3,.18,6.54,.18,10.36,0,10.11-.54,22.19-2.48,31.44h0c-1.35,6.43-2.98,15.21-5.14,23.45-2.15,8.23-4.86,15.94-8.21,20.13-4.46,5.61-7.45,12.59-12.86,17.15h0c-.39,.32-.8,.65-1.21,.96-.37,.27-.74,.53-1.13,.77h0l-.25,.15h0c-.34,.2-.66,.4-.98,.55h-.02l-.02,.02c-.14,.08-.29,.16-.4,.2l-.05,.02-.05,.03c-.38,.22-.79,.39-1.23,.58-.21,.09-.45,.18-.65,.25h-.01c-.45,.17-.92,.33-1.39,.46-.16,.05-.31,.09-.48,.14h-.02c-.22,.08-.48,.14-.76,.2h0c-.37,.09-.73,.17-1.12,.23h-.01c-.43,.08-.86,.15-1.3,.2h-.05c-.14,.03-.3,.05-.47,.06h0c-.18,.02-.35,.03-.53,.05l-.34,.03c-.94,.06-2.09,.12-3.42,.17h0c-.67,.02-1.39,.03-2.14,.05-.75,.02-1.56,.03-2.4,.05h0c-.88,.01-1.79,.01-2.75,.02-.28,.21-.56,.42-.85,.63,1.27-.01,2.47-.01,3.61-.03,.85-.02,1.65-.03,2.41-.05,.75-.02,1.48-.03,2.15-.05,1.35-.05,2.5-.11,3.45-.17l.35-.03c.18-.02,.35-.03,.53-.05,.18-.02,.35-.03,.53-.06,.47-.05,.91-.13,1.35-.21,.4-.06,.79-.14,1.17-.24,.27-.06,.55-.13,.8-.21,.18-.05,.34-.09,.5-.14,.48-.14,.96-.3,1.43-.47,.23-.08,.47-.17,.69-.27,.45-.19,.88-.38,1.3-.61,.18-.06,.35-.16,.51-.25,.35-.17,.69-.38,1.03-.58l.26-.16c.4-.25,.79-.52,1.17-.8,.42-.31,.83-.64,1.23-.98,5.55-4.69,8.55-11.73,12.95-17.24,6.93-8.69,10.78-30.99,13.48-43.84,2.69-12.85,2.69-30.99,2.31-41.95-.39-10.96-6.55-24.19-17.33-34.39-6.31-5.97-17.99-9.02-29.62-10.58"/></g></svg>