<?xml version="1.0" encoding="UTF-8"?><svg id="Layer_2" xmlns="http://www.w3.org/2000/svg" viewBox="0 0 227.81 435.23"><defs><style>.cls-1{fill:#b5aa77;}.cls-2{fill:#caccb6;}.cls-3{fill:#afa05f;}.cls-4{fill:#f1f4e5;}.cls-5{fill:#c9bd84;}.cls-6{fill:#b5b7a3;}.cls-7{fill:#9d9055;}.cls-8{fill:#d8dbce;}</style></defs><g id="Layer_3"><path class="cls-5" d="M199.6,144.41v.02c-4.91,14.67-6.79,31.58-9.15,41.8-2.36,10.22-2.23,104.44-4.72,123.39-1.93,14.62-24.36,68.37-29.08,77.02-4.22,7.73-31.06,39.97-43.42,46.69-1.47,.8-2.73,1.25-3.73,1.25-1.6,0-3.72-.93-6.17-2.52-4.75-3.09-10.76-8.71-16.65-14.98-8.96-9.55-17.63-20.6-21.19-26.51-7.07-11.79-16.5-39.29-21.22-54.23-4.71-14.93-11-63.66-11.79-77.81-.79-14.15-7.74-112.92-12.97-130.53,3.26,2,7.19,2.82,11.79,2.42,1.33-.11,2.73-.16,4.22-.16,13.85,.02,34.35,4.68,47.65,8.42,14.74,4.13,84.88,8.84,105.51,8.25,4.65-.13,8.19-1.05,10.92-2.52"/><path class="cls-3" d="M199.6,144.41h-.65v.02h.65l-.62-.21c-4.94,14.76-6.82,31.71-9.17,41.86-.31,1.37-.56,3.95-.79,7.56-.8,12.6-1.24,37.43-1.75,61.2-.26,11.88-.53,23.5-.88,33.17-.35,9.67-.77,17.42-1.31,21.51-.47,3.56-2.22,9.65-4.67,16.86-3.66,10.82-8.87,24.2-13.61,35.68-4.73,11.47-9,21.07-10.73,24.25-1.01,1.86-3.48,5.32-6.77,9.52-4.94,6.3-11.76,14.3-18.49,21.34-6.72,7.04-13.4,13.13-17.9,15.57-1.42,.78-2.62,1.17-3.42,1.17-1.36,.01-3.41-.85-5.82-2.42h0c-4.66-3.04-10.66-8.63-16.53-14.88-8.93-9.51-17.6-20.56-21.1-26.4-3.49-5.82-7.62-15.63-11.44-25.83-3.83-10.2-7.36-20.8-9.72-28.26-2.33-7.37-5.09-23.3-7.34-39.09-2.26-15.8-4.03-31.52-4.42-38.55-.39-7.09-2.33-35.31-4.82-63.99-1.25-14.34-2.63-28.78-4.03-40.75-1.4-11.98-2.81-21.44-4.14-25.94l-.62,.18-.34,.55c2.84,1.74,6.17,2.62,9.94,2.61,.73,0,1.48-.03,2.24-.1h0c1.3-.11,2.69-.16,4.17-.16,13.72,.01,34.21,4.67,47.47,8.39,3.55,.99,10.11,1.99,18.38,2.96,24.8,2.89,64.88,5.37,83.29,5.37,1.49,0,2.85-.02,4.04-.05,4.72-.13,8.37-1.07,11.21-2.6l-.31-.57h0l-.31-.57c-2.62,1.41-6.06,2.31-10.63,2.44-1.18,.03-2.52,.05-4,.05-12.2,0-34.1-1.1-54.66-2.69-10.28-.79-20.23-1.71-28.47-2.67-8.24-.96-14.78-1.97-18.18-2.92-13.33-3.74-33.84-8.42-47.82-8.44h0c-1.5,0-2.93,.05-4.28,.17h0c-.73,.06-1.44,.09-2.14,.09-3.57,0-6.64-.82-9.26-2.42l-1.44-.88,.48,1.62c1.28,4.3,2.7,13.78,4.1,25.72,4.19,35.84,8.26,94.06,8.84,104.65,.4,7.12,2.16,22.83,4.43,38.66,2.26,15.84,5.01,31.74,7.39,39.3,2.36,7.48,5.9,18.09,9.74,28.32,3.84,10.24,7.96,20.07,11.55,26.04,3.6,5.99,12.28,17.04,21.27,26.62,5.92,6.29,11.94,11.93,16.77,15.08h0c2.51,1.61,4.67,2.61,6.52,2.63,1.19,0,2.52-.5,4.04-1.32,3.19-1.74,7.2-5.04,11.54-9.15,6.51-6.16,13.73-14.14,19.73-21.31,3-3.58,5.69-6.97,7.84-9.82,2.15-2.86,3.74-5.17,4.57-6.68,1.2-2.21,3.49-7.19,6.29-13.68,4.2-9.74,9.54-22.85,14.02-34.91,4.48-12.07,8.09-23.04,8.84-28.66,.63-4.79,1.08-14.23,1.46-25.9,.56-17.49,.94-39.97,1.39-59.02,.23-9.53,.47-18.2,.77-24.96,.15-3.38,.31-6.29,.49-8.58,.18-2.29,.38-3.98,.59-4.86,2.37-10.28,4.25-27.16,9.14-41.74l.03-.1v-1.21l-.96,.52,.31,.57"/><path class="cls-1" d="M109.55,234.76s-5.16,27.11-8.1,89c-1.91,40.21,.15,82.68,1.83,107.48,.14,.09,.27,.18,.41,.27h0c2.39,1.55,4.43,2.42,5.79,2.42h.05c.81,0,1.99-.39,3.4-1.17,.08-.04,.16-.09,.24-.13-1.16-12.07-3.28-37.73-3.62-65.84-.44-38.9,0-132.03,0-132.03"/><path class="cls-7" d="M103.27,431.24c.02,.27,.04,.54,.06,.81,2.46,1.59,4.57,2.52,6.17,2.52,1,0,2.26-.44,3.73-1.25-.02-.23-.05-.46-.07-.7-.08,.05-.16,.09-.24,.13-1.41,.77-2.6,1.17-3.4,1.17h-.05c-1.36,0-3.4-.86-5.79-2.42h0c-.14-.09-.27-.18-.41-.27"/><path class="cls-1" d="M20.53,129.31c1.21,4.92,2.48,13.67,3.74,24.45,1.4,11.97,2.78,26.41,4.03,40.75,2.49,28.67,4.43,56.9,4.82,63.99,.39,7.03,2.16,22.75,4.42,38.55,2.25,15.8,5.01,31.72,7.34,39.09,2.36,7.46,5.89,18.06,9.72,28.26,3.82,10.2,7.95,20.01,11.44,25.83,3.2,5.33,10.72,15.02,18.81,23.91-9.28-15.09-20.06-35.4-24.67-54.42-8.84-36.54-19.45-76.62-21.81-133.21-2.32-55.7,1.5-81.8-2.65-95.59-.07,0-.14,0-.2,0-1.47,0-2.86,.05-4.17,.16h0c-.77,.07-1.53,.1-2.27,.1h-.04c-3.16,0-6-.63-8.51-1.87"/><path class="cls-7" d="M19.76,128.91c5.19,19.82,11.94,115.71,12.72,129.63,.79,14.15,7.07,62.87,11.79,77.81,4.72,14.93,14.15,42.44,21.22,54.23,3.55,5.91,12.23,16.96,21.19,26.51-.6-.95-1.21-1.93-1.82-2.93-8.08-8.89-15.61-18.58-18.81-23.91-3.49-5.82-7.62-15.63-11.44-25.83-3.83-10.2-7.36-20.8-9.72-28.26-2.33-7.37-5.09-23.3-7.34-39.09-2.26-15.8-4.03-31.52-4.42-38.55-.39-7.09-2.33-35.31-4.82-63.99-1.25-14.34-2.63-28.78-4.03-40.75-1.26-10.79-2.53-19.53-3.74-24.45-.26-.13-.52-.26-.77-.4"/><path class="cls-4" d="M212.25,118.64c-3.31,9.46-3.21,21.56-13.69,26.28-2.59,1.18-5.81,1.9-9.89,2.01-20.63,.59-90.77-4.13-105.51-8.25-13.29-3.73-33.79-8.4-47.65-8.42-1.49,0-2.9,.05-4.22,.16-13.56,1.18-21.22-8.25-23.58-27.11C5.36,84.46,.65,70.31,.65,55.57S8.9,19.03,18.33,15.49c2.29-.85,4.19-.98,5.86-.69,5.21,.95,8.09,6.14,13,6.58,3.9,.36,7.35-1.62,11.04-3.9h.01c2.44-1.52,4.98-3.18,7.81-4.36,7.07-2.95,15.91-2.36,25.93-2.36s15.91-1.18,21.22,1.77c5.3,2.95,9.43,7.66,17.09,7.66,.51,0,1-.02,1.49-.06,6.79-.56,11.25-4.81,16.19-7.01,4.45-1.98,12.22-4.78,17.39-7.38,1-.49,1.9-.98,2.65-1.46,4.71-2.95,16.55-4.01,24.76-3.54,10.59,.61,42.44,2.95,44.21,27.7,1.77,24.76-10.61,78.39-14.74,90.18"/><path class="cls-2" d="M212.25,118.64l-.61-.21c-1.68,4.81-2.48,10.2-4.15,14.92-1.68,4.72-4.16,8.71-9.19,10.98h0c-2.49,1.14-5.63,1.85-9.64,1.96-1.18,.03-2.52,.05-4,.05-12.21,0-34.1-1.1-54.66-2.69-10.28-.79-20.23-1.71-28.47-2.67-8.24-.96-14.78-1.97-18.18-2.92-13.33-3.74-33.84-8.42-47.82-8.44h0c-1.5,0-2.93,.05-4.28,.17h0c-.74,.06-1.46,.1-2.15,.1-5.92-.01-10.46-2.25-13.9-6.68-3.43-4.43-5.72-11.13-6.82-19.97C5.99,84.31,1.29,70.16,1.3,55.57c0-7.25,2.04-16.33,5.25-23.99,1.6-3.83,3.5-7.3,5.56-10.02,2.05-2.72,4.27-4.65,6.45-5.47h0c1.51-.56,2.82-.79,4-.79,.53,0,1.04,.05,1.52,.13h0c2.41,.44,4.35,1.88,6.34,3.36,1.98,1.47,4.03,2.98,6.72,3.23h0c.33,.03,.66,.04,.98,.04,3.76,0,7.06-1.95,10.45-4.04l-.34-.55v.65h.2l.16-.1c2.45-1.53,4.95-3.16,7.72-4.31,4.9-2.05,10.77-2.36,17.4-2.36,2.65,0,5.42,.05,8.29,.05,4.48,0,8.12-.23,11.23-.23,3.89,0,6.87,.36,9.68,1.92,2.59,1.43,4.94,3.35,7.65,4.93,2.7,1.58,5.79,2.82,9.76,2.81,.52,0,1.03-.02,1.55-.07l-.06-.65,.05,.65c3.52-.29,6.43-1.54,9.05-2.97,2.62-1.43,4.96-3.03,7.35-4.09,4.42-1.97,12.19-4.77,17.42-7.4h0c1.01-.5,1.93-1,2.71-1.49h0c1.85-1.16,5.09-2.08,8.78-2.67,3.7-.59,7.87-.88,11.69-.88,1.36,0,2.68,.04,3.91,.11,5.28,.3,15.83,1.04,25.21,4.75,4.69,1.85,9.08,4.44,12.39,8.05,3.31,3.62,5.56,8.24,5.99,14.29,.12,1.61,.17,3.36,.17,5.21,0,13.11-2.75,31.58-6,48.11-3.24,16.53-6.97,31.17-8.87,36.6l.61,.21,.61,.21c1.95-5.58,5.67-20.2,8.92-36.78,3.25-16.58,6.02-35.08,6.02-48.36,0-1.88-.05-3.65-.17-5.3-.45-6.33-2.84-11.27-6.33-15.08-5.24-5.71-12.88-8.88-20.19-10.7-7.31-1.82-14.31-2.29-18.3-2.52-1.26-.07-2.6-.11-3.98-.11-3.88,0-8.11,.29-11.89,.89-3.79,.61-7.12,1.52-9.26,2.85h0c-.73,.46-1.61,.94-2.59,1.42h0c-5.12,2.58-12.87,5.38-17.36,7.37-2.55,1.13-4.91,2.75-7.45,4.14-2.55,1.39-5.26,2.55-8.53,2.81h-.01c-.46,.05-.93,.06-1.43,.06-3.7,0-6.51-1.12-9.1-2.64-2.6-1.51-4.96-3.43-7.67-4.94-3.09-1.72-6.36-2.08-10.31-2.08-3.17,0-6.8,.23-11.23,.23-2.86,0-5.62-.05-8.29-.05-6.66,0-12.69,.29-17.9,2.46-2.9,1.21-5.47,2.89-7.9,4.4l.34,.55v-.65h-.2l-.16,.1c-3.38,2.1-6.48,3.85-9.77,3.84-.29,0-.58-.01-.86-.04h0c-2.23-.19-4.07-1.5-6.06-2.98-1.98-1.46-4.08-3.09-6.88-3.6h0c-.56-.1-1.14-.15-1.75-.15-1.34,0-2.81,.26-4.45,.87h0c-2.53,.96-4.89,3.07-7.03,5.9C4.66,29.28,.01,44.35,0,55.57c0,14.88,4.73,29.03,7.08,47.82,1.12,8.97,3.43,15.88,7.08,20.6,3.64,4.72,8.67,7.19,14.93,7.18,.74,0,1.49-.03,2.27-.1,1.3-.11,2.69-.16,4.17-.16,13.72,.01,34.21,4.67,47.47,8.39,3.55,.99,10.11,1.99,18.38,2.96,24.8,2.89,64.88,5.37,83.29,5.37,1.49,0,2.85-.02,4.04-.05,4.14-.12,7.46-.85,10.14-2.07h0c5.45-2.44,8.16-6.86,9.88-11.73,1.72-4.88,2.53-10.27,4.16-14.92l-.61-.21"/><path class="cls-8" d="M22.56,15.31c-1.17,0-2.48,.23-4,.79h0c-2.18,.81-4.4,2.75-6.45,5.47-2.06,2.71-3.95,6.19-5.56,10.02-3.21,7.66-5.26,16.74-5.25,23.99,0,14.59,4.7,28.73,7.07,47.66,1.1,8.84,3.38,15.53,6.82,19.97,3.44,4.43,7.98,6.66,13.9,6.68,.7,0,1.42-.03,2.15-.1h0c1.27-.11,2.61-.16,4.01-.17-2.5-6.15-6.04-16.86-6.61-29.25-.88-19.45-1.47-36.25,1.18-46.86,2.57-10.28,5.7-17.24,5.88-17.67-.66,.15-14.52,3.52-18.26,15.9,0,0,0-21.84,6.47-36.33-.43-.07-.89-.1-1.36-.1"/><path class="cls-6" d="M22.56,14.66c-1.26,0-2.65,.24-4.22,.83C8.9,19.03,.65,40.84,.65,55.57s4.72,28.88,7.07,47.74c2.23,17.81,9.18,27.21,21.36,27.21,.72,0,1.46-.03,2.21-.1,1.33-.11,2.73-.16,4.22-.16-.09-.21-.18-.43-.27-.65-1.41,0-2.74,.06-4.01,.17h0c-.74,.06-1.46,.1-2.15,.1-5.92-.01-10.46-2.25-13.9-6.68-3.43-4.43-5.72-11.13-6.82-19.97C5.99,84.31,1.29,70.16,1.3,55.57c0-7.25,2.04-16.33,5.25-23.99,1.6-3.83,3.5-7.3,5.56-10.02,2.05-2.72,4.27-4.65,6.45-5.47h0c1.51-.56,2.82-.79,4-.79,.47,0,.92,.04,1.36,.1,.09-.21,.18-.41,.28-.61-.52-.09-1.07-.14-1.64-.14"/><path class="cls-8" d="M178.84,1.3c-3.81,0-7.99,.28-11.69,.88-3.7,.59-6.93,1.5-8.78,2.67h0c-.78,.49-1.7,.99-2.71,1.49h0c-5.23,2.63-13,5.43-17.42,7.39-2.4,1.06-4.74,2.66-7.35,4.09-2.62,1.43-5.53,2.68-9.05,2.97h0c-.52,.05-1.03,.07-1.54,.07h-.01c-3.96,0-7.04-1.23-9.75-2.81-2.71-1.58-5.06-3.49-7.65-4.93-2.8-1.56-5.79-1.92-9.68-1.92-3.1,0-6.75,.23-11.23,.23-2.87,0-5.64-.05-8.29-.05h-.08c-6.59,0-12.44,.32-17.32,2.36-2.31,.96-4.44,2.26-6.5,3.55,5.05-.66,20.76-2.64,30.32-2.64,.44,0,.87,0,1.28,.01,11.2,.25,11.49,3.49,28.59,7.02,3.9,.8,7.39,1.15,10.64,1.15,.66,0,1.3-.01,1.94-.04,.77,2.87,1.42,6.12,1.87,9.79,2.32,19.17-10.17,54.37-10.51,55.39,.95-1.05,34.47-38.12,39.39-56.57,1.52-5.71,2.13-11.95,2.21-17.85,13.77-4.39,21.84-5.27,35.81-6.91,.77-.09,1.54-.13,2.3-.13,14.35,0,28.61,15.14,28.05,25.77-.59,11.2-4.42,49.22-9.13,68.67-3.17,13.03-8.44,30.44-13.61,43.07,4.61-2.31,6.94-6.16,8.55-10.68,1.67-4.71,2.48-10.1,4.15-14.92l.61,.21h0l-.61-.21c1.91-5.44,5.64-20.08,8.87-36.6,3.24-16.53,6-35,6-48.11,0-1.85-.05-3.59-.17-5.21-.44-6.05-2.68-10.68-5.99-14.29-3.31-3.61-7.7-6.2-12.39-8.05-9.38-3.71-19.93-4.45-25.21-4.75-1.23-.07-2.55-.11-3.91-.11"/><path class="cls-6" d="M211.64,118.43c-1.68,4.81-2.48,10.2-4.15,14.92-1.61,4.52-3.94,8.37-8.55,10.68-.12,.3-.25,.6-.37,.89,10.48-4.71,10.38-16.81,13.69-26.28l-.61-.21M178.84,.65c-7.69,0-16.81,1.14-20.81,3.65-.75,.48-1.65,.97-2.65,1.46-5.17,2.6-12.93,5.4-17.39,7.38-4.94,2.19-9.4,6.45-16.19,7.01-.49,.05-.98,.06-1.49,.06-7.66,0-11.79-4.72-17.09-7.66-2.95-1.64-6.08-2-9.99-2-3.13,0-6.77,.23-11.23,.23-2.86,0-5.63-.05-8.28-.05-6.64,0-12.6,.3-17.65,2.4-2.83,1.18-5.37,2.83-7.81,4.36,.17-.02,.71-.1,1.55-.21,2.07-1.29,4.2-2.59,6.5-3.55,4.88-2.04,10.73-2.36,17.32-2.36h.08c2.65,0,5.42,.05,8.29,.05,4.48,0,8.12-.23,11.23-.23,3.89,0,6.87,.36,9.68,1.92,2.59,1.43,4.94,3.35,7.65,4.93,2.7,1.58,5.78,2.81,9.75,2.81h.01c.52,0,1.03-.02,1.54-.07h0c3.52-.29,6.43-1.54,9.05-2.97,2.62-1.43,4.96-3.03,7.35-4.09,4.42-1.97,12.19-4.77,17.42-7.4h0c1.01-.5,1.93-1,2.71-1.49h0c1.85-1.16,5.09-2.08,8.78-2.67,3.7-.59,7.87-.88,11.69-.88,1.36,0,2.68,.04,3.91,.11,5.28,.3,15.83,1.04,25.21,4.75,4.69,1.85,9.08,4.44,12.39,8.05,3.31,3.62,5.56,8.24,5.99,14.29,.12,1.61,.17,3.36,.17,5.21,0,13.11-2.75,31.58-6,48.11-3.24,16.53-6.97,31.17-8.87,36.6l.61,.21h0c4.13-11.79,16.5-65.43,14.74-90.18C225.22,3.7,193.38,1.36,182.78,.76c-1.24-.07-2.57-.11-3.94-.11"/></g></svg>