<?xml version="1.0" encoding="UTF-8"?><svg id="Layer_2" xmlns="http://www.w3.org/2000/svg" viewBox="0 0 171.59 476.36"><defs><style>.cls-1{fill:#b5aa77;}.cls-2{fill:#caccb6;}.cls-3{fill:#afa05f;}.cls-4{fill:#f1f4e5;}.cls-5{fill:#c9bd84;}.cls-6{fill:#b5b7a3;}.cls-7{fill:#9d9055;}.cls-8{fill:#d8dbce;}</style></defs><g id="Layer_3"><path class="cls-5" d="M32.78,297.64c5.56-10.97,10.43-25.73,15.28-36.27,2.75-5.96,5.48-10.57,8.33-12.37,8.54-5.4,17.87-5.25,35.52-5.7,0,0,21.13-.45,29.68,8.99,6.41,7.08,13.31,23.26,20.54,42.47,2.42,6.42,4.87,13.16,7.34,20.04,0,0-.9-46.32-1.8-85.89-.9-39.57-3.6-95.33-3.6-110.17s-1.35-20.68-4.5-44.07c-3.15-23.38-2.25-47.67-6.74-63.4-4.5-15.74-17.54-14.84-25.63,6.75-8.09,21.58-41.82,101.18-49.91,121.41-8.1,20.23-15.29,67.45-19.79,95.78-3.97,25.04-6.9,36.74-4.72,62.43"/><path class="cls-3" d="M32.78,297.64l.44,.23c5.58-11.02,10.46-25.79,15.29-36.29,1.37-2.97,2.73-5.59,4.09-7.68,1.36-2.09,2.73-3.64,4.05-4.47,4.2-2.65,8.58-3.94,14.14-4.63,5.56-.69,12.3-.77,21.13-.99,0,0,.15,0,.44,0,1.54,0,6.87,.09,12.76,1.26,5.89,1.16,12.33,3.4,16.09,7.58,3.14,3.47,6.46,9.25,9.88,16.56,3.42,7.31,6.95,16.15,10.56,25.75,2.42,6.42,4.87,13.16,7.34,20.03l1.03,2.86-.06-3.04s-.9-46.32-1.8-85.89c-.9-39.58-3.6-95.35-3.6-110.16,0-14.88-1.36-20.77-4.5-44.13-1.57-11.66-2.13-23.57-2.86-34.53-.73-10.97-1.63-21-3.9-28.94-1.03-3.58-2.49-6.35-4.28-8.24C127.25,1,125.11,0,122.84,0c-2.79,0-5.71,1.5-8.47,4.45-2.76,2.96-5.39,7.39-7.64,13.39-8.08,21.56-41.81,101.16-49.91,121.4-4.07,10.19-7.89,27.06-11.27,44.95-3.37,17.89-6.3,36.78-8.55,50.94-3.04,19.14-5.47,30.52-5.47,46.35,0,4.87,.23,10.15,.74,16.2l.15,1.75,.8-1.57-.44-.23,.5-.04c-.51-6.03-.74-11.28-.74-16.12,0-15.71,2.42-27.02,5.46-46.19,2.25-14.17,5.17-33.05,8.54-50.91,3.37-17.86,7.19-34.71,11.22-44.76,8.09-20.23,41.81-99.81,49.92-121.42,2.21-5.91,4.8-10.23,7.44-13.06,2.64-2.83,5.32-4.14,7.74-4.14,1.97,0,3.82,.85,5.46,2.58,1.64,1.73,3.05,4.35,4.04,7.83,2.23,7.8,3.13,17.78,3.86,28.73,.73,10.95,1.29,22.88,2.87,34.6,3.15,23.4,4.49,29.2,4.49,44,0,14.87,2.7,70.61,3.6,110.18,.45,19.78,.9,41.26,1.24,57.78,.17,8.26,.31,15.29,.41,20.25,.05,2.48,.09,4.44,.11,5.79,.03,1.34,.04,2.06,.04,2.07h.5l.47-.18c-2.47-6.87-4.92-13.62-7.35-20.04-3.61-9.61-7.15-18.47-10.59-25.82-3.44-7.35-6.78-13.19-10.04-16.81-4.04-4.45-10.65-6.7-16.64-7.89-5.99-1.18-11.37-1.27-12.95-1.27-.3,0-.46,0-.47,0-8.82,.23-15.58,.3-21.23,1-5.65,.7-10.21,2.03-14.55,4.78-1.52,.97-2.95,2.62-4.35,4.77-1.4,2.15-2.78,4.81-4.16,7.81-4.86,10.58-9.74,25.34-15.27,36.26l.45,.23,.5-.04-.5,.04"/><path class="cls-1" d="M122.84,1c-2.42,0-5.09,1.31-7.74,4.14-2.64,2.82-5.22,7.15-7.44,13.06-8.1,21.61-41.83,101.19-49.92,121.42-4.02,10.05-7.85,26.9-11.22,44.76-3.37,17.86-6.29,36.74-8.54,50.91-3.04,19.17-5.46,30.48-5.46,46.19,0,4.35,.19,9.03,.59,14.32,5.21-10.72,9.84-24.58,14.47-34.65,.07-.16,.15-.32,.22-.48-7.51-22.53-1.3-40.1,1.82-64.14,3.15-24.28,12.14-53.06,20.24-69.7,8.09-16.64,19.78-55.76,31.48-84.09,11.23-27.22,15.41-32.85,21.3-32.85,.24,0,.48,0,.73,.03,6.3,.45,10.94,75.99,10.94,96.98s5.4,63.55,7.19,112.72c.96,26.48,.89,54,.62,73.77,.81,2.13,1.61,4.3,2.43,6.5,1.44,3.88,2.88,7.86,4.34,11.89-.02-1.26-.06-2.88-.1-4.82-.1-4.96-.24-11.99-.41-20.25-.34-16.53-.79-38-1.24-57.78-.9-39.57-3.6-95.31-3.6-110.18,0-14.8-1.34-20.6-4.49-44-1.58-11.72-2.14-23.65-2.87-34.6-.73-10.95-1.63-20.93-3.86-28.73-.99-3.47-2.4-6.1-4.04-7.83-1.65-1.73-3.5-2.58-5.46-2.58"/><path class="cls-7" d="M122.85,.5c-5.21,0-11.18,5.61-15.64,17.52-8.09,21.58-41.82,101.18-49.91,121.41-8.1,20.23-15.29,67.45-19.79,95.78-3.92,24.73-6.82,36.44-4.8,61.47,4.31-8.67,8.22-19.59,12.06-28.9,1.02-2.51,2.05-4.9,3.07-7.1h0c-.07,.15-.15,.31-.22,.47-4.63,10.07-9.26,23.92-14.47,34.65-.41-5.29-.59-9.97-.59-14.32,0-15.71,2.42-27.02,5.46-46.19,2.25-14.17,5.17-33.05,8.54-50.91,3.37-17.86,7.19-34.71,11.22-44.76,8.09-20.23,41.81-99.81,49.92-121.42,2.21-5.91,4.8-10.23,7.44-13.06,2.64-2.83,5.32-4.14,7.74-4.14,1.97,0,3.82,.85,5.46,2.58,1.64,1.73,3.05,4.35,4.04,7.83,2.23,7.8,3.13,17.78,3.86,28.73,.73,10.95,1.29,22.88,2.87,34.6,3.15,23.4,4.49,29.2,4.49,44,0,14.87,2.7,70.61,3.6,110.18,.45,19.78,.9,41.26,1.24,57.78,.17,8.26,.31,15.29,.41,20.25,.04,1.94,.07,3.56,.1,4.82-1.45-4.03-2.9-8.01-4.34-11.89,1.61,4.35,3.23,8.83,4.87,13.36-.16-8.38-.97-49.04-1.77-84.33-.9-39.57-3.6-95.33-3.6-110.17s-1.35-20.68-4.5-44.07c-3.15-23.38-2.25-47.67-6.74-63.4-2.02-7.06-5.75-10.77-9.99-10.77"/><path class="cls-4" d="M7.38,456.89c10.79,18.44,47.21,19.34,78.24,18.89,31.03-.45,52.16-4.5,60.71-8.54,8.54-4.05,25.63-13.04,24.73-58.91-.9-45.87-11.69-66.1-21.58-93.53-5.56-15.41-10.98-30.25-16.18-41.98-4.05-9.14-7.96-16.39-11.7-20.52-8.54-9.44-29.68-8.99-29.68-8.99-17.65,.45-26.98,.3-35.52,5.7-3.83,2.42-7.47,9.93-11.17,18.97-4.16,10.08-8.41,22.08-13.18,31.09-9.07,17.09-22.42,64.3-26.92,86.34-4.5,22.03-8.54,53.06,2.25,71.5"/><path class="cls-2" d="M7.38,456.89l-.43,.25c2.48,4.23,6.26,7.54,10.97,10.13,14.12,7.74,36.56,9.08,57.98,9.09,3.28,0,6.53-.03,9.73-.08,15.53-.23,28.6-1.35,38.85-2.93,10.26-1.58,17.71-3.6,22.06-5.66,4.18-1.98,10.5-5.19,15.71-13.31,5.22-8.12,9.34-21.11,9.34-42.61,0-1.12-.01-2.27-.03-3.44-.89-45.94-11.74-66.31-21.61-93.69-5.56-15.42-10.98-30.26-16.19-42.01-4.06-9.16-7.97-16.44-11.79-20.66-4.04-4.45-10.65-6.7-16.64-7.89-5.99-1.18-11.37-1.27-12.95-1.27-.3,0-.46,0-.47,0-8.82,.23-15.58,.3-21.23,1-5.65,.7-10.21,2.03-14.55,4.78-2.05,1.3-3.93,3.84-5.8,7.18-1.87,3.34-3.71,7.49-5.56,12.03-4.16,10.09-8.41,22.09-13.16,31.04-4.57,8.61-10.17,24.69-15.21,41.4-5.04,16.71-9.5,34.03-11.76,45.07C2.26,396.96,0,411.15,0,424.69c0,12.07,1.79,23.64,6.95,32.45l.43-.25,.43-.25c-5.02-8.57-6.81-19.97-6.81-31.95,0-13.43,2.24-27.56,4.62-39.2,2.24-10.99,6.7-28.3,11.73-44.98,5.03-16.68,10.64-32.75,15.14-41.22,4.8-9.06,9.04-21.07,13.2-31.13,1.84-4.52,3.67-8.64,5.51-11.92,1.83-3.28,3.68-5.71,5.47-6.83,4.2-2.65,8.58-3.94,14.14-4.63,5.56-.69,12.3-.77,21.13-.99,0,0,.15,0,.44,0,1.54,0,6.87,.09,12.76,1.26,5.89,1.16,12.33,3.4,16.09,7.58,3.68,4.05,7.58,11.27,11.62,20.39,5.19,11.7,10.6,26.54,16.16,41.95,9.91,27.48,20.65,47.58,21.55,93.37,.02,1.17,.03,2.31,.03,3.42,0,21.38-4.1,34.16-9.18,42.07-5.09,7.91-11.15,10.98-15.3,12.95-4.19,1.99-11.58,4.01-21.78,5.58-10.2,1.57-23.22,2.69-38.71,2.92-3.19,.05-6.44,.08-9.71,.08-14.25,0-28.94-.61-41.23-3.27-6.14-1.33-11.69-3.17-16.28-5.69-4.59-2.52-8.22-5.71-10.59-9.75l-.43,.25"/><path class="cls-8" d="M45.01,269.81c-3.94,9.71-7.99,20.92-12.53,29.49-4.5,8.47-10.11,24.55-15.14,41.22-5.03,16.68-9.49,33.99-11.73,44.98-2.37,11.63-4.62,25.76-4.62,39.2,0,11.98,1.79,23.38,6.81,31.95l-.43,.25h0l.43-.25c2.36,4.04,6,7.23,10.59,9.75,4.59,2.52,10.13,4.36,16.28,5.69,12.29,2.66,26.97,3.27,41.23,3.27,3.27,0,6.52-.03,9.71-.08,15.49-.22,28.51-1.35,38.71-2.92,10.2-1.57,17.59-3.59,21.78-5.58,4.15-1.97,10.21-5.04,15.3-12.95,5.08-7.91,9.18-20.69,9.18-42.07,0-1.12-.01-2.26-.03-3.42-.9-45.79-11.65-65.89-21.55-93.37-5.31-14.73-10.5-28.93-15.47-40.38,.54,3.87,1.44,8.8,2.9,15.03,5.4,22.93,17.54,47.35,22.03,63.24,4.5,15.9,9.44,28.94,7.95,55.02-1.5,26.08-.9,39.87-11.09,48.26-10.19,8.39-20.38,11.39-38.37,12.29-11.32,.57-34.98,2.08-54.56,2.08-11.53,0-21.65-.53-26.98-2.08-14.39-4.2-25.18-6.6-28.78-19.49-3.6-12.89-3.3-42.87,2.4-60.55,5.7-17.69,7.19-32.68,15.59-54.26,7.06-18.17,17.74-43.11,20.4-64.33"/><path class="cls-6" d="M133.3,272.82c.07,.56,.15,1.15,.23,1.77,4.98,11.45,10.16,25.65,15.47,40.38,9.91,27.48,20.65,47.58,21.55,93.37,.02,1.17,.03,2.31,.03,3.42,0,21.38-4.1,34.16-9.18,42.07-5.09,7.91-11.15,10.98-15.3,12.95-4.19,1.99-11.58,4.01-21.78,5.58-10.2,1.57-23.22,2.69-38.71,2.92-3.19,.05-6.44,.08-9.71,.08-14.25,0-28.94-.61-41.23-3.27-6.14-1.33-11.69-3.17-16.28-5.69-4.59-2.52-8.22-5.71-10.59-9.75l-.43,.25c9.68,16.54,39.99,18.96,68.53,18.96,3.27,0,6.52-.03,9.71-.08,31.03-.45,52.16-4.5,60.71-8.54,8.54-4.05,25.63-13.04,24.73-58.91-.9-45.87-11.69-66.1-21.58-93.53-5.56-15.41-10.98-30.25-16.18-41.98m-88.07-4.85c-4.16,10.08-8.41,22.08-13.18,31.09-9.07,17.09-22.42,64.3-26.92,86.34-4.5,22.03-8.54,53.06,2.25,71.5h0l.43-.25c-5.02-8.57-6.81-19.97-6.81-31.95,0-13.43,2.24-27.56,4.62-39.2,2.24-10.99,6.7-28.3,11.73-44.98,5.03-16.68,10.64-32.75,15.14-41.22,4.54-8.57,8.58-19.78,12.53-29.49,.08-.62,.15-1.23,.21-1.84"/></g></svg>