<?xml version="1.0" encoding="UTF-8"?><svg id="Layer_2" xmlns="http://www.w3.org/2000/svg" viewBox="0 0 133.97 463.9"><defs><style>.cls-1{fill:#b5aa77;}.cls-2{fill:#caccb6;}.cls-3{fill:#afa05f;}.cls-4{fill:#f1f4e5;}.cls-5{fill:#c9bd84;}.cls-6{fill:#b5b7a3;}.cls-7{fill:#9d9055;}.cls-8{fill:#d8dbce;}</style></defs><g id="Layer_3"><path class="cls-5" d="M32.51,286.66c2.41-6.81,4.32-12.15,5.31-15.43,.47-1.59,1-3.2,1.64-4.8h0c3.88-9.76,11.68-19.01,35.24-18.59,10.89,.2,16.94,1.87,23.38,8.32,1.72,1.72,3.8,5.35,5.95,9.94,4.96,10.62,10.26,26.47,12.34,36.3-.3-19.94-4.8-108.97-4.35-133.7,.45-24.73-1.89-55.27-.04-77.34,.91-10.78,1.02-30.65-1.64-41.89-2.65-11.24-6.79-21.57-7.77-27.95-1.3-8.53-3.82-19.41-8.09-20.83-.74-.25-1.6-.26-2.54,.04-3.03,.97-6.72,5.32-8.56,16-2.4,13.94-4.87,31.93-8.92,42.49-.85,2.21-1.84,4.92-2.94,7.99h0c-4.15,11.64-9.85,28.39-15.43,42.14-4.79,11.84-7.19,28.63-9.29,52.46-1.39,15.69-19.92,91.71-14.3,124.85"/><path class="cls-3" d="M32.51,286.66l.47,.17c2.41-6.81,4.32-12.15,5.32-15.45,.47-1.58,.99-3.18,1.62-4.76l.04-.09v-.11h-.5l.46,.18c1.88-4.71,4.65-9.25,9.7-12.64,5.05-3.38,12.41-5.64,23.53-5.64,.5,0,1.02,0,1.54,.01,5.42,.1,9.61,.57,13.21,1.79,3.6,1.22,6.65,3.2,9.83,6.38,1.63,1.62,3.71,5.23,5.85,9.8,4.94,10.57,10.23,26.42,12.3,36.19l.99-.11c-.29-19.01-4.38-100.67-4.38-129.74,0-1.45,0-2.77,.03-3.94,.04-2.26,.06-4.56,.06-6.9,0-15.86-.82-33.42-.82-49.33,0-7.52,.18-14.67,.72-21.09,.35-4.18,.59-9.71,.59-15.58,0-9.33-.59-19.49-2.23-26.47-2.66-11.28-6.81-21.64-7.76-27.91-.65-4.28-1.61-9.15-2.95-13.17-.67-2.01-1.44-3.8-2.33-5.2-.89-1.4-1.91-2.44-3.15-2.86h0c-.41-.14-.86-.21-1.33-.21s-1,.08-1.52,.25c-1.67,.54-3.43,1.97-5,4.58-1.57,2.62-2.97,6.43-3.89,11.81-2.4,13.95-4.88,31.93-8.89,42.4-.85,2.22-1.84,4.93-2.94,8l-.03,.08v.1h.5l-.47-.17c-4.15,11.63-9.85,28.38-15.42,42.11-4.83,11.94-7.23,28.76-9.33,52.61-.3,3.36-1.41,9.62-2.9,17.66-4.49,24.14-12.46,64.38-12.46,92.23,0,5.6,.32,10.7,1.07,15.08l.32,1.9,.64-1.82-.47-.17,.49-.08c-.73-4.3-1.05-9.36-1.05-14.92,0-18.45,3.53-42.49,7.22-63.61,1.84-10.56,3.73-20.39,5.22-28.44,1.5-8.05,2.61-14.3,2.92-17.76,2.09-23.82,4.5-40.58,9.26-52.32,5.58-13.77,11.29-30.53,15.43-42.15l.03-.08v-.1h-.5l.47,.17c1.1-3.07,2.08-5.78,2.93-7.98,4.08-10.67,6.55-28.66,8.95-42.59,.91-5.3,2.28-9,3.76-11.47,1.49-2.47,3.09-3.71,4.45-4.14,.43-.14,.84-.2,1.22-.2s.7,.06,1,.16h0c.9,.29,1.8,1.15,2.62,2.45,1.24,1.95,2.29,4.86,3.14,8.07,.85,3.21,1.51,6.73,1.99,9.91,1,6.49,5.14,16.79,7.78,27.99,1.62,6.82,2.21,16.96,2.21,26.24,0,5.84-.23,11.35-.58,15.5-.54,6.46-.72,13.64-.72,21.17,0,15.94,.82,33.5,.82,49.33,0,2.33-.02,4.63-.06,6.88-.02,1.18-.03,2.51-.03,3.96,0,29.12,4.09,110.79,4.38,129.75h.5l.49-.11c-2.1-9.89-7.4-25.74-12.38-36.41-2.16-4.62-4.23-8.26-6.05-10.09-3.26-3.26-6.46-5.35-10.22-6.62-3.76-1.27-8.04-1.74-13.51-1.84-.53,0-1.04-.01-1.55-.01-11.24,0-18.83,2.28-24.08,5.81-5.26,3.53-8.15,8.28-10.07,13.1l-.04,.09v.11h.5l-.46-.19c-.65,1.62-1.17,3.24-1.65,4.84-.98,3.25-2.89,8.6-5.3,15.4l.47,.17,.49-.08-.49,.08"/><path class="cls-1" d="M93.31,1c-.31,0-.63,.04-.98,.13,5.42,5.85,6.16,17.05,6.34,23.69,.3,10.49,10.42,19.77,9.29,35.08-1.12,15.3-4.8,38.97-4.2,59.36,.6,20.39-.6,65.35,0,99.53,.26,14.29,.3,31.26,.25,46.17,.42,.87,.84,1.79,1.26,2.74,4.01,8.97,8.1,20.89,10.47,30-.72-25.15-4.27-97.89-4.27-125.02,0-1.46,0-2.78,.03-3.96,.04-2.25,.06-4.54,.06-6.88,0-15.83-.82-33.39-.82-49.33,0-7.54,.18-14.71,.72-21.17,.35-4.15,.58-9.66,.58-15.5,0-9.28-.59-19.42-2.21-26.24-2.64-11.2-6.78-21.5-7.78-27.99-.48-3.19-1.14-6.7-1.99-9.91-.85-3.21-1.9-6.12-3.14-8.07-.82-1.31-1.72-2.16-2.62-2.45h0c-.31-.1-.64-.16-1-.16"/><path class="cls-7" d="M93.31,.5c-.43,0-.89,.07-1.37,.23,.13,.13,.26,.27,.39,.41,.34-.09,.67-.13,.98-.13,.36,0,.7,.06,1,.16h0c.9,.29,1.8,1.15,2.62,2.45,1.24,1.95,2.29,4.86,3.14,8.07,.85,3.21,1.51,6.73,1.99,9.91,1,6.49,5.14,16.79,7.78,27.99,1.62,6.82,2.21,16.96,2.21,26.24,0,5.84-.23,11.35-.58,15.5-.54,6.46-.72,13.64-.72,21.17,0,15.94,.82,33.5,.82,49.33,0,2.33-.02,4.63-.06,6.88-.02,1.18-.03,2.51-.03,3.96,0,27.13,3.55,99.87,4.27,125.02-2.36-9.12-6.46-21.03-10.47-30,1.14,2.57,2.3,5.37,3.41,8.29,3.12,8.13,5.96,17.09,7.61,23.96-.58-23.93-4.73-107.4-4.3-131.22,.45-24.73-1.89-55.27-.04-77.34,.91-10.78,1.02-30.65-1.64-41.89-2.65-11.24-6.79-21.57-7.77-27.95-1.3-8.53-3.82-19.41-8.09-20.83-.36-.12-.75-.19-1.16-.19"/><path class="cls-1" d="M71.22,69.58c-4.07,11.47-9.42,27.03-14.66,39.96-4.76,11.74-7.16,28.5-9.26,52.32-.31,3.45-1.42,9.71-2.92,17.76-1.5,8.05-3.38,17.88-5.22,28.44-3.69,21.12-7.22,45.16-7.22,63.61,0,4.74,.23,9.1,.75,12.95,.74-2.08,1.42-4.01,2.04-5.76,1.1-3.14,1.98-5.72,2.56-7.61,.02-.05,.03-.1,.04-.15l.03-.11c.46-1.53,.97-3.08,1.58-4.63h0l.04-.1c.15-.37,.3-.73,.46-1.1-.05-9.97,.18-21.05,1.02-31.23,2.3-27.88,7.69-61.04,10.39-82.45,2.7-21.42,3.15-32.66,12.14-49.3,3.98-7.37,6.58-20.37,8.22-32.58"/><path class="cls-7" d="M37.29,271.24c-.58,1.89-1.45,4.47-2.56,7.61,1.1-3.14,1.98-5.72,2.56-7.61m2.15-6.1c-.16,.37-.31,.73-.46,1.1l-.04,.09h0c-.61,1.56-1.12,3.12-1.58,4.65,.58-1.92,1.24-3.88,2.07-5.82v-.02M71.53,67.23c-4.15,11.63-9.85,28.38-15.43,42.13-4.79,11.84-7.19,28.63-9.29,52.46-1.37,15.53-19.54,90.15-14.47,123.81,.12-.34,.24-.68,.36-1.01-.52-3.85-.75-8.21-.75-12.95,0-18.45,3.53-42.49,7.22-63.61,1.84-10.56,3.73-20.39,5.22-28.44,1.5-8.05,2.61-14.3,2.92-17.76,2.09-23.82,4.5-40.58,9.26-52.32,5.24-12.93,10.59-28.49,14.66-39.96,.11-.79,.21-1.58,.31-2.36"/><path class="cls-4" d="M1.84,437.17c2.52,6.95,4.98,11.23,7.57,14.1h.01c2.92,3.26,6.01,4.7,9.51,6.13,6.6,2.7,26.68,6,42.57,6,15.01,0,42.87-1.07,54.23-8.52,.67-.44,1.27-.9,1.82-1.37,9.89-8.69,11.87-14.96,13.19-19.49,.94-3.17,5.81-48.58-.3-75.02-6.82-29.53-11.09-42.49-14.09-56.58-3-14.09-12.58-40.53-18.29-46.24-3.07-3.07-6.06-5.06-9.52-6.32-3.8-1.39-8.17-1.9-13.86-2-21.68-.4-30.01,7.42-34.23,16.26-1.11,2.35-1.94,4.76-2.65,7.12-2.89,9.63-13.94,37.32-21.58,67S-3.56,422.33,1.84,437.17"/><path class="cls-2" d="M1.84,437.17l-.47,.17c2.54,6.98,5.02,11.32,7.67,14.27h0l.02,.03,.35-.35-.37,.33c2.99,3.33,6.18,4.81,9.69,6.25,3.38,1.38,10.06,2.87,17.92,4.04,7.85,1.17,16.86,1.99,24.84,1.99,7.52,0,18.25-.27,28.54-1.47,10.3-1.21,20.14-3.32,25.97-7.13h0c.7-.45,1.31-.93,1.88-1.41h0c4.98-4.38,7.98-8.16,9.91-11.43,1.93-3.27,2.77-6.03,3.43-8.29,.09-.3,.18-.81,.3-1.56,.81-5.22,2.45-21.69,2.45-39.34,0-11.97-.75-24.46-3.04-34.37-6.82-29.54-11.1-42.52-14.09-56.58-1.51-7.09-4.66-17.23-8.15-26.34-1.75-4.55-3.58-8.85-5.34-12.37-1.76-3.53-3.43-6.27-4.94-7.78-3.11-3.11-6.17-5.15-9.7-6.44-3.88-1.42-8.31-1.93-14.03-2.03-.54-.01-1.06-.02-1.58-.02-10.32,0-17.55,1.92-22.73,4.97-5.18,3.05-8.29,7.22-10.37,11.59-1.13,2.38-1.96,4.82-2.67,7.19-1.43,4.78-4.92,14.12-9,25.96-4.08,11.84-8.76,26.2-12.59,41.06-3.16,12.29-7.1,28.81-10.24,45.01C2.36,399.33,0,415.22,0,426.28c0,4.62,.4,8.4,1.37,11.06l.47-.17,.47-.17c-.9-2.46-1.31-6.16-1.31-10.71,0-10.93,2.34-26.79,5.48-42.96,3.14-16.18,7.07-32.68,10.23-44.95,3.82-14.82,8.49-29.15,12.57-40.98,4.08-11.83,7.56-21.15,9.01-26,.71-2.35,1.53-4.73,2.62-7.05,2.03-4.25,4.99-8.22,9.97-11.16,4.99-2.93,12.03-4.83,22.22-4.84,.51,0,1.04,0,1.57,.02,5.67,.1,9.99,.61,13.7,1.97,3.39,1.24,6.3,3.17,9.34,6.2,1.35,1.34,3.02,4.04,4.75,7.52,5.22,10.45,11.17,27.96,13.4,38.47,3.01,14.13,7.28,27.08,14.09,56.59,2.26,9.78,3.01,22.22,3.01,34.15,0,10.05-.53,19.73-1.14,27.14-.3,3.71-.63,6.85-.91,9.18-.14,1.17-.27,2.13-.39,2.86-.11,.73-.21,1.24-.27,1.43-.66,2.26-1.47,4.9-3.33,8.07-1.86,3.17-4.79,6.87-9.71,11.19h0c-.53,.46-1.12,.91-1.77,1.33h0c-5.54,3.64-15.31,5.78-25.53,6.97-10.23,1.2-20.93,1.47-28.43,1.46-7.91,0-16.89-.82-24.7-1.98-7.81-1.16-14.47-2.66-17.68-3.98-3.49-1.44-6.47-2.83-9.32-5.99h0l-.02-.03-.35,.35,.37-.33c-2.52-2.8-4.96-7.03-7.47-13.94l-.47,.17"/><path class="cls-8" d="M89.33,250.7c6.13,6.77,10.24,15.33,13.23,21.17,5.39,10.52,7.19,30.85,10.79,45.69,3.6,14.84,7.64,32.38,14.39,47.78,6.75,15.39,5.53,38.6,0,61.04-2.84,11.52-7.5,20.98-11.37,27.44,.3-.23,.58-.46,.85-.69h0c4.91-4.32,7.84-8.01,9.71-11.18,1.86-3.17,2.67-5.81,3.33-8.07,.06-.2,.16-.7,.27-1.43,.11-.73,.25-1.7,.39-2.86,.28-2.33,.6-5.47,.91-9.18,.61-7.41,1.14-17.09,1.14-27.14,0-11.92-.75-24.37-3.01-34.15-6.82-29.51-11.08-42.47-14.09-56.59-2.23-10.51-8.19-28.02-13.4-38.47-1.73-3.48-3.4-6.18-4.75-7.52-2.75-2.75-5.39-4.59-8.38-5.83"/><path class="cls-6" d="M88.55,249.85c.26,.28,.52,.56,.78,.84,2.99,1.24,5.63,3.09,8.38,5.83,1.35,1.34,3.02,4.04,4.75,7.52,5.22,10.45,11.17,27.96,13.4,38.47,3.01,14.13,7.28,27.08,14.09,56.59,2.26,9.78,3.01,22.22,3.01,34.15,0,10.05-.53,19.73-1.14,27.14-.3,3.71-.63,6.85-.91,9.18-.14,1.17-.27,2.13-.39,2.86-.11,.73-.21,1.24-.27,1.43-.66,2.26-1.47,4.9-3.33,8.07-1.86,3.17-4.79,6.87-9.71,11.19h0c-.27,.23-.55,.46-.85,.69-.22,.36-.43,.72-.65,1.06,.67-.44,1.27-.9,1.82-1.37,9.89-8.69,11.87-14.96,13.19-19.49,.94-3.17,5.81-48.58-.3-75.02-6.82-29.53-11.09-42.49-14.09-56.58-3-14.09-12.58-40.53-18.29-46.24-3.07-3.07-6.06-5.06-9.52-6.32"/><path class="cls-8" d="M40.18,265.99c-.74,1.79-1.35,3.6-1.89,5.39-1.45,4.85-4.94,14.17-9.01,26-4.08,11.83-8.75,26.16-12.57,40.98-3.16,12.27-7.09,28.77-10.23,44.95-3.14,16.18-5.49,32.03-5.48,42.96,0,4.56,.41,8.26,1.31,10.71l-.47,.17h0l.47-.17c2.27,6.26,4.49,10.31,6.76,13.1-3.1-10.84-5.26-25.02-4.08-35.87,2.25-20.69,14.39-71.5,22.03-87.69,4.99-10.55,10.16-40.78,13.16-60.56"/><path class="cls-6" d="M2.31,437l-.47,.17c2.52,6.95,4.98,11.23,7.57,14.1-.12-.38-.23-.77-.34-1.17-2.27-2.79-4.49-6.85-6.76-13.1m38.15-172.88c-1.11,2.35-1.94,4.76-2.65,7.12-2.89,9.63-13.94,37.32-21.58,67S-3.56,422.33,1.84,437.17h0l.47-.17c-.9-2.46-1.31-6.16-1.31-10.71,0-10.93,2.34-26.79,5.48-42.96,3.14-16.18,7.07-32.68,10.23-44.95,3.82-14.82,8.49-29.15,12.57-40.98,4.08-11.83,7.56-21.15,9.01-26,.54-1.79,1.14-3.61,1.89-5.39,.1-.63,.19-1.26,.28-1.87"/></g></svg>