<?xml version="1.0" encoding="UTF-8"?><svg id="Layer_2" xmlns="http://www.w3.org/2000/svg" viewBox="0 0 160.37 506.37"><defs><style>.cls-1{fill:#b5aa77;}.cls-2{fill:#caccb6;}.cls-3{fill:#afa05f;}.cls-4{fill:#f1f4e5;}.cls-5{fill:#c9bd84;}.cls-6{fill:#b5b7a3;}.cls-7{fill:#9d9055;}.cls-8{fill:#d8dbce;}</style></defs><g id="Layer_3"><path class="cls-5" d="M30.2,319.38c.33-1.11,.66-2.31,1.02-3.62,2.19-7.94,5.56-15.93,10.48-22.55,7.2-9.71,17.71-16.49,32.69-15.95,20.16,.72,33.99,3.46,41.44,13.75,1.87,2.56,3.35,5.6,4.42,9.18,2.01,6.72,3.85,13.13,5.7,19.19,.05-1.16,2.97-76.24,0-127.56-3-51.71-19.64-104.77-27.28-134-5.26-20.12-4.45-29.7-4.38-37.23,.02-3.41-.1-6.4-1.01-9.76-2.92-10.79-12.59-20.91-23.38,12.59-10.79,33.5-8.09,24.96-11.99,41.74-1.52,6.57-3.1,13.78-4.56,21.63v.04c-2.26,12.2-4.23,25.97-5.33,41.28,0,0-6,57.41-7.79,81.24-1.8,23.83-11.49,91.88-10.02,110.02"/><path class="cls-3" d="M30.2,319.38l.48,.14c.33-1.12,.66-2.32,1.03-3.63,2.17-7.9,5.53-15.83,10.4-22.38,6.87-9.25,16.7-15.77,30.64-15.78,.54,0,1.08,0,1.63,.03,10.06,.36,18.52,1.23,25.36,3.27,6.84,2.04,12.04,5.24,15.7,10.28h0c1.84,2.51,3.28,5.49,4.35,9.03,2.01,6.72,3.85,13.12,5.7,19.19l.85,2.8,.12-2.93c.03-.78,1.33-34.13,1.33-71.49,0-18.91-.33-38.86-1.33-56.12-3-51.79-19.66-104.89-27.3-134.1-3.9-14.94-4.45-24.02-4.45-30.79,0-2.33,.07-4.38,.08-6.32,0-.24,0-.49,0-.72,0-3.13-.17-5.99-1.03-9.17-.72-2.67-1.85-5.3-3.33-7.3-.74-1-1.57-1.84-2.5-2.44C87.02,.36,85.99,0,84.89,0c-1.16,0-2.38,.4-3.61,1.25-1.85,1.27-3.76,3.54-5.74,7.11-1.98,3.56-4.03,8.43-6.12,14.91-5.4,16.75-7.42,22.99-8.59,27.16-1.17,4.18-1.47,6.24-3.42,14.63-1.53,6.58-3.1,13.79-4.56,21.66v.13h.49l-.49-.09c-2.26,12.22-4.24,26-5.34,41.34l.5,.04-.5-.05s-6,57.41-7.8,81.26c-.83,11.06-3.38,31.7-5.71,52.43-2.33,20.74-4.46,41.57-4.46,53.1,0,1.74,.05,3.27,.15,4.57l.22,2.69,.76-2.59-.48-.14,.5-.04c-.1-1.25-.15-2.76-.15-4.48,0-11.42,2.12-32.26,4.45-52.99,2.33-20.73,4.88-41.37,5.71-52.47,.9-11.91,2.85-32.22,4.57-49.55,.86-8.66,1.67-16.59,2.26-22.34,.29-2.88,.54-5.21,.7-6.83,.17-1.62,.26-2.51,.26-2.51h0v-.02c1.1-15.29,3.07-29.04,5.33-41.23v-.13h-.49l.49,.09c1.46-7.85,3.03-15.05,4.55-21.61,1.95-8.4,2.25-10.46,3.4-14.58,1.16-4.13,3.18-10.37,8.58-27.12,2.76-8.58,5.45-14.28,7.94-17.78,1.24-1.75,2.43-2.96,3.53-3.72,1.1-.76,2.11-1.07,3.05-1.07,.88,0,1.71,.28,2.51,.8,1.19,.77,2.29,2.09,3.21,3.71,.92,1.62,1.66,3.52,2.19,5.45,.83,3.06,1,5.81,1,8.91,0,.24,0,.47,0,.72-.02,1.92-.08,3.98-.08,6.33,0,6.83,.56,16.03,4.48,31.04,7.65,29.25,24.27,82.27,27.26,133.9,1,17.23,1.33,37.16,1.33,56.06,0,37.33-1.3,70.68-1.33,71.44l.5,.02,.48-.15c-1.85-6.05-3.68-12.46-5.7-19.18-1.09-3.63-2.58-6.72-4.5-9.33h0c-3.8-5.25-9.24-8.57-16.22-10.65-6.98-2.08-15.51-2.94-25.61-3.31-.56-.02-1.12-.03-1.67-.03-14.27,0-24.45,6.74-31.44,16.18-4.97,6.69-8.36,14.72-10.56,22.71-.36,1.31-.7,2.51-1.02,3.62l.48,.14,.5-.04-.5,.04"/><path class="cls-1" d="M53.12,90.89c-1.96,11.18-3.63,23.6-4.61,37.26h0v.02s-.09,.9-.26,2.51c-.17,1.62-.41,3.95-.7,6.83-.59,5.75-1.4,13.67-2.26,22.34-1.72,17.33-3.67,37.64-4.57,49.55-.84,11.1-3.38,31.74-5.71,52.47-2.33,20.73-4.46,41.57-4.45,52.99,0,.49,0,.97,.01,1.43,.06-.22,.12-.44,.18-.66l.05-.18c.47-1.71,1-3.42,1.59-5.12,1.33-3.86,2.97-7.66,4.95-11.23l.04-.08h0c1.31-2.37,2.77-4.63,4.39-6.75,1.31-17.69,3.04-43.53,4.28-70.92,1.51-33.23,4.96-92.13,7.07-130.46"/><path class="cls-7" d="M37.33,299.1c-1.98,3.57-3.62,7.37-4.95,11.23,.72-2.07,1.52-4.11,2.41-6.12l.04-.08h.01c.76-1.72,1.59-3.4,2.5-5.03m.05-.09h0m15.97-212.18c-2.26,12.2-4.23,25.97-5.33,41.28,0,0-6,57.41-7.79,81.24-1.75,23.22-11,88.44-10.11,108.54,.2-.72,.41-1.48,.63-2.27l.05-.18-.05,.18c-.06,.22-.12,.44-.18,.66,0-.46-.01-.93-.01-1.43,0-11.42,2.12-32.26,4.45-52.99,2.33-20.73,4.88-41.37,5.71-52.47,.9-11.91,2.85-32.22,4.57-49.55,.86-8.66,1.67-16.59,2.26-22.34,.29-2.88,.54-5.21,.7-6.83,.17-1.62,.26-2.51,.26-2.51h0v-.02c.98-13.66,2.66-26.08,4.61-37.26,.08-1.38,.15-2.73,.22-4.06"/><path class="cls-1" d="M93.78,21.39c-3.14,5.6-1.81,16.47,.1,32.54,2.4,20.25,8.39,45.1,15.59,75.68,7.2,30.58,16.49,62.2,12.27,95.33-2.4,18.86-4.49,45.68-5.84,65.29,1.16,1.52,2.17,3.2,3.05,5.06h0s.04,.1,.07,.14v.03l.05,.09c.52,1.12,.98,2.31,1.39,3.57v.02c.02,.05,.04,.11,.06,.17v.03l.04,.08,.02,.07,.03,.09,.03,.09,.02,.06,.04,.13v.04l.06,.15c.89,2.96,1.74,5.86,2.57,8.7,.76,2.59,1.51,5.14,2.26,7.62,.32-9.05,1.22-37.37,1.22-68.45,0-18.9-.33-38.83-1.33-56.06-2.99-51.63-19.61-104.66-27.26-133.9-3.92-15.01-4.48-24.21-4.48-31.04,0-2.02,.05-3.83,.07-5.52"/><path class="cls-7" d="M120.68,299.86v0m-.06-.19l.02,.06-.02-.06m-.06-.18l.03,.09-.03-.09m-.05-.15l.03,.08-.03-.08m-.06-.2l.05,.17c-.02-.06-.04-.11-.05-.17m-1.4-3.59c.51,1.12,.98,2.31,1.39,3.57-.41-1.26-.87-2.45-1.39-3.57m-.05-.12v0m-.07-.14h0M94.29,20.58c-.18,.26-.35,.52-.51,.81-.02,1.69-.07,3.5-.07,5.52,0,6.83,.56,16.03,4.48,31.04,7.65,29.25,24.27,82.27,27.26,133.9,1,17.23,1.33,37.16,1.33,56.06,0,31.08-.9,59.4-1.22,68.45-.74-2.48-1.49-5.02-2.26-7.62,.92,3.12,1.81,6.16,2.7,9.12,.4-10.97,2.69-78.65-.06-126.04-3-51.71-19.64-104.77-27.28-134-5.26-20.12-4.45-29.7-4.38-37.23"/><path class="cls-4" d="M.65,413.51c1.35,17.99,5.4,26.08,18.89,44.52,0,0,11.38,19.24,26.52,33.31h.01c8.42,7.84,18,14.08,27.43,14.5,3.4,.15,6.78-.18,10.11-.92,22.46-4.97,42.59-28.34,52.85-43.74,9.23-13.85,24.28-37.32,23.38-53.51-.9-16.19-16.64-47.67-23.38-60.71-6.74-13.04-10.79-28.78-16.19-46.77-2.61-8.68-7.52-14.11-14.73-17.5-7.73-3.66-18.11-4.97-31.14-5.43-20.26-.72-32.38,11.94-39.13,27.14h-.01c-1.64,3.7-2.97,7.52-4.02,11.35-5.4,19.61-5.85,15.01-14.84,46.94C7.39,394.62-.7,395.52,.65,413.51"/><path class="cls-2" d="M.65,413.51l-.5,.04c.68,9.02,2.04,15.62,4.93,22.25,2.89,6.64,7.3,13.3,14.05,22.52l.4-.3-.43,.25s11.4,19.28,26.61,33.42l.34-.37-.35,.35h.01v.03c8.47,7.86,18.12,14.18,27.76,14.62,.55,.02,1.09,.04,1.64,.04,2.89,0,5.77-.33,8.6-.97,11.36-2.52,22.07-9.66,31.23-18.08,9.16-8.43,16.78-18.15,21.93-25.87,4.49-6.73,10.35-15.74,15.1-25.1,4.75-9.36,8.4-19.07,8.4-27.27,0-.49-.01-.97-.04-1.44-.46-8.23-4.64-20.15-9.54-31.7-4.9-11.54-10.52-22.68-13.9-29.21-6.71-12.97-10.76-28.68-16.15-46.68-2.63-8.79-7.67-14.38-14.99-17.81-7.85-3.71-18.28-5.02-31.33-5.48-.56-.02-1.11-.03-1.66-.03-9.74,0-17.6,3.14-23.82,8.15-6.22,5.01-10.81,11.87-14.12,19.32l.46,.2-.36-.35h-.01l-.06,.08-.04,.08c-1.65,3.71-2.99,7.56-4.05,11.41-2.69,9.79-4.14,13.51-6.06,18.81-1.91,5.3-4.28,12.15-8.78,28.12-4.16,14.75-8.11,22.83-11.04,29.09C1.94,397.9,0,402.4,0,409.78c0,1.18,.05,2.42,.15,3.77l.5-.04,.5-.04c-.1-1.32-.15-2.54-.15-3.69,0-7.19,1.84-11.44,4.77-17.7,2.93-6.25,6.92-14.43,11.09-29.25,4.5-15.96,6.85-22.77,8.76-28.05,1.91-5.29,3.38-9.07,6.08-18.89,1.04-3.81,2.37-7.61,4-11.27l-.46-.2,.36,.35h.01l.06-.07,.04-.08c3.26-7.34,7.78-14.06,13.84-18.94,6.06-4.88,13.66-7.93,23.19-7.93,.54,0,1.08,0,1.63,.03,13.01,.46,23.33,1.78,30.94,5.39,7.1,3.34,11.88,8.62,14.46,17.19,5.4,17.97,9.44,33.74,16.22,46.85,3.37,6.51,8.99,17.64,13.87,29.14,4.88,11.5,9.02,23.4,9.46,31.37,.02,.46,.04,.92,.04,1.39,0,7.91-3.57,17.53-8.29,26.82-4.72,9.3-10.56,18.28-15.04,25-5.11,7.67-12.69,17.34-21.77,25.69-9.08,8.35-19.67,15.39-30.77,17.84-2.76,.62-5.57,.95-8.38,.95-.53,0-1.06-.01-1.59-.03-9.22-.41-18.73-6.56-27.11-14.36l-.34,.37,.35-.35h-.01v-.02h-.01c-7.53-7.01-14.15-15.32-18.87-21.87-2.36-3.28-4.25-6.11-5.55-8.13-.65-1.01-1.15-1.81-1.49-2.36-.34-.55-.51-.85-.51-.85v-.02l-.03-.02c-6.74-9.21-11.1-15.82-13.94-22.33-2.84-6.52-4.18-12.96-4.85-21.93l-.5,.04"/><path class="cls-8" d="M106.08,283.51c3.98,6.01,8.78,14.15,10.58,20.87,3.3,12.29,11.69,34.17,18.29,50.36,6.59,16.19,15.89,31.78,18.29,43.77,2.4,11.99,2.4,22.78-7.2,39.27-9.59,16.49-30.28,42.27-44.37,53.06-6.42,4.91-12.46,9.65-17.14,13.33,10.72-2.65,20.93-9.5,29.73-17.6,9.08-8.35,16.66-18.02,21.77-25.69,4.48-6.72,10.32-15.7,15.04-25,4.72-9.29,8.3-18.91,8.29-26.82,0-.47-.01-.93-.04-1.39-.44-7.96-4.58-19.87-9.46-31.37-4.88-11.5-10.5-22.62-13.87-29.14-6.78-13.11-10.83-28.88-16.22-46.85-2.49-8.26-7.02-13.46-13.7-16.82"/><path class="cls-6" d="M105.53,282.69c.18,.27,.36,.54,.55,.82,6.68,3.36,11.21,8.56,13.7,16.82,5.4,17.97,9.44,33.74,16.22,46.85,3.37,6.51,8.99,17.64,13.87,29.14,4.88,11.5,9.02,23.4,9.46,31.37,.02,.46,.04,.92,.04,1.39,0,7.91-3.57,17.53-8.29,26.82-4.72,9.3-10.56,18.28-15.04,25-5.11,7.67-12.69,17.34-21.77,25.69-8.8,8.09-19.01,14.95-29.73,17.6-.32,.25-.63,.49-.93,.73,22.46-4.97,42.59-28.34,52.85-43.74,9.23-13.85,24.28-37.32,23.38-53.51-.9-16.19-16.64-47.67-23.38-60.71-6.74-13.04-10.79-28.78-16.19-46.77-2.61-8.68-7.52-14.11-14.73-17.5"/><path class="cls-8" d="M35.18,305.83c-1.39,3.28-2.54,6.66-3.47,10.05-2.7,9.82-4.17,13.6-6.08,18.89-1.91,5.29-4.26,12.1-8.76,28.05-4.17,14.81-8.17,22.99-11.09,29.25-2.93,6.26-4.77,10.51-4.77,17.7,0,1.15,.05,2.37,.15,3.69l-.5,.04H.65l.5-.04c.67,8.96,2.01,15.41,4.85,21.93,2.84,6.52,7.2,13.12,13.94,22.33v.02l.03,.02s.18,.3,.51,.85c.34,.55,.84,1.35,1.49,2.36,1.3,2.02,3.19,4.85,5.55,8.13,4.36,6.04,10.32,13.57,17.12,20.2-11.09-16-25.7-37.13-30.51-44.32-8.09-12.14-8.99-32.38-4.95-46.77,4.05-14.39,15.74-41.37,20.86-54.41,3.03-7.73,4.47-25.11,5.13-37.98"/><path class="cls-6" d="M1.15,413.47l-.5,.04c1.35,17.99,5.4,26.08,18.89,44.52,0,0,11.38,19.24,26.52,33.31-.46-.67-.93-1.34-1.41-2.03-6.81-6.63-12.77-14.16-17.12-20.2-2.36-3.28-4.25-6.11-5.55-8.13-.65-1.01-1.15-1.81-1.49-2.36-.34-.55-.51-.85-.51-.85v-.02l-.03-.02c-6.74-9.21-11.1-15.82-13.94-22.33-2.84-6.52-4.18-12.96-4.85-21.93m34.1-109.06c-1.64,3.68-2.97,7.51-4.02,11.34-5.4,19.61-5.85,15.01-14.84,46.94C7.39,394.62-.7,395.52,.65,413.51H.65l.5-.04c-.1-1.32-.15-2.54-.15-3.69,0-7.19,1.84-11.44,4.77-17.7,2.93-6.25,6.92-14.43,11.09-29.25,4.5-15.96,6.85-22.77,8.76-28.05,1.91-5.29,3.38-9.07,6.08-18.89,.93-3.39,2.08-6.77,3.47-10.05,.02-.48,.05-.95,.07-1.42"/></g></svg>