<?xml version="1.0" encoding="UTF-8"?><svg id="Layer_2" xmlns="http://www.w3.org/2000/svg" viewBox="0 0 153.98 473.43"><defs><style>.cls-1{fill:#b5aa77;}.cls-2{fill:#caccb6;}.cls-3{fill:#afa05f;}.cls-4{fill:#f1f4e5;}.cls-5{fill:#c9bd84;}.cls-6{fill:#b5b7a3;}.cls-7{fill:#9d9055;}.cls-8{fill:#d8dbce;}</style></defs><g id="Layer_3"><path class="cls-5" d="M34.04,308.15c1-2.21,2.24-4.27,3.68-6.36,.6-.86,1.31-1.71,2.11-2.55,5.18-5.41,14.08-10.16,19.92-10.68,5.85-.52,37.17-.15,41.52,2.7,4.1,2.69,7.02,6.48,9.79,11.49,3.05,5.52,5.88,12.53,9.86,21.16,0,0-.61-74.02-3.61-112.39-3-38.37-7.19-73.75-12.59-106.12-5.4-32.38-9.67-73.6-9.22-87.09,.45-13.49-2.25-21.13-9.44-16.41-7.19,4.72-19.56,59.13-23.38,76.44-3.82,17.31-10.12,56.88-15.51,97.8-5.4,40.91-10.29,111.79-13.13,132"/><path class="cls-3" d="M34.04,308.15l.46,.21c.98-2.18,2.2-4.21,3.64-6.28,.58-.84,1.28-1.67,2.06-2.49,2.54-2.65,6.03-5.17,9.59-7.08,3.56-1.91,7.2-3.2,10.02-3.45,1.37-.12,4.26-.2,7.89-.2,5.71,0,13.28,.18,19.81,.64,3.27,.23,6.28,.52,8.67,.89,1.19,.18,2.23,.39,3.06,.61,.83,.22,1.45,.46,1.78,.68,4,2.63,6.87,6.34,9.63,11.32,3.03,5.48,5.86,12.48,9.84,21.13l.97,2.11-.02-2.33s-.61-74.02-3.61-112.43c-3-38.38-7.2-73.77-12.6-106.16-5.13-30.78-9.25-69.61-9.24-84.85,0-.78,0-1.49,.03-2.14,.03-.96,.05-1.88,.05-2.78,0-4.63-.43-8.43-1.38-11.14-.48-1.35-1.09-2.44-1.89-3.21C91.99,.43,90.99,0,89.87,0c-1.24,0-2.59,.5-4.09,1.48-1.04,.7-2.02,2.11-3.08,4.12-1.84,3.51-3.81,8.83-5.82,15.11-6,18.82-12.19,46.16-14.7,57.53-3.83,17.35-10.12,56.91-15.52,97.85-2.7,20.47-5.27,48.42-7.53,73.78-2.25,25.36-4.19,48.14-5.6,58.21l-.48,3.45,1.44-3.18-.46-.21,.5,.07c1.42-10.14,3.35-32.9,5.61-58.27,2.25-25.36,4.83-53.3,7.52-73.74,5.39-40.91,11.69-80.48,15.51-97.76,1.91-8.65,5.96-26.58,10.42-42.92,2.23-8.17,4.57-15.95,6.79-21.96,1.11-3.01,2.19-5.57,3.21-7.51,1.01-1.94,1.99-3.26,2.74-3.74,1.4-.92,2.58-1.32,3.54-1.32,.86,0,1.57,.3,2.21,.92,.96,.92,1.73,2.61,2.23,4.94,.5,2.32,.74,5.27,.74,8.7,0,.88-.02,1.8-.05,2.74-.02,.66-.03,1.39-.03,2.17,0,15.38,4.12,54.18,9.26,85.02,5.39,32.36,9.59,67.72,12.59,106.08,1.5,19.17,2.4,47.26,2.93,70.56,.26,11.65,.43,22.1,.54,29.64,.05,3.77,.09,6.81,.11,8.91,.02,2.1,.03,3.25,.03,3.25h.5l.45-.21c-3.97-8.62-6.8-15.63-9.87-21.19-2.79-5.04-5.77-8.92-9.96-11.67-.5-.32-1.19-.57-2.07-.81-3.07-.81-8.48-1.35-14.42-1.69-5.93-.34-12.36-.48-17.38-.48-3.64,0-6.53,.07-7.98,.2-3.03,.27-6.76,1.62-10.4,3.56-3.64,1.95-7.2,4.51-9.84,7.27-.81,.85-1.54,1.72-2.16,2.61-1.46,2.1-2.71,4.19-3.73,6.44l.46,.21,.5,.07-.5-.07"/><path class="cls-1" d="M89.87,1c-.96,0-2.14,.4-3.53,1.32-.75,.48-1.73,1.8-2.74,3.74-1.02,1.94-2.1,4.51-3.21,7.51-2.22,6.01-4.56,13.79-6.79,21.96-4.47,16.34-8.51,34.27-10.42,42.92-3.82,17.28-10.11,56.85-15.51,97.76-2.7,20.44-5.27,48.38-7.52,73.74-2.06,23.16-3.85,44.16-5.23,55.35,.71-1.27,1.49-2.51,2.36-3.74v-.02l.09-.13c.71-1,1.56-1.99,2.52-2.95,2.22-33.34,11.69-112,13.58-133.11,2.25-25.18,.72-38.46,12.59-89.03,10.82-46.13,16.49-57.86,20.48-57.86,.38,0,.75,.11,1.11,.31,4.05,2.25,2.25,36.87,5.84,56.21,3.6,19.34,7.64,50.81,11.69,74.2,4.05,23.38,3.6,45.87,5.4,86.79,1.08,24.47,.87,49.59,.52,65.82,.14,.24,.28,.49,.42,.74,2.81,5.1,5.43,11.41,8.89,19.05,0-.28,0-.58,0-.9-.02-2.1-.06-5.14-.11-8.91-.1-7.54-.27-17.99-.54-29.64-.53-23.3-1.43-51.39-2.93-70.56-3-38.36-7.19-73.72-12.59-106.08-5.14-30.84-9.26-69.64-9.26-85.02,0-.78,0-1.51,.03-2.17,.03-.95,.05-1.86,.05-2.74,0-3.43-.24-6.37-.74-8.7-.5-2.33-1.27-4.02-2.23-4.94-.64-.61-1.34-.91-2.21-.92h0"/><path class="cls-7" d="M89.87,.5c-1.1,0-2.36,.45-3.81,1.4-7.19,4.72-19.56,59.13-23.38,76.44-3.82,17.31-10.12,56.88-15.51,97.8-5.26,39.89-10.05,108.27-12.91,130.4,.21-.42,.43-.83,.66-1.24,1.38-11.19,3.17-32.19,5.23-55.35,2.25-25.36,4.83-53.3,7.52-73.74,5.39-40.91,11.69-80.48,15.51-97.76,1.91-8.65,5.96-26.58,10.42-42.92,2.23-8.17,4.57-15.95,6.79-21.96,1.11-3.01,2.19-5.57,3.21-7.51,1.01-1.94,1.99-3.26,2.74-3.74,1.4-.92,2.58-1.32,3.53-1.32h0c.86,0,1.57,.3,2.21,.92,.96,.92,1.73,2.61,2.23,4.94,.5,2.32,.74,5.27,.74,8.7,0,.88-.02,1.8-.05,2.74-.02,.66-.03,1.39-.03,2.17,0,15.38,4.12,54.18,9.26,85.02,5.39,32.36,9.59,67.72,12.59,106.08,1.5,19.17,2.4,47.26,2.93,70.56,.26,11.65,.43,22.1,.54,29.64,.05,3.77,.09,6.81,.11,8.91,0,.32,0,.63,0,.9-3.47-7.65-6.08-13.96-8.89-19.05-.14-.25-.28-.5-.42-.74h0c.45,.8,.89,1.62,1.33,2.47,2.61,5.04,5.15,11.15,8.49,18.45-.09-9.76-.83-75.7-3.6-111.17-3-38.37-7.19-73.75-12.59-106.12-5.4-32.38-9.67-73.6-9.22-87.09,.36-10.77-1.29-17.81-5.63-17.81"/><path class="cls-4" d="M1.02,426.66c1.06,5.17,3.75,10,7.66,13.79,29.23,28.32,51.52,32.54,63.67,32.48,12.18-.06,33.73-8.77,47.67-17.09,10.84-6.47,27.17-24.06,31.41-31.35,.36-.62,.64-1.16,.81-1.62,2.25-5.85,2.85-25.48-10.64-54.71-13.49-29.23-19.34-41.37-19.34-41.37-8.54-18.11-11.88-29.55-20.98-35.52-.83-.54-2.64-1-5.07-1.37-10.31-1.59-31.71-1.75-36.45-1.32-6.72,.6-17.46,6.77-21.98,13.14h0l-.05,.09c-3.75,5.36-6,10.6-6.75,18.7-.75,8.06-7.64,31.93-14.39,44-6.75,12.08-8.99,36.49-13.94,47.28-.71,1.54-1.21,3.1-1.56,4.65-.77,3.42-.76,6.91-.06,10.24"/><path class="cls-2" d="M1.02,426.66l-.49,.1c1.08,5.27,3.82,10.2,7.8,14.05,29.08,28.19,51.43,32.62,63.75,32.62h.26c6.2-.04,14.66-2.25,23.35-5.48,8.68-3.24,17.57-7.5,24.58-11.68,5.49-3.28,12.29-9.31,18.28-15.45,5.99-6.14,11.14-12.36,13.31-16.08,.37-.64,.66-1.19,.85-1.7h0c.74-1.92,1.28-5.14,1.28-9.58,0-9.75-2.64-25.37-11.93-45.51-13.49-29.23-19.34-41.37-19.34-41.38h0c-4.27-9.04-7.23-16.42-10.29-22.33-3.06-5.9-6.22-10.34-10.87-13.4-.5-.32-1.19-.57-2.08-.81-.89-.24-1.96-.45-3.19-.64-7.29-1.12-19.98-1.53-28.57-1.53-3.65,0-6.55,.07-8,.2-3.48,.31-7.89,2.03-12.03,4.47-4.14,2.44-8,5.6-10.32,8.88l-.09,.13v.17h.5l-.42-.28-.05,.07,.42,.28-.41-.29c-3.78,5.4-6.08,10.77-6.83,18.94-.36,3.95-2.27,11.93-4.92,20.39-2.65,8.46-6.06,17.43-9.4,23.42-3.42,6.14-5.67,15.28-7.7,24.25-2.02,8.96-3.83,17.76-6.26,23.06-.73,1.57-1.24,3.17-1.59,4.75-.4,1.78-.6,3.57-.6,5.35s.18,3.43,.53,5.1h0l.49-.1,.49-.1c-.34-1.61-.51-3.25-.51-4.9s.19-3.43,.57-5.13c.34-1.52,.83-3.05,1.53-4.55,2.51-5.49,4.3-14.3,6.33-23.26,2.02-8.95,4.27-18.05,7.59-23.99,3.4-6.1,6.82-15.1,9.48-23.6,2.67-8.51,4.58-16.49,4.97-20.6,.75-8.02,2.95-13.14,6.66-18.46v-.02l.06-.07,.08-.13v-.16h-.5l.41,.29c2.2-3.1,5.97-6.21,10.01-8.59,4.04-2.39,8.37-4.05,11.61-4.34,1.38-.12,4.27-.2,7.91-.2,8.55,0,21.25,.41,28.42,1.52,1.21,.18,2.25,.39,3.09,.61,.83,.22,1.46,.47,1.79,.68,4.45,2.92,7.51,7.18,10.53,13.02,3.02,5.84,6,13.23,10.27,22.3h0s.36,.76,1.12,2.36c2.28,4.78,8.09,17.09,18.21,39.01,9.24,20.03,11.84,35.52,11.84,45.09,0,4.35-.54,7.49-1.21,9.22h0c-.16,.42-.42,.94-.78,1.55-2.08,3.57-7.21,9.79-13.16,15.89-5.95,6.1-12.73,12.1-18.08,15.29-6.94,4.14-15.79,8.39-24.41,11.6-8.62,3.21-17.02,5.39-23,5.42h-.26c-12.07,0-34.1-4.29-63.06-32.34-3.84-3.72-6.47-8.46-7.51-13.53h0l-.49,.1"/><path class="cls-8" d="M96.62,290.46c10.58,14.64,20.01,38.1,25.79,49.67,7.8,15.59,23.38,45.87,27.28,67.45,1.23,6.78,1.68,11.96,1.73,15.88,.14-.28,.26-.54,.35-.77h0c.67-1.74,1.21-4.87,1.21-9.23,0-9.58-2.6-25.07-11.84-45.09-10.12-21.92-15.93-34.23-18.21-39.01-.76-1.59-1.12-2.35-1.12-2.35h0c-4.28-9.07-7.25-16.47-10.27-22.3-3.03-5.84-6.08-10.1-10.53-13.02-.33-.22-.95-.46-1.79-.68-.72-.19-1.59-.37-2.59-.54"/><path class="cls-6" d="M96.2,289.89c.14,.19,.28,.38,.42,.57,1,.16,1.87,.34,2.59,.54,.83,.22,1.46,.47,1.79,.68,4.45,2.92,7.51,7.18,10.53,13.02,3.02,5.84,6,13.23,10.27,22.3h0s.36,.76,1.12,2.36c2.28,4.78,8.09,17.09,18.21,39.01,9.24,20.03,11.84,35.52,11.84,45.09,0,4.35-.54,7.49-1.21,9.22h0c-.09,.23-.2,.49-.35,.77,0,.35,0,.7,0,1.03,.36-.62,.64-1.16,.81-1.62,2.25-5.85,2.85-25.48-10.64-54.71-13.49-29.23-19.34-41.37-19.34-41.37-8.54-18.11-11.88-29.55-20.98-35.52-.83-.54-2.64-1-5.07-1.37"/><path class="cls-8" d="M37.85,302.49c-3.54,5.17-5.65,10.23-6.38,18.05-.38,4.11-2.3,12.09-4.97,20.6-2.67,8.51-6.08,17.51-9.48,23.6-3.32,5.94-5.57,15.04-7.59,23.99-2.03,8.96-3.82,17.76-6.33,23.26-.7,1.5-1.18,3.03-1.53,4.55-.39,1.7-.57,3.42-.57,5.13,0,1.12,.08,2.23,.24,3.33,.79-5.71,2.28-11.21,5.01-14.11,7.19-7.64,27.43-33.42,31.93-55.16,2.9-14.03,1.23-37.98-.32-53.23"/><path class="cls-6" d="M37.77,301.72l-.05,.08c-3.75,5.36-6,10.6-6.75,18.7-.75,8.06-7.64,31.93-14.39,44-6.75,12.08-8.99,36.49-13.94,47.28-.71,1.54-1.21,3.1-1.56,4.65-.77,3.42-.76,6.91-.06,10.24,.06-.56,.14-1.12,.21-1.68-.16-1.1-.24-2.21-.24-3.33,0-1.71,.19-3.43,.57-5.13,.34-1.52,.83-3.05,1.53-4.55,2.51-5.49,4.3-14.3,6.33-23.26,2.02-8.95,4.27-18.05,7.59-23.99,3.4-6.1,6.82-15.1,9.48-23.6,2.67-8.51,4.58-16.49,4.97-20.6,.73-7.82,2.84-12.88,6.38-18.05-.03-.26-.05-.52-.08-.77"/></g></svg>