<?xml version="1.0" encoding="UTF-8"?><svg id="Layer_2" xmlns="http://www.w3.org/2000/svg" viewBox="0 0 157.84 458.54"><defs><style>.cls-1{fill:#b5aa77;}.cls-2{fill:#caccb6;}.cls-3{fill:#afa05f;}.cls-4{fill:#f1f4e5;}.cls-5{fill:#c9bd84;}.cls-6{fill:#b5b7a3;}.cls-7{fill:#9d9055;}.cls-8{fill:#d8dbce;}</style></defs><g id="Layer_3"><path class="cls-5" d="M31.72,311.15s7.19-4.72,24.88-8.21c17.69-3.48,46.47-5.58,53.66-3.18,3.32,1.11,8.43,4.96,13.65,8.88,6,4.51,12.15,9.11,15.88,9.67-1.02-.4-6.95-3.87-5.85-32.94,1.2-31.78-1.2-72.55-3.6-104.32-2.4-31.78-5.4-73.15-4.8-89.33,.57-15.63,10.94-37.12,18.12-51.26h0c.26-.52,.51-1.01,.76-1.5,4.72-9.26,9.93-23.77,9.27-32.06-.34-4.35-2.3-6.98-6.76-6.27-13,2.06-38.78,25.44-57.37,58.72-18.59,33.28-25.78,63.55-33.58,97.13-.76,3.27-1.46,6.68-2.1,10.18-5.95,32.41-7.22,72.71-10.19,85.15-3.3,13.79-11.99,59.36-11.99,59.36"/><path class="cls-3" d="M31.72,311.15l.27,.42,.07-.05c.8-.5,8.1-4.83,24.63-8.09,12.39-2.44,30.29-4.2,42.29-4.2,5.07,0,9.1,.32,11.12,1,1.57,.52,3.66,1.75,5.99,3.33,2.33,1.58,4.91,3.52,7.52,5.48,3,2.26,6.04,4.54,8.82,6.33,2.78,1.79,5.27,3.12,7.28,3.43l4.44,.67-4.18-1.63c-.31-.13-1.7-.81-3.06-4.35-1.35-3.54-2.61-9.93-2.61-21.3,0-2.09,.04-4.36,.14-6.8,.22-5.84,.32-11.98,.32-18.31,0-28.17-1.96-60.12-3.92-86.07-2.19-28.98-4.87-65.95-4.87-84.47,0-1.78,.02-3.39,.08-4.81,.28-7.71,3-16.96,6.55-26.03,3.55-9.07,7.93-17.96,11.52-25.03l.05-.11v-.13h-.5l.45,.23c.26-.51,.51-1,.76-1.49,2.24-4.39,4.58-9.93,6.36-15.45,1.78-5.52,3.02-11.01,3.02-15.33,0-.53-.02-1.05-.06-1.55-.16-1.99-.64-3.68-1.6-4.91C151.65,.7,150.19,0,148.32,0c-.46,0-.94,.04-1.45,.12-3.37,.54-7.46,2.42-12.03,5.44-13.7,9.07-31.72,28.51-45.69,53.53-18.63,33.34-25.83,63.69-33.63,97.26-.76,3.28-1.47,6.7-2.1,10.2-2.98,16.24-4.78,34.43-6.22,50.11-1.43,15.68-2.5,28.88-3.97,35.01-3.3,13.82-12,59.37-12,59.38l-.22,1.16,.99-.65-.27-.42,.49,.09s.14-.71,.38-1.98c1.71-8.91,8.73-45.31,11.61-57.35,1.5-6.31,2.56-19.47,3.99-35.16,1.43-15.68,3.24-33.84,6.21-50.02,.64-3.49,1.33-6.89,2.09-10.16,7.8-33.58,14.98-63.79,33.53-97,9.27-16.6,20.34-30.73,30.69-40.95,5.18-5.11,10.18-9.25,14.68-12.23,4.5-2.98,8.5-4.8,11.64-5.29,.46-.07,.9-.11,1.29-.11,1.63,0,2.71,.56,3.5,1.55,.78,.99,1.24,2.5,1.39,4.37,.04,.47,.06,.96,.06,1.47,0,4.14-1.2,9.56-2.97,15.03-1.77,5.46-4.09,10.97-6.3,15.3-.25,.49-.5,.97-.76,1.49l-.05,.11v.13h.5l-.45-.23c-3.59,7.08-7.99,16-11.56,25.12-3.57,9.12-6.32,18.44-6.62,26.35-.05,1.43-.08,3.05-.08,4.85,0,18.6,2.69,55.56,4.87,84.55,1.96,25.94,3.92,57.87,3.92,85.99,0,6.32-.1,12.45-.32,18.27-.09,2.46-.14,4.73-.14,6.84,0,11.44,1.26,17.93,2.67,21.65,1.4,3.72,3.01,4.69,3.63,4.93l.18-.47,.08-.49c-1.71-.25-4.16-1.51-6.89-3.28-2.73-1.77-5.76-4.04-8.76-6.29-2.61-1.96-5.2-3.91-7.56-5.51-2.36-1.6-4.49-2.86-6.24-3.45-2.26-.75-6.31-1.05-11.44-1.05-12.09,0-30.01,1.77-42.48,4.22-17.75,3.5-25,8.24-25.06,8.28l.27,.42,.49,.09-.49-.09"/><path class="cls-1" d="M148.32,1c-.4,0-.83,.03-1.29,.11-3.13,.49-7.14,2.31-11.64,5.29-4.5,2.98-9.5,7.11-14.68,12.23-10.36,10.23-21.42,24.36-30.69,40.95-18.55,33.21-25.73,63.42-33.53,97-.46,1.97-.9,4-1.31,6.07,4.37-13.7,9.48-29.61,14.91-46.35,15.96-49.15,22.78-47.97,32.98-67.15,10.19-19.19,31.18-37.77,42.87-41.97,1.86-.67,3.41-.95,4.72-.95,.98,0,1.82,.16,2.53,.43-.17-1.75-.62-3.16-1.37-4.11-.79-.99-1.87-1.54-3.5-1.55"/><path class="cls-7" d="M148.32,.5c-.43,0-.89,.04-1.37,.12-13,2.06-38.78,25.44-57.37,58.72-18.59,33.28-25.78,63.55-33.58,97.13-.76,3.27-1.46,6.68-2.1,10.18,.42-1.31,.84-2.65,1.27-4,.41-2.07,.85-4.09,1.31-6.07,7.8-33.58,14.98-63.79,33.53-97,9.27-16.6,20.34-30.73,30.69-40.95,5.18-5.11,10.18-9.25,14.68-12.23,4.5-2.98,8.5-4.8,11.64-5.29,.46-.07,.9-.11,1.29-.11,1.63,0,2.71,.56,3.5,1.55,.74,.95,1.2,2.35,1.37,4.11,.18,.07,.36,.15,.52,.23-.3-3.87-1.89-6.39-5.39-6.39"/><path class="cls-1" d="M142.66,41.36c-7.12,6.46-15.95,16.86-21,31.77-9.44,27.88-2.7,91.73,0,119.61,2.23,22.99,2.31,91.82,2.26,115.28,3.53,2.65,7.11,5.34,10.22,7.24,.57,.35,1.13,.68,1.66,.97,.68,.37,1.32,.68,1.92,.94-.27-.35-.54-.78-.82-1.29l-1.7-2.84,.76,.74c-1.4-3.73-2.64-10.21-2.64-21.57,0-2.11,.04-4.38,.14-6.84,.22-5.82,.32-11.95,.32-18.27,0-28.12-1.96-60.06-3.92-85.99-2.19-28.99-4.87-65.95-4.87-84.55,0-1.79,.02-3.41,.08-4.85,.29-7.91,3.05-17.23,6.62-26.35,3.38-8.64,7.5-17.1,10.98-23.98"/><path class="cls-7" d="M136.9,315.87c.28,.51,.56,.94,.82,1.29-.6-.25-1.25-.57-1.92-.94,.68,.37,1.33,.69,1.94,.94-.19-.25-.38-.53-.57-.85l-.27-.44m6.78-275.42c-.34,.29-.68,.6-1.02,.91-3.48,6.88-7.6,15.34-10.98,23.98-3.57,9.12-6.32,18.44-6.62,26.35-.05,1.43-.08,3.05-.08,4.85,0,18.6,2.69,55.56,4.87,84.55,1.96,25.94,3.92,57.87,3.92,85.99,0,6.32-.1,12.45-.32,18.27-.09,2.46-.14,4.73-.14,6.84,0,11.36,1.24,17.84,2.64,21.57l.9,.87c-1.78-3.98-3.55-12.23-2.9-29.27,1.2-31.78-1.2-72.55-3.6-104.32-2.4-31.78-5.4-73.15-4.8-89.33,.57-15.63,10.94-37.12,18.12-51.26"/><path class="cls-4" d="M11.94,428.96c.29,.28,.56,.52,.84,.79h.01c12.62,11.67,21.97,15.15,27.03,15.48,5.17,.34,10.49,5.28,10.49,5.28,12.37,8.91,29.48,8.19,40.46,6.46,3.4-.53,6.21-1.15,8.11-1.62,6.98-1.74,29.98-15.29,40.47-29.68,10.49-14.39,13.93-20.31,15.76-28.77,1.42-6.62,2.35-11.4,2.22-20.4-.12-9.07-4.95-14.24-6.45-19.34-1.5-5.1-2.19-13.94-2.55-19.04-.75-10.49-8.39-19.79-8.39-19.79l-2.35-2.29c1.02,1.71,1.94,2.15,2.24,2.26-1.6-.24-3.66-1.22-5.96-2.63-7.67-4.7-18.1-14.09-23.61-15.93-7.19-2.4-35.97-.3-53.66,3.18-5.96,1.17-10.73,2.49-14.43,3.71-7.3,2.42-10.46,4.5-10.46,4.5-10.19,11.69-7.8,16.49-11.99,28.18-4.2,11.69-12.59,24.58-16.79,35.37-4.2,10.79-4.05,41.97,8.99,54.26"/><path class="cls-2" d="M11.94,428.96l-.35,.36c.29,.28,.57,.53,.84,.79l.14,.14h.21v-.5l-.34,.37c12.67,11.71,22.1,15.27,27.34,15.61,2.44,.15,5.01,1.43,6.95,2.69,.97,.63,1.78,1.25,2.35,1.71,.28,.23,.51,.42,.66,.55l.17,.15,.06,.05,.02,.02,.03,.02c8.22,5.91,18.44,7.63,27.61,7.63,4.85,0,9.4-.48,13.22-1.08,3.41-.53,6.24-1.15,8.15-1.63,1.82-.46,4.58-1.64,7.91-3.39,9.96-5.25,24.89-15.58,32.85-26.48,5.25-7.2,8.74-12.29,11.16-16.66,2.42-4.37,3.76-8.03,4.69-12.29,1.34-6.22,2.25-10.89,2.25-18.92,0-.52,0-1.05-.01-1.59-.06-4.62-1.33-8.26-2.75-11.36-1.43-3.09-2.99-5.66-3.71-8.11-1.47-5-2.17-13.85-2.53-18.93-.39-5.36-2.51-10.36-4.54-14.03-2.03-3.67-3.95-6.02-3.97-6.03l-.02-.02-5.11-4.98,1.97,3.28c1.07,1.79,2.09,2.33,2.49,2.47l.18-.47,.07-.49c-1.47-.21-3.5-1.17-5.77-2.57-3.8-2.32-8.32-5.84-12.58-9.01-4.27-3.17-8.25-5.99-11.13-6.96-2.26-.75-6.31-1.05-11.44-1.05-12.09,0-30.01,1.77-42.48,4.22-5.98,1.18-10.77,2.49-14.49,3.72-7.34,2.44-10.54,4.53-10.57,4.55l-.06,.04-.05,.05c-5.13,5.88-7.13,10.1-8.35,14.28-1.21,4.18-1.66,8.27-3.74,14.06-4.16,11.61-12.55,24.5-16.78,35.36-1.54,3.96-2.48,10.45-2.48,17.76,0,6.58,.77,13.81,2.59,20.41,1.83,6.6,4.71,12.58,9,16.63h0l.35-.36,.34-.36c-4.09-3.85-6.93-9.67-8.72-16.17-1.8-6.49-2.56-13.65-2.56-20.15,0-7.22,.95-13.65,2.41-17.4,4.16-10.72,12.56-23.62,16.79-35.39,2.12-5.9,2.57-10.06,3.76-14.12,1.19-4.06,3.08-8.09,8.14-13.9l-.38-.33,.27,.42,.03-.02c.34-.22,3.51-2.16,10.31-4.42,3.68-1.22,8.43-2.52,14.37-3.69,12.39-2.44,30.29-4.2,42.29-4.2,5.07,0,9.11,.32,11.12,1,2.62,.87,6.61,3.66,10.85,6.82,4.25,3.16,8.78,6.69,12.65,9.06,2.33,1.42,4.42,2.44,6.15,2.7l4.68,.7-4.43-1.66c-.2-.08-1-.42-1.98-2.05l-.43,.26-.35,.36,2.35,2.29,.35-.36-.39,.32,.08,.1c.82,1.02,7.52,9.77,8.2,19.4,.37,5.11,1.04,13.95,2.57,19.14,.78,2.64,2.37,5.21,3.76,8.25,1.39,3.03,2.6,6.51,2.66,10.96,0,.54,.01,1.07,.01,1.58,0,7.95-.89,12.49-2.22,18.71-.91,4.19-2.2,7.72-4.58,12.02-2.38,4.3-5.85,9.37-11.1,16.55-5.19,7.12-13.53,14.09-21.43,19.47-3.95,2.69-7.79,4.99-11.08,6.72-3.28,1.73-6.01,2.89-7.68,3.3-1.89,.47-4.68,1.09-8.06,1.62-3.78,.6-8.29,1.07-13.07,1.07-9.05,0-19.06-1.7-27.02-7.44l-.29,.41,.34-.37s-1.36-1.27-3.38-2.57c-2.02-1.3-4.69-2.66-7.42-2.85-4.88-.31-14.16-3.72-26.72-15.34l-.14-.13h-.21v.5l.34-.36c-.28-.27-.55-.52-.84-.79h0l-.34,.36"/><path class="cls-8" d="M41.43,307.43c-6.06,2.09-8.96,3.84-9.38,4.1-5.02,5.78-6.91,9.79-8.09,13.84-1.18,4.06-1.64,8.22-3.76,14.12-4.23,11.77-12.63,24.67-16.79,35.39-1.46,3.75-2.41,10.18-2.41,17.4,0,6.5,.76,13.66,2.56,20.15,1.79,6.49,4.63,12.31,8.72,16.17h0c.05,.05,.1,.1,.16,.15-4.5-13.6-8.64-32.83-6.2-44.15,3.3-15.29,7.49-14.09,14.39-31.48,6.89-17.39,5.7-23.08,11.09-32.98,2.49-4.56,6.31-9.12,9.71-12.71"/><path class="cls-6" d="M42.18,306.65c-7.3,2.42-10.46,4.5-10.46,4.5-10.19,11.69-7.8,16.49-11.99,28.18-4.2,11.69-12.59,24.58-16.79,35.37-4.2,10.79-4.05,41.97,8.99,54.26h0l.34-.36-.34,.36c.29,.28,.56,.52,.84,.79-.11-.33-.22-.66-.33-1-.05-.05-.1-.1-.16-.15h0c-4.09-3.86-6.93-9.68-8.72-16.17-1.8-6.49-2.56-13.65-2.56-20.15,0-7.22,.95-13.65,2.41-17.4,4.16-10.72,12.56-23.62,16.79-35.39,2.12-5.9,2.57-10.06,3.76-14.12,1.18-4.05,3.07-8.06,8.09-13.84,.42-.26,3.33-2.02,9.38-4.1,.25-.27,.5-.52,.75-.78"/><path class="cls-8" d="M134.48,316.63c3.22,5.09,6.43,11.29,7.27,16.71,1.8,11.69-.9,16.19,3.3,27.88,4.2,11.69,8.09,27.59,4.2,39.88-3.9,12.28-30.63,40.26-38.37,46.45-2.83,2.26-9.93,5.42-17.82,8.53,2.33-.42,4.28-.86,5.71-1.22,1.67-.41,4.4-1.57,7.68-3.3,3.28-1.73,7.13-4.03,11.08-6.72,7.9-5.38,16.24-12.35,21.43-19.47,5.24-7.19,8.71-12.25,11.1-16.55,2.38-4.3,3.67-7.83,4.58-12.02,1.34-6.22,2.22-10.75,2.22-18.71,0-.51,0-1.04-.01-1.58-.06-4.45-1.27-7.92-2.66-10.96-1.39-3.03-2.98-5.6-3.76-8.25-1.52-5.19-2.2-14.03-2.57-19.14-.67-9.53-7.23-18.19-8.17-19.37-1.49-.25-3.25-1.04-5.19-2.17"/><path class="cls-6" d="M133.87,315.68c.2,.31,.4,.62,.6,.94,1.94,1.13,3.7,1.93,5.19,2.17,.94,1.18,7.5,9.84,8.17,19.37,.37,5.11,1.04,13.95,2.57,19.14,.78,2.64,2.37,5.21,3.76,8.25,1.39,3.03,2.6,6.51,2.66,10.96,0,.54,.01,1.07,.01,1.58,0,7.95-.89,12.49-2.22,18.71-.91,4.19-2.2,7.72-4.58,12.02-2.38,4.3-5.85,9.37-11.1,16.55-5.19,7.12-13.53,14.09-21.43,19.47-3.95,2.69-7.79,4.99-11.08,6.72-3.28,1.73-6.01,2.89-7.68,3.3-1.43,.36-3.38,.8-5.71,1.22-.75,.3-1.51,.59-2.28,.89,3.4-.53,6.21-1.15,8.11-1.62,6.98-1.74,29.98-15.29,40.47-29.68,10.49-14.39,13.93-20.31,15.76-28.77,1.42-6.62,2.35-11.4,2.22-20.4-.12-9.07-4.95-14.24-6.45-19.34-1.5-5.1-2.19-13.94-2.55-19.04-.75-10.49-8.39-19.79-8.39-19.79l-2.35-2.29c1.02,1.71,1.94,2.15,2.24,2.26-1.6-.24-3.66-1.22-5.96-2.63"/></g></svg>