<?xml version="1.0" encoding="UTF-8"?><svg id="Layer_2" xmlns="http://www.w3.org/2000/svg" viewBox="0 0 232.57 438.58"><defs><style>.cls-1{fill:#918a53;}.cls-2{fill:#b5aa77;}.cls-3{fill:#caccb6;}.cls-4{fill:#b1aa6e;}.cls-5{fill:#827c4b;}.cls-6{fill:#afa05f;}.cls-7{fill:#f1f4e5;}.cls-8{fill:#c9bd84;}.cls-9{fill:#b5b7a3;}.cls-10{fill:#9d9055;}.cls-11{fill:#d8dbce;}</style></defs><g id="Layer_3"><path class="cls-8" d="M45.48,260.09s19.92,5.63,53.93,3.66c14.08-.81,26.45,.83,38.91,2.46,15.56,2.04,31.27,4.08,50.63,1.37,2.61-.34,5.27-.8,8.02-1.35,0,0-3.09-30.54,0-69.36,3.09-38.82,3.78-61.42,1.72-85.15-2.06-23.75-7.56-36.11-7.56-53.29s1.89-35.56-1.55-41.39c-.64-1.09-1.49-1.99-2.46-2.66-2.96-2.1-7.11-2.28-10.26-.5-.13,.07-.27,.16-.4,.24-.13,.09-.26,.17-.39,.26-.13,.09-.24,.17-.36,.26-.81,.64-1.53,1.45-2.1,2.4-3.43,5.84-12.19,43.8-13.4,54.96-.1,.95-.2,1.93-.3,2.96-.1,1.04-.2,2.13-.3,3.28-.04,.37-.07,.76-.1,1.14-.11,1.33-.23,2.72-.36,4.18-.04,.63-.1,1.27-.16,1.93-.07,1.06-.16,2.13-.24,3.25-.04,.5-.07,1.02-.13,1.55-.01,.24-.03,.5-.06,.76v.03c-.14,1.85-.29,3.76-.44,5.77v.1c-.04,.54-.09,1.09-.13,1.63-.21,2.91-.46,5.97-.7,9.19-.1,1.29-.21,2.61-.32,3.94-.21,2.68-.44,5.44-.69,8.32-.12,1.43-.24,2.88-.37,4.37-2.06,23.7-7.39,37.44-15.8,51.87-8.41,14.43-14.26,14.08-16.32,.34-2.06-13.74-1.72-42.6,0-61.32,1.72-18.72,3.43-38.13,6.87-51.19,3.43-13.05,9.45-29.2,11.34-35.73,1.89-6.53,7.39-19.07-2.4-14.77-.16,.07-.32,.14-.49,.23-.16,.09-.33,.17-.5,.26-.17,.1-.34,.2-.53,.3-.19,.11-.39,.24-.6,.37-.56,.36-1.16,.76-1.79,1.23-.39,.27-.79,.57-1.19,.87-1.72,1.33-3.64,2.95-5.7,4.78-.26,.23-.52,.47-.77,.7-.56,.5-1.12,1.02-1.69,1.56-.77,.72-1.56,1.46-2.35,2.23-.63,.6-1.27,1.22-1.9,1.85-.3,.3-.6,.6-.9,.9l-1.82,1.82c-.62,.62-1.22,1.23-1.83,1.87-1.22,1.24-2.43,2.53-3.65,3.82l-.1,.1c-.56,.6-1.12,1.2-1.69,1.82-.37,.4-.74,.82-1.12,1.22-.23,.26-.46,.51-.69,.76-.3,.33-.59,.66-.87,.97-.3,.33-.59,.66-.87,.97-3.25,3.62-6.27,7.19-8.85,10.41-.37,.47-.74,.94-1.1,1.4-.69,.89-1.35,1.75-1.95,2.56-.19,.26-.39,.5-.56,.76-1.17,1.6-2.15,3.06-2.88,4.29-.19,.31-.36,.6-.51,.89-6.18,11.34-20.27,46.55-24.56,61.32-4.29,14.77-10.48,38.82-13.74,49.98-.46,1.55-.93,3.88-1.43,6.8-3.13,18.11-6.91,58.41-7.5,68.78-.69,12.02,0,10.65,0,10.65"/><path class="cls-6" d="M45.48,260.09l-.16,.55s14.54,4.1,39.89,4.1c4.42,0,9.17-.12,14.23-.42,2.55-.15,5.04-.21,7.49-.21,22.02,0,40.44,5.35,63.17,5.35,5.97,0,12.24-.37,18.94-1.31h0c2.62-.34,5.29-.81,8.05-1.35l.51-.1-.05-.52s-.08-.84-.21-2.43c-.39-4.77-1.16-16.24-1.16-31.64,0-10.26,.34-22.27,1.37-35.19,1.9-23.91,2.9-41.68,2.9-57.36,0-9.79-.39-18.76-1.18-27.89-1.03-11.91-2.93-20.97-4.56-29.17-1.63-8.2-3-15.54-3-24.07,0-8.98,.52-18.3,.52-26.01,0-3.5-.11-6.67-.42-9.34-.32-2.66-.83-4.82-1.72-6.34-.69-1.16-1.59-2.12-2.63-2.84l-.33,.47,.33-.47c-1.72-1.22-3.79-1.82-5.86-1.82-1.74,0-3.48,.43-5.01,1.29h0c-.14,.08-.29,.17-.44,.27-.13,.08-.26,.17-.39,.26-.15,.1-.27,.19-.38,.28h-.01c-.87,.69-1.63,1.55-2.24,2.57h0c-.47,.8-.98,2.05-1.56,3.68-4.02,11.42-10.85,41.65-11.91,51.51-.1,.95-.2,1.94-.3,2.97-.1,1.05-.2,2.14-.3,3.28l.57,.05-.57-.07c-.04,.39-.07,.78-.1,1.17l.57,.04-.57-.05c-.12,1.33-.23,2.72-.36,4.18h0c-.04,.63-.1,1.27-.16,1.93h0c-.07,1.07-.16,2.14-.24,3.25h0c-.04,.51-.07,1.02-.13,1.53h0v.03c-.02,.24-.03,.49-.06,.73v.09h.57l-.57-.04c-.14,1.85-.29,3.76-.44,5.77v.15h.57l-.57-.05c-.04,.54-.09,1.09-.13,1.63-.21,2.91-.46,5.97-.7,9.19-.1,1.28-.21,2.6-.31,3.94h0c-.21,2.67-.44,5.44-.69,8.31-.11,1.43-.24,2.88-.37,4.36-2.06,23.64-7.34,37.25-15.73,51.63-2.09,3.58-4.01,6.23-5.72,7.96-1.71,1.74-3.19,2.5-4.32,2.49-.57,0-1.08-.17-1.59-.54-.76-.56-1.49-1.61-2.11-3.18-.62-1.57-1.13-3.63-1.52-6.18-.98-6.5-1.41-16.5-1.41-27.18,0-11.7,.52-24.24,1.42-34,1.72-18.72,3.44-38.12,6.85-51.09,3.42-13.02,9.43-29.14,11.33-35.71,.52-1.8,1.33-4.11,2.02-6.39,.68-2.29,1.25-4.56,1.25-6.38,0-.97-.16-1.84-.63-2.53-.48-.69-1.31-1.09-2.31-1.08-.95,0-2.09,.3-3.51,.93h0c-.16,.07-.32,.15-.51,.24h-.02c-.15,.09-.31,.17-.48,.26h-.02v.02c-.18,.1-.35,.2-.53,.29h-.02v.02c-.2,.12-.4,.25-.61,.37h-.01c-.57,.37-1.18,.78-1.82,1.26l.34,.46-.33-.47c-.4,.28-.8,.58-1.2,.88h0c-1.73,1.35-3.66,2.97-5.73,4.81-.27,.24-.52,.48-.77,.7h0c-.56,.51-1.12,1.03-1.7,1.57l.39,.42-.39-.42c-.78,.72-1.57,1.47-2.36,2.25l.4,.41-.4-.41c-.63,.6-1.28,1.22-1.91,1.86-.3,.3-.6,.6-.9,.9l-1.82,1.82c-.62,.62-1.22,1.24-1.84,1.88l.41,.4-.41-.4c-1.22,1.25-2.44,2.54-3.66,3.83l.42,.39-.41-.4-.1,.1h-.01c-.56,.62-1.12,1.22-1.69,1.83-.38,.41-.75,.82-1.12,1.22h0c-.23,.27-.46,.52-.68,.76h0c-.31,.34-.6,.67-.88,.98-.3,.34-.59,.67-.87,.97h0c-3.26,3.63-6.28,7.2-8.87,10.43h0c-.37,.48-.75,.95-1.1,1.41-.69,.89-1.35,1.75-1.96,2.57l-.02,.02v-.02c-.16,.24-.36,.49-.56,.77l.48,.32-.46-.34c-1.18,1.62-2.16,3.09-2.91,4.34-.19,.31-.36,.6-.52,.9-3.12,5.72-8.18,17.35-13.02,29.43-4.84,12.08-9.43,24.58-11.59,32-4.3,14.78-10.48,38.84-13.74,49.98-.47,1.59-.94,3.93-1.45,6.86-3.14,18.16-6.92,58.44-7.51,68.84-.23,4.01-.31,6.54-.31,8.14,0,1.15,.04,1.82,.1,2.23,.03,.21,.06,.35,.12,.5l.16,.25c.08,.09,.26,.19,.45,.19,.14,0,.25-.05,.33-.09,.2-.14,.21-.23,.24-.27l-.51-.26-.16,.55,.16-.55-.51-.26,.41,.21-.34-.3-.06,.09,.41,.21-.34-.3,.37,.32-.26-.42-.11,.09,.37,.32-.26-.42,.28,.45v-.53c-.12,0-.22,.04-.28,.08l.28,.45v0l.37-.36c-.06-.06-.21-.16-.37-.16v.52l.37-.36-.27,.27,.35-.16-.08-.11-.27,.27,.35-.16-.07,.03,.08-.03h0l-.07,.03,.08-.03s-.05-.2-.08-.56c-.03-.36-.05-.92-.05-1.72,0-1.56,.08-4.07,.3-8.07,.58-10.33,4.37-50.66,7.49-68.71,.5-2.91,.97-5.23,1.42-6.73,3.27-11.18,9.45-35.23,13.74-49.99,2.13-7.35,6.73-19.84,11.55-31.89,4.82-12.05,9.89-23.69,12.96-29.31,.15-.27,.32-.56,.51-.87,.72-1.21,1.68-2.66,2.85-4.25h0v-.02c.16-.23,.36-.46,.56-.74l-.46-.33,.46,.34c.6-.81,1.25-1.66,1.94-2.55,.35-.45,.73-.93,1.1-1.4h0c2.57-3.21,5.58-6.76,8.83-10.38h0c.29-.32,.58-.65,.87-.97,.29-.32,.58-.65,.87-.97l-.42-.39,.42,.39c.24-.25,.47-.51,.7-.77l-.43-.38,.42,.39c.38-.41,.75-.82,1.12-1.22,.57-.61,1.13-1.22,1.69-1.82l-.42-.39,.41,.4,.1-.1h0c1.22-1.3,2.43-2.59,3.64-3.82h0c.61-.65,1.21-1.26,1.82-1.87l1.82-1.82c.3-.3,.6-.6,.9-.9,.62-.62,1.26-1.23,1.89-1.84h0c.78-.77,1.57-1.51,2.34-2.23h0c.57-.55,1.12-1.06,1.68-1.56h0c.27-.23,.52-.48,.77-.7,2.05-1.83,3.96-3.44,5.67-4.76l-.35-.45,.34,.46c.4-.3,.8-.6,1.17-.86h.01c.61-.47,1.2-.86,1.75-1.22l-.31-.48,.29,.49c.22-.13,.43-.27,.61-.38l-.3-.49,.27,.5c.2-.11,.37-.21,.55-.31l-.29-.49,.26,.51c.17-.09,.35-.17,.52-.27l-.27-.5,.25,.51c.16-.08,.31-.15,.47-.22l-.24-.52,.23,.52c1.34-.59,2.35-.83,3.05-.83,.75,.01,1.1,.22,1.37,.59,.27,.38,.43,1.02,.43,1.87,0,1.59-.53,3.8-1.2,6.05-.68,2.25-1.49,4.55-2.02,6.4-1.87,6.48-7.9,22.65-11.34,35.74-3.45,13.14-5.17,32.56-6.89,51.28-.9,9.81-1.42,22.37-1.42,34.1,0,10.72,.43,20.74,1.43,27.35,.52,3.47,1.28,6.13,2.3,7.97,.51,.92,1.1,1.64,1.77,2.14,.67,.5,1.45,.77,2.27,.77,1.64-.01,3.32-1,5.14-2.83,1.82-1.84,3.78-4.56,5.9-8.19,8.45-14.47,13.82-28.35,15.88-52.11,.13-1.49,.26-2.93,.37-4.37,.24-2.88,.47-5.64,.69-8.32h0c.1-1.33,.21-2.65,.31-3.94,.24-3.22,.49-6.28,.7-9.19,.04-.54,.09-1.08,.13-1.63v-.14h-.57l.57,.05c.16-2,.3-3.92,.44-5.77v-.07h-.57l.57,.06c.03-.28,.05-.55,.06-.79l-.57-.03,.57,.06c.06-.55,.09-1.07,.13-1.56h0c.09-1.12,.17-2.2,.24-3.26l-.57-.04,.57,.05c.06-.66,.11-1.31,.16-1.94l-.57-.04,.57,.05c.13-1.46,.24-2.85,.36-4.18h0c.03-.39,.06-.77,.1-1.13h0v-.02c.1-1.14,.2-2.23,.3-3.27,.1-1.03,.2-2.01,.3-2.96,.59-5.52,3.08-17.81,5.85-29.41,1.38-5.8,2.84-11.44,4.15-15.98,.66-2.27,1.29-4.27,1.85-5.87,.56-1.6,1.07-2.82,1.47-3.48h0c.54-.9,1.21-1.64,1.97-2.25l-.35-.45,.34,.46c.12-.09,.22-.17,.33-.24,.13-.08,.26-.17,.39-.26,.11-.07,.24-.15,.36-.22h0c1.34-.76,2.9-1.14,4.45-1.14,1.85,0,3.7,.54,5.2,1.61h0c.9,.63,1.69,1.47,2.29,2.49,.75,1.26,1.26,3.3,1.57,5.89,.31,2.59,.42,5.72,.42,9.2,0,7.66-.52,16.99-.52,26.01s1.38,16.08,3.02,24.29c1.63,8.21,3.52,17.21,4.54,29.05,.79,9.1,1.18,18.04,1.18,27.79,0,15.63-.99,33.37-2.89,57.27-1.03,12.96-1.38,24.99-1.38,35.28,0,20.58,1.38,34.17,1.38,34.19l.57-.06-.11-.56c-2.74,.54-5.39,1-7.98,1.34h0c-6.64,.93-12.85,1.3-18.78,1.3-22.53,0-40.95-5.35-63.17-5.35-2.47,0-4.98,.07-7.56,.21-5.04,.29-9.77,.41-14.16,.41-12.61,0-22.52-1.02-29.27-2.03-3.37-.51-5.96-1.02-7.7-1.39-.87-.19-1.53-.35-1.97-.46-.44-.11-.65-.17-.65-.17l-.45-.13-.21,.42,.51,.26"/><path class="cls-4" d="M123.8,176.61c2.06,13.74,7.9,14.08,16.32-.34,8.42-14.43,13.74-28.17,15.8-51.87,2.06-23.7,3.09-41.22,4.29-52.39,1.2-11.16,9.96-49.12,13.4-54.96,.82-1.39,1.95-2.43,3.25-3.16-1.1-4.8-3.02-8.69-6.17-10.41-11.85-6.44-25.41-1.1-30.15,5.67-.73,1.03-1.79,3.01-3.06,5.63,.79-.5,1.49-.89,2.12-1.16,9.79-4.29,4.29,8.25,2.4,14.77-1.89,6.53-7.9,22.67-11.34,35.73-3.44,13.05-5.15,32.46-6.87,51.19-1.72,18.72-2.06,47.58,0,61.32"/><path class="cls-1" d="M123.8,176.61l-.57,.08c.52,3.48,1.28,6.13,2.3,7.97,.51,.92,1.1,1.64,1.77,2.14,.67,.5,1.45,.77,2.27,.77,1.64-.01,3.32-1.01,5.14-2.83,1.82-1.84,3.78-4.55,5.9-8.19,8.45-14.47,13.82-28.35,15.88-52.11,2.06-23.71,3.09-41.24,4.29-52.38,.59-5.52,3.08-17.81,5.85-29.41,1.38-5.8,2.84-11.44,4.15-15.98,.66-2.27,1.29-4.27,1.85-5.87,.56-1.6,1.07-2.82,1.47-3.48,.76-1.3,1.81-2.27,3.04-2.95l.37-.21-.1-.42c-.56-2.43-1.33-4.66-2.38-6.51-1.05-1.85-2.38-3.35-4.08-4.27-3.86-2.1-7.89-2.97-11.75-2.97-8.29,.01-15.76,4.01-19.14,8.82h0c-.77,1.09-1.83,3.07-3.11,5.7l-.89,1.82,1.71-1.09c.77-.49,1.45-.86,2.04-1.12h0c1.34-.59,2.35-.83,3.05-.83,.75,.01,1.1,.22,1.37,.59,.27,.38,.43,1.02,.43,1.87,0,1.59-.53,3.8-1.2,6.05-.67,2.25-1.49,4.55-2.02,6.4-1.87,6.48-7.9,22.65-11.34,35.74-3.45,13.14-5.17,32.56-6.89,51.28-.9,9.81-1.42,22.37-1.42,34.1,0,10.72,.43,20.74,1.43,27.35l.57-.08,.57-.08c-.98-6.5-1.42-16.5-1.41-27.18,0-11.7,.52-24.24,1.42-34,1.72-18.72,3.44-38.12,6.85-51.09,3.42-13.02,9.43-29.14,11.33-35.71,.52-1.8,1.33-4.11,2.02-6.39,.68-2.29,1.25-4.56,1.25-6.38,0-.97-.16-1.84-.63-2.53-.48-.69-1.31-1.09-2.31-1.08-.95,0-2.09,.3-3.51,.93h0c-.67,.29-1.39,.69-2.2,1.2l.31,.48,.51,.25c1.27-2.61,2.33-4.58,3.02-5.54h0c3.08-4.43,10.29-8.34,18.2-8.33,3.69,0,7.53,.84,11.2,2.83,1.46,.79,2.65,2.11,3.63,3.83,.97,1.72,1.72,3.84,2.26,6.2l.56-.13-.28-.5c-1.38,.77-2.59,1.89-3.46,3.37-.47,.8-.98,2.04-1.56,3.68-4.02,11.42-10.85,41.65-11.91,51.51-1.2,11.19-2.23,28.7-4.3,52.4-2.06,23.64-7.34,37.25-15.73,51.63-2.09,3.58-4.01,6.23-5.72,7.96-1.71,1.74-3.19,2.5-4.32,2.49-.57,0-1.08-.17-1.59-.54-.76-.56-1.49-1.61-2.11-3.18-.62-1.57-1.13-3.63-1.52-6.18l-.57,.08"/><path class="cls-2" d="M142.88,13.31c-.7,0-1.71,.24-3.04,.83h0c-.16,.07-.31,.14-.47,.22h0c-.16,.08-.32,.17-.47,.24h-.01c-.15,.1-.31,.19-.48,.28-.03,.02-.07,.04-.11,.06-.16,.1-.33,.21-.52,.32h0l-.04,.03c-.54,.35-1.1,.73-1.7,1.17h-.01c-.38,.28-.77,.57-1.17,.87h0c-1.7,1.32-3.61,2.93-5.66,4.75-.25,.22-.51,.46-.77,.7h0c-.55,.5-1.11,1.01-1.68,1.55h0c-.77,.72-1.55,1.46-2.34,2.23h0c-.63,.61-1.27,1.22-1.89,1.84-.3,.3-.6,.6-.9,.9l-1.82,1.82c-.61,.61-1.21,1.22-1.82,1.87h0c-1.21,1.24-2.43,2.53-3.64,3.82h0l-.1,.11h0c-.55,.6-1.11,1.19-1.68,1.8-.36,.39-.74,.81-1.11,1.21h0c-.23,.25-.46,.51-.69,.76h0c-.3,.32-.58,.65-.87,.97-.29,.32-.58,.65-.87,.97h0c-3.24,3.61-6.26,7.17-8.83,10.38h0c-.37,.47-.74,.94-1.1,1.4-.68,.88-1.34,1.74-1.94,2.55h0c-.2,.28-.4,.52-.55,.74h0v.02c-1.17,1.59-2.13,3.04-2.85,4.25-.19,.32-.36,.6-.51,.87-3.07,5.62-8.14,17.26-12.96,29.31-4.83,12.05-9.42,24.55-11.55,31.89-4.29,14.76-10.47,38.8-13.74,49.99-.29,.96-.58,2.26-.89,3.84,4.58-11.82,8.86-23.66,10.47-30.62,4.12-17.78,20.61-68.46,30.66-81.93,10.05-13.47,35.3-38.13,41.31-41.22,.65-.34,1.16-.5,1.52-.5,3.01,0-3.08,10.96-8.82,27.04-6.44,18.03-5.75,20.53-11.94,59.34-6.18,38.82-2.75,47.75,0,84.16,1.33,17.69,4.29,23.46,7.45,23.46,3.35,0,6.92-6.47,9.04-12.12,4.12-10.99,17.52-19.58,23.02-47.41,2.85-14.42,2.74-40.3,1.98-61.9-.25,3.35-.53,6.91-.82,10.68-.02,.33-.05,.65-.07,.98-.04,.57-.09,1.14-.14,1.71-.05,.65-.1,1.32-.16,1.98,0,.08-.01,.16-.02,.24h0c-.11,1.35-.22,2.71-.33,4.11-.12,1.5-.25,3.02-.38,4.57-.1,1.17-.2,2.36-.31,3.57-.01,.15-.03,.3-.04,.44h0c-2.06,23.76-7.43,37.64-15.88,52.11-2.12,3.63-4.08,6.35-5.9,8.19-1.81,1.83-3.5,2.82-5.14,2.83h-.01c-.8,0-1.56-.26-2.22-.75l-.03-.02c-.68-.5-1.26-1.22-1.77-2.14l-.02-.04c-1.01-1.84-1.76-4.48-2.28-7.92h0c-.99-6.62-1.43-16.63-1.43-27.35h0c0-11.73,.52-24.3,1.42-34.1,1.72-18.72,3.43-38.14,6.89-51.28,3.44-13.09,9.46-29.26,11.34-35.74,.54-1.85,1.35-4.15,2.02-6.4,.68-2.25,1.21-4.46,1.2-6.05,0-.83-.15-1.47-.41-1.85v-.02h-.01c-.27-.37-.62-.58-1.37-.59h0"/><path class="cls-10" d="M156.49,124.45h0c-2.06,23.76-7.43,37.64-15.88,52.11-2.12,3.63-4.08,6.35-5.9,8.19-1.81,1.83-3.5,2.82-5.14,2.83h0c1.64-.01,3.32-1,5.14-2.83,1.82-1.84,3.78-4.56,5.9-8.19,8.45-14.47,13.82-28.35,15.88-52.11h0m.34-4.01c-.1,1.17-.2,2.36-.31,3.57,.11-1.21,.21-2.39,.31-3.57m.73-8.92c-.11,1.42-.23,2.87-.35,4.34,.12-1.39,.23-2.76,.33-4.1h0c0-.08,.01-.16,.02-.24m.37-4.68c-.07,.89-.14,1.79-.21,2.7,.05-.58,.09-1.15,.14-1.71,.03-.33,.05-.66,.07-.98M137.74,15.29l-1.65,1.05,.46-.95c-12,8.23-38.2,36.83-43.83,47.17-6.18,11.34-20.27,46.55-24.56,61.32-4.29,14.77-10.48,38.82-13.74,49.98-.46,1.55-.93,3.88-1.43,6.8,.37-.93,.73-1.87,1.09-2.8,.31-1.58,.6-2.88,.89-3.84,3.27-11.18,9.45-35.23,13.74-49.99,2.13-7.35,6.73-19.84,11.55-31.89,4.82-12.05,9.89-23.69,12.96-29.31,.15-.27,.32-.56,.51-.87,.72-1.21,1.68-2.66,2.85-4.25h0v-.02c.16-.23,.36-.46,.56-.74h0c.6-.81,1.25-1.66,1.94-2.55,.35-.45,.73-.93,1.1-1.4h0c2.57-3.21,5.58-6.76,8.83-10.38h0c.29-.32,.58-.65,.87-.97,.29-.32,.58-.65,.87-.97h0c.23-.25,.46-.51,.69-.76h0c.37-.4,.74-.82,1.11-1.21,.57-.61,1.12-1.21,1.68-1.8h0l.1-.1h0c1.22-1.3,2.43-2.59,3.64-3.82h0c.61-.65,1.21-1.26,1.82-1.87l1.82-1.82c.3-.3,.6-.6,.9-.9,.62-.62,1.26-1.23,1.89-1.84h0c.78-.77,1.57-1.51,2.34-2.23h0c.57-.55,1.12-1.06,1.68-1.56h0c.27-.23,.52-.48,.77-.7,2.05-1.82,3.96-3.43,5.66-4.75h0c.4-.3,.8-.6,1.17-.86h.01c.59-.45,1.16-.84,1.7-1.18m.56-.35c-.16,.1-.33,.2-.5,.31h-.01c.19-.1,.36-.21,.52-.31m.59-.34c-.16,.09-.32,.18-.48,.27,.17-.09,.33-.19,.48-.27m.96-.47h0c-.29,.13-.6,.28-.93,.46,.16-.08,.32-.16,.47-.24h0c.16-.08,.31-.15,.47-.22h0m3.04-.83h0"/><path class="cls-5" d="M158.57,91.06c-.7,9.23-1.52,20.35-2.65,33.34-2.06,23.7-7.39,37.44-15.8,51.87-4.21,7.21-7.77,10.74-10.54,10.74s-4.75-3.52-5.78-10.39h0l-.57,.08h0c.52,3.45,1.27,6.08,2.28,7.92l.02,.04c.51,.92,1.1,1.64,1.77,2.14l.03,.02c.66,.49,1.43,.75,2.22,.75h0c1.64-.01,3.32-1.01,5.14-2.83,1.82-1.84,3.78-4.55,5.9-8.19,8.45-14.47,13.82-28.35,15.88-52.11h0c.01-.15,.03-.3,.04-.44,.1-1.21,.21-2.39,.31-3.57,.13-1.55,.26-3.08,.38-4.57,.12-1.47,.24-2.92,.35-4.34,.05-.67,.11-1.33,.16-1.98,.07-.91,.14-1.81,.21-2.7,.3-3.77,.57-7.33,.82-10.68-.06-1.73-.13-3.43-.19-5.1m-15.68-78.33c-.83,0-1.9,.27-3.28,.88-.87,.38-1.9,.99-3.06,1.78l-.46,.95,1.65-1.05,.04-.03h.01c.17-.12,.34-.22,.5-.32,.04-.02,.07-.04,.11-.06,.17-.1,.33-.19,.48-.27h.01c.33-.19,.64-.34,.93-.47h0c1.33-.59,2.34-.83,3.04-.83h0c.75,.01,1.1,.22,1.37,.59h0v.02c.28,.38,.43,1.02,.43,1.85,0,1.59-.53,3.8-1.2,6.05-.67,2.25-1.49,4.55-2.02,6.4-1.87,6.48-7.9,22.65-11.34,35.74-3.45,13.14-5.17,32.56-6.89,51.28-.9,9.81-1.42,22.37-1.42,34.1h0c0,10.72,.43,20.74,1.43,27.35h0l.57-.08h0c-2.06-13.74-1.72-42.6,0-61.32,1.72-18.72,3.43-38.13,6.87-51.19,3.43-13.05,9.45-29.2,11.34-35.73,1.62-5.61,5.91-15.65,.88-15.65"/><path class="cls-2" d="M187.2,15.15c.6,6.54,.91,14.2,.16,20.62-1.72,14.43-2.06,19.93,3.78,47.41,5.84,27.48,6.53,70.08,4.12,80.73-2.4,10.65-7.56,57.71-7.9,78.32-.11,6.75,.46,15.48,1.54,24.79,2.43-.32,4.91-.74,7.46-1.24-.25-2.67-1.33-15.42-1.33-33.67,0-10.29,.34-22.32,1.38-35.28,1.9-23.9,2.89-41.64,2.89-57.27,0-9.75-.39-18.69-1.18-27.79-1.03-11.84-2.91-20.83-4.54-29.05-1.63-8.21-3.02-15.64-3.02-24.29s.52-18.35,.52-26.01c0-3.48-.11-6.61-.42-9.2-.3-2.59-.82-4.63-1.57-5.89-.51-.87-1.16-1.6-1.9-2.19"/><path class="cls-10" d="M187.13,14.38c.02,.25,.05,.51,.07,.77,.74,.59,1.38,1.32,1.9,2.19,.75,1.26,1.26,3.3,1.57,5.89,.31,2.59,.42,5.72,.42,9.2,0,7.66-.52,16.99-.52,26.01s1.38,16.08,3.02,24.29c1.63,8.21,3.52,17.21,4.54,29.05,.79,9.1,1.18,18.04,1.18,27.79,0,15.63-.99,33.37-2.89,57.27-1.03,12.96-1.38,24.99-1.38,35.28,0,18.24,1.08,31,1.33,33.67,.17-.03,.34-.07,.51-.1h.06c-.4-4.37-2.79-33.08,.05-68.8,3.09-38.82,3.78-61.42,1.72-85.15-2.06-23.75-7.56-36.11-7.56-53.29s1.89-35.56-1.55-41.39c-.64-1.09-1.49-1.99-2.46-2.66"/><path class="cls-7" d="M1.94,382.99c1.56,5.14,6.46,12.05,12.97,18.95,6.37,6.77,14.29,13.5,22.1,18.48,2.61,1.65,5.18,3.11,7.7,4.31,9.52,4.55,22.9,9.19,35.33,11.59,10.76,2.08,20.81,2.49,27.02-.26,13.4-5.91,22.16-11.85,26.28-14.17,2.12-1.19,4.51-1.16,7.28,0,2.62,1.1,5.57,3.19,8.95,6.21,1.4,1.26,3.19,2.32,5.23,3.22,8.07,3.55,20.04,4.54,27.24,4.74,9.02,.26,32.46-9.53,44.31-28.08,11.85-18.55,2.58-42.77-5.15-59.77-7.73-17.01-15.97-35.56-17.52-52.56-1.55-17-6.7-29.4-6.7-29.4-2.75,.54-5.41,1-8.02,1.35-19.37,2.71-35.07,.67-50.63-1.37-12.47-1.63-24.84-3.27-38.91-2.46-34.01,1.96-53.93-3.66-53.93-3.66,0,0-1,5.5-2.73,12.7-2.1,8.77-5.3,20.05-9.12,26.98-6.96,12.62-20.87,28.6-26.02,38.13-5.15,9.53-9.28,33.24-5.67,45.09"/><path class="cls-3" d="M1.94,382.99l-.55,.17c1.62,5.31,6.56,12.24,13.1,19.18,6.4,6.8,14.34,13.56,22.21,18.57,2.62,1.66,5.22,3.13,7.76,4.34,9.57,4.57,22.98,9.22,35.46,11.64,5.5,1.06,10.81,1.69,15.55,1.69,4.59,0,8.64-.59,11.81-1.99,13.44-5.93,22.25-11.9,26.33-14.2,.97-.54,1.98-.81,3.09-.81,1.12,0,2.35,.27,3.69,.84,2.52,1.06,5.43,3.11,8.78,6.11,1.47,1.31,3.3,2.4,5.38,3.32,8.22,3.61,20.22,4.58,27.45,4.79,.12,0,.24,0,.37,0,2.41,0,5.63-.63,9.31-1.84,11.03-3.65,26.25-12.62,35.13-26.51,4.15-6.49,5.74-13.66,5.74-20.94,0-13.89-5.78-28.2-10.86-39.38-7.73-17-15.94-35.51-17.47-52.37-1.56-17.09-6.73-29.53-6.74-29.57l-.18-.43-.46,.09c-2.74,.54-5.39,1-7.98,1.34h0c-6.64,.93-12.85,1.3-18.78,1.3-22.53,0-40.95-5.35-63.17-5.35-2.47,0-4.98,.07-7.56,.21-5.04,.29-9.76,.41-14.16,.41-12.61,0-22.52-1.02-29.27-2.03-3.37-.51-5.96-1.02-7.7-1.39-.87-.19-1.53-.35-1.97-.46-.44-.11-.65-.17-.65-.17l-.61-.17-.11,.62s-.06,.34-.18,.97c-.36,1.88-1.25,6.31-2.54,11.7-2.1,8.75-5.29,20.01-9.06,26.84-3.45,6.26-8.66,13.4-13.65,20.16-4.99,6.76-9.76,13.14-12.38,17.97-1.94,3.6-3.7,9.06-5,15.15-1.29,6.09-2.11,12.8-2.11,18.85,0,4.33,.41,8.32,1.39,11.52l.55-.17,.55-.17c-.93-3.04-1.34-6.94-1.34-11.19,0-5.95,.8-12.59,2.08-18.61,1.27-6.02,3.03-11.42,4.88-14.85,2.54-4.7,7.3-11.08,12.29-17.84,4.99-6.77,10.22-13.93,13.73-20.29,3.87-7.03,7.06-18.33,9.17-27.12,1.74-7.22,2.74-12.72,2.74-12.73l-.56-.1-.16,.55s14.54,4.1,39.89,4.1c4.42,0,9.17-.12,14.23-.42,2.55-.15,5.04-.21,7.49-.21,22.02,0,40.44,5.35,63.17,5.35,5.97,0,12.24-.37,18.94-1.31h0c2.62-.34,5.29-.81,8.05-1.35l-.11-.56-.53,.22s.08,.19,.22,.55c1,2.57,5.09,13.88,6.44,28.68,1.56,17.15,9.84,35.73,17.57,52.75,5.06,11.13,10.76,25.34,10.76,38.91,0,7.12-1.56,14.05-5.56,20.32-5.78,9.05-14.39,16.02-22.69,20.72-4.15,2.35-8.23,4.13-11.83,5.32-3.6,1.19-6.73,1.79-8.95,1.78-.11,0-.23,0-.34,0-7.16-.19-19.1-1.2-27.02-4.69-1.99-.88-3.73-1.92-5.07-3.12-3.4-3.04-6.39-5.17-9.11-6.31-1.45-.61-2.82-.93-4.13-.93-1.29,0-2.52,.32-3.65,.95-4.17,2.35-12.87,8.25-26.23,14.15-2.94,1.3-6.86,1.89-11.35,1.89-4.64,0-9.89-.62-15.34-1.67-12.37-2.39-25.72-7.02-35.19-11.55-2.5-1.19-5.05-2.64-7.64-4.28-7.76-4.95-15.65-11.65-21.99-18.39-6.48-6.86-11.34-13.75-12.84-18.72l-.55,.17"/><path class="cls-11" d="M196.62,266.9c-2.59,.51-5.11,.93-7.58,1.26h0c2.23,18.85,6.42,39.81,10.84,51.36,6.73,17.52,16.35,38.48,16.35,55.31s-9.27,37.1-21.64,46.38c-8.58,6.44-25.82,9.58-38.4,10.07,7.89,3.11,19.05,4.03,25.87,4.21,.11,0,.22,0,.34,0h.01c2.22,0,5.35-.6,8.94-1.78,3.6-1.19,7.68-2.97,11.83-5.32,8.31-4.7,16.91-11.67,22.69-20.72,4.01-6.27,5.56-13.21,5.56-20.32,0-13.57-5.69-27.77-10.76-38.91-7.73-17.01-16-35.6-17.57-52.75-1.35-14.8-5.44-26.11-6.44-28.68l-.05-.12"/><path class="cls-9" d="M196.98,266.25c-2.75,.54-5.41,1-8.02,1.35,.02,.19,.04,.38,.07,.57h0c2.47-.33,4.99-.76,7.58-1.26l.05,.12c1,2.57,5.09,13.88,6.44,28.68,1.56,17.15,9.84,35.73,17.57,52.75,5.06,11.13,10.76,25.34,10.76,38.91,0,7.12-1.56,14.05-5.56,20.32-5.78,9.05-14.39,16.02-22.69,20.72-4.15,2.35-8.23,4.13-11.83,5.32-3.59,1.19-6.72,1.78-8.94,1.78h-.01c-.11,0-.23,0-.34,0-6.82-.18-17.98-1.1-25.87-4.21-.47,.02-.93,.03-1.38,.04,8.07,3.55,20.04,4.54,27.24,4.74,.12,0,.23,0,.35,0,9.26,0,32.26-9.77,43.96-28.09,11.85-18.55,2.58-42.77-5.15-59.77-7.73-17.01-15.97-35.56-17.52-52.56-1.55-17-6.7-29.4-6.7-29.4"/><path class="cls-11" d="M42.77,275.08c-2.1,8.42-5.08,18.49-8.64,24.96-3.51,6.36-8.74,13.52-13.73,20.29-4.99,6.76-9.75,13.14-12.29,17.84-1.86,3.43-3.61,8.83-4.88,14.85-1.28,6.02-2.08,12.66-2.08,18.61,0,4.25,.41,8.15,1.34,11.19h0c1.37,4.55,5.55,10.7,11.21,16.97-5.66-11.03-10.23-33.58-6.69-48.63,3.78-16.12,20.61-30.26,29.89-47.09,4.75-8.64,5.9-19.98,5.88-28.98"/><path class="cls-9" d="M42.75,272.79c-2.1,8.77-5.3,20.05-9.12,26.98-6.96,12.62-20.87,28.6-26.02,38.13-5.15,9.53-9.28,33.24-5.67,45.09h0l.55-.17-.55,.17c1.56,5.14,6.46,12.05,12.97,18.95-.41-.66-.81-1.37-1.21-2.15-5.66-6.26-9.84-12.42-11.21-16.97h0c-.93-3.04-1.34-6.94-1.34-11.19,0-5.95,.8-12.59,2.08-18.61,1.27-6.02,3.03-11.42,4.88-14.85,2.54-4.7,7.3-11.08,12.29-17.84,4.99-6.77,10.22-13.93,13.73-20.29,3.56-6.47,6.54-16.54,8.64-24.96,0-.78-.01-1.55-.03-2.3"/><path class="cls-3" d="M140.93,421.42s-.26-.18-.74-.5c-1.68-1.14-5.98-4.1-10.65-7.67-4.67-3.57-9.7-7.76-12.83-11.31-2.81-3.19-4.87-5.29-6.19-7.46-1.32-2.17-1.97-4.42-1.97-8.14,0-2.2,.23-4.89,.7-8.33,1.02-7.49,3.24-13.71,5.3-19.47,2.06-5.75,3.97-11.04,4.33-16.65,.69-11.01,.69-20.98,.69-20.99h-1.14s0,.62-.01,1.72c-.03,3.31-.16,10.97-.68,19.2-.33,5.39-2.2,10.58-4.26,16.33-2.06,5.75-4.31,12.07-5.35,19.7-.47,3.47-.72,6.21-.72,8.49,0,3.84,.7,6.39,2.14,8.74,1.43,2.34,3.53,4.45,6.31,7.62,3.69,4.19,9.78,9.08,14.97,12.96,5.19,3.87,9.46,6.71,9.47,6.72l.63-.95"/><path class="cls-3" d="M108.18,390.83s-1,.77-2.76,2.13c-5.28,4.07-17.43,13.36-30.05,22.63-5.94,4.37-13.77,5.78-21.49,5.78-6.2,0-12.32-.91-17.32-1.87h-.12v1.14h.01v-.57l-.11,.56c5.03,.97,11.22,1.89,17.53,1.89,7.85,0,15.92-1.42,22.16-6,16.84-12.37,32.84-24.78,32.84-24.78l-.7-.91"/><path class="cls-3" d="M109.09,391.13c-.35-1.33-.53-2.88-.53-4.81,0-2.19,.23-4.89,.7-8.32,1.02-7.49,3.24-13.71,5.3-19.47,2.06-5.75,3.97-11.04,4.33-16.65,.26-4.12,.41-8.09,.52-11.44,.17-5.63,.17-9.55,.17-9.55h-1.14s0,.97-.02,2.65c-.02,1.68-.06,4.06-.15,6.87-.1,3.35-.26,7.3-.51,11.4-.33,5.39-2.2,10.58-4.26,16.33-2.06,5.75-4.31,12.07-5.35,19.7-.47,3.46-.72,6.2-.72,8.48,0,2,.19,3.65,.57,5.1l1.11-.29"/><path class="cls-3" d="M36.45,420.63h.01v-.57l-.11,.56c.71,.15,1.45,.27,2.21,.4h0c4.59,.81,9.92,1.49,15.35,1.49,7.84,0,15.9-1.42,22.15-6,16.84-12.37,32.83-24.79,32.83-24.79l-.7-.91s-1,.77-2.76,2.13c-5.28,4.07-17.43,13.37-30.05,22.64-5.94,4.37-13.76,5.78-21.47,5.78-5.33,0-10.6-.67-15.15-1.47h0c-.76-.13-1.48-.26-2.17-.4h-.13v1.13"/><path class="cls-11" d="M118.13,333.77c-1.32,6.22-4.37,19.45-7.47,25.26-4.12,7.73-11.59,17.78-14.69,28.6-3.09,10.82-26.26,26.04-35.3,30.16-4.6,2.09-11.95,2.65-18.24,2.7,2.06,.29,4.22,.54,6.43,.7,1.65,.12,3.33,.18,5.01,.18h.01c7.66,0,15.42-1.39,21.35-5.68,.05-.03,.09-.07,.14-.1,12.62-9.27,24.77-18.57,30.05-22.64,1.2-.93,2.05-1.58,2.46-1.9-.32-1.36-.48-2.9-.48-4.72h0c0-2.29,.24-5.03,.72-8.49,1.04-7.63,3.29-13.94,5.35-19.7,.23-.63,.45-1.25,.67-1.87,1.79-5.02,3.3-9.67,3.59-14.46,.1-1.54,.18-3.07,.25-4.55,.06-1.2,.11-2.37,.15-3.5"/><path class="cls-9" d="M107.41,386.33h0c0,1.83,.16,3.37,.48,4.73h0c-.32-1.36-.48-2.89-.48-4.73m10.58-49.06c-.07,1.48-.15,3-.25,4.55-.3,4.8-1.81,9.44-3.59,14.46,1.79-5.02,3.3-9.67,3.59-14.46,.1-1.54,.18-3.07,.25-4.55"/><path class="cls-9" d="M75.23,415.69c-5.93,4.29-13.69,5.68-21.35,5.68h-.01c-1.68,0-3.36-.07-5.01-.18,1.66,.12,3.34,.19,5.04,.19,7.65,0,15.4-1.39,21.33-5.68"/><path class="cls-9" d="M118.82,330.43s-.25,1.29-.69,3.34c-.04,1.13-.09,2.3-.15,3.5-.07,1.48-.15,3-.25,4.55-.3,4.8-1.81,9.44-3.59,14.46-.22,.62-.44,1.24-.67,1.87-2.06,5.75-4.31,12.07-5.35,19.7-.47,3.46-.72,6.2-.72,8.48h0c0,1.84,.16,3.37,.48,4.73,.19-.15,.29-.23,.3-.23l.35,.45c-.79-2.98-.73-6.87,.16-13.35,2.06-15.12,8.93-25.08,9.62-36.07,.26-4.11,.42-8.07,.51-11.42"/><path class="cls-9" d="M108.18,390.82s-.1,.08-.3,.23h0c-.42,.32-1.26,.98-2.46,1.9-5.28,4.07-17.43,13.37-30.05,22.64-.05,.03-.09,.07-.14,.1-5.93,4.29-13.68,5.68-21.33,5.68-1.69,0-3.38-.07-5.04-.19-2.21-.16-4.37-.4-6.43-.7-.32,0-.64,0-.96,0-.98,0-1.92-.01-2.82-.03,4.57,.81,9.87,1.48,15.25,1.48,7.78,0,15.71-1.41,21.81-5.89,16.83-12.37,32.82-24.78,32.82-24.78h0l-.35-.45"/></g></svg>