<?xml version="1.0" encoding="UTF-8"?><svg id="Layer_2" xmlns="http://www.w3.org/2000/svg" viewBox="0 0 188.96 426.21"><defs><style>.cls-1{fill:#918a53;}.cls-2{fill:#b5aa77;}.cls-3{fill:#caccb6;}.cls-4{fill:#b1aa6e;}.cls-5{fill:#afa05f;}.cls-6{fill:#f1f4e5;}.cls-7{fill:#c9bd84;}.cls-8{fill:#b5b7a3;}.cls-9{fill:#9d9055;}.cls-10{fill:#d8dbce;}</style></defs><g id="Layer_3"><path class="cls-7" d="M33.65,260.34c7.18-.86,14.53-1.46,21.91-1.87,40.3-2.22,81.44,1.65,101.23,3.99,7.63,.89,12.09,1.56,12.09,1.56-5.77-31.25,2.1-61.03,5.26-90.5,3.16-29.46,11.57-69.45,8.94-103.65-1.9-24.77-13.48-43.74-19.7-52.32-2.37-3.27-3.98-5.03-3.98-5.03-7.19-9.73-5.26-10-5.79-4.21-.15,1.65,.26,6.26,.88,12.42,1.52,15.37,4.31,40.51,2.81,54.4-.32,3.04-1.18,7.02-2.44,11.66-.25,.92-.51,1.89-.8,2.86-.38,1.36-.81,2.76-1.26,4.21-.19,.64-.39,1.29-.6,1.94-.26,.83-.54,1.67-.82,2.53-.26,.8-.53,1.59-.79,2.41-.28,.83-.56,1.67-.85,2.51-.29,.88-.62,1.75-.92,2.64-.2,.58-.41,1.18-.61,1.77-.2,.59-.41,1.18-.63,1.78-.16,.47-.34,.93-.51,1.4-.22,.61-.44,1.24-.67,1.87-1.59,4.38-3.29,8.89-5.06,13.4v.06l-.04,.07c-1.45,3.74-2.92,7.48-4.44,11.18-.42,1.07-.86,2.13-1.3,3.2-.29,.75-.6,1.48-.91,2.21-.19,.45-.37,.89-.56,1.33-.06,.16-.13,.34-.19,.5-.09,.2-.18,.41-.26,.61-.34,.8-.67,1.61-1.01,2.4-2.03,4.87-4.05,9.53-5.98,13.87l-.13,.31-.1,.2-.13,.31c-.4,.89-.79,1.77-1.17,2.62-.23,.51-.47,1.02-.69,1.52-.54,1.2-1.08,2.37-1.61,3.51-.13,.26-.25,.54-.38,.8-.73,1.59-1.45,3.1-2.12,4.52-.12,.22-.22,.45-.34,.67-.19,.41-.38,.8-.57,1.18-12.1,24.73-13.68,.53-16.31-22.62-.35-3.04-.47-6.87-.4-11.28,.01-1.18,.04-2.43,.09-3.68,.03-.86,.07-1.75,.12-2.66,.03-.77,.07-1.55,.12-2.35,.04-.79,.09-1.59,.15-2.41,.01-.41,.04-.82,.07-1.23,.03-.41,.06-.83,.09-1.26,.12-1.67,.25-3.38,.4-5.12,.03-.38,.06-.75,.09-1.11,.04-.51,.09-1.02,.13-1.53,.16-1.77,.34-3.58,.51-5.39,.06-.57,.12-1.13,.18-1.69,.12-1.27,.26-2.54,.41-3.83,.1-.94,.2-1.87,.31-2.81v-.19c.29-2.38,.57-4.78,.88-7.18,.16-1.33,.32-2.65,.5-3.98,.37-2.84,.75-5.67,1.14-8.49,.22-1.53,.44-3.05,.66-4.57,.05-.34,.09-.67,.15-1.01,.26-1.85,.54-3.67,.82-5.48,.41-2.73,.83-5.42,1.26-8.02,.13-.83,.28-1.65,.41-2.46v-.04c.28-1.67,.55-3.29,.83-4.87v-.03c1.55-8.96,3.05-16.5,4.27-21.5,5.26-21.57,4.21-25.78-2.63-21.57-4.41,2.72-28.27,41.04-47.34,83.73-10.54,23.54-19.61,48.42-23.16,69.38-10,58.93-9.47,88.39-9.47,88.39"/><path class="cls-5" d="M33.65,260.34l.07,.58c7.16-.86,14.5-1.46,21.87-1.87,8.44-.47,16.92-.66,25.23-.66,31.31,0,60.27,2.8,75.89,4.65,3.81,.45,6.83,.84,8.89,1.12,2.07,.28,3.17,.45,3.17,.45l.81,.12-.15-.81c-1.47-7.94-2.05-15.79-2.05-23.56,0-22.68,4.96-44.78,7.32-66.76,2.73-25.54,9.45-59.07,9.45-89.92,0-4.69-.16-9.31-.5-13.84-1.92-24.93-13.55-43.99-19.81-52.62-2.38-3.29-4-5.07-4.02-5.08l-.43,.39,.47-.35c-2.05-2.78-3.35-4.77-4.18-6.08-.42-.65-.71-1.14-.94-1.47-.11-.17-.21-.3-.31-.42l-.18-.17c-.08-.06-.2-.14-.42-.14-.16,0-.35,.08-.44,.18-.18,.19-.19,.32-.22,.42-.03,.18-.04,.35-.04,.57,0,.65,.02,1.71-.11,3.2-.02,.25-.03,.55-.03,.9,0,2.16,.38,6.31,.91,11.63,1.21,12.28,3.24,30.77,3.24,44.75,0,3.53-.13,6.76-.43,9.53-.32,2.99-1.17,6.94-2.42,11.57-.25,.92-.51,1.88-.8,2.85h0c-.38,1.36-.8,2.76-1.25,4.2v.02h0c-.19,.63-.39,1.27-.6,1.93-.26,.83-.54,1.66-.82,2.52-.26,.8-.52,1.59-.79,2.41l.56,.18-.55-.19c-.28,.83-.56,1.66-.85,2.51h0c-.29,.87-.61,1.75-.92,2.65h0c-.21,.58-.41,1.18-.61,1.76-.2,.59-.41,1.18-.63,1.78h0c-.16,.47-.33,.93-.51,1.4h0c-.22,.62-.44,1.25-.67,1.87h0c-1.59,4.38-3.28,8.88-5.05,13.39v.03l-.03,.06v.04h-.02c-1.45,3.74-2.92,7.48-4.44,11.17v.02h0c-.42,1.05-.86,2.11-1.3,3.18h0c-.29,.75-.59,1.47-.9,2.2-.19,.46-.37,.9-.55,1.32v.02h-.01c-.05,.15-.12,.33-.19,.51l.55,.2-.54-.23c-.09,.2-.18,.41-.26,.61h0c-.34,.81-.67,1.61-1.01,2.4h0c-2.03,4.86-4.04,9.52-5.97,13.86l-.13,.3-.09,.19v.02l-.15,.32,.54,.23-.54-.24c-.39,.89-.79,1.77-1.17,2.61h0c-.23,.51-.47,1.02-.69,1.52v0c-.54,1.2-1.08,2.36-1.6,3.5l.53,.25-.52-.26c-.14,.29-.26,.56-.38,.8h0v.02c-.73,1.59-1.45,3.09-2.12,4.51l.53,.25-.52-.27c-.13,.25-.23,.48-.34,.67h0v.03c-.19,.4-.38,.79-.57,1.17h0c-1.79,3.67-3.35,6.23-4.67,7.85-.66,.81-1.27,1.38-1.79,1.73-.53,.35-.97,.49-1.33,.49-.43,0-.81-.17-1.24-.58-.75-.72-1.48-2.21-2.09-4.24-1.87-6.11-2.87-17.01-4.08-27.67-.28-2.44-.41-5.4-.41-8.78,0-.79,0-1.59,.02-2.42h0c.01-1.18,.04-2.42,.09-3.67,.03-.86,.07-1.75,.12-2.65v0c.03-.77,.07-1.54,.12-2.34,.04-.79,.09-1.59,.15-2.4v-.02h0c.01-.4,.04-.8,.07-1.21,.03-.41,.06-.83,.09-1.26,.12-1.66,.25-3.37,.39-5.11v0c.03-.38,.06-.74,.09-1.11,.04-.51,.09-1.02,.13-1.53,.16-1.76,.34-3.58,.51-5.39h0c.06-.57,.12-1.12,.18-1.69h0c.12-1.27,.26-2.54,.41-3.82,.1-.94,.21-1.87,.31-2.81h0v-.21l-.57-.04,.58,.07c.28-2.38,.55-4.78,.86-7.17h0c.16-1.33,.32-2.65,.5-3.97,.37-2.84,.74-5.67,1.14-8.49,.22-1.53,.44-3.05,.66-4.57h0c.04-.34,.09-.67,.14-.99h0v-.02c.26-1.85,.54-3.66,.82-5.47,.41-2.73,.83-5.42,1.26-8.02,.13-.83,.28-1.65,.41-2.45v-.14h-.58l.58,.1c.28-1.66,.55-3.29,.83-4.86v-.13h-.58l.58,.1c1.55-8.95,3.05-16.48,4.26-21.46,2.23-9.17,3.34-15.2,3.34-18.9,0-1.54-.18-2.68-.63-3.53-.23-.42-.53-.77-.92-1-.38-.23-.82-.33-1.28-.33-1.16,.01-2.45,.59-4.02,1.55-.69,.44-1.53,1.35-2.67,2.76-3.93,4.92-10.96,15.86-19.12,30.27-8.15,14.4-17.42,32.26-25.77,50.96-10.55,23.57-19.64,48.48-23.21,69.52-9.05,53.34-9.48,82.57-9.48,87.69,0,.54,0,.81,0,.81v.65l.65-.08-.07-.58h.58s0-.27,0-.8c0-5.05,.43-34.21,9.47-87.49,3.54-20.88,12.6-45.72,23.12-69.24,9.53-21.32,20.25-41.56,29.14-56.8,4.44-7.62,8.43-13.99,11.57-18.62,1.57-2.31,2.93-4.19,4.03-5.56,1.09-1.37,1.96-2.25,2.37-2.49,1.48-.92,2.67-1.39,3.4-1.37,.29,0,.5,.06,.68,.17,.26,.16,.51,.46,.69,1.04,.18,.57,.29,1.4,.29,2.48,0,3.47-1.08,9.49-3.31,18.62-1.22,5.02-2.72,12.57-4.27,21.54v.13h.58l-.58-.1c-.28,1.58-.56,3.21-.83,4.87v.14h.58l-.58-.1c-.13,.8-.28,1.62-.41,2.46-.42,2.6-.85,5.29-1.26,8.03-.28,1.81-.56,3.63-.82,5.48l.58,.08-.58-.1c-.06,.35-.11,.7-.15,1.03l.58,.08-.58-.08c-.22,1.52-.44,3.04-.66,4.58-.4,2.82-.78,5.66-1.14,8.5-.18,1.33-.34,2.65-.5,3.98h0c-.31,2.4-.59,4.8-.86,7.18h0v.22l.57,.04-.58-.06c-.1,.93-.21,1.87-.31,2.81-.15,1.28-.29,2.56-.41,3.84l.58,.05-.58-.06c-.06,.57-.12,1.12-.18,1.69h0c-.18,1.82-.35,3.63-.51,5.4-.05,.51-.09,1.03-.13,1.54-.03,.37-.06,.73-.09,1.12v0c-.15,1.74-.28,3.45-.4,5.12-.03,.43-.06,.85-.09,1.26-.03,.41-.06,.83-.07,1.25l.58,.02-.58-.04c-.06,.82-.1,1.63-.15,2.42-.04,.8-.09,1.58-.12,2.36h0c-.04,.9-.09,1.79-.12,2.66-.04,1.26-.07,2.51-.09,3.7h0c-.01,.83-.02,1.65-.02,2.44,0,3.41,.13,6.42,.42,8.92,.92,8.12,1.72,16.38,2.89,22.64,.59,3.13,1.27,5.77,2.13,7.68,.43,.95,.91,1.73,1.49,2.3,.57,.57,1.28,.92,2.06,.92,.66,0,1.32-.24,1.98-.69,1.97-1.34,4.13-4.47,6.87-10.04h0c.19-.38,.38-.78,.58-1.19l-.53-.25,.52,.27c.13-.25,.23-.48,.34-.67h0v-.02c.68-1.42,1.39-2.93,2.13-4.52l-.53-.24,.52,.26c.14-.29,.26-.56,.38-.8v-.02h0c.53-1.14,1.07-2.31,1.61-3.51h0c.22-.5,.45-1.01,.68-1.52h0c.38-.85,.78-1.73,1.17-2.62l.02-.04,.11-.27,.09-.19h0l.14-.34-.54-.23,.53,.24c1.93-4.35,3.95-9.01,5.98-13.88h0c.34-.79,.67-1.59,1.01-2.4l-.54-.22,.54,.23c.09-.2,.18-.41,.26-.61h0v-.03c.06-.14,.13-.32,.2-.5l-.55-.2,.54,.23c.19-.45,.37-.89,.56-1.34,.31-.73,.62-1.47,.91-2.22l-.54-.21,.54,.22c.44-1.07,.88-2.14,1.3-3.21l-.54-.22,.54,.22c1.52-3.7,3-7.45,4.45-11.19h0l.03-.07v-.03l.04-.09-.57-.14,.54,.21c1.77-4.52,3.47-9.03,5.06-13.42h0c.24-.63,.46-1.26,.67-1.87l-.55-.2,.55,.2c.17-.47,.35-.94,.52-1.42l-.55-.19,.55,.2c.22-.61,.43-1.21,.63-1.79,.21-.59,.41-1.19,.61-1.77h0c.3-.89,.63-1.76,.92-2.65h0c.29-.85,.57-1.68,.85-2.51h0c.26-.82,.53-1.61,.79-2.42,.28-.86,.55-1.7,.82-2.53,.21-.66,.41-1.3,.6-1.95l-.56-.17,.56,.17c.45-1.45,.88-2.86,1.26-4.23l-.56-.16,.56,.17c.29-.99,.56-1.96,.81-2.88,1.26-4.66,2.13-8.66,2.46-11.75,.31-2.83,.44-6.1,.44-9.66,0-14.08-2.03-32.59-3.24-44.86-.53-5.31-.91-9.48-.9-11.52,0-.32,.01-.59,.03-.79,.11-1.26,.11-2.25,.12-2.9,0-.32,0-.57,.01-.69v-.06h0l-.35-.09,.29,.21,.06-.13-.35-.08,.29,.21-.42-.3,.26,.45,.16-.14-.42-.3,.26,.45-.27-.46v.53l.27-.07-.27-.46v.07l-.28,.38s.1,.08,.28,.09v-.46l-.28,.38,.11-.14-.12,.13h.02l.11-.13-.12,.13s.19,.24,.42,.6c.71,1.1,2.14,3.49,4.96,7.31l.02,.02,.02,.02s.09,.1,.28,.31c.55,.63,1.89,2.22,3.65,4.66,6.19,8.53,17.71,27.41,19.59,52.02,.35,4.49,.5,9.09,.5,13.75,0,30.69-6.69,64.18-9.44,89.79-2.34,21.9-7.32,44.04-7.32,66.89,0,7.84,.59,15.76,2.07,23.78l.57-.11,.09-.58s-4.47-.67-12.11-1.57c-15.65-1.85-44.64-4.66-76.03-4.66-8.33,0-16.83,.2-25.3,.66-7.39,.41-14.76,1.01-21.95,1.88l.07,.58h0"/><path class="cls-2" d="M104.21,113.22c-5.96,27.52-7.36,47.16-6.37,68.47,1.01,21.66,4.67,35.6,10.04,35.6,.24,0,.48-.03,.73-.08,5.77-1.32,10.01-24.2,15.54-39.99,3.66-10.47,10.03-29.51,13.9-41.14-.22,.54-.44,1.07-.66,1.61-.42,1.07-.86,2.14-1.3,3.2h0c-.29,.75-.6,1.48-.91,2.21-.18,.44-.36,.87-.55,1.31-.06,.17-.14,.35-.19,.49v.02h-.01c-.09,.22-.18,.42-.26,.63h0c-.34,.8-.67,1.61-1.01,2.4h0c-2.03,4.86-4.05,9.53-5.98,13.87h0l-.14,.32h0l-.09,.2-.11,.27-.02,.04c-.4,.89-.79,1.77-1.17,2.62h0c-.23,.51-.47,1.02-.68,1.52h0c-.54,1.21-1.08,2.38-1.61,3.52h0v.02c-.13,.24-.24,.51-.39,.8-.73,1.59-1.45,3.1-2.12,4.51h0v.02c-.11,.19-.21,.42-.34,.67-.19,.41-.38,.8-.57,1.18h0c-2.73,5.56-4.9,8.69-6.87,10.03-.66,.44-1.32,.69-1.98,.69h-.01c-.77,0-1.48-.36-2.05-.92-.58-.57-1.06-1.34-1.49-2.3-.87-1.91-1.54-4.54-2.13-7.68-1.17-6.27-1.96-14.53-2.89-22.64-.29-2.5-.42-5.5-.42-8.92,0-.79,0-1.61,.02-2.44h0c.01-1.19,.04-2.43,.09-3.69,.03-.87,.07-1.76,.12-2.67h0c.03-.78,.08-1.55,.12-2.36,.04-.79,.09-1.59,.15-2.41,.02-.42,.04-.83,.07-1.24,.03-.41,.06-.83,.09-1.26,.12-1.66,.25-3.37,.39-5.1h0v-.02h0v0c.03-.38,.06-.75,.09-1.12,.04-.51,.09-1.02,.13-1.54,.16-1.77,.34-3.58,.51-5.4h0c.06-.57,.12-1.13,.18-1.69h0c.05-.53,.1-1.06,.16-1.59"/><path class="cls-9" d="M103.14,124.55v.04h0v-.04m2.22-16.51c-.4,1.76-.79,3.48-1.15,5.18-.06,.53-.11,1.06-.16,1.59h0c-.06,.57-.12,1.12-.18,1.69h0c-.18,1.82-.35,3.63-.51,5.4-.05,.51-.09,1.03-.13,1.54-.03,.37-.06,.73-.09,1.12v.02c-.15,1.73-.28,3.44-.4,5.1-.03,.43-.06,.85-.09,1.26-.03,.41-.06,.82-.07,1.24-.06,.82-.1,1.62-.15,2.41-.04,.8-.09,1.58-.12,2.36h0c-.04,.9-.09,1.79-.12,2.66-.04,1.26-.07,2.51-.09,3.7h0c-.01,.83-.02,1.65-.02,2.44,0,3.41,.13,6.42,.42,8.92,.92,8.12,1.72,16.38,2.89,22.64,.59,3.13,1.27,5.77,2.13,7.68,.43,.95,.91,1.73,1.49,2.3,.57,.56,1.27,.92,2.05,.92h.01c.66,0,1.32-.24,1.98-.69,1.97-1.34,4.13-4.47,6.87-10.04h0c.19-.37,.38-.77,.57-1.17,.13-.24,.23-.47,.33-.67h0v-.02c.68-1.41,1.39-2.92,2.12-4.51,.14-.29,.26-.56,.38-.8v-.02h0c.53-1.14,1.07-2.31,1.61-3.51h0c.22-.5,.45-1.01,.68-1.52h0c.38-.85,.78-1.73,1.17-2.62l.02-.04,.11-.27,.09-.19h0l.14-.34h0c1.93-4.34,3.95-9.01,5.98-13.87h0c.34-.79,.67-1.59,1.01-2.39h0c.09-.2,.18-.41,.26-.61h0v-.03c.06-.14,.13-.31,.19-.49,.19-.44,.36-.87,.55-1.31,.3-.73,.61-1.46,.91-2.21h0c.44-1.07,.88-2.13,1.3-3.2,.22-.53,.44-1.07,.66-1.61,1.87-5.63,3.16-9.52,3.27-9.87-7.51,19.36-16.06,39.05-21.91,51.01-3.61,7.37-6.28,10.39-8.32,10.39-4.81,0-6.14-16.77-7.99-33.02-1.1-9.7,.1-27.52,2.26-46.55"/><path class="cls-2" d="M65.65,105.44c-10.02,22.73-18.55,46.51-21.96,66.61-9.04,53.28-9.47,82.44-9.47,87.49,0,.05,0,.1,0,.15,2.54-.3,5.11-.57,7.68-.8h.15l.02-.02c4.41-.41,8.86-.73,13.32-.97-2.02-7.65-6.81-28.94-5.97-56.48,.67-21.83,9.64-66.08,16.22-95.98"/><path class="cls-9" d="M42.08,258.87h0m24.2-156.29c-10.54,23.54-19.61,48.42-23.16,69.38-9.18,54.12-9.49,83.39-9.48,87.8,2.73-.33,5.49-.62,8.27-.87-2.58,.24-5.14,.5-7.68,.8,0-.05,0-.09,0-.15,0-5.05,.43-34.21,9.47-87.49,3.41-20.1,11.93-43.88,21.96-66.61,.21-.97,.43-1.93,.63-2.87"/><path class="cls-2" d="M164.27,19.83c10.33,26.85,17.74,65.55,15.02,84.32-4.12,28.56-9.89,58.33-20.94,100.42-6.34,24.17-4.88,42.26-1.69,57.29l.2,.02h0c5.74,.67,9.69,1.22,11.3,1.45-1.38-7.75-1.92-15.4-1.92-22.97,0-22.85,4.98-44.99,7.32-66.89,2.75-25.62,9.44-59.11,9.44-89.79,0-4.66-.15-9.26-.5-13.75-1.75-22.9-11.84-40.84-18.22-50.09"/><path class="cls-9" d="M156.65,261.86h0l.2,.02-.2-.02m6.72-244.3c.3,.75,.6,1.51,.89,2.28,6.38,9.26,16.47,27.19,18.22,50.09,.35,4.49,.5,9.09,.5,13.75,0,30.69-6.69,64.18-9.44,89.79-2.34,21.9-7.32,44.04-7.32,66.89,0,7.57,.55,15.23,1.92,22.97,.27,.04,.47,.07,.61,.09-5.56-31.03,2.24-60.62,5.37-89.89,3.16-29.46,11.57-69.45,8.94-103.65-1.9-24.77-13.48-43.74-19.7-52.32"/><path class="cls-4" d="M103.1,154.59c2.63,23.15,4.21,47.35,16.31,22.62,12.1-24.73,35.78-82.61,37.88-102.07,1.51-13.88-1.29-39.02-2.81-54.4-1.84-6.52-3.33-12.85-3.33-16.27,0-4.25-2.15-4.74-5.04-2.81-3.19,2.09-7.26,7.07-10.39,13.14-2.98,5.77-10.49,20.74-17.29,34.26h0c-2.31,4.6-4.52,9.02-6.44,12.86h0c-5.16,29.74-10.9,74.87-8.89,92.66Z"/><path class="cls-1" d="M103.1,154.59l-.58,.07c.92,8.12,1.72,16.38,2.89,22.64,.59,3.14,1.26,5.77,2.13,7.68,.43,.95,.92,1.73,1.49,2.3,.57,.57,1.28,.92,2.06,.92,.66,0,1.32-.24,1.98-.69,1.97-1.34,4.13-4.47,6.87-10.04,6.06-12.39,15.01-33.05,22.71-53.06,3.85-10.01,7.39-19.85,10.1-28.41,2.71-8.57,4.59-15.85,5.13-20.8,.31-2.83,.44-6.1,.44-9.66,0-14.08-2.03-32.59-3.24-44.86v-.05l-.02-.05c-.92-3.25-1.75-6.45-2.35-9.26-.6-2.8-.96-5.22-.96-6.85,0-1.42-.22-2.49-.7-3.27-.24-.39-.55-.7-.92-.91C149.75,.09,149.33,0,148.9,0c-.98,0-2.01,.45-3.11,1.18h0c-3.33,2.19-7.42,7.22-10.59,13.36-2.98,5.78-10.5,20.74-17.29,34.26l-.06,.12v.15h.59l-.52-.26c-2.31,4.59-4.52,9-6.44,12.85l-.06,.12v.15h.59l-.58-.1c-4.44,25.57-9.31,62.5-9.31,83.74,0,3.48,.13,6.54,.42,9.07l.58-.07,.58-.07c-.28-2.47-.41-5.49-.41-8.94,0-21.09,4.86-58.02,9.29-83.54v-.11h-.58l.52,.26c1.93-3.84,4.14-8.26,6.44-12.85l.06-.12v-.15h-.58l.52,.26c6.8-13.52,14.31-28.49,17.29-34.25,3.08-6,7.15-10.94,10.19-12.92h0c.99-.67,1.87-.99,2.46-.99,.26,0,.47,.05,.65,.15,.27,.15,.51,.42,.71,.93,.19,.51,.31,1.25,.31,2.22,0,1.79,.38,4.25,.99,7.09,.61,2.84,1.44,6.07,2.37,9.33l.56-.16-.58,.06c1.21,12.28,3.24,30.77,3.24,44.75,0,3.53-.13,6.76-.43,9.53-.52,4.79-2.38,12.04-5.08,20.57-8.1,25.6-23.69,62.8-32.74,81.31-1.79,3.66-3.35,6.23-4.68,7.85-.66,.81-1.27,1.38-1.79,1.73-.53,.35-.97,.49-1.33,.49-.43,0-.81-.17-1.24-.59-.75-.72-1.48-2.21-2.09-4.24-1.87-6.11-2.87-17.01-4.08-27.67l-.58,.07Z"/><path class="cls-6" d="M156.24,411.87c-5,.82-9.6,1.08-13.77,.98-17.36-.45-27.27-7.29-27.27-7.29l-.23,.21-.18,.16c-1.67,1.43-8.48,6.85-21.88,12.67-2.51,1.1-5.23,2.19-8.18,3.27-16.88,6.18-21.22,3.32-28.15,1.29-1.9-.57-4-1.07-6.62-1.29-4.85-.42-11.84-3.05-18.82-6.8-10.42-5.58-20.86-13.64-24.32-20.56-5.79-11.58-8.94-48.41-3.16-62.61,3.03-7.41,9.19-14.69,15.08-21.6,5.39-6.31,10.54-12.32,12.8-17.86,4.74-11.58,2.1-32.1,2.1-32.1,46.42-5.55,99.72-.64,123.13,2.12,7.63,.89,12.09,1.56,12.09,1.56,3.16,20.52,7.89,41.04,11.58,58.4,3.68,17.36,8.42,39.46,7.89,53.14-.53,13.68-6.31,32.1-32.1,36.3"/><path class="cls-3" d="M156.24,411.87l-.09-.58c-4.29,.7-8.29,.99-11.96,.99-.57,0-1.14,0-1.69-.02-8.61-.23-15.36-2.03-19.95-3.78-2.3-.87-4.06-1.73-5.23-2.37-.59-.32-1.04-.58-1.33-.76-.15-.09-.26-.16-.33-.21l-.1-.07-.38-.26-.58,.51-.18,.17,.39,.43-.38-.44c-1.62,1.4-8.38,6.79-21.73,12.58-2.5,1.09-5.21,2.18-8.15,3.26-7.63,2.8-12.65,3.71-16.46,3.71-4.57,0-7.49-1.31-11.32-2.44h0c-1.92-.58-4.08-1.08-6.74-1.31-4.7-.4-11.66-3.01-18.6-6.73-5.18-2.77-10.37-6.17-14.67-9.71-4.31-3.54-7.73-7.26-9.4-10.6-1.76-3.52-3.33-9.61-4.42-16.7-1.1-7.09-1.74-15.2-1.74-22.83,0-9.05,.92-17.45,3.03-22.6,2.97-7.28,9.1-14.53,14.99-21.44,5.39-6.32,10.57-12.34,12.9-18.02,2.29-5.62,2.87-13.16,2.88-19.56,0-7.11-.73-12.81-.73-12.83l-.58,.07,.07,.58c15.36-1.84,31.49-2.53,47.04-2.53,31.34,0,60.32,2.8,75.95,4.65,3.81,.45,6.83,.84,8.89,1.12,2.07,.28,3.17,.45,3.17,.45l.09-.58-.58,.09c3.16,20.55,7.9,41.08,11.58,58.43,3.49,16.46,7.92,37.19,7.92,50.84,0,.74-.01,1.46-.04,2.16-.26,6.77-1.83,14.68-6.47,21.39-4.65,6.71-12.37,12.27-25.13,14.36l.09,.58,.09,.58c13.02-2.12,21.09-7.87,25.91-14.85,4.82-6.97,6.41-15.1,6.68-22.01,.03-.71,.04-1.45,.04-2.2,0-13.88-4.45-34.61-7.94-51.08-3.69-17.37-8.42-37.88-11.57-58.37l-.07-.43-.43-.06s-4.47-.67-12.11-1.57c-15.66-1.85-44.68-4.66-76.09-4.66-15.59,0-31.76,.69-47.18,2.54l-.59,.07,.08,.58s.04,.35,.11,.99c.2,1.92,.61,6.42,.61,11.69,0,6.33-.6,13.77-2.79,19.12-2.2,5.4-7.31,11.39-12.71,17.7-5.89,6.92-12.1,14.22-15.18,21.76-2.21,5.43-3.11,13.9-3.11,23.04,0,7.69,.65,15.85,1.76,23.01,1.11,7.16,2.66,13.31,4.53,17.05,1.8,3.59,5.32,7.37,9.7,10.98,4.38,3.61,9.62,7.03,14.86,9.84,7.04,3.76,14.05,6.42,19.05,6.86,2.57,.22,4.63,.7,6.5,1.26h0c3.73,1.09,6.83,2.49,11.65,2.49,4.01,0,9.16-.96,16.87-3.78,2.96-1.09,5.69-2.19,8.22-3.29,13.46-5.84,20.32-11.29,22.03-12.76l.19-.17-.39-.43,.39,.44,.23-.21-.39-.44-.33,.48c.06,.04,10.08,6.94,27.59,7.4,.57,.01,1.14,.02,1.72,.02,3.74,0,7.8-.29,12.15-1.01l-.09-.58"/><path class="cls-3" d="M115.6,405.13s-.26-.24-.71-.67c-1.6-1.51-5.61-5.37-9.32-9.45-1.86-2.04-3.64-4.14-5.01-6.01-1.37-1.87-2.31-3.55-2.49-4.59-.46-2.43-.99-7.06-.99-12.07-.01-6.37,.88-13.39,3.69-17.29l-.95-.68c-3.08,4.34-3.9,11.49-3.91,17.97,0,5.1,.53,9.77,1.01,12.29,.15,.81,.56,1.71,1.13,2.7,2.01,3.45,6.18,8.08,9.87,11.9,3.69,3.81,6.88,6.76,6.89,6.77l.8-.86"/><path class="cls-3" d="M53.99,411.64s1.45-1.07,3.71-2.74c3.4-2.5,8.65-6.33,13.64-9.86,4.99-3.53,9.73-6.77,12.04-8.05,3.12-1.73,6.69-3.22,9.48-4.26,1.39-.52,2.59-.94,3.44-1.22,.85-.28,1.34-.43,1.34-.43l-.34-1.12s-8.1,2.46-14.5,6.01c-1.62,.9-4.25,2.63-7.31,4.74-9.19,6.32-22.21,15.99-22.21,15.99l.7,.94"/><path class="cls-10" d="M97.08,385.26c-.21,.07-.46,.15-.76,.25-.85,.28-2.05,.7-3.44,1.22-2.79,1.04-6.36,2.53-9.48,4.26-2.32,1.28-7.06,4.53-12.04,8.05-2.3,1.63-4.66,3.33-6.87,4.92,7.49-3.7,25.95-12.54,31.04-12.54,.42,0,.75,.06,.98,.19,3.65,2.1,9.35,13.11,9.35,13.11-8.61,4.38-25.45,12.55-36.77,15.57-3.97,1.06-7.79,1.92-11.28,2.62,3.34,1.04,6.12,2.12,10.27,2.12,3.81,0,8.83-.92,16.46-3.71,2.94-1.08,5.65-2.17,8.15-3.26,13.14-5.71,19.9-11.02,21.65-12.51-1.02-.96-3.57-3.39-6.42-6.33-3.69-3.81-7.86-8.44-9.87-11.9-.43-.74-.76-1.43-.97-2.07m-2.81-.28c-1.48,.41-3.14,1.06-4.91,1.88,1.84-.76,3.55-1.4,4.91-1.88"/><path class="cls-8" d="M115.2,405.56h0m-.87-.01c-1.75,1.49-8.51,6.81-21.65,12.51-2.5,1.09-5.21,2.18-8.15,3.26-7.63,2.8-12.65,3.71-16.46,3.71-4.15,0-6.93-1.08-10.27-2.12-.41,.08-.82,.16-1.22,.24,3.78,1.11,6.79,2.46,11.49,2.46,3.91,0,8.99-.94,16.66-3.75,17.72-6.5,27.28-13.67,30.02-15.93-.07-.07-.21-.2-.42-.39"/><path class="cls-8" d="M97.49,384.51l.17,.56s-.21,.06-.58,.18c.21,.64,.54,1.33,.97,2.07,2.01,3.45,6.18,8.08,9.87,11.9,2.85,2.94,5.4,5.37,6.42,6.33,.2,.19,.35,.32,.42,.39,.18-.15,.33-.27,.45-.37h0l-3.4-3.27c-10.94-10.28-14.32-17.78-14.32-17.78h0"/><path class="cls-8" d="M97.24,384.51c-.88,0-1.88,.16-2.98,.47-1.36,.48-3.07,1.12-4.91,1.88-11.72,5.49-28.07,18.7-28.07,18.7,0,0,1.21-.62,3.19-1.59,2.21-1.6,4.57-3.29,6.87-4.92,4.99-3.53,9.73-6.77,12.04-8.05,3.12-1.73,6.69-3.22,9.48-4.26,1.39-.52,2.59-.94,3.44-1.22,.3-.1,.56-.18,.76-.25,.37-.12,.58-.18,.58-.18l-.17-.56c-.08,0-.16,0-.24,0"/><path class="cls-10" d="M156.91,263.07c.05,.21,.1,.43,.14,.64,2.32,10.33,5.38,19.22,7.07,27.68,4.21,21.05,19.99,64.19,13.68,89.97-3.86,15.77-21.13,25.65-33.94,30.93,.1,0,.21,0,.31,0,3.67,0,7.67-.29,11.96-.99h0c12.77-2.09,20.48-7.65,25.13-14.36,4.65-6.71,6.21-14.62,6.47-21.39,.03-.7,.04-1.42,.04-2.16,0-13.65-4.43-34.38-7.92-50.84-3.66-17.23-8.35-37.6-11.52-58.01-.5-.07-1.43-.2-2.75-.38-2.03-.28-4.98-.66-8.69-1.09"/><path class="cls-8" d="M156.78,262.46c.04,.2,.09,.4,.13,.6,3.72,.44,6.66,.82,8.69,1.09,1.32,.18,2.25,.31,2.75,.38,3.16,20.4,7.86,40.77,11.52,58.01,3.49,16.46,7.92,37.19,7.92,50.84,0,.74-.01,1.46-.04,2.16-.26,6.77-1.83,14.68-6.47,21.39-4.65,6.71-12.37,12.27-25.13,14.36h0c-4.29,.7-8.29,.99-11.96,.99-.1,0-.21,0-.31,0-.47,.19-.94,.38-1.4,.57,.56,.01,1.13,.02,1.7,.02,3.71,0,7.74-.29,12.06-1,25.78-4.21,31.57-22.62,32.1-36.3,.53-13.68-4.21-35.78-7.89-53.14-3.68-17.36-8.42-37.88-11.58-58.4,0,0-4.46-.67-12.09-1.56"/><path class="cls-10" d="M17.62,312.51c-5.39,6.35-10.72,12.97-13.43,19.61-2.11,5.15-3.03,13.55-3.03,22.6,0,7.63,.65,15.74,1.74,22.83,1.09,7.09,2.66,13.18,4.42,16.7,1.67,3.34,5.09,7.05,9.4,10.6,3.95,3.26,8.65,6.38,13.4,9.02-6.88-8.35-15.54-19.09-19.64-25.14-7.37-10.87-5.96-43.15-1.75-56.12,1.65-5.09,5.19-12.71,8.88-20.09"/><path class="cls-8" d="M18.74,310.3c-5.89,6.91-12.06,14.19-15.08,21.6-5.79,14.21-2.63,51.04,3.16,62.61,3.46,6.93,13.9,14.98,24.32,20.56-.33-.4-.66-.8-1-1.21-4.75-2.64-9.44-5.76-13.4-9.02-4.31-3.54-7.73-7.26-9.4-10.6-1.76-3.52-3.33-9.61-4.42-16.7-1.1-7.09-1.74-15.2-1.74-22.83,0-9.05,.92-17.45,3.03-22.6,2.7-6.64,8.04-13.26,13.43-19.61,.37-.74,.74-1.48,1.12-2.21"/></g></svg>