<?xml version="1.0" encoding="UTF-8"?><svg id="Layer_2" xmlns="http://www.w3.org/2000/svg" viewBox="0 0 161.43 412.32"><defs><style>.cls-1{fill:#918a53;}.cls-2{fill:#b5aa77;}.cls-3{fill:#caccb6;}.cls-4{fill:#b1aa6e;}.cls-5{fill:#afa05f;}.cls-6{fill:#f1f4e5;}.cls-7{fill:#c9bd84;}.cls-8{fill:#b5b7a3;}.cls-9{fill:#9d9055;}.cls-10{fill:#d8dbce;}</style></defs><g id="Layer_3"><path class="cls-4" d="M71.19,96.05c15.84-27.84,45.85-64.42,52.36-73.76,1.74-2.48,3.52-4.84,5.3-7.05-1.01-4.11-2.54-7.69-4.86-8.18-5.78-1.23-14.18,7-28.89,33.44-9.7,17.43-18.4,39.58-23.91,55.55Z"/><path class="cls-1" d="M71.19,96.05l.51,.29c7.9-13.88,19.35-29.97,29.64-43.76,10.29-13.79,19.41-25.25,22.69-29.96,1.73-2.47,3.5-4.82,5.27-7.01l.18-.22-.07-.28c-.51-2.09-1.15-4.05-1.99-5.59-.42-.77-.89-1.44-1.43-1.97-.54-.52-1.17-.91-1.88-1.06-.4-.09-.82-.13-1.25-.13-1.59,0-3.29,.61-5.15,1.86-5.56,3.77-12.76,13.39-23.12,31.99-9.73,17.49-18.43,39.65-23.95,55.65l1.06,.48-.51-.29,.55,.19c5.51-15.95,14.2-38.08,23.87-55.46,6.88-12.37,12.37-20.73,16.83-25.97,2.23-2.62,4.2-4.46,5.93-5.62,1.73-1.17,3.21-1.66,4.49-1.66,.35,0,.68,.04,1,.1,.45,.1,.88,.34,1.31,.76,1.3,1.23,2.37,3.95,3.1,6.99l.57-.14-.45-.37c-1.79,2.21-3.58,4.59-5.32,7.08-3.23,4.63-12.37,16.13-22.67,29.93-10.3,13.8-21.78,29.92-29.72,43.88l.51,.29,.55,.19-.55-.19Z"/><path class="cls-7" d="M19.3,284.86s3.97,.68,11.04,1.06c7.47,.39,18.4,.44,31.76-1.06,26-2.93,52.78-13.63,62.5-16.51,.28-.09,.57-.16,.86-.23,4.52-1.12,10.07-.8,14.68-.15,5.31,.74,9.41,1.95,9.41,1.95,0,0-1.58-33.87-3.68-56.98-2.1-23.11-3.41-103.2-1.05-120.27,1.07-7.73,2.9-18.24,4.99-29.54h0c2.52-13.64,5.44-28.46,7.88-41.1,2.48-12.85,.09-18.22-3.41-20.29-2.81-1.65-6.33-1.18-8.67-.72-5.25,1.05-14.18,9.98-22.06,21.27-7.25,10.4-43.71,54.68-57.2,82.94-1.17,2.42-2.15,4.73-2.93,6.87-9.98,27.31-9.8,43.42-20.31,90.33-10.5,46.92-23.81,82.43-23.81,82.43"/><path class="cls-5" d="M19.3,284.86l-.1,.57s4.01,.69,11.11,1.07c2.64,.14,5.7,.23,9.15,.23,6.36,0,14.02-.32,22.71-1.3,13.05-1.47,26.28-4.89,37.46-8.3,11.18-3.41,20.32-6.81,25.14-8.24h0c.25-.08,.54-.15,.83-.23,2.09-.52,4.43-.73,6.8-.73,2.61,0,5.26,.25,7.66,.59,2.63,.37,4.97,.85,6.65,1.25,.84,.2,1.51,.37,1.97,.49,.46,.12,.71,.2,.71,.2l.79,.23-.04-.82s-1.58-33.88-3.68-57.01c-1.3-14.34-2.31-50.83-2.31-80.42,0-17.93,.37-33.36,1.26-39.72,1.06-7.71,2.9-18.21,4.99-29.52v-.12h-.57l.57,.11c2.52-13.62,5.44-28.44,7.88-41.08,.72-3.71,1.03-6.81,1.03-9.4,0-3.24-.49-5.7-1.33-7.57-.84-1.87-2.04-3.13-3.39-3.93h0c-1.62-.95-3.41-1.23-5.08-1.23-1.48,0-2.88,.23-3.99,.45-1.44,.29-3.03,1.08-4.77,2.27-5.2,3.56-11.71,10.73-17.65,19.24-3.6,5.16-14.54,18.85-26.25,34.76-11.72,15.92-24.22,34.06-31,48.26-1.17,2.44-2.16,4.76-2.95,6.92-5,13.69-7.46,24.59-9.98,37.91-2.52,13.32-5.1,29.06-10.35,52.5-5.25,23.44-11.2,44.03-15.83,58.76-2.32,7.37-4.31,13.26-5.72,17.32-.7,2.03-1.27,3.6-1.65,4.66-.38,1.06-.59,1.61-.59,1.61l-.25,.66,.69,.12,.1-.57,.55,.2s13.32-35.55,23.83-82.5c5.26-23.47,7.84-39.24,10.35-52.54,2.51-13.29,4.96-24.1,9.93-37.72,.78-2.12,1.75-4.41,2.91-6.82,6.71-14.06,19.19-32.18,30.89-48.07,11.7-15.9,22.62-29.54,26.27-34.78,3.92-5.62,8.1-10.65,11.94-14.39,1.92-1.87,3.75-3.42,5.41-4.55,1.66-1.14,3.15-1.85,4.34-2.09,1.08-.22,2.4-.43,3.76-.43,1.54,0,3.12,.27,4.49,1.07h0c1.15,.68,2.16,1.73,2.92,3.4,.75,1.67,1.23,3.97,1.23,7.09,0,2.5-.31,5.53-1.01,9.18-2.44,12.63-5.35,27.46-7.88,41.09v.12h.57l-.57-.11c-2.09,11.31-3.93,21.82-4.99,29.57-.9,6.52-1.27,21.92-1.27,39.88,0,29.62,1,66.09,2.31,80.52,1.05,11.54,1.97,25.78,2.62,37.14,.33,5.68,.59,10.63,.77,14.17s.28,5.65,.28,5.65l.58-.03,.17-.56s-4.14-1.22-9.49-1.97c-2.44-.35-5.13-.6-7.82-.6-2.44,0-4.86,.21-7.08,.76-.29,.07-.6,.15-.9,.24l.18,.56-.17-.56c-4.9,1.46-14,4.85-25.15,8.24-11.14,3.4-24.31,6.79-37.25,8.25-8.64,.97-16.26,1.29-22.58,1.29-3.43,0-6.47-.1-9.09-.23-3.52-.19-6.27-.45-8.14-.67-.93-.11-1.64-.21-2.12-.28-.48-.07-.71-.11-.72-.11l-.1,.58,.55,.2-.55-.2"/><path class="cls-2" d="M154.42,2.53c1.05,5.61,1.5,12.88,.37,18.58-1.84,9.32-12.6,40.57-18.91,67.88-6.3,27.31-10.24,65.65-11.29,102.94-.73,26.2,.21,58.62,.84,75.59,2.18-.53,4.57-.73,6.96-.73,2.63,0,5.28,.25,7.68,.58-1.51-14.55-5.01-49.13-6.63-71.59-2.01-27.75,7.96-110.65,15.34-130.31,.15-.8,.29-1.6,.44-2.4h0v-.06c2.53-13.63,5.45-28.45,7.89-41.09,.7-3.65,1.01-6.68,1.01-9.18,0-3.12-.48-5.42-1.23-7.09-.65-1.45-1.5-2.43-2.47-3.11"/><path class="cls-9" d="M132.4,266.79c-2.39,0-4.78,.2-6.96,.73h0c2.19-.52,4.57-.72,6.97-.72,2.63,0,5.27,.24,7.67,.58h0c-2.4-.34-5.04-.58-7.68-.58M154.27,1.74c.05,.26,.1,.53,.15,.8,.96,.68,1.81,1.66,2.47,3.11,.75,1.67,1.23,3.97,1.23,7.09,0,2.5-.31,5.53-1.01,9.18-2.44,12.63-5.35,27.46-7.88,41.09v.05h0c-.15,.82-.3,1.62-.44,2.42,.35-.93,.69-1.71,1.03-2.35h0c2.52-13.64,5.44-28.46,7.88-41.1,2.48-12.85,.09-18.22-3.41-20.29"/><path class="cls-2" d="M65.44,108.62c-.55,1.27-1.04,2.5-1.48,3.68-4.98,13.62-7.42,24.43-9.93,37.72-2.51,13.29-5.1,29.07-10.35,52.54-9.67,43.2-21.71,76.73-23.58,81.83h.06c.48,.08,1.17,.17,2.08,.28,1.38,.16,3.25,.35,5.55,.51,.86,.06,1.78,.12,2.76,.17,4.5-12.98,11.81-36.41,15.8-61.91,6.04-38.6,12.91-88.49,16.02-102.41,.81-3.65,1.9-7.99,3.07-12.41"/><path class="cls-9" d="M20.15,284.4c.17,.02,.36,.05,.59,.08,.89,.12,2.21,.28,3.93,.44,.92,.09,1.96,.17,3.11,.25-2.3-.16-4.17-.35-5.55-.51-.91-.11-1.6-.2-2.08-.27M66.34,105.23c-1.17,2.42-2.15,4.73-2.93,6.87-9.98,27.31-9.8,43.42-20.31,90.33-9.74,43.49-21.88,77.18-23.6,81.87,.05,0,.13,.02,.23,.04,.1,.02,.22,.03,.36,.05,1.87-5.1,13.91-38.63,23.58-81.83,5.26-23.47,7.84-39.24,10.35-52.54,2.51-13.29,4.96-24.1,9.93-37.72,.43-1.18,.92-2.41,1.48-3.68,.3-1.13,.6-2.26,.91-3.39"/><path class="cls-6" d="M3.54,379.6c.16,.29,.34,.6,.54,.89,6.74,10.97,24.67,22.98,37.62,25.37,2.45,.45,4.64,.82,6.6,1.14,.54,.09,1.06,.18,1.58,.25h.01c7.63,1.18,11.77,1.56,16.33,3.17,5.95,2.1,24.51,2.45,29.41-4.55,4.9-7,11.9-11.2,11.9-11.2,0,0,5.95,.7,23.81,0,5.54-.22,10.62-1.26,14.94-3.25,9.59-4.42,15.44-13.58,14.47-29-1.4-22.36,1.05-41.8-11.2-92.48,0,0-14.36-4.2-24.09-1.81-.29,.07-.58,.15-.86,.23-9.72,2.89-36.5,13.58-62.5,16.51-26,2.92-42.8,0-42.8,0,0,0-5.95,17.71-11.55,40.12-5.6,22.41-10.5,43.42-4.2,54.62"/><path class="cls-3" d="M3.54,379.6l-.51,.28c.16,.3,.35,.62,.57,.94l.48-.34-.5,.31c3.44,5.6,9.66,11.37,16.65,16.08,7,4.71,14.76,8.34,21.36,9.56,2.46,.45,4.65,.82,6.61,1.14,.54,.09,1.07,.17,1.59,.25h.1v-.58l-.09,.58c7.65,1.18,11.76,1.56,16.22,3.14,2.35,.83,6.37,1.36,10.82,1.36,3.7,0,7.67-.38,11.14-1.32,3.46-.95,6.45-2.44,8.12-4.81,2.41-3.44,5.35-6.21,7.68-8.11,1.17-.95,2.18-1.69,2.9-2.18,.36-.25,.65-.44,.84-.56l.22-.14,.07-.04-.3-.5-.07,.58s2.7,.32,9.77,.32c3.54,0,8.17-.08,14.13-.31,5.6-.22,10.75-1.27,15.16-3.31,4.54-2.09,8.29-5.25,10.88-9.6,2.6-4.35,4.03-9.88,4.03-16.7,0-1.06-.03-2.15-.1-3.26-1.4-22.29,1.05-41.86-11.22-92.58l-.08-.33-.32-.1s-8.75-2.57-17.31-2.57c-2.44,0-4.87,.21-7.08,.75-.29,.07-.6,.15-.9,.24l.18,.56-.17-.56c-4.9,1.46-14,4.85-25.15,8.24-11.14,3.4-24.31,6.79-37.25,8.25-8.64,.97-16.27,1.29-22.59,1.29s-11.34-.32-14.78-.65c-1.72-.16-3.04-.32-3.93-.44-.45-.06-.78-.11-1.01-.15-.23-.03-.33-.05-.34-.05l-.49-.09-.16,.47s-5.96,17.73-11.57,40.16C3.44,339.78,0,354.12,0,365.44c0,5.66,.86,10.58,3.03,14.45h0l.51-.29,.51-.29c-2.03-3.6-2.88-8.33-2.88-13.88,0-11.09,3.41-25.39,7.14-40.32,2.8-11.19,5.68-21.21,7.87-28.43,1.09-3.61,2.01-6.52,2.66-8.53,.65-2.01,1.02-3.11,1.02-3.11l-.55-.19-.1,.57s7.53,1.31,20.25,1.31c6.36,0,14.03-.33,22.72-1.3,13.05-1.47,26.28-4.89,37.46-8.3,11.18-3.41,20.32-6.81,25.14-8.24h0c.25-.08,.54-.15,.83-.23,2.09-.52,4.43-.72,6.8-.72,4.16,0,8.42,.63,11.62,1.26,1.6,.32,2.94,.63,3.88,.87,.47,.12,.84,.22,1.09,.29,.25,.07,.38,.11,.38,.11l.16-.56-.57,.14c12.24,50.64,9.78,69.94,11.19,92.38,.07,1.1,.1,2.16,.1,3.19,0,6.66-1.4,11.97-3.87,16.1-2.47,4.14-6.01,7.13-10.37,9.14-4.23,1.96-9.23,2.98-14.72,3.2-5.95,.23-10.57,.31-14.09,.31s-5.93-.08-7.47-.15c-.77-.04-1.31-.08-1.66-.11-.18-.01-.3-.03-.39-.03h-.12l-.2-.04-.17,.1s-7.09,4.25-12.08,11.37c-1.4,2.01-4.14,3.45-7.47,4.35-3.33,.9-7.21,1.28-10.83,1.28-4.34,0-8.32-.54-10.43-1.3-4.64-1.63-8.82-2.01-16.43-3.19h-.1v.58l.08-.58c-.5-.07-1.02-.16-1.57-.25-1.95-.32-4.14-.68-6.58-1.14-6.36-1.17-14.03-4.74-20.92-9.38-6.89-4.63-13.01-10.35-16.31-15.72v-.02h-.02c-.18-.28-.35-.56-.51-.85h0l-.51,.28"/><path class="cls-10" d="M132.4,267.96c-1.9,0-3.79,.13-5.54,.45,4.06,1.04,15.73,5.38,19.18,21.2,4.2,19.26,7.7,61.97,6.3,77.03-.76,8.13-2.44,16.69-5.69,23.93,4.07-2,7.39-4.9,9.74-8.84,2.47-4.14,3.87-9.44,3.87-16.1,0-1.03-.03-2.1-.1-3.19-1.4-22.39,1.04-41.65-11.11-92.04l-.06-.02c-.25-.07-.62-.17-1.09-.29-.94-.24-2.28-.55-3.88-.87-3.21-.63-7.46-1.26-11.62-1.26"/><path class="cls-8" d="M132.4,267.38c-2.4,0-4.79,.21-6.94,.74,0,0,.52,.07,1.4,.3,1.75-.32,3.64-.45,5.54-.45,4.16,0,8.42,.63,11.62,1.26,1.6,.32,2.94,.63,3.88,.87,.47,.12,.84,.22,1.09,.29l.06,.02c12.15,50.39,9.71,69.66,11.11,92.04,.07,1.1,.1,2.16,.1,3.19,0,6.66-1.4,11.97-3.87,16.1-2.35,3.94-5.67,6.83-9.74,8.84-.12,.28-.25,.55-.38,.83,9.59-4.42,15.44-13.58,14.47-29-1.4-22.36,1.05-41.8-11.2-92.48,0,0-8.7-2.55-17.14-2.55"/><path class="cls-3" d="M48.48,407.55c10.48-3.47,20.68-8.03,28.89-12.41,4.1-2.19,7.71-4.34,10.6-6.29,2.89-1.95,5.07-3.7,6.35-5.14,1.19-1.35,2.34-2.72,3.42-4.17,4.62-6.19,7.96-13.48,8.81-24.24,.35-4.4,.47-9.96,.47-15.41,0-10.91-.47-21.42-.47-21.42l-1.17,.05s.03,.65,.07,1.81c.13,3.46,.39,11.4,.39,19.56,0,5.44-.12,10.97-.46,15.32-.84,10.57-4.07,17.58-8.58,23.64-1.05,1.41-2.18,2.76-3.35,4.09-1.15,1.3-3.28,3.02-6.12,4.94-8.55,5.77-23.6,13.39-39.2,18.55l.37,1.11"/><path class="cls-3" d="M107.88,394.19c-4.33-3.31-7.52-8.64-10.08-15.2l-1.09,.43c2.6,6.66,5.87,12.18,10.46,15.7l.71-.93h0"/><path class="cls-10" d="M102.39,296.62c.82,17.16-7.99,50.24-11.85,63.72-3.85,13.48-29.41,32.74-42.25,38.18-3.6,1.52-6.55,2.16-9.12,2.16-6.59,0-10.76-4.2-17.43-8.48-4.93-3.16-11.42-7.5-16.43-10.88,3.43,5.03,9.16,10.27,15.57,14.58,6.89,4.64,14.57,8.21,20.92,9.38,2.39,.44,4.53,.8,6.44,1.11,15.55-5.16,30.54-12.76,39.06-18.51,2.85-1.92,4.97-3.64,6.12-4.94,1.18-1.33,2.3-2.68,3.35-4.09,4.51-6.06,7.74-13.07,8.58-23.64,.35-4.35,.46-9.88,.46-15.32,0-8.16-.26-16.1-.39-19.56-.04-1.15-.07-1.81-.07-1.81l.73-.03c-1.01-14.09-3.7-21.88-3.7-21.88"/><path class="cls-8" d="M4.08,380.49c6.74,10.97,24.67,22.98,37.62,25.37,2.45,.45,4.64,.82,6.59,1.14l-.18-.55,.14-.05c-1.92-.32-4.05-.67-6.44-1.11-6.36-1.17-14.03-4.74-20.92-9.38-6.41-4.31-12.15-9.55-15.57-14.58-.42-.29-.84-.56-1.23-.83"/><path class="cls-10" d="M61.43,402.69c-3.47,1.45-7.05,2.83-10.69,4.1,.15,.02,.3,.05,.45,.07,3.42-1.08,6.84-2.54,10.24-4.16"/><path class="cls-8" d="M50.74,406.78c-.4,.14-.8,.28-1.2,.41,.11,.02,.22,.03,.33,.05h.01c.43-.12,.87-.25,1.3-.39-.15-.02-.3-.05-.45-.07"/><path class="cls-8" d="M106.1,318.5l-.73,.03s.03,.65,.07,1.81c.13,3.46,.39,11.4,.39,19.56,0,5.44-.12,10.97-.46,15.32-.84,10.57-4.07,17.58-8.58,23.64-1.05,1.41-2.18,2.76-3.35,4.09-1.15,1.3-3.28,3.02-6.12,4.94-8.52,5.75-23.51,13.34-39.06,18.51l-.14,.05,.18,.55h0c.42,.07,.84,.14,1.24,.2,.4-.14,.8-.27,1.2-.41,3.64-1.26,7.22-2.64,10.69-4.1,5.38-2.57,10.72-5.55,15.93-8.03,4.04-1.93,7.37-4,10.29-6.29l4.93-3.67c2.58-2.05,3.47-3.24,4.35-4.73-.07-.18-.14-.36-.21-.54l.67-.26c.65-1.16,1.45-2.58,2.98-4.68l.03-.04,.03-.06c3.75-5.14,4.97-10.34,5.46-18.34,.32-5.46,.29-12.22,.51-21.18v-.13c0-.5,.01-1.01,.03-1.52,.14-5.47-.01-10.39-.32-14.71"/><path class="cls-8" d="M97.39,379.16l-.67,.26c.07,.18,.14,.36,.21,.54,.15-.26,.3-.52,.46-.8"/></g></svg>