<?xml version="1.0" encoding="UTF-8"?><svg id="Layer_2" xmlns="http://www.w3.org/2000/svg" viewBox="0 0 171.59 476.36"><defs><style>.cls-1{fill:#b5aa77;}.cls-2{fill:#caccb6;}.cls-3{fill:#afa05f;}.cls-4{fill:#f1f4e5;}.cls-5{fill:#c9bd84;}.cls-6{fill:#b5b7a3;}.cls-7{fill:#9d9055;}.cls-8{fill:#d8dbce;}</style></defs><g id="Layer_3"><path class="cls-5" d="M138.81,297.64c-5.56-10.97-10.43-25.73-15.28-36.27-2.75-5.96-5.48-10.57-8.33-12.37-8.54-5.4-17.87-5.25-35.52-5.7,0,0-21.13-.45-29.68,8.99-6.41,7.08-13.32,23.26-20.54,42.47-2.42,6.42-4.87,13.16-7.34,20.04,0,0,.9-46.32,1.8-85.89,.9-39.57,3.6-95.33,3.6-110.17s1.35-20.68,4.5-44.07c3.15-23.38,2.25-47.67,6.74-63.4,4.5-15.74,17.54-14.84,25.63,6.75,8.1,21.58,41.82,101.18,49.91,121.41,8.09,20.23,15.29,67.45,19.78,95.78,3.97,25.04,6.9,36.74,4.72,62.43"/><path class="cls-3" d="M138.81,297.64l.45-.23c-5.53-10.92-10.41-25.67-15.27-36.26-1.38-2.99-2.76-5.65-4.16-7.81-1.41-2.15-2.83-3.81-4.35-4.77-4.34-2.75-8.9-4.08-14.55-4.78-5.65-.7-12.4-.77-21.22-1,0,0-.17,0-.47,0-1.58,0-6.96,.09-12.95,1.27-5.99,1.19-12.6,3.44-16.64,7.89-3.27,3.61-6.6,9.46-10.04,16.81-3.44,7.35-6.98,16.21-10.59,25.82-2.42,6.42-4.87,13.17-7.35,20.04l.47,.17h.5s.01-.71,.04-2.06c.18-9.41,.97-49.19,1.76-83.82,.9-39.57,3.6-95.31,3.6-110.18s1.34-20.6,4.49-44c1.58-11.72,2.14-23.65,2.87-34.6,.73-10.95,1.63-20.93,3.86-28.73,.99-3.47,2.4-6.1,4.04-7.83,1.65-1.73,3.5-2.58,5.47-2.58,2.42,0,5.09,1.31,7.73,4.14,2.64,2.82,5.22,7.15,7.44,13.06,8.1,21.61,41.83,101.19,49.92,121.42,4.02,10.05,7.85,26.9,11.21,44.76,3.37,17.86,6.29,36.74,8.54,50.91,3.04,19.17,5.46,30.48,5.46,46.19,0,4.83-.23,10.09-.74,16.12l.5,.04,.45-.23-.45,.23,.5,.04c.51-6.05,.74-11.34,.74-16.2,0-15.83-2.43-27.21-5.47-46.35-2.25-14.16-5.17-33.05-8.55-50.94-3.38-17.89-7.2-34.76-11.27-44.95-8.1-20.24-41.83-99.84-49.91-121.4-2.25-6-4.88-10.43-7.64-13.39C54.45,1.5,51.54,0,48.75,0c-2.27,0-4.4,1-6.19,2.89-1.79,1.89-3.25,4.65-4.28,8.24-2.27,7.94-3.16,17.97-3.9,28.94-.73,10.97-1.29,22.87-2.86,34.53-3.15,23.36-4.5,29.25-4.5,44.13,0,14.81-2.7,70.58-3.6,110.16-.9,39.57-1.8,85.89-1.8,85.89l-.06,3.04,1.03-2.86c2.47-6.87,4.92-13.61,7.34-20.03,3.61-9.6,7.14-18.44,10.56-25.75,3.42-7.31,6.74-13.09,9.88-16.56,3.76-4.17,10.2-6.42,16.09-7.58,5.89-1.16,11.22-1.26,12.76-1.26,.29,0,.45,0,.45,0,8.83,.22,15.56,.3,21.13,.99,5.56,.69,9.94,1.98,14.14,4.63,1.32,.83,2.69,2.38,4.05,4.47,1.36,2.09,2.73,4.71,4.09,7.68,4.83,10.5,9.7,25.27,15.29,36.29l.8,1.57,.15-1.76-.5-.04"/><path class="cls-1" d="M48.75,1h0c-1.97,0-3.82,.85-5.47,2.58-1.64,1.73-3.05,4.35-4.04,7.83-2.23,7.8-3.13,17.78-3.86,28.73-.73,10.95-1.29,22.88-2.87,34.6-3.15,23.4-4.49,29.2-4.49,44s-2.7,70.61-3.6,110.18c-.76,33.54-1.52,71.93-1.74,82.85,1.5-4.15,2.98-8.24,4.46-12.23,.77-2.08,1.54-4.14,2.3-6.16-.27-19.76-.34-47.28,.62-73.77,1.8-49.16,7.19-91.73,7.19-112.72S41.9,10.37,48.2,9.92c.25-.02,.49-.03,.73-.03,5.89,0,10.07,5.63,21.3,32.85,11.69,28.33,23.38,67.45,31.48,84.09,8.09,16.64,17.09,45.42,20.24,69.7,3.12,24.04,9.33,41.61,1.82,64.14,.07,.16,.15,.32,.22,.48,4.63,10.07,9.26,23.92,14.47,34.65,.41-5.29,.59-9.98,.59-14.32,0-15.71-2.41-27.02-5.46-46.19-2.25-14.17-5.17-33.05-8.54-50.91-3.37-17.86-7.19-34.71-11.21-44.76-8.09-20.23-41.81-99.81-49.92-121.42-2.21-5.91-4.8-10.23-7.44-13.06-2.64-2.83-5.31-4.14-7.73-4.14"/><path class="cls-7" d="M48.75,.5c-4.24,0-7.97,3.71-9.99,10.77-4.5,15.74-3.6,40.02-6.74,63.4-3.15,23.38-4.5,29.23-4.5,44.07s-2.7,70.6-3.6,110.17c-.8,35.29-1.6,75.95-1.77,84.33,1.68-4.65,3.34-9.24,4.99-13.7-1.48,3.99-2.97,8.08-4.46,12.23,.21-10.92,.98-49.31,1.74-82.85,.9-39.57,3.6-95.31,3.6-110.18s1.34-20.6,4.49-44c1.58-11.72,2.14-23.65,2.87-34.6,.73-10.95,1.63-20.93,3.86-28.73,.99-3.47,2.4-6.1,4.04-7.83,1.65-1.73,3.5-2.58,5.47-2.58h0c2.42,0,5.09,1.31,7.73,4.14,2.64,2.82,5.22,7.15,7.44,13.06,8.1,21.61,41.83,101.19,49.92,121.42,4.02,10.05,7.85,26.9,11.21,44.76,3.37,17.86,6.29,36.74,8.54,50.91,3.04,19.17,5.46,30.48,5.46,46.19,0,4.35-.18,9.04-.59,14.32-5.21-10.72-9.84-24.58-14.47-34.65-.07-.16-.15-.32-.22-.48h0c1.02,2.21,2.04,4.6,3.07,7.1,3.84,9.31,7.75,20.24,12.06,28.9,2.02-25.03-.88-36.74-4.8-61.48-4.5-28.33-11.69-75.54-19.78-95.78-8.09-20.24-41.82-99.83-49.91-121.41C59.92,6.11,53.96,.5,48.75,.5"/><path class="cls-4" d="M164.21,456.89c-10.79,18.44-47.21,19.34-78.24,18.89-31.03-.45-52.16-4.5-60.7-8.54-8.54-4.05-25.63-13.04-24.73-58.91,.9-45.87,11.69-66.1,21.58-93.53,5.56-15.41,10.98-30.25,16.18-41.98,4.05-9.14,7.96-16.39,11.7-20.52,8.54-9.44,29.68-8.99,29.68-8.99,17.65,.45,26.98,.3,35.52,5.7,3.84,2.42,7.47,9.93,11.17,18.97,4.16,10.08,8.41,22.08,13.18,31.09,9.07,17.09,22.42,64.3,26.92,86.34,4.5,22.03,8.54,53.06-2.25,71.5"/><path class="cls-2" d="M164.21,456.89l-.43-.25c-2.36,4.04-6,7.23-10.59,9.75-13.77,7.58-36.13,8.97-57.5,8.96-3.27,0-6.52-.03-9.71-.08-15.49-.22-28.51-1.35-38.72-2.92-10.2-1.57-17.59-3.59-21.78-5.58-4.15-1.97-10.21-5.04-15.3-12.95-5.08-7.91-9.18-20.69-9.18-42.07,0-1.12,.01-2.26,.03-3.42,.9-45.79,11.65-65.89,21.55-93.37,5.56-15.41,10.98-30.24,16.16-41.95,4.03-9.12,7.94-16.34,11.62-20.39,3.76-4.17,10.2-6.42,16.09-7.58,5.89-1.16,11.22-1.26,12.76-1.26,.29,0,.45,0,.45,0,8.83,.22,15.56,.3,21.13,.99,5.56,.69,9.94,1.98,14.14,4.63,1.79,1.12,3.64,3.55,5.46,6.83,1.83,3.28,3.66,7.4,5.51,11.91,4.15,10.07,8.4,22.08,13.2,31.13,4.5,8.47,10.11,24.55,15.14,41.22,5.03,16.68,9.49,33.99,11.73,44.98,2.37,11.63,4.62,25.76,4.62,39.19,0,11.98-1.79,23.38-6.81,31.95l.43,.25,.43,.25c5.16-8.82,6.94-20.38,6.95-32.45,0-13.54-2.26-27.73-4.64-39.4-2.25-11.04-6.72-28.36-11.76-45.07-5.04-16.71-10.64-32.79-15.21-41.4-4.75-8.95-8.99-20.95-13.16-31.05-1.85-4.53-3.69-8.68-5.56-12.02-1.87-3.34-3.75-5.88-5.8-7.18-4.34-2.75-8.9-4.08-14.55-4.78-5.65-.7-12.4-.77-21.22-1,0,0-.17,0-.47,0-1.58,0-6.96,.09-12.95,1.27-5.99,1.19-12.6,3.44-16.64,7.89-3.82,4.22-7.73,11.49-11.79,20.66-5.21,11.75-10.63,26.6-16.19,42.01C11.77,342.01,.93,362.38,.03,408.32c-.02,1.17-.03,2.32-.03,3.44,0,21.5,4.12,34.49,9.34,42.61,5.21,8.12,11.53,11.34,15.71,13.31,4.35,2.06,11.8,4.08,22.06,5.66,10.26,1.58,23.32,2.7,38.85,2.93,3.2,.05,6.45,.08,9.73,.08,14.28,0,29.02-.6,41.44-3.29,6.21-1.34,11.84-3.21,16.55-5.79,4.71-2.58,8.49-5.9,10.97-10.13l-.43-.25"/><path class="cls-8" d="M126.58,269.8c2.66,21.21,13.33,46.16,20.4,64.33,8.39,21.59,9.89,36.57,15.59,54.26,5.7,17.69,6,47.66,2.4,60.55-3.6,12.89-14.39,15.29-28.78,19.49-5.33,1.56-15.45,2.08-26.98,2.08-19.58,0-43.24-1.52-54.56-2.08-17.99-.9-28.18-3.9-38.37-12.29-10.19-8.39-9.59-22.18-11.09-48.26-1.5-26.08,3.45-39.12,7.94-55.02,4.5-15.89,16.64-40.31,22.03-63.24,1.47-6.23,2.36-11.15,2.9-15.03-4.98,11.45-10.16,25.65-15.47,40.38-9.91,27.48-20.65,47.58-21.55,93.37-.02,1.17-.03,2.31-.03,3.42,0,21.38,4.1,34.16,9.18,42.07,5.09,7.91,11.15,10.98,15.3,12.95,4.19,1.99,11.58,4.01,21.78,5.58,10.2,1.57,23.22,2.69,38.72,2.92,3.19,.05,6.44,.08,9.71,.08h.18c21.32,0,43.6-1.41,57.33-8.96,4.59-2.52,8.22-5.71,10.59-9.75h0c5.02-8.57,6.81-19.97,6.81-31.95,0-13.43-2.24-27.56-4.62-39.19-2.24-10.99-6.7-28.3-11.73-44.98-5.03-16.68-10.64-32.75-15.14-41.22-4.54-8.57-8.58-19.78-12.53-29.49"/><path class="cls-6" d="M126.37,267.97c.06,.61,.13,1.22,.21,1.83,3.94,9.71,7.99,20.92,12.53,29.49,4.5,8.47,10.11,24.55,15.14,41.22,5.03,16.68,9.49,33.99,11.73,44.98,2.37,11.63,4.62,25.76,4.62,39.19,0,11.98-1.79,23.38-6.81,31.95h0c-2.36,4.04-6,7.23-10.59,9.75-13.73,7.56-36.01,8.96-57.33,8.96h-.18c-3.27,0-6.52-.03-9.71-.08-15.49-.22-28.51-1.35-38.72-2.92-10.2-1.57-17.59-3.59-21.78-5.58-4.15-1.97-10.21-5.04-15.3-12.95-5.08-7.91-9.18-20.69-9.18-42.07,0-1.12,.01-2.26,.03-3.42,.9-45.79,11.65-65.89,21.55-93.37,5.31-14.73,10.5-28.93,15.47-40.38,.09-.62,.16-1.21,.23-1.77-5.2,11.73-10.62,26.57-16.18,41.98C12.23,342.23,1.43,362.46,.53,408.33c-.9,45.87,16.19,54.86,24.73,58.91,8.54,4.05,29.68,8.09,60.7,8.54,3.19,.05,6.44,.08,9.72,.08,28.54,0,58.85-2.43,68.53-18.96,10.79-18.44,6.75-49.46,2.25-71.5-4.5-22.03-17.85-69.25-26.92-86.34-4.77-9.01-9.02-21.01-13.18-31.09"/></g></svg>