<?xml version="1.0" encoding="UTF-8"?><svg id="Layer_2" xmlns="http://www.w3.org/2000/svg" viewBox="0 0 133.97 463.9"><defs><style>.cls-1{fill:#b5aa77;}.cls-2{fill:#caccb6;}.cls-3{fill:#afa05f;}.cls-4{fill:#f1f4e5;}.cls-5{fill:#c9bd84;}.cls-6{fill:#b5b7a3;}.cls-7{fill:#9d9055;}.cls-8{fill:#d8dbce;}</style></defs><g id="Layer_3"><path class="cls-5" d="M101.47,286.66c-2.41-6.81-4.32-12.15-5.31-15.43-.48-1.59-1-3.2-1.64-4.8h0c-3.88-9.76-11.68-19.01-35.24-18.59-10.89,.2-16.94,1.87-23.38,8.32-1.72,1.72-3.8,5.35-5.95,9.94-4.96,10.62-10.26,26.47-12.34,36.3,.3-19.94,4.8-108.97,4.35-133.7-.45-24.73,1.89-55.27,.04-77.34-.91-10.78-1.02-30.65,1.64-41.89,2.65-11.24,6.79-21.57,7.77-27.95,1.3-8.53,3.82-19.41,8.09-20.83,.74-.25,1.6-.26,2.54,.04,3.03,.97,6.72,5.32,8.56,16,2.4,13.94,4.87,31.93,8.92,42.49,.85,2.21,1.84,4.92,2.93,7.99h0c4.15,11.64,9.86,28.39,15.43,42.14,4.8,11.84,7.19,28.63,9.29,52.46,1.39,15.69,19.92,91.71,14.3,124.85"/><path class="cls-3" d="M101.47,286.66l.47-.17c-2.41-6.81-4.32-12.16-5.3-15.4-.48-1.59-1.01-3.22-1.65-4.84l-.46,.19h.5v-.11l-.04-.09c-1.92-4.82-4.81-9.57-10.07-13.1-5.26-3.53-12.84-5.81-24.08-5.81-.51,0-1.03,0-1.55,.01-5.47,.1-9.76,.57-13.51,1.84-3.75,1.27-6.96,3.36-10.22,6.62-1.81,1.82-3.88,5.46-6.04,10.09-4.98,10.67-10.28,26.52-12.38,36.41l.49,.1h.5c.28-18.96,4.38-100.62,4.38-129.75,0-1.46-.01-2.78-.03-3.96-.04-2.25-.06-4.55-.06-6.88,0-15.83,.82-33.38,.82-49.32,0-7.54-.18-14.71-.72-21.17-.35-4.15-.58-9.65-.58-15.5,0-9.28,.59-19.42,2.21-26.24,2.64-11.21,6.78-21.5,7.78-27.99,.65-4.25,1.6-9.08,2.91-13,.65-1.96,1.4-3.69,2.23-4.99,.82-1.31,1.72-2.16,2.62-2.45h0c.31-.1,.64-.16,1-.16s.79,.06,1.22,.2c1.37,.44,2.96,1.67,4.45,4.14,1.49,2.47,2.85,6.17,3.76,11.47,2.4,13.93,4.86,31.92,8.94,42.59,.85,2.21,1.83,4.91,2.93,7.98l.47-.17h-.5v.1l.03,.08c4.15,11.62,9.86,28.38,15.43,42.15,4.76,11.74,7.16,28.5,9.26,52.32,.31,3.45,1.42,9.71,2.92,17.76,4.49,24.13,12.45,64.36,12.44,92.04,0,5.56-.32,10.62-1.05,14.92l.49,.08,.47-.17-.47,.17,.49,.08c.74-4.38,1.07-9.48,1.07-15.08,0-18.57-3.55-42.64-7.24-63.78-1.85-10.57-3.73-20.41-5.22-28.45-1.5-8.04-2.61-14.3-2.9-17.66-2.1-23.85-4.5-40.66-9.33-52.6-5.56-13.73-11.27-30.48-15.42-42.11l-.47,.17h.5v-.1l-.03-.08c-1.1-3.07-2.09-5.79-2.94-8-4.01-10.47-6.5-28.45-8.89-42.4-.93-5.38-2.32-9.2-3.89-11.81-1.57-2.61-3.33-4.04-5-4.58-.52-.17-1.04-.25-1.52-.25s-.91,.07-1.32,.21h0c-1.24,.42-2.26,1.46-3.15,2.86-1.33,2.11-2.4,5.09-3.26,8.35-.87,3.26-1.53,6.81-2.02,10.02-.95,6.27-5.1,16.64-7.76,27.92-1.65,6.98-2.23,17.14-2.24,26.47,0,5.87,.23,11.4,.59,15.58,.54,6.42,.72,13.57,.72,21.09,0,15.9-.82,33.46-.82,49.32,0,2.34,.02,4.65,.06,6.9,.02,1.17,.03,2.49,.03,3.95,0,29.07-4.09,110.73-4.38,129.74l.99,.11c2.07-9.77,7.37-25.62,12.3-36.19,2.13-4.57,4.21-8.18,5.85-9.8,3.18-3.18,6.23-5.16,9.83-6.38,3.6-1.22,7.78-1.69,13.21-1.79,.52,0,1.03-.01,1.54-.01,11.11,0,18.48,2.25,23.53,5.64,5.05,3.39,7.82,7.93,9.7,12.64l.46-.18h-.5v.11l.04,.09c.63,1.58,1.15,3.18,1.62,4.75,.99,3.3,2.91,8.64,5.32,15.45l.64,1.82,.32-1.9-.49-.08"/><path class="cls-1" d="M40.66,1c-.36,0-.7,.06-1,.16h0c-.9,.29-1.8,1.15-2.62,2.45-.82,1.3-1.57,3.03-2.23,4.99-1.31,3.92-2.27,8.75-2.91,13-1,6.49-5.14,16.79-7.78,27.99-1.62,6.82-2.21,16.96-2.21,26.24,0,5.84,.23,11.35,.58,15.5,.54,6.46,.72,13.64,.72,21.17,0,15.94-.82,33.49-.82,49.32,0,2.34,.02,4.63,.06,6.88,.02,1.18,.03,2.51,.03,3.96,0,27.13-3.55,99.87-4.27,125.02,2.33-9,6.35-20.73,10.31-29.66,.47-1.07,.95-2.1,1.42-3.08-.04-14.91,0-31.88,.25-46.17,.6-34.18-.6-79.14,0-99.53,.6-20.38-3.07-44.05-4.2-59.36-1.12-15.3,8.99-24.58,9.29-35.08,.18-6.64,.91-17.84,6.34-23.69-.34-.09-.67-.13-.98-.13"/><path class="cls-7" d="M40.66,.5c-.41,0-.8,.07-1.16,.19-4.27,1.42-6.8,12.3-8.09,20.83-.97,6.38-5.12,16.71-7.77,27.95-2.66,11.24-2.55,31.11-1.64,41.89,1.85,22.07-.49,52.61-.04,77.34,.43,23.82-3.72,107.29-4.3,131.22,2.21-9.22,6.58-22.21,10.87-31.91-3.96,8.93-7.98,20.66-10.31,29.66,.72-25.15,4.27-97.89,4.27-125.02,0-1.46-.01-2.78-.03-3.96-.04-2.25-.06-4.55-.06-6.88,0-15.83,.82-33.38,.82-49.32,0-7.54-.18-14.71-.72-21.17-.35-4.15-.58-9.65-.58-15.5,0-9.28,.59-19.42,2.21-26.24,2.64-11.21,6.78-21.5,7.78-27.99,.65-4.25,1.6-9.08,2.91-13,.65-1.96,1.4-3.69,2.23-4.99,.82-1.31,1.72-2.16,2.62-2.45h0c.31-.1,.64-.16,1-.16,.31,0,.63,.04,.98,.13,.13-.14,.26-.27,.39-.41-.48-.15-.94-.23-1.37-.23"/><path class="cls-1" d="M62.75,69.58c1.65,12.21,4.25,25.21,8.22,32.58,8.99,16.64,9.44,27.88,12.14,49.3,2.7,21.41,8.09,54.57,10.39,82.45,.84,10.18,1.07,21.26,1.02,31.23,.16,.37,.31,.73,.46,1.1l.04,.09h0c.63,1.6,1.15,3.2,1.61,4.76,.58,1.93,1.5,4.62,2.65,7.91,.6,1.71,1.27,3.59,1.98,5.61,.52-3.85,.75-8.21,.75-12.95,0-27.68-7.95-67.91-12.44-92.04-1.5-8.05-2.61-14.3-2.92-17.76-2.09-23.82-4.5-40.58-9.26-52.32-5.24-12.93-10.59-28.49-14.66-39.96"/><path class="cls-7" d="M94.53,265.14v.02c.85,1.98,1.52,3.97,2.11,5.93,.58,1.93,1.5,4.61,2.65,7.9-1.15-3.29-2.07-5.97-2.65-7.91-.47-1.56-.99-3.16-1.61-4.75h0l-.04-.1c-.15-.37-.3-.73-.46-1.1M62.45,67.23c.1,.78,.2,1.57,.31,2.36,4.07,11.47,9.42,27.03,14.66,39.96,4.76,11.74,7.16,28.5,9.26,52.32,.31,3.45,1.42,9.71,2.92,17.76,4.49,24.13,12.45,64.36,12.44,92.04,0,4.73-.23,9.1-.75,12.95,.12,.33,.24,.67,.36,1.02,5.07-33.66-13.1-108.28-14.47-123.81-2.1-23.83-4.5-40.62-9.29-52.46-5.57-13.75-11.28-30.5-15.43-42.13"/><path class="cls-4" d="M132.13,437.17c-2.52,6.95-4.98,11.23-7.57,14.1h-.01c-2.92,3.26-6.01,4.7-9.51,6.13-6.59,2.7-26.68,6-42.57,6-15.01,0-42.87-1.07-54.23-8.52-.67-.44-1.27-.9-1.82-1.37-9.89-8.69-11.87-14.96-13.19-19.49-.94-3.17-5.81-48.58,.3-75.02,6.82-29.53,11.09-42.49,14.09-56.58,3-14.09,12.58-40.53,18.29-46.24,3.07-3.07,6.06-5.06,9.52-6.32,3.8-1.39,8.17-1.9,13.86-2,21.68-.4,30.01,7.42,34.22,16.26,1.11,2.35,1.94,4.76,2.65,7.12,2.89,9.63,13.94,37.32,21.58,67s19.79,84.09,14.39,98.93"/><path class="cls-2" d="M132.13,437.17l-.47-.17c-2.51,6.91-4.95,11.13-7.47,13.94l.37,.33-.35-.36h-.01v.02h-.03c-2.85,3.18-5.83,4.57-9.32,6.01-3.21,1.32-9.88,2.82-17.68,3.98-7.81,1.16-16.79,1.98-24.7,1.98-7.49,0-18.2-.27-28.43-1.46-10.23-1.19-20-3.33-25.53-6.97h0c-.65-.42-1.23-.87-1.77-1.33h0c-4.91-4.32-7.84-8.01-9.71-11.18-1.87-3.17-2.67-5.81-3.33-8.06-.06-.2-.16-.71-.27-1.43-.8-5.14-2.44-21.6-2.44-39.19,0-11.92,.75-24.37,3.01-34.15,6.82-29.51,11.08-42.47,14.09-56.59,1.49-7,4.63-17.13,8.1-26.19,1.74-4.53,3.56-8.8,5.3-12.28,1.73-3.48,3.4-6.18,4.75-7.52,3.04-3.03,5.95-4.97,9.34-6.2,3.72-1.36,8.03-1.87,13.7-1.97,.53-.01,1.05-.02,1.57-.02,10.2,0,17.24,1.9,22.22,4.84,4.99,2.93,7.95,6.91,9.97,11.16,1.09,2.31,1.91,4.7,2.62,7.05,1.45,4.85,4.94,14.17,9.01,26,4.08,11.83,8.75,26.16,12.57,40.98,3.16,12.27,7.09,28.77,10.23,44.95,3.14,16.18,5.49,32.03,5.48,42.96,0,4.56-.41,8.26-1.31,10.71l.47,.17,.47,.17c.97-2.66,1.37-6.44,1.37-11.06,0-11.06-2.36-26.95-5.5-43.15-3.14-16.21-7.08-32.72-10.24-45.01-3.83-14.86-8.51-29.21-12.59-41.06-4.08-11.84-7.57-21.18-9-25.96-.72-2.37-1.55-4.81-2.68-7.19-2.08-4.38-5.19-8.54-10.37-11.59-5.18-3.05-12.41-4.97-22.73-4.97-.52,0-1.05,0-1.59,.02-5.72,.1-10.15,.61-14.03,2.03-3.53,1.29-6.59,3.33-9.7,6.44-1.51,1.51-3.18,4.26-4.94,7.78-5.27,10.57-11.22,28.08-13.49,38.71-2.99,14.05-7.26,27.03-14.09,56.58C.75,368.8,0,381.29,0,393.26c0,10.09,.54,19.79,1.14,27.23,.3,3.72,.63,6.87,.91,9.22,.14,1.17,.27,2.15,.39,2.9,.12,.75,.21,1.26,.3,1.56,.66,2.26,1.5,5.02,3.43,8.29,1.93,3.27,4.93,7.06,9.91,11.43h0c.56,.49,1.18,.97,1.88,1.42h0c5.83,3.81,15.67,5.92,25.97,7.13,10.29,1.2,21.02,1.47,28.54,1.47,7.98,0,16.99-.83,24.84-1.99,7.86-1.17,14.53-2.66,17.91-4.04,3.51-1.44,6.7-2.92,9.69-6.25l-.37-.33,.35,.36h.01v-.02h.02c2.65-2.96,5.13-7.3,7.67-14.28l-.47-.17"/><path class="cls-8" d="M44.64,250.69c-2.99,1.24-5.64,3.09-8.38,5.83-1.35,1.34-3.02,4.04-4.75,7.52-1.74,3.48-3.56,7.75-5.3,12.28-3.48,9.06-6.61,19.18-8.1,26.19-3.01,14.13-7.28,27.08-14.09,56.59-2.26,9.78-3.01,22.23-3.01,34.15,0,17.59,1.64,34.05,2.44,39.19,.11,.73,.21,1.24,.27,1.43,.66,2.26,1.47,4.9,3.33,8.06,1.86,3.17,4.79,6.87,9.71,11.19h0c.27,.23,.55,.46,.85,.69-3.87-6.46-8.53-15.92-11.37-27.44-5.53-22.45-6.75-45.65,0-61.04,6.75-15.4,10.79-32.94,14.39-47.78,3.6-14.84,5.4-35.17,10.79-45.69,3-5.84,7.1-14.39,13.23-21.17"/><path class="cls-6" d="M45.42,249.85c-3.46,1.26-6.45,3.25-9.52,6.32-5.71,5.71-15.29,32.15-18.29,46.24-3,14.09-7.27,27.06-14.09,56.58-6.11,26.44-1.24,71.85-.3,75.02,1.32,4.52,3.3,10.79,13.19,19.49,.55,.47,1.15,.94,1.82,1.37-.21-.34-.43-.7-.65-1.06-.3-.23-.58-.46-.85-.69h0c-4.91-4.32-7.84-8.01-9.71-11.18-1.87-3.17-2.67-5.81-3.33-8.06-.06-.2-.16-.71-.27-1.43-.8-5.14-2.44-21.6-2.44-39.19,0-11.92,.75-24.37,3.01-34.15,6.82-29.51,11.08-42.47,14.09-56.59,1.49-7,4.63-17.13,8.1-26.19,1.74-4.53,3.56-8.8,5.3-12.28,1.73-3.48,3.4-6.18,4.75-7.52,2.75-2.75,5.39-4.59,8.38-5.83,.26-.28,.52-.56,.78-.84"/><path class="cls-8" d="M93.79,265.99c3,19.78,8.17,50.01,13.16,60.56,7.64,16.19,19.79,67,22.03,87.69,1.18,10.85-.98,25.02-4.08,35.87,2.27-2.79,4.48-6.85,6.76-13.1l.47,.17h0l-.47-.17c.9-2.46,1.31-6.16,1.31-10.71,0-10.93-2.34-26.79-5.48-42.96-3.14-16.18-7.07-32.68-10.23-44.95-3.82-14.82-8.49-29.15-12.57-40.98-4.08-11.83-7.56-21.15-9.01-26-.54-1.79-1.15-3.61-1.89-5.4"/><path class="cls-6" d="M131.66,437c-2.27,6.26-4.49,10.31-6.76,13.1-.11,.39-.23,.78-.34,1.17,2.59-2.87,5.05-7.16,7.57-14.1l-.47-.17m-38.15-172.88c.09,.61,.19,1.23,.28,1.87,.74,1.79,1.35,3.6,1.89,5.4,1.45,4.85,4.94,14.17,9.01,26,4.08,11.83,8.75,26.16,12.57,40.98,3.16,12.27,7.09,28.77,10.23,44.95,3.14,16.18,5.49,32.03,5.48,42.96,0,4.56-.41,8.26-1.31,10.71l.47,.17h0c5.4-14.84-6.74-69.25-14.39-98.93s-18.7-57.37-21.58-67c-.71-2.36-1.54-4.77-2.65-7.12"/></g></svg>