<?xml version="1.0" encoding="UTF-8"?><svg id="Layer_2" xmlns="http://www.w3.org/2000/svg" viewBox="0 0 160.37 506.37"><defs><style>.cls-1{fill:#b5aa77;}.cls-2{fill:#caccb6;}.cls-3{fill:#afa05f;}.cls-4{fill:#f1f4e5;}.cls-5{fill:#c9bd84;}.cls-6{fill:#b5b7a3;}.cls-7{fill:#9d9055;}.cls-8{fill:#d8dbce;}</style></defs><g id="Layer_3"><path class="cls-5" d="M130.17,319.38c-.32-1.11-.66-2.31-1.02-3.62-2.18-7.94-5.56-15.93-10.48-22.55-7.19-9.71-17.71-16.49-32.69-15.95-20.16,.72-33.99,3.46-41.45,13.75-1.87,2.56-3.35,5.6-4.42,9.18-2.01,6.72-3.85,13.13-5.7,19.19-.05-1.16-2.97-76.24,0-127.56,3-51.71,19.64-104.77,27.28-134,5.26-20.12,4.45-29.7,4.38-37.23-.03-3.41,.1-6.4,1.01-9.76,2.92-10.79,12.59-20.91,23.38,12.59,10.79,33.5,8.09,24.96,11.99,41.74,1.52,6.57,3.1,13.78,4.56,21.63v.04c2.26,12.2,4.23,25.97,5.33,41.28,0,0,6,57.41,7.79,81.24,1.8,23.83,11.49,91.88,10.02,110.02"/><path class="cls-3" d="M130.17,319.38l.48-.14c-.32-1.11-.66-2.31-1.02-3.62-2.2-7.99-5.59-16.02-10.56-22.71-6.99-9.44-17.17-16.19-31.44-16.18-.55,0-1.1,0-1.67,.03-10.1,.36-18.63,1.23-25.61,3.31-6.98,2.08-12.42,5.4-16.22,10.65h0c-1.91,2.61-3.41,5.7-4.5,9.33-2.01,6.72-3.85,13.13-5.7,19.18l.48,.15,.5-.02c-.03-.76-1.33-34.11-1.33-71.44,0-18.9,.33-38.83,1.33-56.07,2.99-51.63,19.61-104.66,27.26-133.9,3.93-15.01,4.48-24.21,4.48-31.04,0-2.34-.07-4.41-.08-6.32,0-.25,0-.49,0-.73,0-3.09,.17-5.83,1-8.89,.7-2.58,1.79-5.11,3.16-6.96,.69-.93,1.44-1.68,2.24-2.2,.8-.52,1.63-.79,2.51-.8,.93,0,1.94,.31,3.05,1.07,1.66,1.14,3.5,3.28,5.43,6.77,1.93,3.48,3.96,8.29,6.04,14.73,5.4,16.75,7.42,22.99,8.58,27.12,1.15,4.12,1.45,6.18,3.4,14.58,1.52,6.57,3.1,13.77,4.55,21.61l.49-.09h-.5v.13c2.27,12.19,4.24,25.93,5.34,41.23h0v.02s.1,.9,.26,2.51c1.17,11.31,5.96,57.88,7.53,78.71,.84,11.1,3.38,31.74,5.71,52.47,2.33,20.73,4.46,41.56,4.45,52.99,0,1.72-.05,3.23-.15,4.48l.5,.04,.48-.14-.48,.14,.5,.04c.1-1.29,.15-2.82,.15-4.57,0-11.53-2.13-32.36-4.46-53.1-2.33-20.74-4.88-41.38-5.71-52.43-1.8-23.85-7.8-81.25-7.8-81.26l-.5,.05,.5-.04c-1.1-15.33-3.08-29.12-5.34-41.34l-.49,.09h.5v-.13c-1.47-7.87-3.05-15.08-4.57-21.66-1.95-8.38-2.25-10.45-3.42-14.63-1.17-4.17-3.19-10.41-8.59-27.16-2.78-8.64-5.5-14.41-8.07-18.05-1.29-1.82-2.55-3.12-3.78-3.96C77.86,.4,76.64,0,75.48,0c-1.1,0-2.13,.36-3.05,.96-1.39,.9-2.56,2.34-3.54,4.05-.97,1.71-1.74,3.69-2.28,5.69-.86,3.17-1.03,6.03-1.03,9.15,0,.24,0,.49,0,.74,.02,1.93,.08,3.99,.08,6.32,0,6.77-.54,15.84-4.45,30.79-7.64,29.21-24.29,82.31-27.3,134.1-1,17.26-1.33,37.21-1.33,56.12,0,37.36,1.3,70.7,1.33,71.48l.13,2.91,.85-2.79c1.85-6.06,3.69-12.47,5.7-19.19,1.06-3.54,2.51-6.52,4.35-9.03h0c3.65-5.04,8.86-8.24,15.7-10.28,6.84-2.04,15.3-2.91,25.36-3.27,.55-.02,1.09-.03,1.63-.03,13.94,0,23.77,6.53,30.64,15.78,4.87,6.55,8.23,14.48,10.4,22.38,.36,1.31,.7,2.51,1.03,3.63l.76,2.61,.22-2.7-.5-.04"/><path class="cls-1" d="M107.25,90.9c2.11,38.33,5.56,97.22,7.07,130.45,1.24,27.39,2.97,53.23,4.28,70.92,1.65,2.16,3.14,4.47,4.47,6.87,1.94,3.5,3.54,7.21,4.86,10.99,.63,1.82,1.2,3.65,1.71,5.49h0c.06,.22,.12,.44,.18,.65,0-.46,.01-.93,.01-1.42,0-11.42-2.12-32.26-4.45-52.99-2.33-20.73-4.87-41.36-5.71-52.47-1.57-20.84-6.36-67.4-7.53-78.71-.17-1.62-.26-2.51-.26-2.51h0v-.02c-.98-13.65-2.66-26.07-4.61-37.25"/><path class="cls-7" d="M123.06,299.14c.89,1.62,1.71,3.28,2.47,4.97h.01l.04,.1c.86,1.94,1.64,3.93,2.34,5.93-1.32-3.77-2.92-7.49-4.86-10.99m-16.04-212.31c.07,1.33,.15,2.68,.22,4.06,1.96,11.18,3.63,23.6,4.61,37.25h0v.02s.1,.9,.26,2.51c1.17,11.31,5.96,57.88,7.53,78.71,.84,11.1,3.38,31.74,5.71,52.47,2.33,20.73,4.46,41.56,4.45,52.99,0,.49,0,.97-.01,1.42-.06-.22-.12-.43-.18-.65,.22,.8,.43,1.55,.63,2.27,.89-20.1-8.36-85.31-10.11-108.53-1.8-23.83-7.79-81.24-7.79-81.24-1.1-15.31-3.07-29.08-5.33-41.28"/><path class="cls-1" d="M66.59,21.39c.02,1.69,.07,3.5,.07,5.51,0,6.83-.56,16.03-4.48,31.04-7.65,29.25-24.27,82.27-27.26,133.9-1,17.23-1.33,37.16-1.33,56.07,0,31.08,.9,59.39,1.22,68.45,.72-2.41,1.45-4.86,2.18-7.37,.86-2.91,1.73-5.9,2.64-8.94,.27-.91,.57-1.78,.89-2.62h0c.02-.06,.04-.11,.06-.16h0c.02-.05,.04-.1,.06-.15h0c.02-.06,.04-.11,.06-.15v-.02c.05-.1,.09-.19,.13-.29v-.02l.07-.14h0c.98-2.35,2.18-4.43,3.58-6.26-1.35-19.61-3.44-46.43-5.84-65.29-4.22-33.13,5.07-64.75,12.27-95.33,7.19-30.58,13.19-55.43,15.59-75.68,1.9-16.08,3.24-26.95,.1-32.54"/><path class="cls-7" d="M40.52,297.42h0m.06-.16h0m.06-.16h0m.07-.17v0m.12-.3v0m.06-.15h0M66.08,20.58c.06,7.53,.87,17.11-4.38,37.23-7.64,29.23-24.28,82.29-27.28,134-2.75,47.39-.46,115.06-.06,126.04,.87-2.88,1.74-5.84,2.63-8.87-.74,2.51-1.46,4.97-2.18,7.37-.32-9.06-1.22-37.37-1.22-68.45,0-18.9,.33-38.83,1.33-56.07,2.99-51.63,19.61-104.66,27.26-133.9,3.93-15.01,4.48-24.21,4.48-31.04,0-2.02-.05-3.83-.07-5.51-.16-.28-.33-.55-.51-.8"/><path class="cls-4" d="M159.72,413.51c-1.35,17.99-5.4,26.08-18.89,44.52,0,0-11.38,19.24-26.52,33.31h-.01c-8.42,7.84-18,14.08-27.43,14.5-3.4,.15-6.78-.18-10.11-.92-22.46-4.97-42.59-28.34-52.85-43.74C14.69,447.32-.36,423.85,.54,407.66c.9-16.19,16.64-47.67,23.38-60.71,6.75-13.04,10.79-28.78,16.19-46.77,2.61-8.68,7.52-14.11,14.73-17.5,7.73-3.66,18.11-4.97,31.14-5.43,20.26-.72,32.38,11.94,39.13,27.14h.01c1.64,3.7,2.97,7.52,4.02,11.35,5.4,19.61,5.85,15.01,14.84,46.94,8.99,31.93,17.09,32.83,15.74,50.81"/><path class="cls-2" d="M159.72,413.51l-.5-.04c-.67,8.96-2.01,15.41-4.85,21.93-2.84,6.52-7.2,13.12-13.94,22.33l-.02,.02v.02s-.19,.3-.52,.85c-2.37,3.85-12.73,20.1-25.91,32.36h-.01c-8.38,7.81-17.89,13.96-27.11,14.37-.53,.02-1.06,.03-1.59,.03-2.81,0-5.62-.33-8.38-.95-11.1-2.45-21.69-9.49-30.77-17.84-9.08-8.35-16.66-18.02-21.77-25.69-4.48-6.72-10.32-15.7-15.04-25-4.72-9.29-8.3-18.91-8.3-26.82,0-.47,.01-.93,.04-1.39,.44-7.96,4.58-19.87,9.46-31.37,4.88-11.5,10.5-22.62,13.87-29.14,6.78-13.11,10.83-28.88,16.22-46.85,2.59-8.57,7.37-13.85,14.46-17.19,7.62-3.61,17.94-4.93,30.95-5.39,.55-.02,1.09-.03,1.63-.03,9.53,0,17.13,3.05,23.19,7.93,6.06,4.88,10.58,11.6,13.84,18.94l.04,.09,.08,.08,.35-.35-.46,.2c1.62,3.66,2.95,7.46,4,11.27,2.7,9.82,4.17,13.6,6.08,18.89,1.91,5.29,4.26,12.1,8.76,28.05,4.17,14.81,8.17,23,11.09,29.25,2.93,6.26,4.77,10.52,4.77,17.7,0,1.15-.05,2.37-.15,3.69l.5,.04,.5,.04c.1-1.34,.15-2.59,.15-3.76,0-7.37-1.94-11.88-4.87-18.13-2.93-6.26-6.88-14.34-11.04-29.09-4.5-15.97-6.87-22.82-8.78-28.12-1.91-5.3-3.36-9.02-6.06-18.81-1.06-3.86-2.4-7.7-4.05-11.41l-.04-.09-.08-.08-.35,.35,.46-.2c-3.31-7.44-7.9-14.31-14.13-19.32-6.22-5.01-14.08-8.15-23.82-8.15-.55,0-1.1,0-1.66,.03-13.05,.47-23.49,1.77-31.34,5.48-7.32,3.43-12.36,9.01-14.99,17.81-5.4,18-9.44,33.71-16.15,46.68-3.38,6.53-9,17.66-13.9,29.21-4.9,11.55-9.07,23.48-9.54,31.7-.03,.47-.04,.96-.04,1.44,0,8.21,3.65,17.91,8.4,27.27,4.75,9.36,10.62,18.37,15.1,25.1,5.15,7.73,12.76,17.45,21.92,25.87,9.16,8.42,19.87,15.56,31.23,18.08,2.83,.64,5.7,.97,8.6,.97,.55,0,1.09-.01,1.64-.04,9.64-.44,19.29-6.76,27.75-14.62h.01c15.21-14.16,26.6-33.42,26.61-33.44l-.43-.25,.4,.3c6.75-9.23,11.16-15.89,14.05-22.52,2.89-6.64,4.25-13.23,4.93-22.25l-.5-.04"/><path class="cls-8" d="M54.29,283.51c-6.68,3.36-11.21,8.56-13.7,16.82-5.39,17.97-9.44,33.74-16.22,46.85-3.37,6.51-8.99,17.64-13.87,29.14-4.88,11.5-9.02,23.4-9.46,31.37-.03,.45-.04,.92-.04,1.39,0,7.91,3.57,17.53,8.3,26.82,4.72,9.3,10.56,18.28,15.04,25,5.11,7.67,12.69,17.34,21.77,25.69,8.8,8.09,19.01,14.95,29.73,17.6-4.68-3.68-10.72-8.42-17.15-13.33-14.09-10.79-34.77-36.57-44.37-53.06-9.59-16.49-9.59-27.28-7.19-39.27,2.4-11.99,11.69-27.58,18.29-43.77,6.6-16.19,14.99-38.07,18.29-50.36,1.8-6.72,6.6-14.87,10.58-20.87"/><path class="cls-6" d="M54.84,282.69c-7.21,3.38-12.12,8.82-14.73,17.5-5.4,17.99-9.44,33.73-16.19,46.77-6.75,13.04-22.48,44.52-23.38,60.71-.9,16.19,14.15,39.66,23.38,53.51,10.26,15.4,30.39,38.77,52.85,43.74-.3-.24-.61-.48-.93-.73-10.72-2.65-20.93-9.5-29.73-17.6-9.08-8.35-16.66-18.02-21.77-25.69-4.48-6.72-10.32-15.7-15.04-25-4.72-9.29-8.3-18.91-8.3-26.82,0-.47,.01-.93,.04-1.39,.44-7.96,4.58-19.87,9.46-31.37,4.88-11.5,10.5-22.62,13.87-29.14,6.78-13.11,10.83-28.88,16.22-46.85,2.49-8.26,7.02-13.46,13.7-16.82,.18-.28,.37-.55,.55-.82"/><path class="cls-8" d="M125.19,305.83c.66,12.87,2.09,30.25,5.13,37.98,5.12,13.04,16.81,40.02,20.86,54.41,4.05,14.39,3.15,34.62-4.95,46.77-4.8,7.2-19.41,28.32-30.5,44.32,12.35-12.02,21.9-27.01,24.16-30.69,.34-.55,.51-.85,.51-.85v-.02l.03-.02c6.74-9.21,11.1-15.82,13.94-22.33,2.84-6.52,4.18-12.96,4.85-21.93h0c.1-1.32,.15-2.54,.15-3.69,0-7.19-1.84-11.44-4.77-17.7-2.93-6.25-6.92-14.43-11.09-29.25-4.5-15.96-6.85-22.77-8.76-28.05-1.91-5.29-3.38-9.07-6.08-18.89-.93-3.39-2.08-6.77-3.47-10.05"/><path class="cls-6" d="M125.12,304.41c.02,.47,.05,.94,.07,1.42,1.39,3.28,2.54,6.66,3.47,10.05,2.7,9.82,4.17,13.6,6.08,18.89,1.91,5.29,4.26,12.1,8.76,28.05,4.17,14.81,8.17,23,11.09,29.25,2.93,6.26,4.77,10.52,4.77,17.7,0,1.15-.05,2.37-.15,3.69h0c-.67,8.96-2.01,15.41-4.85,21.93-2.84,6.52-7.2,13.12-13.94,22.33l-.02,.02v.02s-.19,.3-.52,.85c-2.27,3.68-11.82,18.67-24.16,30.69-.48,.69-.95,1.37-1.41,2.03,15.14-14.08,26.52-33.31,26.52-33.31,13.49-18.44,17.54-26.53,18.89-44.52,1.35-17.99-6.75-18.89-15.74-50.81-8.99-31.93-9.44-27.33-14.84-46.94-1.05-3.83-2.39-7.66-4.02-11.34"/></g></svg>