<?xml version="1.0" encoding="UTF-8"?><svg id="Layer_2" xmlns="http://www.w3.org/2000/svg" viewBox="0 0 153.98 473.43"><defs><style>.cls-1{fill:#b5aa77;}.cls-2{fill:#caccb6;}.cls-3{fill:#afa05f;}.cls-4{fill:#f1f4e5;}.cls-5{fill:#c9bd84;}.cls-6{fill:#b5b7a3;}.cls-7{fill:#9d9055;}.cls-8{fill:#d8dbce;}</style></defs><g id="Layer_3"><path class="cls-5" d="M119.94,308.15c-1-2.21-2.23-4.27-3.68-6.36-.6-.86-1.31-1.71-2.11-2.55-5.18-5.41-14.08-10.16-19.92-10.68-5.85-.52-37.17-.15-41.52,2.7-4.1,2.69-7.02,6.48-9.79,11.49-3.05,5.52-5.88,12.53-9.86,21.16,0,0,.61-74.02,3.61-112.39,3-38.37,7.19-73.75,12.59-106.12,5.4-32.38,9.67-73.6,9.22-87.09-.45-13.49,2.25-21.13,9.44-16.41,7.19,4.72,19.56,59.13,23.38,76.44,3.82,17.31,10.12,56.88,15.51,97.8,5.4,40.91,10.29,111.79,13.13,132"/><path class="cls-3" d="M119.94,308.15l.46-.21c-1.01-2.25-2.27-4.33-3.73-6.44-.62-.89-1.35-1.76-2.16-2.61-2.64-2.75-6.19-5.32-9.84-7.27-3.65-1.95-7.37-3.29-10.4-3.56-1.44-.13-4.33-.2-7.98-.2-5.73,0-13.31,.18-19.88,.64-3.29,.23-6.32,.52-8.75,.9-1.22,.19-2.28,.4-3.16,.63-.88,.24-1.57,.49-2.07,.81-4.19,2.75-7.17,6.62-9.96,11.67-3.07,5.56-5.9,12.57-9.87,21.19l.45,.21h.5s0-1.15,.03-3.25c.16-14.69,.95-75.56,3.58-109.1,3-38.36,7.19-73.72,12.59-106.08,5.14-30.84,9.26-69.64,9.26-85.02,0-.78-.01-1.51-.03-2.17-.03-.94-.05-1.86-.05-2.74,0-4.57,.43-8.29,1.32-10.81,.45-1.26,1-2.21,1.64-2.83,.64-.61,1.34-.91,2.21-.92,.96,0,2.14,.4,3.54,1.32,.75,.48,1.73,1.8,2.74,3.74,1.78,3.4,3.76,8.7,5.75,14.95,5.98,18.75,12.17,46.09,14.68,57.44,3.82,17.28,10.11,56.85,15.51,97.76,2.7,20.44,5.27,48.38,7.52,73.74,2.25,25.36,4.19,48.13,5.61,58.27l.5-.07,.46-.21-.46,.21,.5-.07c-1.41-10.07-3.35-32.86-5.6-58.21-2.25-25.36-4.83-53.31-7.53-73.78-5.4-40.93-11.69-80.5-15.52-97.85-1.91-8.66-5.96-26.6-10.43-42.97-2.24-8.19-4.58-15.98-6.82-22.04-1.12-3.03-2.21-5.63-3.26-7.63-1.06-2-2.04-3.42-3.08-4.12C66.69,.5,65.34,0,64.11,0c-1.12,0-2.11,.43-2.9,1.2-1.19,1.16-1.98,3.02-2.51,5.44-.52,2.43-.76,5.44-.76,8.91,0,.9,.02,1.82,.05,2.78,.02,.65,.03,1.36,.03,2.14,0,15.25-4.11,54.07-9.24,84.85-5.4,32.39-9.6,67.78-12.6,106.16-3,38.41-3.61,112.42-3.61,112.43l-.02,2.33,.97-2.11c3.98-8.64,6.81-15.65,9.84-21.13,2.75-4.97,5.62-8.69,9.63-11.31,.33-.22,.95-.46,1.78-.68,2.91-.78,8.32-1.32,14.22-1.66,5.91-.34,12.32-.48,17.32-.48,3.62,0,6.51,.08,7.89,.2,2.81,.25,6.46,1.54,10.02,3.45,3.56,1.91,7.04,4.42,9.59,7.08,.78,.82,1.48,1.65,2.06,2.49,1.44,2.07,2.66,4.1,3.64,6.28l1.44,3.18-.49-3.46-.5,.07"/><path class="cls-1" d="M64.12,1h-.01c-.86,0-1.57,.3-2.21,.92-.64,.62-1.2,1.57-1.64,2.83-.89,2.52-1.33,6.24-1.32,10.81,0,.88,.02,1.8,.05,2.74,.02,.66,.03,1.39,.03,2.17,0,15.38-4.12,54.18-9.26,85.02-5.39,32.36-9.59,67.72-12.59,106.08-2.62,33.54-3.42,94.42-3.58,109.1,0,.32,0,.63,0,.9,3.47-7.65,6.08-13.96,8.9-19.05,.14-.25,.28-.5,.42-.74-.35-16.23-.56-41.35,.52-65.82,1.8-40.92,1.35-63.4,5.4-86.79,4.05-23.38,8.09-54.86,11.69-74.2,3.6-19.34,1.8-53.96,5.85-56.21,.36-.2,.72-.31,1.11-.31,3.98,0,9.65,11.74,20.48,57.86,11.87,50.58,10.34,63.85,12.59,89.03,1.88,21.12,11.36,99.78,13.58,133.11,.96,.96,1.81,1.95,2.52,2.95l.09,.13v.02c.86,1.24,1.65,2.47,2.36,3.74-1.38-11.19-3.17-32.19-5.23-55.35-2.25-25.36-4.83-53.3-7.52-73.74-5.39-40.91-11.69-80.48-15.51-97.76-2.51-11.35-8.7-38.69-14.68-57.44-1.99-6.25-3.96-11.55-5.75-14.95-1.01-1.94-1.99-3.26-2.74-3.74-1.4-.92-2.58-1.32-3.53-1.32"/><path class="cls-7" d="M64.11,.5c-4.34,0-5.99,7.04-5.63,17.81,.45,13.49-3.82,54.71-9.22,87.09-5.4,32.38-9.59,67.75-12.59,106.12-2.77,35.47-3.5,101.42-3.6,111.17,3.34-7.3,5.88-13.42,8.49-18.45,.44-.85,.88-1.67,1.33-2.46h0c-.14,.24-.28,.48-.42,.73-2.81,5.1-5.43,11.41-8.9,19.05,0-.28,0-.58,0-.9,.16-14.69,.95-75.56,3.58-109.1,3-38.36,7.19-73.72,12.59-106.08,5.14-30.84,9.26-69.64,9.26-85.02,0-.78-.01-1.51-.03-2.17-.03-.94-.05-1.86-.05-2.74,0-4.57,.43-8.29,1.32-10.81,.45-1.26,1-2.21,1.64-2.83,.64-.61,1.34-.91,2.21-.92h.01c.95,0,2.13,.4,3.53,1.32,.75,.48,1.73,1.8,2.74,3.74,1.78,3.4,3.76,8.7,5.75,14.95,5.98,18.75,12.17,46.09,14.68,57.44,3.82,17.28,10.11,56.85,15.51,97.76,2.7,20.44,5.27,48.38,7.52,73.74,2.06,23.16,3.85,44.16,5.23,55.35,.23,.41,.45,.82,.66,1.24-2.86-22.12-7.65-90.51-12.91-130.4-5.4-40.92-11.69-80.49-15.51-97.8C87.48,61.03,75.12,6.62,67.92,1.9c-1.45-.95-2.72-1.4-3.81-1.4"/><path class="cls-4" d="M152.96,426.66c-1.06,5.17-3.75,10-7.66,13.79-29.23,28.32-51.52,32.54-63.67,32.48-12.18-.06-33.72-8.77-47.67-17.09-10.84-6.47-27.17-24.06-31.41-31.35-.36-.62-.64-1.16-.81-1.62-2.25-5.85-2.85-25.48,10.64-54.71,13.49-29.23,19.33-41.37,19.33-41.37,8.54-18.11,11.88-29.55,20.99-35.52,.82-.54,2.64-1,5.07-1.37,10.31-1.59,31.71-1.75,36.45-1.32,6.72,.6,17.46,6.77,21.98,13.14h0l.05,.09c3.75,5.36,6,10.6,6.75,18.7,.75,8.06,7.64,31.93,14.39,44,6.75,12.08,8.99,36.49,13.94,47.28,.71,1.54,1.21,3.1,1.56,4.65,.78,3.42,.76,6.91,.06,10.24"/><path class="cls-2" d="M152.96,426.66l-.49-.1c-1.04,5.07-3.68,9.81-7.51,13.53-28.95,28.04-50.98,32.33-63.06,32.34h-.26c-5.98-.03-14.38-2.2-23-5.42-8.62-3.21-17.47-7.46-24.41-11.6-5.35-3.19-12.13-9.19-18.08-15.29-5.95-6.09-11.08-12.32-13.16-15.89-.35-.61-.62-1.13-.78-1.55h0c-.67-1.74-1.21-4.87-1.21-9.23,0-9.58,2.6-25.07,11.84-45.1,6.74-14.61,11.58-24.96,14.73-31.64,1.57-3.34,2.73-5.77,3.48-7.37,.76-1.59,1.12-2.35,1.12-2.35h0c4.28-9.07,7.25-16.47,10.27-22.3,3.03-5.84,6.08-10.1,10.53-13.02,.33-.22,.95-.46,1.79-.68,.84-.22,1.88-.43,3.09-.61,7.17-1.11,19.87-1.52,28.42-1.52,3.63,0,6.53,.07,7.91,.2,3.24,.28,7.57,1.95,11.61,4.34,4.05,2.38,7.82,5.49,10.01,8.59l.41-.29h-.5v.16l.13,.2h0c3.71,5.32,5.91,10.44,6.66,18.47,.38,4.11,2.3,12.09,4.97,20.6,2.67,8.51,6.08,17.51,9.48,23.6,3.32,5.94,5.58,15.04,7.59,23.99,2.03,8.96,3.82,17.76,6.33,23.25,.7,1.5,1.19,3.03,1.53,4.55,.39,1.7,.57,3.42,.57,5.13s-.17,3.29-.51,4.9l.49,.1,.49,.1c.35-1.67,.53-3.38,.53-5.1s-.19-3.57-.6-5.35c-.36-1.58-.87-3.17-1.6-4.75-2.43-5.3-4.24-14.09-6.26-23.06-2.03-8.97-4.27-18.11-7.7-24.25-3.34-5.98-6.75-14.95-9.4-23.42-2.65-8.46-4.56-16.44-4.93-20.39-.75-8.16-3.05-13.54-6.83-18.94l-.41,.29,.42-.28-.05-.07-.42,.28h.5v-.17l-.09-.13c-2.33-3.27-6.19-6.43-10.32-8.88-4.14-2.44-8.54-4.16-12.03-4.47-1.45-.13-4.35-.2-8-.2-8.59,0-21.28,.41-28.57,1.53-1.23,.19-2.31,.4-3.19,.64-.89,.24-1.58,.49-2.08,.81-4.66,3.05-7.82,7.5-10.87,13.4-3.06,5.9-6.02,13.29-10.29,22.33h0s-5.85,12.14-19.34,41.37C2.64,388.09,0,403.71,0,413.46c0,4.44,.54,7.66,1.28,9.58h0c.19,.5,.48,1.06,.85,1.7,2.17,3.72,7.32,9.94,13.31,16.08,5.99,6.14,12.79,12.17,18.28,15.45,7,4.18,15.89,8.44,24.57,11.68,8.69,3.23,17.14,5.44,23.34,5.48h.27c12.33,0,34.67-4.43,63.75-32.62,3.98-3.85,6.72-8.77,7.8-14.05l-.49-.1"/><path class="cls-8" d="M57.36,290.46c-1,.16-1.87,.34-2.59,.54-.83,.22-1.46,.47-1.79,.68-4.45,2.92-7.51,7.18-10.53,13.02-3.02,5.84-6,13.23-10.27,22.3h0s-.36,.76-1.12,2.36c-.76,1.59-1.91,4.02-3.48,7.37-3.15,6.69-7.98,17.03-14.73,31.64C3.6,388.39,1,403.89,1,413.46c0,4.35,.54,7.49,1.21,9.22h0c.09,.23,.2,.49,.35,.77,.05-3.91,.51-9.1,1.73-15.88,3.9-21.58,19.49-51.86,27.28-67.45,5.78-11.56,15.2-35.03,25.79-49.67"/><path class="cls-6" d="M57.78,289.89c-2.44,.37-4.25,.84-5.07,1.37-9.11,5.97-12.44,17.41-20.99,35.52,0,0-5.84,12.14-19.33,41.37C-1.1,397.39-.5,417.02,1.74,422.87c.17,.46,.45,1,.81,1.62,0-.33,0-.68,0-1.03-.14-.28-.26-.54-.35-.77h0c-.67-1.74-1.21-4.87-1.21-9.23,0-9.58,2.6-25.07,11.84-45.1,6.74-14.61,11.58-24.96,14.73-31.64,1.57-3.34,2.73-5.77,3.48-7.37,.76-1.59,1.12-2.35,1.12-2.35h0c4.28-9.07,7.25-16.47,10.27-22.3,3.03-5.84,6.08-10.1,10.53-13.02,.33-.22,.95-.46,1.79-.68,.72-.19,1.59-.37,2.59-.54,.14-.19,.28-.38,.42-.57"/><path class="cls-8" d="M116.13,302.49c-1.55,15.25-3.22,39.2-.32,53.23,4.5,21.73,24.73,47.52,31.93,55.16,2.73,2.9,4.22,8.4,5.01,14.11,.16-1.1,.23-2.21,.23-3.32,0-1.71-.19-3.43-.57-5.13-.34-1.52-.83-3.05-1.53-4.55-2.51-5.49-4.3-14.3-6.33-23.25-2.02-8.95-4.27-18.05-7.59-23.99-3.4-6.1-6.81-15.1-9.48-23.6-2.67-8.51-4.58-16.49-4.97-20.6-.73-7.82-2.84-12.88-6.38-18.05"/><path class="cls-6" d="M116.21,301.72c-.03,.25-.05,.51-.08,.77,3.54,5.17,5.65,10.23,6.38,18.05,.38,4.11,2.3,12.09,4.97,20.6,2.67,8.51,6.08,17.51,9.48,23.6,3.32,5.94,5.58,15.04,7.59,23.99,2.03,8.96,3.82,17.76,6.33,23.25,.7,1.5,1.19,3.03,1.53,4.55,.39,1.7,.57,3.42,.57,5.13,0,1.11-.08,2.22-.23,3.32,.08,.56,.15,1.12,.21,1.68,.7-3.33,.71-6.82-.06-10.24-.35-1.55-.85-3.11-1.56-4.65-4.95-10.79-7.2-35.2-13.94-47.28-6.74-12.08-13.64-35.95-14.39-44-.75-8.09-3-13.34-6.75-18.7l-.05-.08"/></g></svg>