<?xml version="1.0" encoding="UTF-8"?><svg id="Layer_2" xmlns="http://www.w3.org/2000/svg" viewBox="0 0 157.84 458.54"><defs><style>.cls-1{fill:#b5aa77;}.cls-2{fill:#caccb6;}.cls-3{fill:#afa05f;}.cls-4{fill:#f1f4e5;}.cls-5{fill:#c9bd84;}.cls-6{fill:#b5b7a3;}.cls-7{fill:#9d9055;}.cls-8{fill:#d8dbce;}</style></defs><g id="Layer_3"><path class="cls-5" d="M126.12,311.15s-7.2-4.72-24.88-8.21-46.47-5.58-53.66-3.18c-3.32,1.11-8.43,4.96-13.65,8.88-6,4.51-12.15,9.11-15.88,9.67,1.02-.4,6.95-3.87,5.85-32.94-1.2-31.78,1.2-72.55,3.6-104.32,2.4-31.78,5.4-73.15,4.8-89.33-.57-15.63-10.94-37.12-18.12-51.26h0c-.26-.52-.51-1.01-.76-1.5C8.68,29.69,3.47,15.18,4.13,6.89,4.47,2.54,6.43-.1,10.89,.62c13,2.06,38.78,25.44,57.37,58.72,18.59,33.28,25.78,63.55,33.58,97.13,.76,3.27,1.46,6.68,2.1,10.18,5.95,32.41,7.22,72.71,10.19,85.15,3.3,13.79,11.99,59.36,11.99,59.36"/><path class="cls-3" d="M126.12,311.15l.27-.42c-.05-.04-7.31-4.78-25.06-8.28-12.47-2.46-30.39-4.22-42.48-4.22-5.12,0-9.17,.31-11.44,1.05-1.75,.59-3.87,1.85-6.24,3.45-2.36,1.6-4.95,3.55-7.56,5.51-3,2.25-6.03,4.53-8.76,6.29-2.73,1.77-5.18,3.03-6.89,3.28l.07,.49,.18,.47c.62-.24,2.22-1.22,3.63-4.93,1.41-3.72,2.67-10.21,2.67-21.65,0-2.11-.04-4.38-.14-6.84-.22-5.82-.32-11.95-.32-18.27,0-28.12,1.96-60.06,3.92-86,2.19-28.99,4.87-65.95,4.87-84.55,0-1.79-.03-3.41-.08-4.84-.29-7.91-3.05-17.23-6.62-26.35-3.57-9.12-7.97-18.04-11.56-25.12l-.45,.23h.5v-.13l-.05-.11c-.26-.51-.51-1-.76-1.49-2.21-4.33-4.53-9.84-6.3-15.3-1.77-5.46-2.97-10.89-2.97-15.03,0-.51,.02-1,.06-1.47,.14-1.88,.61-3.38,1.39-4.38,.79-.99,1.87-1.54,3.5-1.55,.4,0,.83,.03,1.29,.11,3.13,.49,7.14,2.31,11.64,5.29,13.51,8.94,31.47,28.29,45.37,53.18,18.55,33.21,25.73,63.42,33.53,97,.76,3.26,1.46,6.67,2.09,10.16,2.97,16.18,4.77,34.34,6.2,50.02,1.44,15.68,2.49,28.85,3.99,35.16,1.64,6.88,4.64,21.72,7.23,34.83,1.29,6.56,2.48,12.68,3.35,17.17,.43,2.24,.79,4.08,1.03,5.35,.24,1.27,.38,1.98,.38,1.98l.49-.09,.27-.42-.27,.42,.49-.09s-8.69-45.56-12-59.38c-1.47-6.14-2.54-19.34-3.97-35.01-1.43-15.68-3.24-33.87-6.22-50.11-.64-3.5-1.34-6.92-2.1-10.2-7.79-33.57-15-63.92-33.63-97.26-9.32-16.68-20.43-30.88-30.86-41.18-5.22-5.15-10.26-9.33-14.83-12.35C18.43,2.54,14.34,.66,10.97,.12,10.46,.04,9.98,0,9.52,0c-1.86,0-3.33,.7-4.28,1.93-.96,1.23-1.44,2.92-1.6,4.91-.04,.5-.06,1.01-.06,1.55,0,4.32,1.24,9.81,3.02,15.33,1.79,5.52,4.12,11.06,6.36,15.45,.25,.49,.5,.97,.76,1.49l.44-.23h-.5v.13l.05,.11c3.59,7.06,7.97,15.96,11.52,25.03,3.55,9.07,6.27,18.31,6.55,26.02,.05,1.41,.08,3.02,.08,4.81,0,18.52-2.68,55.49-4.87,84.47-1.96,25.95-3.92,57.9-3.92,86.07,0,6.33,.1,12.47,.32,18.31,.09,2.45,.14,4.71,.14,6.8,0,11.37-1.26,17.75-2.61,21.3-1.35,3.55-2.74,4.23-3.06,4.35l-4.17,1.63,4.42-.67c2.01-.31,4.5-1.63,7.28-3.43,2.78-1.8,5.82-4.08,8.82-6.33,2.61-1.96,5.19-3.9,7.52-5.48,2.33-1.58,4.42-2.8,5.99-3.33,2.01-.68,6.05-1.01,11.12-1,12,0,29.9,1.76,42.29,4.2,8.81,1.74,15,3.78,18.98,5.38,1.99,.8,3.43,1.49,4.36,1.98,.47,.24,.81,.44,1.04,.57,.11,.07,.19,.12,.25,.15l.07,.05,.99,.65-.22-1.16-.49,.09"/><path class="cls-1" d="M9.52,1c-1.63,0-2.71,.56-3.5,1.55-.75,.95-1.2,2.35-1.37,4.11,.71-.27,1.55-.43,2.53-.43,1.3,0,2.86,.28,4.72,.95,11.69,4.2,32.68,22.78,42.87,41.97,10.19,19.19,17.01,18,32.98,67.15,5.43,16.74,10.55,32.65,14.92,46.35-.41-2.07-.85-4.09-1.31-6.07-7.8-33.58-14.98-63.79-33.53-97C53.93,34.69,35.96,15.33,22.45,6.4,17.95,3.42,13.95,1.6,10.81,1.11c-.46-.07-.89-.11-1.29-.11"/><path class="cls-7" d="M9.52,.5c-3.5,0-5.08,2.51-5.39,6.39,.17-.08,.34-.16,.52-.23,.17-1.75,.62-3.16,1.37-4.11,.79-.99,1.87-1.54,3.5-1.55,.4,0,.83,.03,1.29,.11,3.13,.49,7.14,2.31,11.64,5.29,13.51,8.94,31.47,28.29,45.37,53.18,18.55,33.21,25.73,63.42,33.53,97,.46,1.98,.9,4,1.31,6.07,.43,1.35,.86,2.69,1.27,4-.64-3.5-1.34-6.91-2.1-10.18-7.79-33.57-14.99-63.85-33.58-97.13C49.68,26.06,23.89,2.68,10.89,.62c-.49-.08-.94-.12-1.37-.12"/><path class="cls-1" d="M15.18,41.36c3.48,6.88,7.6,15.34,10.98,23.98,3.57,9.12,6.32,18.44,6.62,26.35,.05,1.43,.08,3.05,.08,4.84,0,18.6-2.69,55.56-4.87,84.55-1.96,25.94-3.92,57.87-3.92,86,0,6.32,.1,12.45,.32,18.27,.09,2.46,.14,4.73,.14,6.84,0,11.36-1.24,17.84-2.64,21.57l.76-.74-1.7,2.85c-.28,.51-.55,.93-.82,1.28,.63-.26,1.3-.59,2.01-.98,.51-.28,1.04-.59,1.58-.92,2.98-1.83,6.41-4.39,9.81-6.94l.11-.08,.3-.22c-.05-23.46,.03-92.29,2.26-115.28,2.7-27.88,9.44-91.73,0-119.61-5.05-14.91-13.88-25.31-21-31.77"/><path class="cls-7" d="M20.94,315.88l-.26,.44c-.19,.32-.38,.61-.57,.85,.63-.26,1.31-.6,2.02-.99-.71,.39-1.38,.72-2.01,.98,.26-.35,.54-.77,.82-1.28m12.98-7.86l-.3,.22-.11,.08c.14-.1,.27-.2,.41-.3h0M14.16,40.45c7.18,14.14,17.55,35.64,18.12,51.26,.6,16.19-2.4,57.56-4.8,89.33-2.4,31.78-4.8,72.55-3.6,104.32,.64,17.04-1.12,25.28-2.9,29.27l.9-.87c1.4-3.73,2.64-10.21,2.64-21.57,0-2.11-.04-4.38-.14-6.84-.22-5.82-.32-11.95-.32-18.27,0-28.12,1.96-60.06,3.92-86,2.19-28.99,4.87-65.95,4.87-84.55,0-1.79-.03-3.41-.08-4.84-.29-7.91-3.05-17.23-6.62-26.35-3.38-8.64-7.5-17.1-10.98-23.98-.34-.31-.68-.62-1.02-.91"/><path class="cls-4" d="M145.9,428.96c-.29,.28-.56,.52-.84,.79h-.01c-12.62,11.67-21.97,15.15-27.03,15.48-5.17,.34-10.49,5.28-10.49,5.28-12.37,8.91-29.48,8.19-40.46,6.46-3.4-.53-6.21-1.15-8.11-1.62-6.98-1.74-29.98-15.29-40.47-29.68-10.49-14.39-13.93-20.31-15.76-28.77-1.42-6.62-2.35-11.4-2.22-20.4,.12-9.07,4.95-14.24,6.45-19.34,1.5-5.1,2.19-13.94,2.55-19.04,.75-10.49,8.39-19.79,8.39-19.79l2.35-2.29c-1.02,1.71-1.94,2.15-2.24,2.26,1.6-.24,3.66-1.22,5.96-2.63,7.67-4.7,18.1-14.09,23.61-15.93,7.19-2.4,35.97-.3,53.66,3.18,5.96,1.17,10.73,2.49,14.43,3.71,7.29,2.42,10.46,4.5,10.46,4.5,10.19,11.69,7.79,16.49,11.99,28.18,4.2,11.69,12.59,24.58,16.79,35.37,4.2,10.79,4.05,41.97-8.99,54.26"/><path class="cls-2" d="M145.9,428.96l-.35-.36c-.28,.27-.55,.52-.84,.79l.35,.36v-.5h-.21l-.14,.13c-12.56,11.62-21.84,15.04-26.72,15.34-2.73,.18-5.41,1.55-7.43,2.85-2.01,1.3-3.36,2.56-3.38,2.57l.34,.37-.29-.41c-7.96,5.74-17.98,7.44-27.02,7.44-4.78,0-9.29-.48-13.06-1.07-3.38-.52-6.18-1.14-8.06-1.61-1.67-.41-4.4-1.57-7.68-3.3-9.85-5.18-24.73-15.5-32.51-26.18-5.24-7.19-8.71-12.25-11.09-16.55-2.38-4.3-3.67-7.83-4.58-12.02-1.34-6.22-2.22-10.75-2.22-18.7,0-.51,0-1.04,.01-1.58,.06-4.45,1.27-7.92,2.66-10.96,1.39-3.03,2.98-5.6,3.76-8.25,1.52-5.19,2.2-14.03,2.57-19.14,.37-5.14,2.43-10.03,4.42-13.62,.99-1.8,1.96-3.27,2.68-4.3,.36-.51,.66-.91,.86-1.18,.1-.13,.18-.24,.24-.31l.08-.1-.39-.32,.35,.36,2.35-2.29-.35-.36-.43-.26c-.98,1.63-1.78,1.97-1.98,2.05l-4.42,1.66,4.67-.69c1.73-.26,3.82-1.28,6.15-2.7,3.87-2.37,8.4-5.9,12.65-9.06,4.24-3.16,8.23-5.95,10.85-6.82,2.01-.68,6.05-1.01,11.12-1,12,0,29.9,1.76,42.29,4.2,5.94,1.17,10.69,2.48,14.37,3.69,3.63,1.2,6.22,2.32,7.9,3.13,.84,.41,1.45,.74,1.85,.96,.2,.11,.35,.2,.44,.26l.11,.07,.03,.02,.27-.42-.38,.33c5.06,5.81,6.95,9.84,8.14,13.9,1.18,4.06,1.64,8.22,3.76,14.12,4.23,11.77,12.63,24.67,16.79,35.39,1.46,3.75,2.41,10.18,2.41,17.4,0,6.5-.76,13.65-2.56,20.15-1.79,6.49-4.63,12.31-8.72,16.17h0l.35,.36,.34,.36c4.29-4.05,7.17-10.03,9-16.63,1.83-6.6,2.59-13.84,2.59-20.41,0-7.32-.94-13.8-2.48-17.76-4.23-10.87-12.62-23.75-16.78-35.36-2.08-5.79-2.52-9.88-3.74-14.06-1.21-4.18-3.22-8.4-8.35-14.28l-.05-.05-.06-.04s-3.24-2.12-10.57-4.55c-3.72-1.23-8.51-2.55-14.49-3.72-12.47-2.46-30.39-4.22-42.48-4.22-5.12,0-9.17,.31-11.44,1.05-2.89,.97-6.86,3.79-11.13,6.96-4.26,3.17-8.78,6.69-12.58,9.01-2.27,1.4-4.3,2.36-5.77,2.57l.07,.49,.18,.47c.4-.15,1.42-.68,2.49-2.47l1.97-3.28-5.11,4.98-.02,.02s-7.73,9.36-8.51,20.07c-.36,5.09-1.05,13.93-2.53,18.93-.72,2.45-2.29,5.02-3.71,8.11-1.42,3.1-2.69,6.74-2.75,11.36C0,377.04,0,377.57,0,378.09c0,8.03,.91,12.69,2.25,18.92,.93,4.27,2.27,7.93,4.69,12.3,2.42,4.37,5.91,9.46,11.16,16.66,5.31,7.27,13.71,14.28,21.67,19.7,3.98,2.71,7.85,5.03,11.17,6.78,3.32,1.75,6.08,2.93,7.91,3.39,1.91,.48,4.74,1.1,8.15,1.63,3.82,.6,8.37,1.08,13.22,1.08,9.16,0,19.39-1.72,27.61-7.63l.02-.02,.02-.02,.06-.05c.29-.26,1.66-1.47,3.55-2.65,1.89-1.18,4.29-2.31,6.58-2.45,5.24-.34,14.66-3.89,27.34-15.61l-.34-.37v.5h.21l.14-.14c.27-.26,.54-.51,.84-.79h0l-.34-.36"/><path class="cls-8" d="M116.41,307.43c3.4,3.59,7.22,8.15,9.71,12.71,5.4,9.89,4.2,15.59,11.09,32.98,6.89,17.39,11.09,16.19,14.39,31.48,2.44,11.32-1.7,30.56-6.2,44.16,.05-.05,.1-.1,.16-.15h0c4.09-3.86,6.93-9.68,8.72-16.17,1.8-6.49,2.56-13.65,2.56-20.15,0-7.22-.95-13.65-2.41-17.4-4.16-10.72-12.56-23.62-16.79-35.39-2.12-5.9-2.57-10.06-3.76-14.12-1.18-4.05-3.07-8.06-8.09-13.85l-.08-.05c-.1-.06-.24-.15-.44-.26-.4-.23-1.01-.56-1.85-.96-1.54-.74-3.84-1.74-7-2.83"/><path class="cls-6" d="M115.66,306.65c.25,.25,.49,.51,.75,.78,3.16,1.09,5.46,2.08,7,2.83,.84,.41,1.45,.74,1.85,.96,.2,.11,.35,.2,.44,.26l.08,.05c5.03,5.78,6.91,9.8,8.09,13.85,1.18,4.06,1.64,8.22,3.76,14.12,4.23,11.77,12.63,24.67,16.79,35.39,1.46,3.75,2.41,10.18,2.41,17.4,0,6.5-.76,13.65-2.56,20.15-1.79,6.49-4.63,12.31-8.72,16.17h0c-.05,.05-.1,.1-.16,.15-.11,.34-.22,.67-.33,1,.27-.26,.55-.51,.84-.79,13.04-12.29,13.19-43.47,8.99-54.26-4.2-10.79-12.59-23.68-16.79-35.37-4.2-11.69-1.8-16.49-11.99-28.18,0,0-3.16-2.07-10.46-4.5"/><path class="cls-8" d="M23.37,316.63c-1.94,1.13-3.7,1.93-5.19,2.17-.05,.07-.12,.16-.21,.27-.21,.27-.5,.67-.86,1.18-.72,1.02-1.69,2.5-2.68,4.3-1.99,3.6-4.05,8.49-4.42,13.62-.37,5.11-1.04,13.95-2.57,19.14-.78,2.64-2.37,5.21-3.76,8.25-1.39,3.03-2.6,6.51-2.66,10.96,0,.54-.01,1.07-.01,1.58,0,7.95,.89,12.49,2.22,18.7,.91,4.19,2.2,7.72,4.58,12.02,2.38,4.3,5.85,9.37,11.09,16.55,7.78,10.68,22.65,21,32.51,26.18,3.28,1.73,6.01,2.89,7.68,3.3,1.43,.36,3.38,.8,5.71,1.22-7.89-3.11-14.99-6.27-17.82-8.53-7.74-6.19-34.47-34.17-38.37-46.45-3.9-12.29,0-28.19,4.2-39.88,4.2-11.69,1.5-16.19,3.3-27.88,.84-5.42,4.05-11.61,7.27-16.71"/><path class="cls-6" d="M23.97,315.68c-2.3,1.41-4.36,2.4-5.96,2.63,.3-.11,1.21-.55,2.24-2.26l-2.35,2.29s-7.64,9.29-8.39,19.79c-.36,5.1-1.05,13.94-2.55,19.04-1.5,5.1-6.32,10.27-6.45,19.34-.12,8.99,.8,13.78,2.22,20.4,1.84,8.46,5.27,14.38,15.76,28.77,10.49,14.39,33.49,27.94,40.47,29.68,1.9,.47,4.71,1.1,8.11,1.62-.77-.3-1.53-.59-2.28-.89-2.33-.42-4.28-.86-5.71-1.22-1.67-.41-4.4-1.57-7.68-3.3-9.85-5.18-24.73-15.5-32.51-26.18-5.24-7.19-8.71-12.25-11.09-16.55-2.38-4.3-3.67-7.83-4.58-12.02-1.34-6.22-2.22-10.75-2.22-18.7,0-.51,0-1.04,.01-1.58,.06-4.45,1.27-7.92,2.66-10.96,1.39-3.03,2.98-5.6,3.76-8.25,1.52-5.19,2.2-14.03,2.57-19.14,.37-5.14,2.43-10.03,4.42-13.62,.99-1.8,1.96-3.27,2.68-4.3,.36-.51,.66-.91,.86-1.18,.09-.11,.16-.2,.21-.27,1.49-.25,3.25-1.04,5.19-2.17,.2-.32,.4-.63,.6-.94"/></g></svg>