<?xml version="1.0" encoding="UTF-8"?><svg id="Layer_2" xmlns="http://www.w3.org/2000/svg" viewBox="0 0 239.17 451.01"><defs><style>.cls-1{fill:#918a53;}.cls-2{fill:#b5aa77;}.cls-3{fill:#caccb6;}.cls-4{fill:#b1aa6e;}.cls-5{fill:#827c4b;}.cls-6{fill:#afa05f;}.cls-7{fill:#f1f4e5;}.cls-8{fill:#c9bd84;}.cls-9{fill:#b5b7a3;}.cls-10{fill:#9d9055;}.cls-11{fill:#d8dbce;}</style></defs><g id="Layer_3"><path class="cls-8" d="M192.4,267.47s-20.49,5.79-55.46,3.77c-14.48-.83-27.2,.85-40.02,2.53-16,2.1-32.15,4.2-52.07,1.41-2.68-.35-5.42-.82-8.24-1.38,0,0,3.18-31.41,0-71.33-3.18-39.92-3.89-63.16-1.77-87.57,2.12-24.42,7.77-37.14,7.77-54.8s-1.94-36.56,1.59-42.57c.66-1.12,1.53-2.05,2.53-2.74,3.05-2.16,7.32-2.34,10.55-.52,.13,.07,.28,.16,.41,.25,.13,.09,.27,.18,.4,.27,.13,.09,.25,.18,.37,.27,.84,.66,1.57,1.49,2.16,2.47,3.53,6.01,12.54,45.04,13.78,56.52,.1,.97,.21,1.99,.31,3.05,.1,1.07,.21,2.19,.31,3.37,.04,.38,.07,.78,.1,1.18,.12,1.37,.23,2.8,.37,4.3,.04,.65,.1,1.31,.16,1.99,.07,1.09,.16,2.19,.25,3.34,.05,.51,.07,1.04,.13,1.59,.02,.25,.03,.52,.06,.78v.03c.15,1.9,.29,3.87,.46,5.93v.1c.04,.56,.09,1.12,.13,1.68,.22,2.99,.47,6.14,.72,9.45,.1,1.33,.22,2.68,.32,4.05,.22,2.75,.46,5.59,.71,8.55,.12,1.47,.25,2.96,.38,4.49,2.12,24.38,7.6,38.51,16.25,53.34,8.65,14.84,14.66,14.48,16.78,.35,2.12-14.13,1.77-43.8,0-63.06-1.77-19.25-3.53-39.21-7.07-52.64-3.53-13.42-9.72-30.03-11.66-36.74-1.94-6.71-7.6-19.61,2.47-15.19,.16,.07,.32,.15,.5,.24,.16,.09,.34,.18,.52,.27,.18,.1,.35,.21,.54,.31,.19,.12,.4,.25,.62,.38,.57,.37,1.19,.78,1.84,1.27,.4,.28,.81,.59,1.22,.9,1.77,1.37,3.74,3.03,5.86,4.92,.27,.24,.53,.48,.8,.72,.57,.52,1.15,1.05,1.74,1.61,.8,.74,1.6,1.5,2.41,2.3,.65,.62,1.31,1.25,1.96,1.9,.31,.31,.62,.62,.93,.93l1.87,1.87c.63,.63,1.25,1.27,1.88,1.93,1.25,1.28,2.5,2.6,3.75,3.93l.1,.1c.57,.62,1.15,1.24,1.74,1.87,.38,.41,.76,.84,1.15,1.25,.24,.26,.47,.53,.71,.78,.31,.34,.6,.68,.9,1,.31,.34,.6,.68,.9,1,3.34,3.72,6.45,7.39,9.1,10.7,.38,.49,.77,.97,1.13,1.44,.71,.91,1.38,1.8,2,2.63,.19,.27,.4,.52,.57,.78,1.21,1.65,2.21,3.15,2.96,4.42,.19,.32,.37,.62,.53,.91,6.36,11.66,20.84,47.87,25.26,63.06,4.42,15.19,10.77,39.92,14.13,51.4,.47,1.59,.96,3.99,1.47,6.99,3.22,18.62,7.11,60.07,7.71,70.73,.71,12.36,0,10.95,0,10.95"/><path class="cls-6" d="M192.4,267.47l-.16-.57s-.05,.01-.16,.04c-1.69,.45-16.22,4.13-40.54,4.13-4.52,0-9.38-.13-14.56-.43-2.65-.15-5.23-.22-7.77-.22-22.84,0-41.79,5.51-64.96,5.5-6.09,0-12.48-.38-19.31-1.33h0c-2.66-.35-5.39-.82-8.21-1.38l-.11,.58,.59,.06s1.42-13.99,1.42-35.16c0-10.58-.35-22.96-1.41-36.28-1.96-24.58-2.98-42.82-2.98-58.89,0-10.03,.4-19.22,1.21-28.57,1.06-12.17,2.99-21.43,4.67-29.87,1.68-8.44,3.1-16.09,3.1-24.98s-.53-18.87-.53-26.74c0-3.58,.11-6.8,.43-9.46,.31-2.66,.85-4.76,1.61-6.06,.62-1.05,1.43-1.91,2.36-2.55h0c1.55-1.1,3.44-1.66,5.35-1.66,1.6,0,3.19,.39,4.58,1.17h0c.12,.07,.26,.15,.37,.23,.13,.09,.27,.18,.4,.27,.11,.08,.22,.16,.34,.25l.35-.47-.36,.46c.78,.62,1.47,1.39,2.02,2.31h0c.4,.68,.93,1.93,1.51,3.58,4.08,11.56,11.13,42.76,12.19,52.71,.1,.97,.21,1.98,.31,3.04,.1,1.07,.21,2.19,.31,3.37h0v.02c.04,.37,.07,.76,.1,1.15h0c.12,1.37,.23,2.8,.37,4.31l.59-.05-.59,.04c.05,.65,.11,1.32,.16,2l.59-.05-.59,.04c.07,1.09,.16,2.2,.25,3.35h0c.04,.51,.07,1.04,.13,1.61l.59-.06-.59,.04c.01,.25,.03,.52,.06,.81l.59-.06h-.59v.07c.15,1.9,.3,3.87,.46,5.93l.59-.05h-.59v.15c.05,.56,.09,1.12,.13,1.68h0c.22,2.99,.47,6.14,.72,9.45,.1,1.33,.22,2.68,.32,4.05,.22,2.76,.46,5.6,.71,8.56,.12,1.47,.25,2.96,.38,4.49,2.12,24.44,7.64,38.71,16.33,53.59,2.18,3.74,4.2,6.53,6.07,8.42,1.87,1.88,3.6,2.9,5.28,2.91,.84,0,1.64-.28,2.33-.79,1.04-.78,1.87-2.05,2.56-3.78,.69-1.73,1.23-3.94,1.63-6.62,1.02-6.8,1.47-17.1,1.47-28.13,0-12.07-.54-24.99-1.46-35.07-1.77-19.25-3.53-39.22-7.08-52.73-3.54-13.46-9.73-30.09-11.66-36.75-.55-1.91-1.39-4.27-2.08-6.59-.7-2.31-1.24-4.59-1.24-6.22,0-.87,.16-1.54,.44-1.92,.28-.38,.64-.6,1.41-.61,.72,0,1.76,.25,3.14,.85l.24-.54-.24,.54c.16,.07,.31,.14,.48,.23l.26-.53-.28,.52c.18,.1,.36,.19,.53,.28l.26-.53-.3,.51c.18,.1,.36,.21,.56,.32l.28-.52-.31,.5c.19,.11,.39,.25,.62,.39l.3-.5-.32,.5c.57,.36,1.17,.77,1.8,1.24h.01c.39,.28,.8,.59,1.21,.9l.35-.47-.36,.47c1.75,1.36,3.72,3.01,5.83,4.89,.26,.23,.52,.48,.8,.72h0c.57,.51,1.14,1.04,1.73,1.59h0c.79,.74,1.6,1.5,2.4,2.29h0c.65,.62,1.31,1.25,1.95,1.9,.31,.31,.62,.62,.93,.93l1.87,1.87c.63,.63,1.24,1.26,1.87,1.92h0c1.25,1.28,2.5,2.6,3.75,3.93h0l.11,.12,.42-.42-.43,.4c.57,.62,1.15,1.24,1.74,1.87,.38,.41,.76,.83,1.15,1.25l.43-.4-.44,.39c.24,.27,.47,.53,.72,.79l.43-.4-.43,.4c.3,.33,.6,.67,.9,1,.3,.33,.6,.67,.9,1h0c3.33,3.71,6.43,7.37,9.08,10.67h0c.38,.48,.76,.97,1.13,1.44h0c.71,.91,1.38,1.79,1.99,2.62l.47-.35-.48,.34c.21,.29,.41,.53,.56,.76h0v.02c1.2,1.64,2.2,3.12,2.93,4.37,.19,.33,.37,.62,.52,.9,3.15,5.78,8.37,17.74,13.33,30.14,4.96,12.4,9.69,25.24,11.88,32.8,4.41,15.18,10.77,39.9,14.13,51.4,.46,1.54,.94,3.93,1.46,6.93,3.21,18.57,7.1,60.04,7.7,70.66,.24,4.11,.31,6.7,.31,8.3,0,1.15-.04,1.81-.09,2.13l-.03,.18v.05l.28,.1-.23-.2-.06,.09,.29,.1-.23-.2,.41,.35v-.53c-.2,0-.36,.12-.41,.18l.41,.35v.01l.29-.46c-.06-.04-.16-.08-.29-.08v.54l.29-.46-.26,.41,.44-.22s-.01-.07-.18-.19l-.26,.41,.44-.22-.22-.44-.47,.13,.16,.57-.53,.26,.1,.14,.15,.13c.07,.05,.19,.1,.34,.1,.19,0,.37-.1,.46-.2,.15-.17,.18-.29,.22-.42,.1-.4,.16-1.07,.16-2.63,0-1.64-.08-4.24-.31-8.37-.61-10.7-4.49-52.12-7.72-70.79-.52-3.01-1-5.42-1.49-7.06-3.35-11.46-9.71-36.19-14.13-51.4-2.22-7.64-6.95-20.49-11.92-32.91-4.97-12.42-10.18-24.39-13.39-30.27-.17-.31-.35-.61-.54-.93-.76-1.29-1.77-2.8-2.99-4.46l-.47,.35,.49-.33c-.2-.3-.41-.55-.59-.8h0c-.62-.85-1.3-1.74-2.01-2.65h0c-.37-.47-.75-.96-1.13-1.45h0c-2.66-3.33-5.77-7-9.12-10.73h0c-.29-.32-.58-.66-.9-1-.29-.32-.58-.66-.9-1h0c-.23-.25-.46-.51-.7-.77h0c-.38-.42-.76-.84-1.15-1.26-.59-.63-1.16-1.25-1.74-1.87h0l-.11-.12-.42,.42,.43-.4c-1.25-1.33-2.5-2.65-3.76-3.94l-.42,.41,.43-.41c-.64-.67-1.26-1.3-1.89-1.94l-1.87-1.87c-.31-.31-.62-.62-.93-.93-.65-.65-1.32-1.29-1.97-1.91l-.41,.43,.41-.42c-.81-.8-1.63-1.57-2.43-2.31l-.4,.43,.41-.43c-.59-.56-1.17-1.1-1.75-1.62h0c-.26-.23-.52-.48-.8-.72-2.13-1.89-4.11-3.56-5.89-4.94h0c-.41-.31-.83-.63-1.24-.91l-.34,.48,.35-.47c-.66-.5-1.29-.92-1.88-1.29h-.01c-.21-.14-.41-.27-.61-.39h-.01v-.02c-.19-.1-.37-.2-.54-.3h-.02l-.02-.02c-.18-.09-.35-.17-.5-.26h-.02c-.19-.1-.36-.18-.52-.25h0c-1.47-.64-2.64-.95-3.61-.96-1.03-.01-1.89,.39-2.38,1.11-.49,.71-.65,1.6-.65,2.6,0,1.88,.58,4.21,1.29,6.56,.7,2.35,1.54,4.72,2.08,6.57,1.96,6.76,8.13,23.34,11.65,36.73,3.51,13.34,5.28,33.29,7.05,52.54,.92,10.04,1.46,22.93,1.46,34.96,0,10.99-.45,21.27-1.45,27.95-.52,3.49-1.29,6.11-2.23,7.79-.47,.84-.98,1.45-1.5,1.83-.52,.38-1.04,.56-1.63,.56-1.16,.01-2.69-.78-4.45-2.56-1.76-1.78-3.74-4.5-5.88-8.18-8.62-14.79-14.05-28.79-16.17-53.1-.13-1.53-.26-3.02-.38-4.48-.25-2.96-.49-5.8-.71-8.55-.1-1.37-.22-2.73-.32-4.05-.25-3.31-.5-6.46-.72-9.45h0c-.04-.56-.09-1.12-.13-1.68l-.59,.05h.59v-.15c-.16-2.06-.31-4.03-.46-5.93l-.59,.05h.59v-.09c-.03-.24-.04-.5-.06-.75h0v-.03c-.06-.52-.09-1.05-.13-1.58h0c-.09-1.14-.18-2.25-.25-3.33h0c-.06-.69-.12-1.35-.16-1.99h0c-.13-1.51-.25-2.94-.37-4.31l-.59,.05,.59-.04c-.03-.4-.06-.8-.1-1.2l-.59,.07,.59-.05c-.1-1.18-.21-2.3-.31-3.38-.1-1.06-.21-2.08-.31-3.05-.63-5.8-3.19-18.43-6.04-30.39-1.43-5.98-2.92-11.79-4.29-16.49-.68-2.35-1.33-4.42-1.92-6.1-.59-1.68-1.12-2.96-1.6-3.78h0c-.63-1.05-1.41-1.93-2.31-2.64h-.01c-.12-.1-.24-.19-.39-.29-.13-.09-.27-.18-.4-.26-.15-.1-.31-.2-.45-.28h0c-1.57-.88-3.37-1.32-5.16-1.32-2.13,0-4.26,.62-6.03,1.87l.34,.48-.34-.48c-1.07,.74-2,1.73-2.7,2.92-.91,1.56-1.44,3.78-1.77,6.52-.33,2.74-.43,6-.43,9.6,0,7.93,.53,17.51,.53,26.74s-1.4,16.32-3.08,24.75c-1.68,8.44-3.63,17.75-4.69,30-.82,9.39-1.21,18.62-1.21,28.68,0,16.13,1.02,34.4,2.98,58.99,1.06,13.29,1.41,25.63,1.41,36.19s-.35,19.32-.71,25.44c-.18,3.06-.35,5.46-.48,7.1-.13,1.63-.22,2.5-.22,2.5l-.05,.53,.53,.1c2.84,.56,5.59,1.04,8.28,1.39h0c6.89,.96,13.33,1.34,19.47,1.34,23.37,0,42.32-5.51,64.96-5.5,2.52,0,5.08,.07,7.7,.22,5.2,.3,10.09,.43,14.63,.43,26.07,0,40.98-4.21,41.03-4.22l-.16-.57-.53,.26,.53-.26"/><path class="cls-4" d="M111.85,181.62c-2.12,14.13-8.13,14.48-16.78-.35-8.65-14.84-14.13-28.97-16.25-53.34-2.12-24.38-3.18-42.39-4.42-53.87-1.24-11.48-10.25-50.52-13.78-56.52-.84-1.43-2-2.5-3.34-3.25,1.13-4.93,3.11-8.93,6.34-10.7,12.19-6.62,26.13-1.13,31,5.83,.75,1.06,1.84,3.09,3.15,5.79-.81-.52-1.53-.91-2.18-1.19-10.07-4.42-4.42,8.48-2.47,15.19,1.94,6.71,8.12,23.31,11.66,36.74,3.53,13.43,5.3,33.38,7.07,52.64,1.77,19.25,2.12,48.93,0,63.06"/><path class="cls-1" d="M111.85,181.62l-.58-.09c-.52,3.49-1.29,6.11-2.23,7.79-.47,.84-.98,1.45-1.5,1.83-.52,.38-1.04,.56-1.63,.56-1.16,.01-2.69-.78-4.45-2.56-1.76-1.78-3.74-4.5-5.88-8.18-8.62-14.79-14.05-28.79-16.17-53.1-2.12-24.37-3.18-42.38-4.42-53.89-.63-5.8-3.19-18.42-6.04-30.39-1.43-5.98-2.92-11.79-4.29-16.49-.68-2.35-1.33-4.42-1.92-6.1-.59-1.68-1.12-2.96-1.6-3.78-.89-1.52-2.14-2.67-3.56-3.47l-.29,.51,.57,.13c.56-2.43,1.32-4.61,2.32-6.38,1-1.77,2.23-3.12,3.73-3.94,3.78-2.06,7.73-2.91,11.52-2.91,8.14-.01,15.55,4.01,18.72,8.56h0c.71,1,1.8,3.02,3.1,5.7l.53-.26,.32-.5c-.83-.53-1.57-.94-2.26-1.24h0c-1.46-.64-2.64-.95-3.61-.95-1.03-.01-1.89,.39-2.37,1.11-.49,.71-.65,1.6-.65,2.6,0,1.88,.58,4.21,1.29,6.56,.7,2.35,1.54,4.72,2.08,6.57,1.96,6.76,8.13,23.34,11.65,36.73,3.51,13.34,5.28,33.29,7.05,52.54,.92,10.04,1.46,22.93,1.46,34.96,0,10.99-.45,21.26-1.45,27.95l.58,.09,.58,.09c1.02-6.8,1.47-17.1,1.47-28.13,0-12.07-.54-24.99-1.46-35.07-1.77-19.25-3.53-39.22-7.08-52.73-3.54-13.46-9.73-30.09-11.66-36.75-.55-1.91-1.39-4.27-2.08-6.59-.7-2.31-1.24-4.59-1.24-6.22,0-.87,.16-1.54,.44-1.92,.28-.38,.64-.6,1.41-.61,.72,0,1.76,.25,3.14,.85h0c.61,.26,1.31,.65,2.1,1.15l1.76,1.12-.91-1.87c-1.32-2.71-2.4-4.74-3.2-5.87h0C91.64,4.12,83.96,.01,75.43,0c-3.97,0-8.12,.9-12.08,3.06-1.74,.95-3.12,2.49-4.19,4.39-1.08,1.91-1.87,4.19-2.44,6.7l-.1,.43,.39,.22c1.26,.71,2.34,1.7,3.12,3.04,.4,.68,.93,1.93,1.51,3.58,4.08,11.56,11.13,42.76,12.19,52.71,1.23,11.45,2.29,29.48,4.41,53.86,2.12,24.44,7.64,38.71,16.33,53.59,2.18,3.74,4.2,6.53,6.07,8.42,1.87,1.88,3.6,2.9,5.28,2.91,.84,0,1.64-.28,2.33-.79,1.04-.78,1.87-2.05,2.56-3.78,.69-1.73,1.23-3.94,1.63-6.62l-.58-.09"/><path class="cls-2" d="M92.24,13.68h0c-.77,.01-1.13,.23-1.41,.61-.27,.38-.44,1.03-.44,1.88v.04c0,1.63,.54,3.91,1.24,6.22,.69,2.32,1.53,4.68,2.08,6.59,1.93,6.67,8.12,23.29,11.66,36.75,3.55,13.51,5.31,33.48,7.08,52.73,.92,10.09,1.46,23.01,1.46,35.07h0c0,11.02-.45,21.32-1.47,28.13-.4,2.68-.94,4.88-1.63,6.62-.08,.19-.15,.37-.23,.55-.64,1.45-1.4,2.54-2.33,3.23-.66,.49-1.41,.77-2.2,.79-.04,0-.08,0-.12,0h-.01c-1.69-.01-3.42-1.03-5.28-2.91-1.87-1.89-3.89-4.68-6.07-8.42-.48-.81-.94-1.63-1.4-2.44-7.88-14.04-12.93-28.05-14.93-51.15-.02-.22-.04-.44-.06-.66-.09-1.09-.19-2.16-.28-3.22-.2-2.35-.39-4.63-.57-6.85-.06-.78-.13-1.56-.19-2.32v-.03c-.06-.76-.12-1.51-.18-2.25-.05-.59-.1-1.18-.14-1.77-.02-.31-.05-.62-.07-.93-.31-3.91-.59-7.6-.85-11.07-.78,22.22-.89,48.83,2.04,63.66,5.65,28.61,19.43,37.45,23.67,48.75,2.18,5.81,5.85,12.47,9.3,12.47,3.25,0,6.29-5.94,7.66-24.13,2.83-37.45,6.36-46.63,0-86.55-6.36-39.92-5.65-42.48-12.28-61.03-5.9-16.53-12.17-27.8-9.07-27.8,.38,0,.89,.17,1.57,.51,6.18,3.18,32.15,28.54,42.48,42.39,10.33,13.85,27.29,65.97,31.53,84.26,1.67,7.16,6.06,19.34,10.77,31.49-.32-1.62-.62-2.96-.92-3.95-3.36-11.5-9.72-36.23-14.13-51.4-2.2-7.55-6.92-20.4-11.88-32.8-4.96-12.4-10.18-24.36-13.33-30.14-.15-.28-.33-.57-.52-.9-.74-1.24-1.73-2.73-2.93-4.37h0v-.02c-.16-.23-.36-.48-.57-.76h0c-.61-.83-1.29-1.71-1.99-2.62h0c-.37-.47-.75-.95-1.13-1.44h0c-2.64-3.3-5.74-6.96-9.08-10.67h0c-.3-.33-.59-.67-.9-1-.3-.33-.59-.66-.89-.99h0c-.24-.26-.48-.53-.72-.79h0c-.38-.41-.76-.84-1.14-1.24-.59-.63-1.15-1.24-1.72-1.85h0l-.11-.11h0c-1.25-1.33-2.5-2.65-3.75-3.93h0c-.63-.66-1.24-1.29-1.87-1.92l-1.87-1.87c-.31-.31-.62-.62-.93-.93-.64-.64-1.3-1.27-1.95-1.89h0c-.8-.8-1.61-1.56-2.4-2.29h0c-.59-.56-1.15-1.09-1.73-1.6h0c-.27-.24-.54-.49-.8-.72-2.11-1.87-4.07-3.53-5.82-4.89h0c-.41-.31-.82-.61-1.21-.89h-.01c-.61-.47-1.19-.86-1.74-1.21l-.06-.04h0c-.19-.12-.36-.23-.52-.32-.03-.02-.07-.04-.1-.06-.18-.1-.34-.19-.5-.28h-.02c-.16-.09-.33-.17-.49-.26-.15-.08-.3-.14-.45-.21h-.03c-1.37-.61-2.4-.86-3.12-.86"/><path class="cls-10" d="M93.17,179.13c.46,.81,.92,1.62,1.4,2.44,2.18,3.74,4.2,6.53,6.07,8.42,1.87,1.88,3.6,2.9,5.28,2.91h.01s.08,0,.12,0c-.04,0-.08,0-.12,0h-.01c-1.69-.01-3.42-1.03-5.28-2.91-1.87-1.89-3.89-4.68-6.07-8.42-.48-.81-.94-1.63-1.4-2.44m-15.26-55.02c.09,1.06,.18,2.13,.28,3.22-.09-1.09-.19-2.16-.28-3.22m-.76-9.21v.03c.06,.77,.13,1.54,.19,2.32-.06-.79-.13-1.58-.19-2.35m-.39-4.95c.02,.31,.05,.62,.07,.93,.05,.58,.09,1.17,.14,1.77-.07-.91-.14-1.81-.21-2.69M97.53,15.72c.55,.35,1.13,.75,1.74,1.2h.01c.39,.28,.8,.59,1.21,.9h0c1.75,1.36,3.71,3.01,5.82,4.88,.26,.23,.52,.48,.8,.72h0c.57,.51,1.14,1.04,1.73,1.59h0c.79,.74,1.6,1.5,2.4,2.29h0c.65,.62,1.31,1.25,1.95,1.9,.31,.31,.62,.62,.93,.93l1.87,1.87c.63,.63,1.24,1.26,1.87,1.92h0c1.25,1.28,2.5,2.6,3.75,3.93h0l.11,.12c.57,.61,1.14,1.23,1.72,1.85,.37,.4,.75,.83,1.14,1.24h0c.24,.27,.47,.53,.72,.79h0c.3,.33,.59,.66,.89,.99,.3,.33,.6,.67,.9,1h0c3.33,3.71,6.43,7.37,9.08,10.67h0c.38,.48,.76,.97,1.13,1.44h0c.7,.91,1.38,1.78,1.99,2.62h0c.21,.29,.41,.53,.56,.76h0v.02c1.2,1.64,2.2,3.12,2.93,4.37,.19,.33,.37,.62,.52,.9,3.15,5.78,8.37,17.74,13.33,30.14,4.96,12.4,9.69,25.24,11.88,32.8,4.41,15.18,10.77,39.9,14.13,51.4,.29,.99,.6,2.33,.92,3.95,.37,.96,.75,1.92,1.12,2.88-.52-3-1-5.4-1.47-6.99-3.36-11.48-9.72-36.21-14.13-51.4-4.42-15.19-18.9-51.4-25.26-63.06-5.8-10.63-32.73-40.05-45.08-48.51l.47,.98-1.7-1.08m-.58-.36c.16,.1,.33,.21,.52,.32-.18-.11-.35-.22-.52-.32m-.6-.34c.16,.09,.32,.19,.5,.28-.17-.1-.34-.19-.5-.28m-.95-.47c.15,.07,.29,.13,.45,.21,.16,.09,.33,.17,.49,.25-.33-.18-.65-.34-.94-.46m-3.15-.86h0c-.77,.01-1.13,.23-1.41,.61-.27,.38-.44,1.03-.44,1.88,0-.85,.16-1.5,.44-1.88,.28-.38,.64-.6,1.41-.61h0c.72,0,1.76,.25,3.12,.85h0c-1.37-.6-2.41-.85-3.13-.85"/><path class="cls-5" d="M92.23,13.1c-5.17,0-.77,10.33,.9,16.09,1.94,6.71,8.12,23.31,11.66,36.74,3.53,13.43,5.3,33.38,7.07,52.64,1.77,19.25,2.12,48.93,0,63.06-1.06,7.07-3.09,10.69-5.94,10.69s-6.51-3.62-10.84-11.04c-8.65-14.84-14.13-28.97-16.25-53.34-1.16-13.35-2-24.79-2.72-34.28-.07,1.71-.14,3.46-.2,5.24,.26,3.47,.54,7.15,.85,11.07,.07,.89,.14,1.78,.21,2.69,.06,.74,.12,1.49,.18,2.25,.06,.78,.13,1.56,.19,2.35,.18,2.22,.37,4.51,.57,6.85,.09,1.06,.18,2.13,.28,3.22,.02,.22,.04,.44,.06,.66,2,23.1,7.05,37.12,14.93,51.15,.46,.81,.92,1.62,1.4,2.44,2.18,3.74,4.2,6.53,6.07,8.42,1.87,1.88,3.6,2.9,5.28,2.91h.01s.08,0,.12,0c.79-.02,1.55-.3,2.2-.79,.93-.69,1.69-1.78,2.33-3.23,.08-.18,.16-.36,.23-.55,.69-1.73,1.23-3.94,1.63-6.62h0c1.02-6.8,1.47-17.1,1.47-28.13h0c0-12.07-.54-24.99-1.46-35.07-1.77-19.25-3.53-39.22-7.08-52.73-3.54-13.46-9.73-30.09-11.66-36.75-.55-1.91-1.39-4.27-2.08-6.59-.7-2.31-1.24-4.59-1.24-6.22v-.04c0-.85,.16-1.5,.44-1.88,.28-.38,.64-.6,1.41-.61h0c.72,0,1.76,.25,3.13,.85h.02c.29,.14,.61,.29,.94,.47h.02c.16,.1,.33,.19,.5,.29,.03,.02,.07,.04,.1,.06,.17,.1,.34,.21,.52,.32h0l.06,.04,1.7,1.08-.47-.98c-1.2-.82-2.25-1.44-3.14-1.83-1.42-.62-2.53-.9-3.38-.9"/><path class="cls-2" d="M46.66,15.58c-.76,.6-1.42,1.36-1.95,2.25-.77,1.3-1.3,3.4-1.61,6.06-.32,2.66-.43,5.89-.43,9.46,0,7.88,.53,17.47,.53,26.74s-1.42,16.54-3.1,24.98c-1.68,8.44-3.61,17.7-4.67,29.87-.81,9.36-1.21,18.55-1.21,28.57,0,16.07,1.02,34.32,2.98,58.89,1.06,13.32,1.41,25.7,1.41,36.28,0,18.76-1.11,31.88-1.37,34.62,2.63,.51,5.18,.94,7.67,1.27,1.1-9.58,1.7-18.56,1.58-25.5-.35-21.2-5.65-69.59-8.12-80.55-2.47-10.95-1.77-54.76,4.24-83.02,6.01-28.26,5.65-33.91,3.89-48.75-.78-6.6-.45-14.48,.16-21.2"/><path class="cls-10" d="M46.74,14.79c-1,.69-1.87,1.62-2.53,2.74-3.53,6.01-1.59,24.91-1.59,42.57s-5.65,30.38-7.77,54.8c-2.12,24.41-1.41,47.65,1.77,87.57,2.93,36.73,.47,66.26,.06,70.74h.06c.17,.05,.35,.08,.52,.11,.25-2.74,1.37-15.86,1.37-34.62,0-10.58-.35-22.96-1.41-36.28-1.96-24.58-2.98-42.82-2.98-58.89,0-10.03,.4-19.22,1.21-28.57,1.06-12.17,2.99-21.43,4.67-29.87,1.68-8.44,3.1-16.09,3.1-24.98s-.53-18.87-.53-26.74c0-3.58,.11-6.8,.43-9.46,.31-2.66,.85-4.76,1.61-6.06,.53-.89,1.19-1.65,1.95-2.25,.02-.26,.05-.53,.07-.79"/><path class="cls-7" d="M237.18,393.85c-1.6,5.28-6.64,12.39-13.34,19.49-6.55,6.96-14.69,13.88-22.73,19-2.68,1.69-5.33,3.19-7.92,4.43-9.79,4.68-23.55,9.45-36.33,11.92-11.07,2.13-21.4,2.56-27.79-.27-13.78-6.08-22.79-12.19-27.02-14.57-2.18-1.22-4.64-1.19-7.49,0-2.69,1.13-5.73,3.28-9.2,6.39-1.44,1.29-3.28,2.38-5.37,3.31-8.3,3.65-20.61,4.67-28.01,4.87-9.27,.27-33.38-9.8-45.57-28.88-12.19-19.08-2.65-43.98,5.3-61.47,7.95-17.49,16.43-36.56,18.02-54.05,1.59-17.49,6.89-30.23,6.89-30.23,2.83,.56,5.56,1.03,8.24,1.38,19.91,2.79,36.07,.69,52.07-1.41,12.82-1.68,25.54-3.36,40.02-2.53,34.97,2.02,55.46-3.77,55.46-3.77,0,0,1.03,5.65,2.81,13.06,2.16,9.02,5.45,20.62,9.38,27.75,7.15,12.98,21.46,29.41,26.76,39.21,5.3,9.8,9.54,34.18,5.83,46.37"/><path class="cls-3" d="M237.18,393.85l-.56-.17c-1.54,5.11-6.54,12.2-13.2,19.25-6.52,6.93-14.63,13.82-22.62,18.91-2.66,1.68-5.29,3.17-7.86,4.4-9.74,4.66-23.47,9.42-36.19,11.88-5.6,1.08-11,1.72-15.77,1.72-4.62,0-8.64-.6-11.67-1.94-13.74-6.06-22.69-12.14-26.98-14.55-1.17-.66-2.43-.98-3.76-.98-1.35,0-2.76,.33-4.25,.95-2.79,1.18-5.86,3.37-9.37,6.49-1.38,1.24-3.17,2.3-5.22,3.21-8.15,3.59-20.42,4.62-27.79,4.82-.11,0-.23,0-.35,0-2.28,0-5.5-.61-9.21-1.84-11.12-3.67-26.59-12.81-35.51-26.78-4.12-6.45-5.72-13.58-5.72-20.9,0-13.95,5.85-28.56,11.06-40.01,7.95-17.49,16.46-36.61,18.07-54.24,.79-8.7,2.51-16.22,4.02-21.57,.76-2.67,1.47-4.8,1.98-6.26,.26-.73,.47-1.29,.62-1.67,.15-.38,.23-.57,.23-.57l-.54-.23-.11,.58c2.84,.56,5.59,1.04,8.28,1.39h0c6.89,.96,13.33,1.35,19.47,1.34,23.37,0,42.32-5.51,64.96-5.5,2.52,0,5.08,.07,7.7,.22,5.2,.3,10.09,.43,14.63,.43,26.07,0,40.98-4.21,41.03-4.22l-.16-.57-.58,.11s1.03,5.67,2.82,13.09c2.17,9.05,5.45,20.66,9.43,27.89,3.61,6.54,8.98,13.91,14.12,20.86,5.13,6.95,10.03,13.51,12.64,18.35,1.91,3.52,3.71,9.08,5.02,15.27,1.31,6.19,2.14,13.02,2.14,19.14,0,4.37-.42,8.38-1.38,11.51l.56,.17,.56,.17c1-3.3,1.43-7.4,1.43-11.85,0-6.22-.84-13.12-2.16-19.39-1.33-6.27-3.14-11.88-5.14-15.58-2.69-4.97-7.6-11.53-12.73-18.48-5.13-6.95-10.49-14.29-14.03-20.73-3.88-7.02-7.16-18.6-9.32-27.6-.89-3.69-1.59-6.95-2.07-9.29-.24-1.17-.42-2.1-.55-2.75-.12-.64-.19-.99-.19-.99l-.12-.64-.62,.18s-.05,.01-.16,.04c-1.69,.45-16.22,4.13-40.54,4.13-4.52,0-9.38-.13-14.56-.43-2.65-.15-5.23-.22-7.77-.22-22.84,0-41.79,5.51-64.96,5.5-6.09,0-12.48-.38-19.31-1.33h0c-2.66-.35-5.39-.82-8.21-1.38l-.47-.09-.19,.45s-5.33,12.83-6.93,30.41c-1.57,17.34-10.02,36.38-17.97,53.86C5.95,369.33,0,384.06,0,398.33c0,7.49,1.64,14.86,5.91,21.53,6.09,9.52,15.08,16.8,23.75,21.7,4.34,2.45,8.59,4.31,12.38,5.56,3.79,1.25,7.09,1.89,9.58,1.9,.13,0,.25,0,.38,0,7.44-.21,19.78-1.21,28.23-4.92,2.13-.94,4.02-2.06,5.53-3.41,3.45-3.08,6.44-5.19,9.03-6.28,1.38-.58,2.64-.86,3.79-.86,1.14,0,2.18,.27,3.18,.83,4.19,2.36,13.26,8.5,27.07,14.6,3.26,1.44,7.43,2.04,12.15,2.04,4.88,0,10.34-.65,16-1.74,12.84-2.48,26.63-7.26,36.47-11.97,2.62-1.25,5.29-2.76,7.98-4.46,8.09-5.16,16.26-12.1,22.84-19.1,6.73-7.14,11.8-14.26,13.47-19.72l-.56-.17"/><path class="cls-11" d="M36.97,274.47l-.05,.12c-.15,.38-.36,.94-.62,1.67-.52,1.46-1.23,3.59-1.98,6.26-1.52,5.34-3.23,12.87-4.02,21.57-1.61,17.63-10.12,36.75-18.07,54.24-5.21,11.45-11.07,26.06-11.06,40.01,0,7.32,1.6,14.45,5.72,20.9,8.91,13.96,24.38,23.11,35.51,26.78,3.7,1.22,6.91,1.84,9.19,1.84h.01c.12,0,.23,0,.35,0,7.02-.19,18.49-1.14,26.6-4.33-12.94-.51-30.66-3.73-39.48-10.36-12.72-9.54-22.26-30.38-22.26-47.69s9.89-38.86,16.81-56.88c4.55-11.88,8.85-33.43,11.15-52.82h0c-2.54-.34-5.13-.78-7.8-1.3"/><path class="cls-9" d="M36.61,273.8s-5.3,12.75-6.89,30.23c-1.59,17.49-10.07,36.56-18.02,54.05-7.95,17.49-17.49,42.39-5.3,61.47,12.03,18.83,35.68,28.88,45.21,28.88,.12,0,.25,0,.36,0,7.4-.21,19.71-1.22,28.01-4.87-.47-.01-.94-.03-1.42-.05-8.11,3.19-19.59,4.14-26.6,4.33-.11,0-.23,0-.35,0h-.01c-2.28,0-5.5-.61-9.19-1.84-11.12-3.67-26.59-12.81-35.51-26.78-4.12-6.45-5.72-13.58-5.72-20.9,0-13.95,5.85-28.56,11.06-40.01,7.95-17.49,16.46-36.61,18.07-54.24,.79-8.7,2.51-16.22,4.02-21.57,.76-2.67,1.47-4.8,1.98-6.26,.26-.73,.47-1.29,.62-1.67l.05-.12c2.67,.52,5.26,.96,7.8,1.3h0c.02-.19,.05-.39,.07-.58-2.68-.35-5.42-.82-8.24-1.38"/><path class="cls-11" d="M195.18,282.88c-.02,9.26,1.16,20.92,6.05,29.81,9.54,17.31,26.85,31.85,30.73,48.43,3.63,15.49-1.06,38.67-6.88,50.01,5.82-6.44,10.12-12.77,11.53-17.45h0c.95-3.12,1.38-7.13,1.38-11.51,0-6.12-.83-12.95-2.14-19.14-1.31-6.19-3.11-11.74-5.02-15.27-2.61-4.83-7.51-11.39-12.64-18.35-5.14-6.96-10.51-14.32-14.12-20.86-3.67-6.65-6.73-17.02-8.89-25.68"/><path class="cls-9" d="M195.21,280.52c-.02,.77-.03,1.55-.03,2.36,2.16,8.66,5.22,19.02,8.89,25.68,3.61,6.54,8.98,13.91,14.12,20.86,5.13,6.95,10.03,13.51,12.64,18.35,1.91,3.52,3.71,9.08,5.02,15.27,1.31,6.19,2.14,13.02,2.14,19.14,0,4.37-.42,8.38-1.38,11.51h0c-1.41,4.68-5.71,11.01-11.53,17.45-.41,.8-.82,1.54-1.24,2.21,6.7-7.1,11.73-14.2,13.34-19.49,3.71-12.19-.53-36.56-5.83-46.37-5.3-9.8-19.61-26.23-26.76-39.21-3.93-7.13-7.21-18.72-9.38-27.75"/><path class="cls-3" d="M94.89,434.35s4.4-2.92,9.74-6.91c5.34-3.99,11.61-9.03,15.4-13.33,2.87-3.26,5.02-5.43,6.49-7.84,1.48-2.41,2.2-5.04,2.2-8.98,0-2.34-.25-5.16-.73-8.73-1.07-7.84-3.38-14.34-5.5-20.26-2.12-5.92-4.04-11.26-4.38-16.8-.35-5.64-.53-11.02-.62-14.99-.04-1.98-.07-3.61-.08-4.75-.01-1.14-.01-1.77-.01-1.77h-1.18s0,10.26,.71,21.59c.36,5.77,2.33,11.2,4.45,17.12,2.12,5.92,4.4,12.32,5.45,20.02,.48,3.54,.72,6.31,.72,8.57,0,3.82-.67,6.14-2.03,8.37-1.36,2.23-3.48,4.39-6.37,7.67-3.67,4.17-9.91,9.2-15.22,13.16-2.65,1.98-5.08,3.7-6.84,4.92-.88,.61-1.59,1.1-2.09,1.43-.49,.33-.76,.51-.76,.51l.65,.98h0"/><path class="cls-3" d="M127.2,402.84s16.45,12.76,33.77,25.48c6.42,4.71,14.72,6.17,22.79,6.17,6.49,0,12.85-.94,18.03-1.95l-.11-.58v.59h.01v-1.18h-.13c-5.13,1-11.43,1.94-17.81,1.93-7.94,0-15.98-1.45-22.09-5.94-8.65-6.36-17.09-12.72-23.36-17.5-3.14-2.39-5.73-4.38-7.54-5.77-1.81-1.39-2.84-2.19-2.84-2.19l-.72,.93"/><path class="cls-3" d="M128.13,402.52c.4-1.49,.59-3.19,.59-5.24,0-2.34-.25-5.16-.74-8.72-1.07-7.84-3.38-14.34-5.5-20.26-2.12-5.92-4.04-11.26-4.38-16.8-.26-4.22-.43-8.29-.53-11.73-.09-2.89-.13-5.34-.15-7.06-.02-1.73-.02-2.72-.02-2.72h-1.18s0,4.03,.18,9.82c.1,3.45,.27,7.53,.53,11.77,.36,5.77,2.33,11.2,4.45,17.12,2.12,5.92,4.4,12.32,5.45,20.02,.48,3.53,.72,6.3,.72,8.56,0,1.99-.19,3.57-.55,4.94l1.14,.3"/><path class="cls-3" d="M201.69,431.39h-.13c-.71,.16-1.45,.29-2.23,.42h0c-4.68,.83-10.1,1.52-15.58,1.52-7.93,0-15.97-1.45-22.08-5.94-8.65-6.36-17.09-12.72-23.36-17.5-3.14-2.39-5.73-4.38-7.54-5.78-1.81-1.39-2.84-2.19-2.84-2.19l-.72,.93s16.45,12.77,33.76,25.49c6.42,4.71,14.71,6.17,22.78,6.17,5.58,0,11.06-.7,15.79-1.53h0c.78-.13,1.54-.27,2.27-.41l-.12-.58v.59h.01v-1.18"/><path class="cls-11" d="M117.68,343.24c.07,1.92,.17,3.96,.28,6.06,.04,.73,.08,1.47,.13,2.21h0c.34,5.54,2.26,10.88,4.38,16.8,2.12,5.92,4.44,12.41,5.5,20.26,.49,3.56,.74,6.38,.74,8.72,0,.31,0,.61-.01,.9v.05c-.02,.72-.07,1.4-.15,2.03v.06h0c-.08,.65-.19,1.25-.32,1.82,.43,.33,1.3,1,2.53,1.96,1.81,1.4,4.41,3.39,7.54,5.78,6.27,4.78,14.71,11.15,23.36,17.5h0c6.11,4.49,14.14,5.94,22.08,5.94h.02c1.81,0,3.62-.07,5.39-.21,2.19-.16,4.33-.41,6.38-.7-6.48-.05-14.03-.62-18.76-2.78-9.29-4.24-33.12-19.89-36.3-31.01-3.18-11.13-10.86-21.46-15.1-29.41-3.19-5.97-6.32-19.58-7.68-25.97"/><path class="cls-9" d="M128.55,400.33h0m.16-2.1c-.02,.72-.07,1.4-.15,2.03,.08-.64,.13-1.31,.15-2.03m0-.05v0m-10.74-48.88c.04,.73,.08,1.47,.13,2.21-.05-.74-.09-1.48-.13-2.21"/><path class="cls-9" d="M161.66,427.38c6.11,4.49,14.13,5.94,22.06,5.94h.02c1.82,0,3.63-.08,5.41-.21-1.77,.13-3.58,.21-5.39,.21h-.02c-7.93,0-15.97-1.45-22.08-5.94"/><path class="cls-9" d="M116.98,339.8c.1,3.44,.27,7.52,.53,11.75,.71,11.3,7.77,21.55,9.89,37.09,.91,6.67,.97,10.67,.16,13.73h0l.36-.47s.1,.08,.3,.24c.13-.57,.24-1.17,.32-1.81h0v-.07c.08-.64,.13-1.31,.16-2.03v-.05c.01-.29,.01-.59,.01-.9,0-2.34-.25-5.16-.74-8.72-1.07-7.84-3.38-14.34-5.5-20.26-2.12-5.92-4.04-11.26-4.38-16.8h0c-.05-.74-.09-1.48-.13-2.21-.12-2.1-.21-4.14-.28-6.06-.45-2.11-.71-3.44-.71-3.44"/><path class="cls-9" d="M127.92,401.91l-.36,.47s16.44,12.76,33.75,25.48c6.27,4.6,14.43,6.06,22.43,6.06,5.53,0,10.98-.7,15.68-1.53-.93,.02-1.9,.03-2.9,.03-.33,0-.66,0-.99,0-2.05,.29-4.19,.54-6.38,.7-1.78,.13-3.59,.21-5.41,.21h-.02c-7.93,0-15.95-1.45-22.06-5.94h0c-8.65-6.36-17.09-12.72-23.36-17.5-3.14-2.39-5.73-4.38-7.54-5.78-1.24-.95-2.11-1.62-2.53-1.96-.2-.15-.3-.23-.3-.24"/></g></svg>