<?xml version="1.0" encoding="UTF-8"?><svg id="Layer_2" xmlns="http://www.w3.org/2000/svg" viewBox="0 0 196.13 442.38"><defs><style>.cls-1{fill:#918a53;}.cls-2{fill:#b5aa77;}.cls-3{fill:#caccb6;}.cls-4{fill:#b1aa6e;}.cls-5{fill:#afa05f;}.cls-6{fill:#f1f4e5;}.cls-7{fill:#c9bd84;}.cls-8{fill:#b5b7a3;}.cls-9{fill:#9d9055;}.cls-10{fill:#d8dbce;}</style></defs><g id="Layer_3"><path class="cls-7" d="M161.21,270.22c-7.45-.9-15.08-1.52-22.74-1.94-41.82-2.3-84.53,1.71-105.07,4.14-7.92,.92-12.55,1.62-12.55,1.62,5.99-32.43-2.18-63.35-5.46-93.93-3.28-30.58-12.02-72.09-9.28-107.58,1.97-25.71,13.99-45.4,20.45-54.31,2.46-3.4,4.13-5.22,4.13-5.22,7.46-10.1,5.46-10.38,6.01-4.37,.15,1.71-.27,6.49-.91,12.89-1.58,15.96-4.48,42.05-2.91,56.46,.33,3.15,1.23,7.28,2.53,12.11,.26,.96,.53,1.96,.83,2.97,.39,1.41,.83,2.87,1.3,4.37,.2,.67,.41,1.33,.62,2.02,.27,.87,.56,1.73,.85,2.62,.27,.83,.55,1.65,.82,2.5,.29,.86,.58,1.73,.88,2.61,.3,.91,.64,1.82,.95,2.74,.21,.61,.42,1.23,.64,1.84,.21,.61,.42,1.23,.65,1.85,.17,.49,.35,.97,.53,1.46,.23,.64,.45,1.29,.7,1.94,1.65,4.55,3.41,9.22,5.25,13.91l.02,.06,.03,.07c1.5,3.88,3.03,7.77,4.61,11.6,.44,1.11,.89,2.22,1.35,3.32,.3,.77,.62,1.53,.94,2.29,.2,.47,.38,.93,.58,1.38,.06,.17,.14,.35,.2,.51,.09,.21,.18,.42,.27,.64,.35,.83,.7,1.67,1.05,2.49,2.11,5.05,4.2,9.89,6.21,14.4l.14,.32,.11,.21,.14,.32c.41,.92,.82,1.84,1.21,2.72,.24,.53,.49,1.06,.71,1.58,.56,1.24,1.12,2.46,1.67,3.64,.14,.27,.26,.56,.39,.83,.76,1.65,1.5,3.22,2.2,4.69,.12,.23,.23,.47,.35,.7,.2,.42,.39,.83,.59,1.23,12.56,25.67,14.2,.55,16.93-23.48,.36-3.16,.49-7.13,.41-11.71-.02-1.23-.05-2.52-.09-3.82-.03-.89-.08-1.82-.12-2.76-.03-.8-.08-1.61-.12-2.44-.05-.82-.09-1.65-.15-2.5-.02-.42-.05-.85-.08-1.27-.03-.42-.06-.86-.09-1.3-.12-1.73-.26-3.5-.41-5.31-.03-.39-.06-.77-.09-1.15-.05-.53-.09-1.06-.14-1.59-.17-1.84-.35-3.72-.53-5.6-.06-.59-.12-1.17-.18-1.76-.12-1.32-.27-2.64-.42-3.98-.11-.97-.21-1.94-.32-2.91l-.02-.2c-.29-2.47-.58-4.96-.89-7.45-.17-1.38-.33-2.75-.52-4.13-.38-2.94-.77-5.89-1.18-8.81-.23-1.59-.45-3.17-.68-4.75-.05-.35-.09-.7-.15-1.05-.27-1.93-.56-3.81-.85-5.69-.42-2.84-.86-5.63-1.3-8.33-.14-.86-.29-1.71-.42-2.55v-.04c-.29-1.73-.58-3.41-.87-5.05v-.03c-1.61-9.3-3.17-17.13-4.43-22.32-5.46-22.39-4.37-26.76,2.73-22.39,4.58,2.82,29.34,42.6,49.13,86.91,10.94,24.44,20.36,50.26,24.04,72.01,10.38,61.16,9.83,91.75,9.83,91.75"/><path class="cls-5" d="M161.21,270.22l.07-.6c-7.46-.9-15.11-1.52-22.78-1.95-8.79-.48-17.61-.69-26.26-.69-32.58,0-62.67,2.92-78.91,4.83-7.93,.93-12.56,1.63-12.56,1.63l.09,.6,.6,.11c1.54-8.32,2.15-16.54,2.15-24.68,0-23.72-5.17-46.7-7.6-69.43-2.85-26.59-9.8-61.35-9.8-93.2,0-4.84,.16-9.61,.52-14.27,1.96-25.55,13.91-45.15,20.33-54,1.22-1.69,2.25-2.98,2.96-3.85,.36-.44,.64-.76,.83-.98,.19-.22,.29-.33,.29-.33l.02-.02,.02-.03c2.15-2.91,3.52-5.01,4.39-6.38,.43-.69,.75-1.19,.96-1.5,.1-.16,.19-.27,.22-.31l.02-.02-.18-.19,.13,.22,.05-.03-.18-.19,.13,.22-.26-.44v.51c.14,0,.22-.05,.26-.07l-.26-.44v-.04l-.38,.4c.08,.08,.24,.16,.38,.15v-.55l-.38,.4,.33-.34-.44,.18,.11,.16,.33-.34-.44,.18,.2-.08-.21,.04v.04l.21-.08-.21,.04s.02,.16,.02,.36c0,.62-.02,1.81,.12,3.42,.02,.21,.03,.49,.03,.82,0,2.12-.39,6.44-.94,11.96-1.26,12.74-3.36,31.96-3.36,46.57,0,3.69,.13,7.09,.45,10.02,.34,3.21,1.24,7.36,2.55,12.2,.26,.95,.53,1.96,.84,2.99l.58-.17-.58,.16c.4,1.42,.84,2.88,1.31,4.39l.58-.18-.58,.17c.2,.68,.41,1.34,.62,2.03,.28,.87,.56,1.74,.85,2.63h0c.27,.84,.55,1.66,.82,2.5h0c.29,.87,.58,1.74,.88,2.62l.57-.2-.58,.19c.31,.92,.64,1.83,.96,2.75h0c.21,.61,.42,1.23,.64,1.84,.21,.6,.42,1.23,.65,1.86l.57-.21-.57,.2c.17,.5,.35,.99,.54,1.47l.57-.21-.57,.2c.23,.63,.45,1.29,.7,1.95h0c1.65,4.55,3.42,9.23,5.25,13.92l.57-.22-.59,.14v.06l.03,.05,.05,.12,.56-.23-.57,.22c1.5,3.89,3.04,7.77,4.62,11.62l.56-.23-.56,.23c.44,1.11,.9,2.22,1.35,3.33l.56-.23-.57,.22c.31,.78,.63,1.55,.95,2.3,.19,.46,.38,.92,.58,1.39l.56-.24-.57,.21c.07,.18,.14,.37,.2,.52v.03c.1,.21,.19,.42,.29,.64l.56-.24-.56,.23c.35,.83,.7,1.67,1.05,2.49h0c2.11,5.05,4.21,9.89,6.21,14.4l.56-.25-.56,.24,.14,.32v.02l.11,.21,.13,.3h0c.41,.94,.82,1.85,1.21,2.72h0c.24,.53,.48,1.06,.71,1.57h0c.56,1.25,1.13,2.47,1.67,3.65h0v.02c.13,.25,.25,.54,.4,.83l.54-.27-.55,.25c.76,1.66,1.5,3.22,2.2,4.69h0v.03c.11,.2,.22,.44,.36,.7l.54-.29-.55,.26c.2,.43,.4,.84,.6,1.24h0c1.88,3.85,3.53,6.57,5,8.38,.74,.9,1.44,1.57,2.12,2.03,.69,.46,1.37,.71,2.06,.71,.81,0,1.54-.37,2.14-.95,1.04-1.03,1.81-2.72,2.48-4.92,2-6.58,3.01-17.87,4.28-28.94,.3-2.6,.44-5.72,.44-9.26,0-.82,0-1.66-.02-2.53-.02-1.23-.05-2.53-.09-3.84-.03-.9-.08-1.83-.12-2.77h0c-.03-.81-.08-1.61-.12-2.45-.05-.82-.09-1.66-.15-2.51l-.61,.04,.61-.02c-.02-.44-.05-.87-.08-1.3-.03-.42-.06-.86-.09-1.3-.12-1.73-.26-3.51-.41-5.32h0c-.03-.39-.06-.77-.09-1.15-.05-.53-.09-1.06-.14-1.59-.17-1.84-.35-3.72-.53-5.61h0c-.06-.6-.12-1.17-.18-1.76l-.6,.06,.6-.06c-.12-1.33-.27-2.65-.43-3.99-.11-.97-.21-1.94-.32-2.91l-.6,.07,.61-.05-.02-.2h0v-.02c-.29-2.47-.58-4.96-.9-7.46h0c-.17-1.38-.33-2.74-.52-4.13-.38-2.94-.78-5.89-1.18-8.82-.23-1.59-.46-3.17-.68-4.75l-.6,.09,.6-.08c-.05-.35-.09-.71-.16-1.07l-.6,.1,.6-.09c-.27-1.93-.56-3.81-.85-5.7-.43-2.84-.87-5.63-1.31-8.33h0c-.14-.87-.29-1.72-.42-2.55l-.6,.1h.61v-.14c-.3-1.73-.59-3.42-.87-5.06l-.6,.11h.61v-.13c-1.62-9.31-3.18-17.14-4.45-22.36-2.32-9.48-3.44-15.72-3.44-19.33,0-1.49,.2-2.52,.51-3.09,.16-.28,.32-.46,.51-.57,.18-.11,.4-.17,.7-.17,.76-.01,1.99,.47,3.54,1.43,.43,.25,1.33,1.17,2.46,2.59,4,5,11.3,16.35,19.74,31.26,8.45,14.92,18.05,33.42,26.7,52.79,10.93,24.41,20.33,50.2,24,71.86,9.38,55.3,9.83,85.57,9.83,90.81,0,.55,0,.82,0,.82h.61l.07-.59-.07,.6h.61s0-.27,0-.83c0-5.31-.45-35.65-9.84-91.02-3.7-21.84-13.14-47.69-24.09-72.16-9.91-22.18-21.06-43.22-30.3-59.07-4.62-7.93-8.77-14.56-12.06-19.39-1.64-2.42-3.07-4.39-4.24-5.85-1.18-1.47-2.06-2.41-2.77-2.86-1.63-.99-2.97-1.6-4.17-1.61-.47,0-.93,.11-1.33,.34-.6,.36-1.01,.98-1.25,1.75-.25,.78-.36,1.75-.36,2.95,0,3.84,1.15,10.1,3.47,19.62,1.25,5.16,2.81,12.98,4.42,22.27l.6-.1h-.61v.14c.3,1.64,.58,3.32,.87,5.05l.6-.1h-.61v.14c.14,.84,.3,1.69,.43,2.55h0c.44,2.7,.88,5.49,1.3,8.32,.29,1.88,.58,3.76,.85,5.68h0v.02c.06,.33,.1,.67,.15,1.02h0c.23,1.59,.46,3.16,.68,4.76,.41,2.92,.8,5.87,1.18,8.81,.18,1.38,.35,2.74,.51,4.12h0c.32,2.49,.61,4.97,.89,7.45l.6-.07-.6,.05v.2h.02v.02c.11,.97,.21,1.94,.32,2.91,.15,1.34,.3,2.65,.42,3.96h0c.06,.6,.12,1.18,.18,1.77h0c.18,1.88,.36,3.76,.53,5.59,.04,.53,.09,1.06,.14,1.59,.03,.38,.06,.75,.09,1.15h0c.15,1.81,.29,3.58,.41,5.3,.03,.44,.06,.88,.09,1.31,.03,.42,.06,.84,.07,1.25h0v.02c.06,.84,.11,1.67,.15,2.49,.05,.83,.09,1.63,.12,2.43h0c.05,.95,.09,1.87,.12,2.76,.05,1.3,.08,2.59,.09,3.81,.01,.86,.02,1.7,.02,2.51,0,3.51-.14,6.59-.43,9.12-.96,8.44-1.78,17-2.99,23.42-.6,3.21-1.3,5.88-2.12,7.69-.41,.91-.85,1.59-1.29,2.02-.45,.43-.85,.6-1.29,.61-.38,0-.83-.14-1.38-.51-1.66-1.09-3.93-4.24-6.71-9.94h0c-.2-.39-.39-.8-.58-1.22v-.02l-.02-.02c-.11-.2-.21-.44-.35-.7l-.53,.29,.55-.26c-.7-1.47-1.44-3.03-2.2-4.68h0v-.02c-.13-.25-.25-.54-.4-.83l-.54,.27,.55-.25c-.55-1.19-1.11-2.4-1.67-3.64h0c-.23-.52-.47-1.05-.72-1.58h0c-.39-.88-.8-1.79-1.21-2.71l-.56,.25,.56-.24-.14-.32v-.02l-.11-.21-.13-.3h0c-2-4.51-4.09-9.34-6.2-14.39h0c-.35-.82-.7-1.65-1.04-2.49h0c-.09-.22-.18-.43-.27-.64l-.56,.24,.57-.21c-.07-.19-.14-.37-.2-.52v-.03c-.21-.44-.39-.9-.59-1.37-.32-.76-.64-1.51-.94-2.28h0c-.46-1.12-.91-2.22-1.35-3.33h0c-1.57-3.84-3.11-7.72-4.61-11.6h0l-.02-.04v-.06l-.03-.04c-1.83-4.68-3.59-9.35-5.24-13.9h0c-.24-.65-.47-1.3-.7-1.94h0c-.18-.5-.36-.97-.53-1.45h0c-.22-.62-.44-1.24-.65-1.85-.21-.6-.42-1.23-.64-1.84h0c-.32-.93-.65-1.84-.95-2.74h0c-.3-.88-.59-1.74-.88-2.61l-.58,.19,.58-.19c-.27-.85-.55-1.67-.82-2.51h0c-.29-.9-.58-1.76-.85-2.62-.21-.68-.42-1.35-.62-2.01h0c-.47-1.51-.91-2.96-1.3-4.36h0c-.3-1.02-.57-2.01-.83-2.97-1.3-4.81-2.19-8.91-2.52-12.01-.31-2.87-.44-6.23-.44-9.89,0-14.51,2.1-33.7,3.36-46.45,.55-5.53,.94-9.83,.94-12.08,0-.36-.01-.67-.03-.93-.11-1.26-.11-2.23-.12-2.9,0-.34,0-.6-.02-.82-.01-.11-.02-.21-.07-.36l-.18-.27c-.1-.1-.29-.19-.46-.19-.23,0-.35,.09-.43,.15-.15,.12-.22,.22-.32,.35-.33,.44-.81,1.26-1.67,2.59-.86,1.33-2.08,3.15-3.83,5.51l.49,.36-.45-.41s-1.7,1.85-4.17,5.27c-6.5,8.96-18.57,28.74-20.56,54.62-.36,4.7-.52,9.5-.52,14.37,0,32.02,6.97,66.82,9.81,93.33,2.45,22.82,7.6,45.76,7.59,69.3,0,8.07-.6,16.22-2.13,24.46l-.16,.84,.84-.13s1.15-.17,3.29-.46c2.14-.29,5.28-.7,9.23-1.16,16.22-1.92,46.27-4.83,78.77-4.83,8.63,0,17.43,.21,26.19,.69,7.65,.42,15.27,1.04,22.7,1.94l.67,.08v-.67h-.59"/><path class="cls-2" d="M87.97,117.52c.06,.55,.11,1.1,.17,1.65h0c.06,.59,.12,1.16,.18,1.75h0c.18,1.89,.36,3.77,.53,5.61,.05,.53,.09,1.06,.14,1.59,.03,.38,.06,.76,.09,1.16h0c.15,1.8,.29,3.58,.41,5.31,.03,.44,.06,.88,.09,1.3,.03,.42,.06,.85,.08,1.29,.06,.85,.11,1.69,.15,2.5,.05,.83,.09,1.64,.12,2.45h0c.05,.93,.09,1.86,.12,2.76,.05,1.31,.08,2.6,.09,3.84,.02,.86,.02,1.71,.02,2.53,0,3.54-.14,6.67-.44,9.26-1.26,11.07-2.28,22.36-4.28,28.94-.67,2.2-1.44,3.88-2.48,4.92-.59,.58-1.32,.95-2.13,.95h-.01c-.68,0-1.37-.25-2.06-.71-.69-.46-1.38-1.13-2.12-2.03-1.48-1.8-3.12-4.53-5-8.38h0c-.2-.39-.4-.8-.59-1.23-.13-.25-.24-.49-.34-.68h0v-.03c-.7-1.47-1.44-3.03-2.2-4.68-.15-.3-.27-.58-.39-.83h0v-.02c-.55-1.18-1.11-2.4-1.68-3.65h0c-.23-.52-.47-1.04-.71-1.57h0c-.39-.88-.8-1.79-1.21-2.72h0l-.13-.31-.11-.21v-.02l-.14-.31h0c-2-4.51-4.1-9.35-6.21-14.41h0c-.35-.82-.7-1.65-1.05-2.48h0c-.09-.21-.18-.42-.27-.64v-.03c-.06-.14-.14-.32-.2-.5-.2-.46-.38-.91-.57-1.37-.32-.76-.64-1.52-.95-2.3h0c-.45-1.1-.91-2.21-1.35-3.31-.23-.56-.46-1.11-.68-1.67,4.02,12.07,10.62,31.83,14.43,42.7,5.73,16.38,10.13,40.14,16.13,41.51,.26,.06,.51,.09,.76,.09,5.58,0,9.38-14.47,10.42-36.95,1.03-22.12-.43-42.5-6.61-71.06"/><path class="cls-9" d="M86.77,112.14c2.25,19.75,3.49,38.24,2.35,48.32-1.92,16.87-3.29,34.27-8.29,34.27-2.12,0-4.9-3.14-8.64-10.79-6.07-12.41-14.94-32.84-22.74-52.94,.12,.36,1.46,4.4,3.4,10.24,.23,.56,.45,1.11,.68,1.67,.44,1.11,.89,2.21,1.35,3.31h0c.31,.78,.63,1.55,.95,2.3,.19,.46,.37,.91,.57,1.37,.07,.18,.14,.35,.19,.5v.03c.1,.21,.19,.42,.29,.64h0c.35,.83,.7,1.67,1.05,2.49h0c2.11,5.05,4.21,9.89,6.21,14.4h0l.13,.31v.02l.11,.21,.13,.3h0c.41,.94,.82,1.85,1.21,2.72h0c.24,.53,.48,1.06,.71,1.57h0c.56,1.25,1.13,2.47,1.67,3.65h0v.02c.13,.25,.25,.53,.4,.83,.76,1.65,1.5,3.21,2.2,4.68h0v.03c.11,.19,.21,.43,.35,.68,.2,.42,.4,.83,.59,1.23h0c1.88,3.85,3.53,6.57,5,8.38,.74,.9,1.44,1.57,2.12,2.03,.69,.46,1.37,.71,2.06,.71h.01c.8,0,1.53-.37,2.13-.95,1.04-1.03,1.81-2.72,2.48-4.92,2-6.58,3.01-17.87,4.28-28.94,.3-2.6,.44-5.72,.44-9.26,0-.82,0-1.66-.02-2.53-.02-1.23-.05-2.53-.09-3.84-.03-.9-.08-1.83-.12-2.77h0c-.03-.81-.08-1.61-.12-2.45-.05-.82-.09-1.65-.15-2.5-.02-.44-.05-.86-.08-1.29-.03-.42-.06-.86-.09-1.3-.12-1.73-.26-3.51-.41-5.32h0c-.03-.39-.06-.77-.09-1.15-.05-.53-.09-1.06-.14-1.59-.17-1.84-.35-3.72-.53-5.61h0c-.06-.59-.12-1.17-.18-1.76h0c-.05-.55-.11-1.1-.17-1.65-.38-1.76-.78-3.56-1.2-5.38"/><path class="cls-2" d="M127.99,109.44c6.83,31.03,16.14,76.96,16.83,99.62,.87,28.58-4.1,50.68-6.2,58.62,4.6,.25,9.19,.58,13.74,1,2.76,.25,5.51,.54,8.24,.86v-.15c0-5.24-.44-35.51-9.83-90.81-3.53-20.86-12.38-45.54-22.79-69.14"/><path class="cls-9" d="M127.33,106.46c.22,.97,.44,1.97,.66,2.97,10.41,23.59,19.26,48.28,22.79,69.14,9.38,55.3,9.83,85.57,9.83,90.81v.15c-2.73-.32-5.47-.61-8.24-.86,2.97,.27,5.92,.58,8.84,.93,.01-4.58-.3-34.96-9.84-91.14-3.69-21.75-13.11-47.57-24.04-72.01"/><path class="cls-2" d="M25.63,20.58c-6.62,9.61-17.1,28.23-18.92,52-.36,4.66-.52,9.43-.52,14.27,0,31.85,6.95,66.61,9.8,93.2,2.43,22.73,7.6,45.71,7.6,69.43,0,7.86-.57,15.8-1.99,23.84,1.67-.24,5.77-.81,11.73-1.5h0l.21-.02c3.31-15.59,4.83-34.37-1.76-59.46-11.47-43.69-17.46-74.59-21.74-104.23-2.82-19.48,4.88-59.65,15.59-87.52"/><path class="cls-9" d="M33.54,271.8l-.21,.02,.21-.02h0M26.56,18.22c-6.46,8.91-18.48,28.6-20.45,54.31-2.73,35.5,6.01,77,9.28,107.58,3.25,30.39,11.35,61.1,5.58,93.3,.14-.02,.35-.05,.63-.09,1.43-8.04,1.99-15.98,1.99-23.84,0-23.72-5.17-46.7-7.6-69.43-2.85-26.59-9.8-61.35-9.8-93.2,0-4.84,.16-9.61,.52-14.27,1.82-23.77,12.29-42.39,18.92-52,.31-.8,.62-1.58,.93-2.36"/><path class="cls-4" d="M89.12,160.45c-2.73,24.03-4.37,49.15-16.93,23.48-12.56-25.67-37.14-85.74-39.32-105.95-1.56-14.41,1.33-40.5,2.91-56.46,1.91-6.77,3.46-13.33,3.46-16.88,0-4.41,2.23-4.91,5.23-2.91,3.31,2.17,7.54,7.34,10.79,13.64,3.09,5.99,10.89,21.53,17.95,35.56v.02c2.4,4.76,4.69,9.34,6.69,13.33h0c5.35,30.87,11.32,77.72,9.22,96.18Z"/><path class="cls-1" d="M89.12,160.45l-.6-.07c-.96,8.44-1.78,17-2.98,23.42-.6,3.21-1.3,5.88-2.12,7.69-.41,.91-.85,1.59-1.29,2.02-.45,.43-.85,.6-1.29,.61-.38,0-.83-.14-1.38-.51-1.66-1.09-3.93-4.24-6.71-9.94-6.27-12.81-15.55-34.24-23.53-54.97-3.99-10.37-7.66-20.56-10.46-29.42-2.8-8.85-4.74-16.38-5.27-21.35-.31-2.87-.45-6.23-.45-9.89,0-14.51,2.1-33.7,3.36-46.45l-.6-.06,.58,.17c.96-3.39,1.83-6.74,2.46-9.69,.63-2.95,1.02-5.5,1.03-7.36,0-1.34,.23-2.25,.54-2.75,.16-.25,.33-.41,.51-.52,.19-.1,.4-.16,.68-.16,.62,0,1.52,.33,2.56,1.02h0c3.15,2.06,7.38,7.19,10.58,13.41,3.09,5.99,10.89,21.52,17.94,35.55l.54-.27h-.61v.16l.06,.13c2.4,4.76,4.69,9.34,6.69,13.33l.54-.27h-.61v.12c4.61,26.49,9.65,64.82,9.65,86.71,0,3.58-.13,6.71-.43,9.28l.6,.07,.6,.07c.3-2.63,.43-5.8,.43-9.41,0-22.05-5.06-60.38-9.66-86.92l-.6,.1h.61v-.16l-.06-.13c-2-3.99-4.29-8.57-6.69-13.34l-.54,.27h.61v-.16l-.06-.13c-7.05-14.03-14.85-29.56-17.95-35.56-3.29-6.37-7.53-11.59-10.99-13.87h0C43.66,.47,42.59,0,41.58,0c-.44,0-.88,.1-1.26,.31-.58,.32-1.01,.88-1.28,1.61-.27,.73-.4,1.62-.4,2.73,0,1.69-.38,4.2-1,7.11-.62,2.91-1.48,6.24-2.44,9.61v.05l-.02,.05c-1.26,12.74-3.36,31.95-3.36,46.57,0,3.69,.13,7.09,.45,10.02,.56,5.13,2.51,12.69,5.32,21.59,8.44,26.67,24.62,65.27,34.05,84.56,1.88,3.85,3.53,6.58,5,8.38,.74,.9,1.44,1.57,2.12,2.03,.68,.46,1.37,.71,2.06,.71,.81,0,1.54-.37,2.14-.95,1.04-1.03,1.81-2.72,2.48-4.92,2-6.58,3.01-17.87,4.28-28.94l-.6-.07Z"/><path class="cls-6" d="M33.96,427.5c5.19,.85,9.97,1.12,14.29,1.02,18.02-.47,28.31-7.57,28.31-7.57l.24,.21,.18,.17c1.73,1.49,8.8,7.11,22.71,13.15,2.61,1.14,5.43,2.27,8.49,3.4,17.52,6.42,22.03,3.44,29.22,1.33,1.97-.59,4.16-1.11,6.87-1.33,5.04-.44,12.29-3.17,19.54-7.05,10.82-5.8,21.65-14.15,25.24-21.34,6.01-12.01,9.28-50.24,3.28-64.99-3.14-7.69-9.54-15.24-15.66-22.42-5.6-6.55-10.94-12.79-13.29-18.54-4.92-12.02-2.18-33.31-2.18-33.31-48.18-5.77-103.51-.67-127.81,2.2-7.92,.92-12.55,1.62-12.55,1.62-3.28,21.3-8.19,42.6-12.01,60.62C5.02,352.69,.1,375.62,.65,389.82c.55,14.2,6.55,33.31,33.31,37.68"/><path class="cls-3" d="M33.96,427.5l-.1,.6c4.52,.74,8.74,1.04,12.61,1.04,.6,0,1.2,0,1.79-.02,18.18-.48,28.57-7.63,28.64-7.68l-.34-.5-.4,.46,.24,.21,.18,.16h.01c1.77,1.54,8.9,7.2,22.86,13.26,2.62,1.14,5.45,2.28,8.53,3.41,8,2.93,13.35,3.93,17.51,3.93,5,0,8.22-1.45,12.09-2.58h0c1.95-.58,4.08-1.09,6.75-1.31,5.2-.46,12.47-3.22,19.77-7.12,5.44-2.92,10.88-6.47,15.43-10.21,4.55-3.75,8.2-7.67,10.07-11.39,1.94-3.88,3.55-10.26,4.7-17.69,1.15-7.43,1.83-15.9,1.83-23.88,0-9.49-.94-18.27-3.23-23.91-3.2-7.83-9.64-15.41-15.76-22.59-5.6-6.55-10.91-12.77-13.19-18.37-2.28-5.55-2.9-13.28-2.9-19.84,0-3.65,.19-6.94,.38-9.32,.09-1.19,.19-2.15,.26-2.81,.07-.66,.12-1.02,.12-1.02l.08-.61-.61-.07c-16.01-1.92-32.8-2.63-48.97-2.63-32.6,0-62.72,2.91-78.97,4.83-7.93,.93-12.56,1.63-12.56,1.63l-.44,.07-.07,.44c-3.27,21.27-8.18,42.56-12.01,60.58C4.62,351.64,0,373.15,0,387.56c0,.78,.01,1.55,.04,2.29,.28,7.17,1.93,15.62,6.93,22.85,5,7.24,13.38,13.21,26.89,15.41l.1-.6,.1-.6c-13.25-2.17-21.26-7.94-26.08-14.9-4.83-6.96-6.45-15.18-6.72-22.2-.03-.73-.04-1.47-.04-2.24,0-14.17,4.59-35.68,8.22-52.77,3.82-18.01,8.74-39.32,12.02-60.65l-.6-.09,.09,.6s1.15-.17,3.29-.46c2.14-.29,5.28-.7,9.23-1.16,16.23-1.91,46.31-4.82,78.83-4.82,16.14,0,32.88,.72,48.83,2.62l.07-.6-.6-.08s-.76,5.93-.76,13.32c0,6.65,.6,14.47,2.99,20.3,2.42,5.9,7.79,12.14,13.39,18.7,6.11,7.17,12.47,14.7,15.55,22.26,2.18,5.34,3.15,14.06,3.14,23.46,0,7.92-.67,16.33-1.81,23.7-1.14,7.36-2.76,13.68-4.59,17.34-1.73,3.47-5.28,7.32-9.76,11-4.47,3.68-9.85,7.2-15.23,10.08-7.2,3.86-14.42,6.56-19.3,6.99-2.76,.23-5,.76-6.99,1.36h0c-3.98,1.17-7,2.53-11.75,2.53-3.96,0-9.16-.95-17.09-3.86-3.05-1.12-5.86-2.25-8.46-3.38-13.85-6.01-20.87-11.61-22.56-13.06l-.4,.46,.41-.45-.18-.17h0l-.25-.22-.35-.31-.39,.27-.11,.07c-1.13,.74-11.12,6.95-27.87,7.39-.58,.01-1.16,.02-1.76,.02-3.81,0-7.96-.3-12.42-1.03l-.1,.6"/><path class="cls-3" d="M76.97,421.4s4.34-4.02,8.81-8.77c2.24-2.38,4.51-4.93,6.31-7.28,.9-1.17,1.68-2.3,2.27-3.32,.6-1.03,1.01-1.96,1.18-2.8,.49-2.61,1.04-7.46,1.04-12.76-.01-6.73-.86-14.15-4.06-18.65l-.99,.71c2.92,4.05,3.84,11.33,3.83,17.95,0,5.21-.55,10.01-1.02,12.53-.11,.61-.47,1.46-1.03,2.42-1.96,3.38-6.27,8.19-10.07,12.11-1.9,1.96-3.68,3.71-4.98,4.96-.65,.63-1.18,1.13-1.55,1.48-.37,.35-.57,.54-.57,.54l.83,.89"/><path class="cls-3" d="M140.82,426.29s-6.01-4.46-12.84-9.38c-3.42-2.46-7.04-5.03-10.22-7.22-3.18-2.19-5.91-3.99-7.59-4.92-6.63-3.68-15.02-6.23-15.05-6.24l-.35,1.16s.51,.16,1.4,.45c2.64,.88,8.56,2.99,13.41,5.69,1.6,.89,4.33,2.68,7.49,4.86,4.75,3.27,10.51,7.42,15.08,10.74,2.28,1.66,4.27,3.12,5.69,4.16,1.41,1.04,2.26,1.67,2.26,1.67l.72-.97"/><path class="cls-10" d="M95.37,399.88c-.21,.66-.56,1.38-1,2.14-.6,1.03-1.37,2.15-2.27,3.32-1.8,2.35-4.07,4.91-6.31,7.28-3.58,3.8-7.07,7.13-8.32,8.31,1.82,1.55,8.83,7.07,22.48,12.99,2.6,1.13,5.41,2.27,8.46,3.38,7.92,2.9,13.13,3.86,17.09,3.86,4.3,0,7.19-1.12,10.66-2.2-3.62-.73-7.58-1.62-11.71-2.72-11.75-3.13-29.23-11.62-38.17-16.16,0,0,5.92-11.42,9.71-13.6,.23-.13,.58-.2,1.01-.2,5.29,0,24.44,9.18,32.22,13.02-3.95-2.86-8.36-6.01-12.14-8.61-3.17-2.18-5.9-3.98-7.49-4.86-4.85-2.7-10.77-4.81-13.41-5.69-.31-.1-.58-.19-.79-.26m2.92-.29c1.41,.5,3.19,1.16,5.1,1.96-1.83-.86-3.56-1.53-5.1-1.96"/><path class="cls-8" d="M77.46,420.94c-.21,.2-.36,.34-.43,.41,2.84,2.34,12.77,9.79,31.16,16.54,7.96,2.92,13.24,3.89,17.3,3.89,4.87,0,8-1.41,11.92-2.56-.42-.08-.84-.16-1.26-.25-3.47,1.08-6.35,2.2-10.66,2.2-3.96,0-9.16-.95-17.09-3.86-3.05-1.12-5.86-2.25-8.46-3.38-13.64-5.92-20.66-11.44-22.48-12.99"/><path class="cls-8" d="M94.94,399.11c-.07,.16-3.63,7.89-14.86,18.45l-3.53,3.39c.13,.11,.28,.24,.47,.39,.07-.07,.22-.21,.43-.41,1.25-1.18,4.74-4.51,8.32-8.31,2.24-2.38,4.51-4.93,6.31-7.28,.9-1.17,1.68-2.3,2.27-3.32,.44-.77,.79-1.48,1-2.14-.39-.12-.6-.19-.6-.19l.18-.58"/><path class="cls-8" d="M95.19,399.1c-.08,0-.17,0-.25,0h0l-.18,.58s.22,.07,.6,.19c.21,.07,.48,.16,.79,.26,2.64,.88,8.56,2.99,13.41,5.69,1.6,.89,4.33,2.68,7.49,4.86,3.78,2.6,8.19,5.75,12.14,8.61,2.05,1.01,3.31,1.65,3.31,1.65,0,0-16.96-13.71-29.13-19.41-1.91-.79-3.68-1.45-5.1-1.96-1.14-.31-2.18-.48-3.1-.48"/><path class="cls-10" d="M33.26,273.05c-3.86,.45-6.92,.85-9.02,1.13-1.37,.19-2.34,.32-2.85,.4-3.28,21.18-8.16,42.32-11.95,60.21-3.63,17.09-8.22,38.6-8.22,52.77,0,.77,.01,1.52,.04,2.24,.27,7.03,1.89,15.24,6.72,22.2,4.83,6.96,12.84,12.73,26.08,14.9l-.1,.6h0l.1-.6c4.46,.73,8.6,1.03,12.42,1.03,.11,0,.21,0,.32,0-13.3-5.48-31.22-15.73-35.23-32.11-6.55-26.76,9.83-71.54,14.2-93.39,1.76-8.78,4.93-18.01,7.34-28.73,.05-.22,.1-.44,.15-.66"/><path class="cls-8" d="M34.06,426.91l-.1,.6c4.49,.74,8.67,1.04,12.52,1.04,.6,0,1.19,0,1.77-.02-.48-.19-.96-.38-1.45-.59-.11,0-.21,0-.32,0-3.81,0-7.96-.3-12.42-1.03m-.66-154.48c-7.92,.92-12.55,1.62-12.55,1.62-3.28,21.3-8.19,42.6-12.01,60.62C5.02,352.69,.1,375.62,.65,389.82c.55,14.2,6.55,33.31,33.31,37.68h0l.1-.6c-13.25-2.17-21.26-7.94-26.08-14.9-4.83-6.96-6.45-15.18-6.72-22.2-.03-.73-.04-1.47-.04-2.24,0-14.17,4.59-35.68,8.22-52.77,3.79-17.89,8.67-39.03,11.95-60.21,.52-.07,1.48-.21,2.85-.4,2.11-.29,5.16-.68,9.02-1.13,.05-.21,.1-.42,.14-.63"/><path class="cls-10" d="M177.84,324.37c3.83,7.66,7.51,15.57,9.22,20.85,4.37,13.47,5.82,46.97-1.82,58.25-4.25,6.28-13.24,17.43-20.38,26.09,4.93-2.74,9.8-5.98,13.91-9.36,4.47-3.68,8.03-7.53,9.76-11,1.83-3.66,3.45-9.98,4.59-17.34,1.14-7.36,1.81-15.78,1.81-23.7,0-9.4-.96-18.11-3.14-23.46-2.81-6.89-8.35-13.76-13.94-20.35"/><path class="cls-8" d="M176.68,322.07c.39,.76,.77,1.53,1.16,2.3,5.59,6.59,11.13,13.46,13.94,20.35,2.18,5.34,3.15,14.06,3.14,23.46,0,7.92-.67,16.33-1.81,23.7-1.14,7.36-2.76,13.68-4.59,17.34-1.73,3.47-5.28,7.32-9.76,11-4.1,3.38-8.98,6.62-13.91,9.36-.35,.43-.7,.85-1.04,1.26,10.82-5.8,21.65-14.15,25.24-21.34,6.01-12.01,9.28-50.24,3.28-64.99-3.14-7.69-9.54-15.24-15.66-22.42"/></g></svg>