<?xml version="1.0" encoding="UTF-8"?><svg id="Layer_2" xmlns="http://www.w3.org/2000/svg" viewBox="0 0 161.67 412.91"><defs><style>.cls-1{fill:#918a53;}.cls-2{fill:#b5aa77;}.cls-3{fill:#caccb6;}.cls-4{fill:#b1aa6e;}.cls-5{fill:#afa05f;}.cls-6{fill:#f1f4e5;}.cls-7{fill:#c9bd84;}.cls-8{fill:#b5b7a3;}.cls-9{fill:#9d9055;}.cls-10{fill:#d8dbce;}</style></defs><g id="Layer_3"><path class="cls-4" d="M90.38,96.19c-15.87-27.88-45.92-64.52-52.43-73.87-1.74-2.48-3.52-4.85-5.3-7.06,1.01-4.12,2.54-7.7,4.86-8.2,5.79-1.23,14.2,7.01,28.93,33.48,9.72,17.46,18.42,39.64,23.95,55.63Z"/><path class="cls-1" d="M90.38,96.19l.51-.29c-7.96-13.98-19.45-30.12-29.76-43.94-10.31-13.82-19.47-25.33-22.7-29.97h0c-1.75-2.5-3.54-4.87-5.33-7.09l-.45,.37,.57,.14c.5-2.03,1.12-3.92,1.89-5.32,.38-.7,.79-1.27,1.22-1.69,.43-.41,.86-.66,1.31-.76h0c.32-.07,.66-.1,1-.1,1.28,0,2.76,.49,4.5,1.66,5.22,3.5,12.47,13.06,22.79,31.64,9.69,17.41,18.39,39.56,23.9,55.54l.55-.19,.51-.29-.51,.29,.55-.19c-5.53-16.02-14.24-38.22-23.99-55.73-6.91-12.42-12.44-20.84-16.99-26.2-2.28-2.68-4.31-4.59-6.17-5.84-1.86-1.25-3.56-1.86-5.15-1.86-.43,0-.84,.04-1.25,.13h0c-.71,.15-1.34,.54-1.88,1.06-1.62,1.58-2.65,4.43-3.43,7.57l-.07,.28,.18,.23c1.77,2.2,3.55,4.55,5.28,7.02h0c3.28,4.71,12.41,16.19,22.72,30,10.3,13.8,21.77,29.92,29.68,43.82l1.06-.48-.55,.19Z"/><path class="cls-7" d="M142.34,285.27s-3.97,.69-11.06,1.07c-7.48,.39-18.42,.44-31.8-1.07-26.03-2.94-52.86-13.65-62.59-16.54-.28-.09-.57-.16-.86-.23-4.53-1.13-10.08-.8-14.7-.15-5.32,.75-9.42,1.96-9.42,1.96,0,0,1.58-33.92,3.68-57.06,2.1-23.14,3.42-103.35,1.05-120.44-1.07-7.74-2.91-18.26-5-29.58h0c-2.53-13.66-5.45-28.5-7.89-41.16C1.27,9.19,3.67,3.81,7.18,1.74,9.99,.09,13.52,.56,15.85,1.02c5.26,1.05,14.2,9.99,22.09,21.3,7.26,10.42,43.77,54.76,57.28,83.05,1.17,2.43,2.15,4.73,2.94,6.88,9.99,27.35,9.82,43.48,20.34,90.46s23.84,82.54,23.84,82.54"/><path class="cls-5" d="M142.34,285.27l-.1-.58s-.24,.04-.72,.11c-1.43,.21-4.98,.66-10.27,.95-2.62,.14-5.67,.23-9.1,.23-6.33,0-13.96-.32-22.61-1.3-12.96-1.46-26.15-4.86-37.3-8.26-11.16-3.4-20.28-6.79-25.18-8.25l-.17,.56,.18-.56c-.3-.09-.6-.17-.89-.24h0c-2.22-.55-4.65-.76-7.09-.76-2.69,0-5.39,.26-7.83,.6h0c-5.36,.75-9.49,1.97-9.51,1.98l.17,.56,.58,.03s.1-2.12,.28-5.66c.54-10.62,1.82-34.04,3.4-51.38,1.31-14.45,2.32-50.98,2.32-80.64,0-17.98-.37-33.4-1.27-39.93-1.07-7.76-2.91-18.28-5-29.61l-.57,.11h.58v-.12c-2.54-13.65-5.46-28.49-7.9-41.15-.71-3.65-1.01-6.69-1.01-9.19,0-3.13,.48-5.43,1.23-7.1,.76-1.67,1.77-2.73,2.92-3.41h0c1.37-.8,2.96-1.07,4.5-1.07,1.37,0,2.69,.21,3.77,.43,1.19,.24,2.68,.95,4.35,2.09,5,3.41,11.49,10.53,17.38,18.97,3.66,5.25,14.59,18.92,26.31,34.83,11.71,15.91,24.21,34.06,30.93,48.14h0c1.16,2.41,2.13,4.7,2.91,6.83,4.98,13.64,7.43,24.46,9.95,37.77,2.52,13.31,5.11,29.11,10.37,52.61,10.53,47.03,23.86,82.61,23.87,82.62l.55-.2-.1-.58,.1,.58,.55-.21s-.21-.55-.59-1.61c-2.69-7.43-14.03-39.78-23.23-80.85-5.26-23.48-7.84-39.24-10.36-52.58-2.52-13.33-4.99-24.25-10-37.96-.8-2.17-1.78-4.49-2.96-6.94h0c-6.79-14.22-19.31-32.39-31.04-48.33-11.73-15.93-22.69-29.64-26.29-34.81-3.96-5.68-8.19-10.77-12.1-14.58-1.96-1.91-3.84-3.5-5.58-4.69-1.74-1.19-3.34-1.98-4.78-2.27-1.12-.22-2.51-.45-4-.45-1.67,0-3.47,.29-5.09,1.24h0c-1.35,.8-2.56,2.07-3.39,3.94-.84,1.87-1.33,4.34-1.33,7.58,0,2.6,.32,5.71,1.03,9.42,2.44,12.65,5.36,27.5,7.89,41.13l.58-.11h-.58v.12c2.1,11.32,3.94,21.83,5,29.56,.88,6.37,1.26,21.82,1.26,39.77,0,29.63-1.01,66.17-2.31,80.53-2.11,23.16-3.68,57.09-3.68,57.09l-.04,.82,.79-.23s.25-.07,.71-.2c1.39-.37,4.67-1.19,8.63-1.74h0c2.4-.34,5.05-.59,7.67-.59,2.37,0,4.72,.21,6.81,.73h0c.29,.07,.57,.14,.83,.22h0c4.83,1.44,13.98,4.84,25.18,8.25,11.2,3.41,24.44,6.83,37.51,8.31,8.7,.98,16.38,1.3,22.74,1.3,3.45,0,6.52-.1,9.16-.23,7.11-.38,11.11-1.07,11.13-1.07l.7-.12-.25-.66-.55,.21"/><path class="cls-2" d="M7.02,2.54c-.96,.68-1.82,1.67-2.47,3.12-.75,1.67-1.23,3.97-1.23,7.1,0,2.51,.31,5.54,1.01,9.19,2.44,12.65,5.36,27.5,7.89,41.15v.07c.16,.8,.31,1.6,.45,2.4,7.39,19.68,17.37,102.71,15.37,130.5-1.63,22.49-5.13,57.12-6.64,71.69,2.4-.34,5.05-.58,7.69-.58,2.4,0,4.78,.2,6.97,.73,.63-16.99,1.58-49.46,.84-75.69-1.05-37.34-5-75.74-11.31-103.08C19.27,61.77,8.49,30.48,6.65,21.14c-1.13-5.7-.68-12.99,.37-18.6"/><path class="cls-9" d="M29.08,267.17c-2.64,0-5.28,.25-7.69,.58h0c2.41-.33,5.05-.58,7.68-.58,2.4,0,4.79,.2,6.98,.73h0c-2.19-.53-4.57-.73-6.97-.73M7.18,1.74C3.67,3.81,1.27,9.19,3.76,22.06c2.44,12.65,5.36,27.5,7.89,41.14h0c.34,.65,.68,1.43,1.03,2.36-.15-.79-.29-1.59-.44-2.4v-.07c-2.54-13.65-5.46-28.49-7.9-41.15-.71-3.65-1.01-6.69-1.01-9.19,0-3.13,.48-5.43,1.23-7.1,.65-1.45,1.51-2.44,2.47-3.12,.05-.27,.1-.54,.15-.8"/><path class="cls-2" d="M96.14,108.78c1.17,4.42,2.26,8.77,3.08,12.43,3.11,13.94,9.99,63.9,16.04,102.56,4,25.53,11.32,49,15.83,62,1.27-.07,2.43-.14,3.5-.22,3.27-.25,5.57-.54,6.75-.7,.08-.01,.15-.02,.22-.03-1.87-5.11-13.93-38.68-23.62-81.95-5.26-23.51-7.85-39.3-10.37-52.61-2.52-13.31-4.96-24.14-9.95-37.77-.43-1.18-.93-2.41-1.48-3.69"/><path class="cls-9" d="M141.33,284.83c-1.18,.17-3.48,.46-6.75,.7,3.27-.25,5.57-.54,6.75-.7M95.23,105.38c.31,1.13,.61,2.27,.91,3.4,.55,1.27,1.04,2.51,1.48,3.69,4.98,13.64,7.43,24.46,9.95,37.77,2.52,13.31,5.11,29.11,10.37,52.61,9.69,43.27,21.75,76.84,23.62,81.95,.14-.02,.26-.04,.36-.05,.1-.02,.17-.03,.23-.04-1.72-4.69-13.89-38.43-23.64-81.99-10.52-46.98-10.34-63.11-20.34-90.46-.79-2.15-1.77-4.46-2.94-6.88"/><path class="cls-6" d="M158.12,380.14c-.16,.29-.34,.6-.54,.89-6.75,10.99-24.7,23.01-37.68,25.41-2.45,.45-4.65,.82-6.6,1.14-.54,.09-1.07,.18-1.58,.25h-.01c-7.64,1.18-11.79,1.56-16.35,3.17-5.96,2.1-24.54,2.45-29.45-4.56-4.91-7.01-11.92-11.22-11.92-11.22,0,0-5.96,.7-23.84,0-5.55-.22-10.64-1.26-14.96-3.26-9.6-4.43-15.46-13.6-14.49-29.04,1.4-22.4-1.05-41.86,11.22-92.61,0,0,14.38-4.21,24.12-1.81,.29,.07,.58,.15,.86,.23,9.73,2.89,36.55,13.6,62.59,16.54,26.03,2.92,42.87,0,42.87,0,0,0,5.96,17.74,11.57,40.18,5.61,22.44,10.52,43.48,4.21,54.7"/><path class="cls-3" d="M158.12,380.14l-.51-.28c-.16,.29-.32,.57-.51,.84h-.01v.03c-3.31,5.38-9.44,11.1-16.34,15.75-6.9,4.65-14.59,8.22-20.95,9.39-2.45,.45-4.64,.82-6.59,1.14h0c-.54,.09-1.06,.17-1.57,.25l.08,.58v-.58h-.1c-7.62,1.19-11.81,1.57-16.45,3.2-2.12,.75-6.1,1.3-10.45,1.3-3.63,0-7.52-.37-10.85-1.28-3.34-.9-6.08-2.35-7.48-4.36-5-7.13-12.06-11.36-12.1-11.39l-.17-.1-.2,.02h-.12c-.58,.07-3.36,.31-9.53,.31-3.52,0-8.15-.08-14.11-.31-5.49-.22-10.5-1.24-14.74-3.21-4.36-2.01-7.91-5.01-10.38-9.15-2.47-4.14-3.87-9.46-3.87-16.13,0-1.03,.03-2.1,.1-3.2,1.41-22.47-1.05-41.8,11.2-92.51l-.57-.14,.17,.56s.13-.04,.38-.11c1.76-.48,9.32-2.42,16.62-2.42,2.37,0,4.72,.2,6.81,.72h0c.29,.07,.57,.14,.83,.22h0c4.83,1.44,13.98,4.84,25.18,8.25,11.2,3.41,24.44,6.83,37.51,8.31,8.7,.98,16.38,1.3,22.75,1.3,12.74,0,20.25-1.3,20.28-1.31l-.1-.58-.55,.19s.37,1.1,1.02,3.11c1.94,6.03,6.34,20.21,10.54,37.02,3.74,14.95,7.15,29.27,7.15,40.37,0,5.55-.85,10.29-2.89,13.89h0l.51,.29,.51,.29c2.17-3.87,3.03-8.8,3.04-14.47,0-11.33-3.45-25.69-7.19-40.66-5.62-22.46-11.58-40.21-11.58-40.22l-.16-.48-.49,.09s-.11,.02-.34,.05c-1.58,.25-8.67,1.24-19.75,1.24-6.33,0-13.96-.32-22.62-1.29-12.96-1.46-26.14-4.86-37.3-8.26-11.16-3.4-20.28-6.79-25.18-8.25l-.17,.56,.18-.56c-.3-.09-.6-.17-.89-.24h0c-2.22-.55-4.65-.76-7.09-.76-8.57,0-17.3,2.57-17.33,2.57l-.32,.1-.08,.33C-.95,320.97,1.5,340.55,.1,362.88c-.07,1.12-.1,2.21-.1,3.27,0,6.83,1.44,12.37,4.04,16.73,2.6,4.36,6.35,7.52,10.9,9.61l.04,.02-.04-.02c4.41,2.04,9.57,3.09,15.18,3.31,5.97,.23,10.61,.31,14.15,.31,7.08,0,9.75-.31,9.78-.32l-.07-.58-.3,.5s.1,.06,.3,.19c1.38,.88,7.23,4.84,11.45,10.87,1.67,2.37,4.66,3.87,8.13,4.82,3.47,.94,7.45,1.32,11.16,1.32,4.45,0,8.49-.54,10.84-1.37,4.47-1.58,8.58-1.96,16.24-3.14l-.09-.58v.58h.1c.52-.08,1.05-.17,1.59-.26h0c1.96-.32,4.15-.69,6.62-1.14,6.61-1.22,14.39-4.86,21.39-9.57,7-4.72,13.23-10.5,16.68-16.1l-.5-.31,.48,.34c.22-.32,.41-.65,.57-.95l-.51-.28,.51,.29-.51-.29"/><path class="cls-10" d="M29.07,268.34c-7.3,0-14.87,1.94-16.62,2.42l-.06,.02C.23,321.24,2.68,340.54,1.27,362.95c-.07,1.1-.1,2.16-.1,3.2,0,6.67,1.4,11.98,3.87,16.13,2.35,3.94,5.68,6.85,9.75,8.85-3.25-7.25-4.94-15.82-5.7-23.96-1.4-15.08,2.1-57.85,6.31-77.14,3.46-15.84,15.15-20.19,19.21-21.24-1.76-.32-3.64-.45-5.55-.45"/><path class="cls-8" d="M29.07,267.76c-8.46,0-17.17,2.55-17.17,2.55C-.36,321.06,2.09,340.52,.69,362.92c-.96,15.44,4.89,24.62,14.49,29.04-.13-.27-.26-.55-.38-.83-4.08-2.01-7.4-4.91-9.75-8.85-2.47-4.14-3.87-9.46-3.87-16.13,0-1.03,.03-2.1,.1-3.2,1.4-22.42-1.04-41.71,11.12-92.18l.06-.02c1.76-.48,9.32-2.42,16.62-2.42,1.91,0,3.79,.13,5.55,.45,.88-.23,1.4-.3,1.4-.3-2.16-.53-4.55-.74-6.95-.74"/><path class="cls-3" d="M113.48,407.02c-10.42-3.45-20.58-7.99-28.74-12.35-4.08-2.18-7.66-4.31-10.51-6.23-2.85-1.92-4.98-3.64-6.13-4.95h0c-1.18-1.33-2.31-2.68-3.36-4.09-4.52-6.07-7.75-13.09-8.59-23.67-.35-4.36-.47-9.9-.47-15.34s.12-10.8,.23-14.79c.06-1.99,.12-3.65,.16-4.8,.04-1.16,.07-1.81,.07-1.81l-1.17-.05s-.47,10.53-.47,21.45c0,5.46,.12,11.02,.47,15.44,.85,10.78,4.19,18.08,8.82,24.28,1.08,1.45,2.23,2.82,3.42,4.17l.02,.02-.02-.02c1.28,1.44,3.46,3.19,6.35,5.14,8.68,5.85,23.8,13.51,39.54,18.72l.37-1.11"/><path class="cls-3" d="M54.34,395.68c4.6-3.52,7.87-9.06,10.47-15.72l-1.09-.43c-2.56,6.57-5.76,11.91-10.1,15.22l.71,.93"/><path class="cls-10" d="M59.13,297.04s-2.7,7.8-3.71,21.91l.73,.03s-.03,.65-.07,1.81c-.04,1.15-.1,2.81-.16,4.8-.12,3.99-.23,9.34-.23,14.79s.12,10.99,.47,15.34c.84,10.58,4.07,17.6,8.59,23.67,1.05,1.41,2.18,2.76,3.36,4.1h0c1.15,1.3,3.28,3.03,6.13,4.95,2.85,1.92,6.43,4.06,10.51,6.23,8.12,4.34,18.24,8.86,28.61,12.3,1.92-.32,4.06-.67,6.45-1.11,6.37-1.17,14.05-4.75,20.95-9.39,6.42-4.31,12.16-9.56,15.59-14.6-5.02,3.38-11.53,7.73-16.46,10.9-6.68,4.29-10.86,8.49-17.46,8.49-2.58,0-5.52-.64-9.13-2.17-12.86-5.45-38.45-24.73-42.31-38.23-3.86-13.5-12.68-46.63-11.86-63.82"/><path class="cls-8" d="M157.58,381.03c-.4,.27-.81,.55-1.24,.84-3.43,5.04-9.18,10.29-15.59,14.6-6.9,4.65-14.59,8.22-20.95,9.39-2.39,.44-4.53,.8-6.45,1.11l.14,.05-.18,.55c1.96-.32,4.15-.69,6.6-1.14,12.97-2.4,30.93-14.42,37.68-25.41"/><path class="cls-10" d="M100.15,403.26c3.41,1.63,6.83,3.09,10.26,4.17,.15-.02,.3-.05,.45-.07-3.64-1.26-7.24-2.65-10.71-4.1"/><path class="cls-8" d="M110.85,407.37c-.15,.02-.3,.05-.45,.07,.43,.14,.87,.27,1.3,.39h.01c.11-.02,.22-.03,.33-.05-.4-.14-.8-.27-1.2-.41"/><path class="cls-8" d="M55.42,318.95c-.31,4.33-.46,9.26-.32,14.73,.01,.51,.03,1.02,.03,1.52v.13c.22,8.97,.19,15.75,.51,21.21,.48,8.01,1.71,13.22,5.46,18.36l.03,.06,.03,.04c1.53,2.1,2.33,3.52,2.98,4.68l.67,.26c-.07,.18-.14,.36-.21,.54,.88,1.5,1.77,2.69,4.36,4.74l4.94,3.68c2.92,2.29,6.25,4.37,10.3,6.3,5.22,2.49,10.56,5.47,15.95,8.04,3.47,1.45,7.07,2.84,10.71,4.1,.4,.14,.8,.28,1.2,.41,.41-.06,.82-.13,1.25-.2h0l.18-.55-.14-.05c-10.37-3.44-20.48-7.96-28.61-12.3-4.08-2.18-7.66-4.31-10.51-6.23-2.85-1.92-4.98-3.64-6.13-4.95h0c-1.18-1.33-2.31-2.68-3.36-4.09-4.52-6.07-7.75-13.09-8.59-23.67-.35-4.36-.47-9.9-.47-15.34s.12-10.8,.23-14.79c.06-1.99,.12-3.65,.16-4.8,.04-1.16,.07-1.81,.07-1.81l-.73-.03"/><path class="cls-8" d="M64.14,379.7c.16,.28,.31,.55,.46,.8,.07-.18,.14-.36,.21-.54l-.67-.26"/></g></svg>