<svg version="1.1" xmlns="http://www.w3.org/2000/svg" xmlns:xlink="http://www.w3.org/1999/xlink"
     x="0px" y="0px" viewBox="5 3 88 92" xml:space="preserve">
    <path fill="white" d="M92.16,82.06c-0.79,0.92-1.92,1.4-3.05,1.4c-0.92,0-1.85-0.32-2.61-0.97L68.85,67.35c-0.43-0.37-0.98-0.58-1.55-0.58h-2.73l-3.01,18.52h4.65c1.72,0,3.12,1.41,3.12,3.12l0.33,3.46c0,1.72-1.41,3.12-3.12,3.12h-34.2c-1.72,0-3.12-1.41-3.12-3.12l0.33-3.46c0-1.72,1.41-3.12,3.12-3.12H49.2l-3.46-18.52h-1.1c-2.54,0-4.98-0.92-6.88-2.6L14.37,43.55c-1.61-1.42-1.81-3.86-0.47-5.52l-1.82-4.04c-1.9-0.06-3.54-1.47-3.84-3.41l-1.33-8.85c-0.33-2.19,1.18-4.23,3.37-4.56c2.19-0.33,4.23,1.18,4.56,3.37l1.33,8.85c0.23,1.5-0.41,2.93-1.53,3.79l1.55,3.45c1.2-0.25,2.5,0.04,3.48,0.92l23.38,20.62c0.44,0.38,1,0.6,1.58,0.6h12.12v-7.4h-5.52c-0.74,0-1.34-0.6-1.34-1.34s0.6-1.34,1.34-1.34h13.72c0.74,0,1.34,0.6,1.34,1.34s-0.6,1.34-1.34,1.34h-5.52v7.4h7.87c2.48,0,4.89,0.89,6.78,2.51l9.61,8.25c0.17-11.54,0.43-35.91-0.1-47.75c-0.28-6.21-2.54-10.24-6.92-12.32c-3.76-1.78-8.38-1.77-11.45-1.76c-0.23,0-0.46,0-0.68,0c-5.13,0-6.92,1.23-7.12,1.38c-0.02,0.02-0.01,0.01-0.05,0.04l-2.69,2.3c2.68,4.76,0.29,11.94-2.87,13.23c-3.42,1.39-4.59-0.61-4.59-0.61l-8.13-8.94c0,0-2.3-2.07,0.05-4.58c3.41-3.64,9.87-4.71,13.85-1.17l2.63-2.24C56.03,6.71,58.29,5,64.54,5c0.21,0,0.44,0,0.67,0c3.31-0.01,8.3-0.03,12.6,2.02c5.28,2.51,8.12,7.43,8.44,14.62c0.57,12.73,0.23,39.82,0.07,50.13l5.4,4.64C93.41,77.85,93.6,80.38,92.16,82.06z"/>
</svg>