<?xml version="1.0" encoding="UTF-8"?>
<svg id="Layer_1" data-name="Layer 1" xmlns="http://www.w3.org/2000/svg" viewBox="0 0 86.26 89.99">
  <defs>
    <style>
      .cls-1 {
        fill: #939598;
      }
    </style>
  </defs>
  <path class="cls-1" d="M85.3,77.06c-.79.92-1.92,1.4-3.05,1.4-.92,0-1.85-.32-2.61-.97l-17.65-15.14c-.43-.37-.98-.58-1.55-.58h-2.73l-3.01,18.52h4.65c1.72,0,3.12,1.41,3.12,3.12l.33,3.46c0,1.72-1.41,3.12-3.12,3.12H25.48c-1.72,0-3.12-1.41-3.12-3.12l.33-3.46c0-1.72,1.41-3.12,3.12-3.12h16.53l-3.46-18.52h-1.1c-2.54,0-4.98-.92-6.88-2.6L7.51,38.55c-1.61-1.42-1.81-3.86-.47-5.52l-1.82-4.04c-1.9-.06-3.54-1.47-3.84-3.41L.05,16.73c-.33-2.19,1.18-4.23,3.37-4.56s4.23,1.18,4.56,3.37l1.33,8.85c.23,1.5-.41,2.93-1.53,3.79l1.55,3.45c1.2-.25,2.5.04,3.48.92l23.38,20.62c.44.38,1,.6,1.58.6h12.12v-7.4h-5.52c-.74,0-1.34-.6-1.34-1.34s.6-1.34,1.34-1.34h13.72c.74,0,1.34.6,1.34,1.34s-.6,1.34-1.34,1.34h-5.52v7.4h7.87c2.48,0,4.89.89,6.78,2.51l9.61,8.25c.17-11.54.43-35.91-.1-47.75-.28-6.21-2.54-10.24-6.92-12.32-3.76-1.78-8.38-1.77-11.45-1.76h-.68c-5.13,0-6.92,1.23-7.12,1.38-.02.02,0,.01-.05.04l-2.69,2.3c2.68,4.76.29,11.94-2.87,13.23-3.42,1.39-4.59-.61-4.59-.61l-8.13-8.94s-2.3-2.07.05-4.58c3.41-3.64,9.87-4.71,13.85-1.17l2.63-2.24C49.17,1.71,51.43,0,57.68,0h.67c3.31-.01,8.3-.03,12.6,2.02,5.28,2.51,8.12,7.43,8.44,14.62.57,12.73.23,39.82.07,50.13l5.4,4.64c1.69,1.44,1.88,3.97.44,5.65Z"/>
</svg>