<?xml version="1.0" encoding="UTF-8"?>
<svg id="Layer_2" data-name="Layer 2" xmlns="http://www.w3.org/2000/svg" viewBox="0 0 276.51 276.5">
  <defs>
    <style>
      .cls-1 {
        fill: #fff;
      }

      .cls-2 {
        fill: #ffbc8a;
      }

      .cls-3 {
        fill: #c2c2c7;
      }

      .cls-4 {
        fill: #d6d6db;
      }

      .cls-5 {
        fill: #f2f2f7;
      }

      .cls-6 {
        fill: none;
        stroke: #3a3a3c;
        stroke-linecap: round;
        stroke-linejoin: round;
        stroke-width: 6.5px;
      }
    </style>
  </defs>
  <g id="Icons">
    <g>
      <circle class="cls-5" cx="138.26" cy="138.25" r="112.5"/>
      <g>
        <g>
          <polygon class="cls-4" points="144.06 233.55 135.81 254.25 133.26 253.25 113.26 253.25 113.26 233.25 143.26 233.25 144.06 233.55"/>
          <path class="cls-4" d="M162.71,213.25h-49.45v-11.35l-.45-1.2v-.05l75.45-26.25v41.8c-5.1-1.9-10.45-2.95-15.9-2.95h-8.25c-.45,0-.9,0-1.4.05v-.05Z"/>
          <path class="cls-4" d="M188.26,123.25v18.35c-7.65-.65-15.35.35-22.7,2.9l-52.3,18.2v-44.45c0-5.5,4.5-10,10-10h55c5.5,0,10,4.5,10,10v5Z"/>
          <path class="cls-2" d="M266.51,163.3c4.95,1.4,7.8,6.65,6.4,11.65-1.45,5-6.6,7.9-11.55,6.45l-50.7-14.8-16.55-4.85c-7.45-2.15-15.25-1.95-22.5.6l-73.05,25.4c-1,.35-2,.5-3,.5h-.35c-3.75-.15-7.2-2.55-8.5-6.35-1.65-4.95.95-10.3,5.8-12l20.75-7.2,52.3-18.2c7.35-2.55,15.05-3.55,22.7-2.9,3.7.3,7.4,1,11,2.05l67.25,19.65Z"/>
          <polygon class="cls-4" points="268.26 48.25 268.26 98.25 208.26 98.25 208.26 73.25 208.26 48.25 268.26 48.25"/>
          <path class="cls-1" d="M228.26,273.25h-100l7.55-19,8.25-20.7,3-7.6c2.75-6.4,8.85-11.95,15.65-12.65.5-.05.95-.05,1.4-.05h8.25c5.45,0,10.8,1.05,15.9,2.95,22.3,8.35,40,32.95,40,57.05ZM175.76,238.25c0-4.15-3.35-7.5-7.5-7.5s-7.5,3.35-7.5,7.5,3.35,7.5,7.5,7.5,7.5-3.35,7.5-7.5Z"/>
          <path class="cls-1" d="M210.66,166.6l-22.4,7.8-75.45,26.25v.05l-4.65,1.6-4.7.25c-3.7.2-7.35-1.2-10-3.75-2.35-2.25-3.8-5.3-4.15-8.55v-2h6.25c1,0,2-.15,3-.5l73.05-25.4c7.25-2.55,15.05-2.75,22.5-.6l16.55,4.85Z"/>
          <path class="cls-3" d="M168.26,230.75c4.15,0,7.5,3.35,7.5,7.5s-3.35,7.5-7.5,7.5-7.5-3.35-7.5-7.5,3.35-7.5,7.5-7.5Z"/>
          <path class="cls-2" d="M162.71,213.25v.05c-6.8.7-12.9,6.25-15.65,12.65l-3,7.6-.8-.3h-34.7c2.9-2.65,4.7-6.4,4.7-11.45v-8.55h49.45Z"/>
          <path class="cls-2" d="M135.81,254.25l-7.55,19H58.26c0-11.05,8.95-20,20-20h55l2.55,1Z"/>
          <path class="cls-1" d="M119.36,48.5c1.15,6.55-.3,13.25-4.1,18.7L61.96,30c3.8-5.4,9.55-9.15,16.1-10.3,6.5-1.15,13.25.3,18.7,4.1l6.5,4.55,5.8,4.05c5.45,3.8,9.15,9.6,10.3,16.1Z"/>
          <path class="cls-1" d="M89.31,190.25c.35,3.25,1.8,6.3,4.15,8.55,2.65,2.55,6.3,3.95,10,3.75l4.7-.25,4.65-1.6.45,1.2v19.9c0,5.05-1.8,8.8-4.7,11.45-3.75,3.4-9.3,5-15.3,5-11.45,0-20-5-20-17.7v-27.9c0-2.45,2.35-4.4,5.3-4.4h10.75v2Z"/>
          <path class="cls-2" d="M77.36,156.3c2.75,4.4,1.5,10.2-2.85,13.05-1.45.9-3.05,1.4-4.6,1.45h-.5c-3,0-6-1.55-7.75-4.3l-27.5-42.1c-2.75-4.35-1.5-10.2,2.8-13,4.35-2.85,10.1-1.55,12.9,2.85l27.5,42.05Z"/>
          <path class="cls-2" d="M33.36,86.75c2.8,4.4,1.55,10.25-2.8,13.05-1.45.9-3,1.4-4.6,1.45-.15.05-.35.05-.5.05-3.05-.05-6-1.6-7.75-4.35l-13-20.5c-2.75-4.4-1.5-10.25,2.85-13.05,4.3-2.8,10.1-1.55,12.85,2.85l12.95,20.5Z"/>
        </g>
        <g>
          <polyline class="cls-6" points="143.26 233.25 113.26 233.25 108.56 233.25"/>
          <polyline class="cls-6" points="113.26 213.25 162.71 213.25 163.26 213.25"/>
          <path class="cls-6" d="M113.26,201.9v19.9c0,5.05-1.8,8.8-4.7,11.45-3.75,3.4-9.3,5-15.3,5-11.45,0-20-5-20-17.7v-27.9c0-2.45,2.35-4.4,5.3-4.4h16.65"/>
          <path class="cls-6" d="M210.66,166.6l-22.4,7.8-75.45,26.25v.05l-4.65,1.6-4.7.25c-3.7.2-7.35-1.2-10-3.75-2.35-2.25-3.8-5.3-4.15-8.55-.05-.45-.05-.95-.05-1.4"/>
          <path class="cls-6" d="M144.06,233.55l3-7.6c2.75-6.4,8.85-11.95,15.65-12.65.5-.05.95-.05,1.4-.05h8.25c5.45,0,10.8,1.05,15.9,2.95,22.3,8.35,40,32.95,40,57.05h-100l7.55-19,8.25-20.7Z"/>
          <path class="cls-6" d="M210.66,166.6l-16.55-4.85c-7.45-2.15-15.25-1.95-22.5.6l-73.05,25.4c-1,.35-2,.5-3,.5h-.35c-3.75-.15-7.2-2.55-8.5-6.35-1.65-4.95.95-10.3,5.8-12l20.75-7.2,52.3-18.2c7.35-2.55,15.05-3.55,22.7-2.9,3.7.3,7.4,1,11,2.05l67.25,19.65c4.95,1.4,7.8,6.65,6.4,11.65-1.45,5-6.6,7.9-11.55,6.45l-50.7-14.8Z"/>
          <path class="cls-6" d="M69.41,170.8c-3,0-6-1.55-7.75-4.3l-27.5-42.1c-2.75-4.35-1.5-10.2,2.8-13,4.35-2.85,10.1-1.55,12.9,2.85l27.5,42.05c2.75,4.4,1.5,10.2-2.85,13.05-1.45.9-3.05,1.4-4.6,1.45h-.5Z"/>
          <line class="cls-6" x1="34.16" y1="114.25" x2="25.96" y2="101.25"/>
          <line class="cls-6" x1="77.41" y1="187.6" x2="69.91" y2="170.8"/>
          <path class="cls-6" d="M25.46,101.3c-3.05-.05-6-1.6-7.75-4.35l-13-20.5c-2.75-4.4-1.5-10.25,2.85-13.05,4.3-2.8,10.1-1.55,12.85,2.85l12.95,20.5c2.8,4.4,1.55,10.25-2.8,13.05-1.45.9-3,1.4-4.6,1.45-.15.05-.35.05-.5.05Z"/>
          <path class="cls-6" d="M103.26,28.35s21.1-18.55,25.9-21.8c7.15-4.85,16.85-4.3,23.35,1.25,3.4,2.9,5.45,4.7,11.45,9.8,5.9,5.05,9.3,12.3,9.3,19.9v70.75"/>
          <polygon class="cls-6" points="268.26 48.25 208.26 48.25 208.26 73.25 208.26 98.25 268.26 98.25 268.26 48.25"/>
          <line class="cls-6" x1="208.26" y1="73.25" x2="173.26" y2="73.25"/>
          <line class="cls-6" x1="188.26" y1="188.25" x2="188.26" y2="203.25"/>
          <path class="cls-6" d="M113.26,143.25v-25c0-5.5,4.5-10,10-10h55c5.5,0,10,4.5,10,10v5"/>
          <path class="cls-6" d="M128.26,273.25H58.26c0-11.05,8.95-20,20-20h55"/>
          <path class="cls-6" d="M115.26,67.2c3.8-5.45,5.25-12.15,4.1-18.7-1.15-6.5-4.85-12.3-10.3-16.1l-5.8-4.05-6.5-4.55c-5.45-3.8-12.2-5.25-18.7-4.1-6.55,1.15-12.3,4.9-16.1,10.3l53.3,37.2Z"/>
        </g>
      </g>
    </g>
  </g>
</svg>